M48
;Layer_Color=7618602
;FILE_FORMAT=4:4
METRIC,LZ
;TYPE=PLATED
T1F00S00C0.1500
%
T01
X00019Y00006
X00032
X00045
X00058
X00071
X00084
X00097
X0011
X00123
X00136
X001425Y00019
X001295
X001165
X001035
X000905
X000775
X000645
X000515
X000385
X000255
X000125
X00006Y00032
X00019
X00032
X00045
X00058
X00071
X00084
X00097
X0011
X00123
X00136
X001425Y00045
Y00071
Y00097
X001295
X001165
X0011Y00058
X00097
X00084
X00071
X00058
X00045
X00032
X00019
X00006
X000125Y00071
X000255
X000385
X00032Y00084
X00019
X00006
X000125Y00097
X000255
X00019Y0011
X00006
X000125Y00123
X000255
X00019Y00136
X00006
X000515Y00097
X000645Y00071
X000775
Y00045
X000905
X001035
X001165
X000645
X000515
X000385
X000255
X000125
X001555
X001685
X001815
X001945
X002075
X002205
X002335
X002465
X002595
X002725
X002855
X002985
X003115
X003245
X003375
X003505
X003635
X003765
X003895
X00383Y00058
X0037
X00357
X00344
X00331
Y00032
X00344
X00357
X0037
X00383
X003895Y00019
X003765
X003635
X003505
X003375
X003245
X003115
X002985
X002855
X002725
X002595
X002465
X002335
X002205
X002075
X001945
X001815
X001685
X001555
X00149Y00032
X00162
X00175
X00188
X00201
X00214
X00227
X0024
X00253
X00266
X00279
X00292
X00305
X00318
Y00006
X00331
X00344
X00357
X0037
X00383
X003895Y00071
X003765
X003635
X003505
Y00097
X003375
X003245
X00318Y00084
X002985Y00097
X002855
X002725
X002595
Y00071
X002465
X002335
X002205
X002075
X00201Y00084
X00214
X002205Y00097
X002335
X0024Y00084
Y00058
X00253
X00266
X00279
Y00006
X00292
X00305
X00266
X00253
X0024
X00227
X00214
X00201
X00188
X00175
X00162
X00149
Y00058
X00162
X00175
X001815Y00071
Y00097
X001685
X002075
X00201Y0011
X00214
X002205Y00123
X002335
X002075
X00214Y00136
X001815Y00123
X00149Y00136
X00201Y00058
X00214
X0037Y00084
X00383
X003895Y00097
X003765
X0037Y0011
X00383
X003895Y00123
X003765
X0037Y00136
X00383
X003895Y00149
X003765
X0037Y00162
X00383
X003895Y00175
X003765
X003635
X0037Y00188
X00383
X003895Y00201
X003765
X003635
X0037Y00214
X00383
X003895Y00227
X003765
X003635
X003505
X003375
X003245
X003115
X002985
X002855
X002725
X002595
X002465
X002335
X002205
X002075
X00201Y0024
X00214
X00227
X0024
X00253
X00266
X00279
X00292
X00305
X00318
X00331
X00344
X00357
X0037
X00383
Y00266
X0037
X00357
X00344
X00331
X003375Y00279
X003505
X003635
X003765
X0037Y00292
X00383
X003765Y00305
X003635
X003505
X003375
X003245
Y00331
X003375
X003505
X003635
X003765
X0037Y00344
X00383
X003765Y00357
X0037Y0037
X00383
X003765Y00383
X0037Y00396
X00383
X003765Y00409
X0037Y00422
X00383
X003765Y00435
X0037Y00448
X00383
X003765Y00461
X003635
X0037Y00474
X00383
X003765Y00487
X00383Y005
Y00526
X00357
X003505Y00539
X003375
X003245
X00331Y00526
Y005
X00344
X00305
Y00526
X002855Y00539
Y00513
Y00487
Y00461
X002985
X00292Y00448
X00305
X00318
X00331
X00344
X003505Y00435
X003375
X00344Y00422
X00357
X003505Y00409
X003375
X00331Y00396
X00344
X00357
Y0037
X00344
X00331
X00318
Y00396
X00305
X003115Y00409
X002985
Y00383
X002855
X002725
X002595
X002205
X001945
X001685
Y00357
X001555
X00149Y0037
X001555Y00331
X001685
X00149Y00292
Y00266
X001555Y00253
X00162Y0024
X00175
X00188
X001815Y00253
X002075
X002205
X002465
X002595
X002725
X002855
X002985
X003115
X003245
X003375
X003505
X003635
X00357Y00292
X00344
X003115Y00279
X002985
X00279Y00292
Y00266
X00266
Y00214
X002725Y00201
X00266Y00188
X00279
X002985Y00201
X00305Y00214
X00331
X003375Y00201
X00331Y00188
X00344
Y00162
X003505Y00149
X002985Y00175
X002465
X002335
X00227Y00188
X0024
X002335Y00201
X002205
X002075
X00201Y00214
X00214
X00227
X0024
X00214Y00188
X00201
X002075Y00175
X00214Y00162
X002205Y00149
X002335
X002595
X00253Y00162
X001815Y00175
X001685
X00162Y00188
X00175
Y00214
X00188
X00162
X00149
X001555Y00227
Y00201
X001815Y00149
X002075Y00305
X0024Y00318
X00292
Y00344
X00305
X00344
X00357
X003505Y00357
X003375
X0037Y00318
X00383
X00266Y00422
X00253
X0024
X00227
X00214
X002205Y00435
X002335
X002465
X002595
X002725
Y00461
X00266Y005
X00253
X002465Y00513
Y00539
X002595
X002075
X001815
X00149Y00474
X00227
X0024
X002075Y00409
X001295Y00383
Y00357
Y00331
Y00305
X00123Y00292
X00136
X001295Y00279
X00123Y00266
X0011
X00097
X00084
X00071
X00058
X00045
X00032
X00019
X00006
X000125Y00279
X000255
X000385
X000515
X000645
X000775
X000905
X00084Y00292
X00071
X00058
X00045
X00032
X00019
X00006
X000125Y00305
X000255
X000385
X000515
X00045Y00318
X00058
X000645Y00331
X000515
X000385
X000255
X000125
X00006Y00344
X00019
X00032
X00045
X00058
X000645Y00357
X000775
X000515
X000385
X000255
X000125
X00006Y0037
X00019
X00032
X00045
X00058
X000515Y00383
X000385
X000255
X000125
X00006Y00396
X00019
X00032
X00045
X00058
X00071
X00084
X00097
X001035Y00409
X000905
X000775
X000645
X000515
X000385
X000255
X000125
X00006Y00422
X00019
X00032
X000385Y00435
X000255
X000125
X00006Y00448
X00019
X00032
X00045
X00058
X00071
X00084
X00097
X001035Y00461
X000905
X00084Y00474
X00097
X001035Y00487
X001165
X001295
X000905
Y00513
X001035
X00097Y00526
X0011
X00123
X00136
X001035Y00539
X000905
X00084Y00526
X00071
X00058
X000645Y00513
X000775
X000515
X000385
X000255
X000125
X00006Y00526
X00019
X00032
X000385Y00539
X000255
X000125
X00006Y005
X00019
X00032
X00045
X00058
X000515Y00487
X000385
X000255
X000125
X00006Y00474
X00019
X00032
X00045
X00058
X000515Y00461
X000385
X000255
X000125
X00058Y00422
X00097
X001035Y00435
X000905
Y00383
X0011Y0037
X001035Y00331
X00084Y00318
X0011Y00292
Y0024
X00123
X00136
X001425Y00227
Y00201
X001295
X000905
Y00227
X00097Y0024
X000775Y00253
X000515
X000385
X000255
X000125
X00006Y0024
X00019
X00032
X000125Y00227
X00006Y00214
X00019
X000125Y00201
X00006Y00188
X00019
X00032
X000385Y00201
X000515
X00058Y00214
X000645Y00175
Y00149
X000775
X000905
X001035
X001165
X001295
X000515
X00045Y00162
X00032
X00019
X00006
X000125Y00175
X000255
X000385
X000255Y00149
X000125
X00006Y00318
X00019
X00032
Y00552
X00045
X00058
X000645Y00565
X000775
X000905
X001035
X00097Y00578
X001035Y00591
X000905
X00084Y00604
X00097
X001035Y00617
X000905
X00071Y0063
X00058
X00045
X00032
X00019
X00006
X000125Y00643
X000255
X000385
X00032Y00656
X00019
X00006
X000125Y00669
X000255
X000385
X00032Y00682
X00019
X00006
X000125Y00695
X000255
X000385
X00032Y00708
X00019
X00006
X000125Y00721
X000255
X000385
X00032Y00734
X00019
X00006
X000125Y00747
X000255
X000385
X00032Y0076
X00019
X00006
X000125Y00773
X00006Y00786
X000125Y00799
X000255
X000385
X000515
X00045Y00786
X000515Y00773
X000645
X00071Y0076
X00084
X00097
X0011
X00123
X00136
X001165Y00773
X001035
X000905
Y00747
X001035
X001165
Y00721
X001035
X000905
X000775
X000645
Y00747
X000775
Y00695
X000905
X001035
X001165
X001295
X001425
X000645
Y00669
X000775
Y00643
X000515Y00617
X000385
X000255
X000125
X00006Y00604
X00019
X00032
X00045
X00058
X000515Y00591
X000385
X000255
X000125
X00006Y00578
X00019
X00032
X000385Y00565
X000255
X000125
X00006Y00552
X00019
X00058Y00578
X00097Y00552
X0011Y00786
X001165Y00799
X001035
Y00825
X00123Y00838
X00136
Y00864
X00123
X001165Y00877
X0011Y0089
X00123
X00136
Y00916
X00123
X0011
X001165Y00929
X001035
X001165Y00903
Y00851
X000645Y00825
X000125
X00006Y00838
X00019
X000125Y00851
X00006Y00864
X00019Y0089
X00032
X00045
X000385Y00903
X00045Y00916
X000515Y00929
X000645
X000385
X000125
X00006Y00916
X00019
Y00812
X00006
X000385Y00773
X001685
X00162Y0076
X00188
X001945Y00773
X002075Y00799
X00213Y00805
X002235Y00812
Y008155
Y00819
Y008225
Y00826
X00227
Y008225
Y00819
X002305
X00234
Y008225
Y00826
X002375
X002305
Y008225
Y008155
X00234
Y00812
X002305
X00227
Y008155
X00241
Y00805
X002465Y00799
X00253Y00786
X002465Y00773
X002725
X002855
X002985
Y00799
X003115
X003245
X003375
X003505
X003635
X0037Y00786
X003635Y00773
X003505
Y00747
X003765
X003895
X003765Y00721
X00383Y00708
Y00682
Y00656
Y0063
X003765Y00617
X0037Y00604
X00383
X003765Y00591
X003635
X00357Y00604
X00344
X00331
X00318
X003245Y00617
X00318Y0063
X00331
X00344
X00357
X003635Y00643
X00357Y00656
X003505Y00669
X003375
X003245
X00331Y00656
X003245Y00643
X00305Y00656
Y00682
Y00708
X00331
X00344
X00357
X003505Y00695
X003375
X003245
X002855
Y00721
X00279Y00734
X00292
X00305
X002985Y00747
X003245
X002725
X00266Y0076
Y00734
X00253
X0024
X00227
X00214
X002205Y00747
X00227Y0076
X002465Y00747
X002595Y00721
Y00695
X00253Y00682
X0024
X00227
X002335Y00695
X002205
X002075
X00201Y00682
X00175
X001815Y00695
X001685
X001555
Y00721
X001815
X001945
X002075
X00188Y00734
X00175
X001815Y00747
X00175Y00708
X00214Y00656
X0024
X00253
X00266
X002595Y00669
X002465
X002335
X002465Y00643
X002595
X00253Y0063
X0024
X00279
X00292
X00305
Y00578
X00318
X00331
X003375Y00591
X003245
Y00565
X003375
X003505
X003635
X00383Y00578
Y00552
X00331
X00318
X00279
X00266
X002595Y00565
X00253Y00578
X0024
X002595Y00591
X00266Y00604
X00279Y00578
X00292
X00201
X00188
X00175
X001675Y00565
X002075Y00565
X00214Y00604
X002855Y00669
X00357Y00682
X00344Y00812
Y00838
X00357
X0037
X00383
X003895Y00851
X003765
X003635
X003505
X003635Y00825
X003765
X003895
X00318Y00812
Y00864
X00305
X00292
X00282986Y008701
X00277411Y00867775
X00271374Y00867606
X00265334
X00259294
X00253254
X00247214
X00244394Y00862265
Y00856225
X00243909Y00850204
X00233606Y00856548
Y00862588
X00233653Y00868628
X0023579Y00874277
X00240679Y00877824
X00246692Y00878394
X00252732
X00258772
X00264812
X00270852
X00276606Y0088023
Y00886271
Y0089231
Y00898351
X00276167Y00904374
X00278188Y00910066
X00279Y00916
X00285158Y00910503
X002925Y0091
X00292Y00916
X00305
X003025Y0091
Y009
X003125
X00312167Y00911898
X00312606Y00917922
Y00923962
Y00930002
Y00936042
X00323394Y00933964
Y00927924
Y00921884
Y00915844
X00325Y0091
Y009
X00318Y0089
X00305
X003115Y00877
X003245
X002985
X00286572Y0087496
X00287394Y00880944
Y00886984
Y00893024
Y00899064
X00266Y0089
X00253
X0024
Y00916
X00266
X002725Y00929
X002855
X002985
X002595
Y00903
X00214Y00916
X00201
X00188
X00175
X00162
X00149
X001555Y00929
X00149Y0089
X00162
X001555Y00877
X00149Y00864
Y00838
X001945Y00851
X0022Y00833
X002375Y008365
X002985Y00851
X001685Y00799
Y00955
Y00981
X001555
X00149Y00968
Y00942
X0024
X00266
X00279
X00292
X00305
X00312606Y00942082
Y00948122
Y00954162
Y00960202
X00312711Y00966241
X00313943Y00972154
X00316911Y00977415
X0032124Y00981627
X00326655Y00984303
X003326Y00985367
X0033864Y00985394
X0034468
X00349627Y0098886
X00355648Y00989333
X00357Y00994
X003635Y01007
X003765
X003895
X00383Y0102
X0037
X00357
X00344
X00331
X00318
X003245Y01033
X00324325Y01039606
X00318285
X00312245
X00306205
X00305262Y0103364
X003115Y01033
X00310141Y01050394
X00316181
X00322221
X00328261
X00334301
X00340341
X00346381
X00351707Y01053242
X00352106Y01059268
Y01065309
Y01071348
Y01077389
Y01083428
Y01089469
Y01095508
Y01101548
Y01107588
Y01113628
Y01119668
Y01125708
Y01131748
Y01137788
Y01143828
X00350201Y0114956
X00344161Y01149606
X00338121
X00332081
X00326041
X00320094Y01150663
X00315208Y01154213
X00312482Y01159603
X00312106Y01165631
Y01171671
Y01177711
Y01183751
Y01189791
Y01195831
X00307927Y01200192
X00307667Y01206227
X003115Y01215
X00318Y01228
X00326333Y01204548
X00325186Y01198618
X00322894Y0119303
Y0118699
Y0118095
Y0117491
Y0116887
Y0116283
X00328421Y01160394
X00334461
X00340501
X00346541
X00352573Y01160085
X00358028Y01157491
X00361713Y01152705
X00362894Y01146782
Y01140742
Y01134702
Y01128662
Y01122622
Y01116582
Y01110542
Y01104502
Y01098462
Y01092422
Y01086382
Y01080342
Y01074302
Y01068262
Y01062222
Y01056182
X00362085Y01050197
X00359091Y01044951
X00354318Y01041249
X00348484Y01039684
X00342445Y01039606
X00336405
X00330365
X003375Y01033
X003505
X003635
X003765
X003895
X00383Y01046
X0037
X003765Y01059
X003895
X00383Y01072
X0037
X003765Y01085
X003895
X00383Y01098
X0037
X003765Y01111
X003895
X00383Y01124
X0037
X003765Y01137
X003895
X00383Y0115
X0037
X003765Y01163
X003895
X00383Y01176
X0037
X00357
X00344
X00331
X003375Y01189
X003505
X003635
X003765
X003895
X00383Y01202
X0037
X00357
X00344
X00331
X00292
X00279
X00266
X002725Y01189
X002855
X002985
X00292Y01176
X00305
X002985Y01163
X002855
X00292Y0115
X00305
X003115Y01137
X003245
X003375
X00331Y01124
X00329116Y01118365
X00331983Y01113048
X00332894Y01107077
Y01101037
Y01094997
Y01088957
X00332672Y01082921
X003375Y01085
X00330717Y01077206
X00326663Y01072729
X00321223Y01070105
X00315203Y01069606
X00309179Y01069167
X00303316Y01070616
X00306443Y01080822
X00312468Y01080394
X00318507Y01080533
X00322106Y01085384
Y01091424
Y01097464
Y01103504
X00321798Y01109536
X00317738Y01114007
X00311728Y01114606
X00305688
X00299648
X00293608
X00287568
X00281528
X00275487
X00269447
X00263407
X00257367
X00251327
X00245287
X00239248
X00233208
X00227168
X00221163Y01115256
X00216058Y01118485
X00213073Y01123736
X00212541Y01129752
Y01135792
X00223329Y01134398
Y01128359
X00228591Y01125394
X00234631
X00240671
X00246711
X00252751
X00258791
X00264831
X00270871
X00276911
X00282951
X00288991
X00295031
X00301071
X00307111
X00313151
X00319171Y011249
X00324714Y01122499
X00344Y01124
X003375Y01111
X00344Y01098
Y01072
X003375Y01059
X003245
X003115
X002985
X00298077Y01050833
X00304101Y01050394
X002985Y01007
X003115
X003245
X003375
X003505
X00331Y00994
X00318
X00305
X00292
X002985Y00981
X003115
X00305Y00968
X00292
X00279
X00266
X002725Y00981
X002855
Y01007
Y00955
X002985
X00323394Y00952084
Y00946044
Y00940004
Y00958124
Y00964164
X00324813Y00970035
X00331Y00968
X00329468Y00973884
X00335465Y00974606
X00341505
X00347453Y00973559
X00352756Y00970667
X00357Y00968
X00366333Y00977548
Y00983588
X003765Y00981
X003895
X003635Y01163
Y01215
X003765
X003895
X00383Y01228
X0037
X00357
X00279
X00266
X002595Y01189
X002465
X002335
X002205
X00201Y01176
X00188
X001815Y01163
X001685
X001555
X00149Y01176
X00162
X001555Y01189
X00162Y01202
X00175
X00188Y01228
X00214
X00149
Y0115
X00162
X00175
X00188
X001815Y01137
X001685
X001555
X00162Y01124
X00175
X001555Y01111
X00223571Y01140434
X00224843Y01146338
X0024Y0115
X002465Y01137
X002595
X002855
X002985
X001295
X00123Y0115
X00136
X001425Y01163
Y01189
Y01215
X00123Y01202
X0011Y01228
X00084
X000775Y01215
Y01189
X000905
X000515
X000385
X000255
X000125
X00006Y01202
X00019
X00032
X00045
X000515Y01215
X00045Y01228
X00019
X00006
X000125Y01215
X00006Y01176
X00019
X00032
X00045
X00058
Y0115
X00084
X00097
X001035Y01111
X000905
X00058Y01124
X00019
X00006
X000125Y01137
X000255
X00019Y0115
X00032
X000385Y01163
X000255
X000125
X00006Y0115
X000125Y01111
X000255
X00019Y01098
X00032
X000255Y01085
X000125
X00006Y01098
Y01072
X00019
X00032
X000255Y01059
X000125
X00006Y01046
X00019
X00032
X000385Y01033
X000515
X000645
X000255
X000125
X00006Y0102
X00019
X00032
X000255Y01007
X000125
X00006Y00994
X00019
X00032
X000255Y00981
X000125
X00006Y00968
X00019
X00032
X000385Y00955
X000515
X000645
X00058Y00942
X00045
X00032
X00019
X00006
X000125Y00955
X000255
X00097Y00942
X0011
X00123
X00136
X001295Y00955
X00136Y00968
X001425Y00981
X00097Y01072
X00123Y01124
M30
