M48
;Layer_Color=7618602
;FILE_FORMAT=4:4
METRIC,LZ
;TYPE=PLATED
T1F00S00C0.1500
T2F00S00C0.1800
T3F00S00C0.2000
T4F00S00C0.3000
T5F00S00C0.5000
T6F00S00C1.0000
T7F00S00C1.1000
T8F00S00C1.2000
%
T01
X0023625Y0075025
X00236Y0076
X00245Y00792498
X00241Y008085
Y00812
Y00819
Y008225
Y00826
Y008295
X002375Y00833
X002305Y008295
X00227
X002235
Y00833
X00227
X002165
Y008365
Y008295
Y00826
Y008225
Y00819
X0022Y00812
X002235Y008085
X00227
X002305
X00234
X0024927Y00809998
X002515Y008295
X002375Y008225
X00256196Y00861804
X00277999Y00861998
X00215Y00881771
X002075Y00882
X00202Y00848
X00192Y00845998
X00188Y00839
X00178Y00848998
X00178Y0085425
X00163Y00858998
X00191Y00797
T02
X002075Y003325
X002125
X002175
Y003375
X002125
Y003425
X002175
Y003475
X002125
X002075
Y003525
X002025
Y003475
X002075Y003425
Y003375
T03
X00067791Y00215659
Y00225659
X00077791
Y00215659
T04
X002775Y0059
X002875
X002975
X003075
Y006
Y0061
X002975
X002875
Y006
X002975
X002775
Y0061
X0025262Y01018
Y01034
Y0105
Y01066
Y01082
X00235
Y01066
Y0105
Y01034
Y01018
X00215
Y01034
Y0105
Y01066
Y01082
X00195
Y01066
Y0105
Y01034
Y01018
X00175
Y01034
Y0105
Y01066
Y01082
X00155
Y01066
Y0105
Y01034
Y01018
X001975Y011545
Y011605
X002035
X002095
Y011545
X002035
X002155
Y011605
X00135Y01082
Y01066
Y0105
Y01034
Y01018
X0011738
Y01034
Y0105
Y01066
Y01082
T05
X00055Y0007
X00085Y000675
X0009Y000975
X001075
X000725
X000375
Y001175
Y0013
X00125Y000475
X0017Y000875
Y001075
Y001275
X002075Y00115
X00226Y0013
X00255Y001325
Y0012
Y001075
X00345
Y0012
Y001325
X0031Y00054
X00292
X0029Y001775
X0031
X0033
X0027
X00216Y00172
X00225Y001575
X002075Y001475
X0015Y0018
X001725Y0026
X001925
X002125
X002325
X00268Y00284118
X0026775Y0029725
X00298Y00302
X00313375Y00267625
X0035Y003175
Y003825
X0032Y004375
X00309Y00464
X00315Y004975
X00275
X00262Y0048
X0025
X0023Y005025
Y005125
X0023Y005225
X0023Y005325
X001975Y0049
X00185Y00465
X001775Y0045
X001775Y004375
X001775Y00425
X0019
X002025Y00425
X00196Y00405
X0018
X00183Y00381
X00209Y00382
X00222Y00405
X00155Y004
Y004125
X00155Y00425
X00155Y00465
X00154Y00378
X0016Y00307
X0018Y00317499
X00185251Y0032875
X001925Y00305
X001525Y002825
X0024Y003325
X002875Y004125
X001425Y004125
Y004
X0013Y004
X001175Y004
Y004125
X0013Y004125
X0013Y00425
X001425Y00425
X001175
X001175Y004375
Y0045
X00115Y00465
X00128
Y00478
X00116
X00104
X0014
X0013Y0052
X001175
X000475Y00525
Y0044
Y0042
X00106Y00362
X001075Y003025
X001375Y0026
X00135Y0023
Y0021
X0013Y0016
X00075Y001725
X00055
X000375Y0015
X000275Y002
Y0022
X00045Y002475
X000625
X000475Y005425
Y005625
Y0058
X00124Y00716
X00129Y00743
X00139Y00786
X00099Y0079
X00075Y0077
X000225Y007775
X00115Y0084
Y00865
X00130674Y00921826
X000375Y00919998
X0003Y009325
X00159Y00904
X00184259Y00866042
X00197Y00871
X00227Y00881
X00227Y00851
X00253Y00854
X00284Y008555
Y00845
X00265Y00827
X00268Y00815
X00263Y00794
X00276Y00795
X00291Y00796
X00307499Y00812498
X00343Y00823
X00335Y00747
X003125Y007425
X00283Y00748
X0026Y00746
X002525Y007625
X002625Y007725
X0022475Y0078625
X00212Y00753
X0021Y00705
X00192Y00679
X00163
X00161Y00704
X00163Y00726
X00162Y0074
X001475Y007525
Y007675
X00175Y00822
X00179Y00834
X0023Y00911
Y00924
X00296Y00889
X00295Y007025
X00315
X00263189Y00702629
X00248Y0069
X00247Y00623
X00215Y006125
X002175Y00585
X00205
X001925
X0018
X001675
X0023Y005625
X00263Y00579
X00215Y00645
X002295Y00947
X0023375Y0096675
X0022525Y009835
X002075Y009888
X001825
X001575
X00148Y00955
X00265
X00264Y00976
X00275Y01
X00276Y01017
X00288
X00301
X00276Y01033
X002775Y0106
X0029
X002775Y01085
X00285Y010975
X00275Y011075
X002725Y011425
X00253Y01143
X00233
X00205Y011125
X00195
X001825
X001725Y011125
X0017Y01181
X0017Y01192
X0016Y012105
Y012225
Y012345
X00144Y012
X00203Y01204
X00217Y0122
X00226Y0123
X00239
X002525
X00267Y01217
X002875Y012175
Y0123
X003475
Y01215
X00315Y010925
X00345Y009975
Y009625
X001375Y009888
X00095Y0101
X000625Y010025
Y009875
Y009725
X000475
Y009875
Y010025
Y01025
Y01045
Y010875
Y011
X0006
X000725
Y010875
X0006
X0008625Y01088
X0009625
X000963Y011012
X00086Y0110125
X00083Y01132
X00093
X00083Y01142
X000375Y011425
Y011225
X0005Y011625
X00059Y01198
X00085Y011975
X001Y012
X00129Y01116
X00101Y00955
T06
X001925Y000675
X001925Y001
Y001325
Y00165
X001925Y001975
Y0023
X00255Y002075
X002875
X0032
X003525
X003575Y001575
X002425
X002875Y00285
X00325
Y003175
Y0035
Y003825
Y00415
X002875Y004375
X00345Y005175
Y0055
Y005825
Y00615
Y006475
Y0068
X00361Y00812
X0013Y0122
X000975
X00065
X000325
T07
X00052025Y00654675
Y00680075
Y00705475
Y00730875
Y00756275
T08
X000725Y003075
Y003425
Y003775
X000725Y004275
Y004625
Y004975
Y00545
Y0058
Y00615
M30
