M48
;Layer_Color=7618602
;FILE_FORMAT=4:4
METRIC,LZ
;TYPE=PLATED
T1F00S00C0.1500
%
T01
X00019Y00006
X00032
X00045
X00058
X00071
X00084
X00097
X0011
X00123
X00136
X001425Y00019
X001295
X001165
X001035
X000905
X000775
X000645
X000515
X000385
X000255
X000125
X00006Y00032
X00019
X00032
X00045
X00058
X00071
X00084
X00097
X0011
X00123
X00136
X001425Y00045
Y00071
Y00097
X001295
X001165
X0011Y00058
X00097
X00084
X00071
X00058
X00045
X00032
X00019
X00006
X000125Y00071
X000255
X000385
X00032Y00084
X00019
X00006
X000125Y00097
X000255
X00019Y0011
X00006
X000125Y00123
X000255
X00019Y00136
X00006
X000515Y00097
X000645Y00071
X000775
Y00045
X000905
X001035
X001165
X000645
X000515
X000385
X000255
X000125
X001555
X001685
X001815
X001945
X002075
X002205
X002335
X002465
X002595
X002725
X002855
X002985
X003115
X003245
X003375
X003505
X003635
X003765
X003895
X00383Y00058
X0037
X00357
X00344
X00331
Y00032
X00344
X00357
X0037
X00383
X003895Y00019
X003765
X003635
X003505
X003375
X003245
X003115
X002985
X002855
X002725
X002595
X002465
X002335
X002205
X002075
X001945
X001815
X001685
X001555
X00149Y00032
X00162
X00175
X00188
X00201
X00214
X00227
X0024
X00253
X00266
X00279
X00292
X00305
X00318
Y00006
X00331
X00344
X00357
X0037
X00383
X003895Y00071
X003765
X003635
X003505
Y00097
X003375
X003245
X00318Y00084
X002985Y00097
X002855
X002725
X002595
X002625Y001175
X0027
X002775
X002335Y00123
X002205
X002075
X00201Y0011
X00214
X002205Y00097
X002335
X0024Y00084
X002465Y00071
X002595
X00253Y00058
X00266
X00279
X0024
X002335Y00071
X002205
X002075
X00201Y00084
X00214
X002075Y00097
X001815
X001685
X001815Y00123
X00149Y00136
X00214
Y00058
X00201
X00175
X00162
X00149
X001815Y00071
X00175Y00006
X00188
X00201
X00214
X00227
X0024
X00253
X00266
X00279
X00292
X00305
X0037Y00084
X00383
X003895Y00097
X003765
X0037Y0011
X00383
X003895Y00123
X003765
X0037Y00136
X00383
X00162Y00006
X00149
X001815Y00149
Y00175
X001685
X00162Y00188
X00175
X00201
X00214
X00227
X0024
X002465Y00175
X002335
Y00201
X002205
X002075
X00201Y00214
X00214
X00227
X0024
X002465Y00227
X002595
X002725
X002855
X002985
X003115
X003245
X003375
X003505
X003635
X003765
X003895
X00383Y0024
X0037
X00357
X00344
X00331
X00318
X00305
X00292
X00279
X00266
X00253
X0024
X00227
X00214
X00201
X00188
X00175
X00162
X001555Y00253
X00149Y00266
Y00292
X001555Y00331
X001685
Y00357
X001555
X00149Y0037
X001685Y00383
X001945
X002205
X002595
X002725
X002855
X002985
X00305Y00396
X00318
X00331
X00344
X00357
X0037
X00383
X003765Y00409
X0037Y00422
X00383
X003765Y00435
X0037Y00448
X00383
X003765Y00461
X003635
X0037Y00474
X00383
X003765Y00487
X00383Y005
Y00526
X00357
X003505Y00539
X003375
X003245
X00331Y00526
Y005
X00344
X00305
Y00526
X002855Y00539
Y00513
Y00487
Y00461
X002985
X00292Y00448
X00305
X00318
X00331
X00344
X003505Y00435
X003375
X00344Y00422
X00357
X003505Y00409
X003375
X003115
X002985
X00266Y00422
X00253
X0024
X00227
X00214
X002205Y00435
X002335
X002465
X002595
X002725
Y00461
X00266Y005
X00253
X002465Y00513
Y00539
X002595
X002075
X00227Y00474
X0024
X00149
X002075Y00409
Y00305
X0024Y00318
X00292
Y00344
X00305
X003245Y00331
X003375
X003505
X003635
X003765
X0037Y00344
X00383
X003765Y00357
X0037Y0037
X00383
X003765Y00383
X00357Y0037
X00344
X00331
X00318
X003375Y00357
X003505
X00344Y00344
X00357
X0037Y00318
X00383
X003765Y00305
X003635
X003505
X003375
X003245
X00344Y00292
X00357
X0037
X00383
X003765Y00279
X003635
X003505
X003375
X00331Y00266
X00344
X00357
X0037
X00383
X003635Y00253
X003505
X003375
X003245
X003115
X002985
X002855
X002725
X002595
X002465
X002205
X002075
Y00227
X002205
X002335
X00266Y00214
X002725Y00201
X00266Y00188
X00279
X002985Y00201
X00305Y00214
X00331
X003375Y00201
X00331Y00188
X00344
X0037
X00383
X003895Y00201
X003765
X003635
X0037Y00214
X00383
X003895Y00175
X003765
X003635
X0037Y00162
X00383
X003895Y00149
X003765
X003505
X00344Y00162
X002985Y00175
X00253Y00162
X002595Y00149
X002335
X002205
X00214Y00162
X002075Y00175
X00188Y00214
X00175
X00162
X00149
X001555Y00227
Y00201
X001815Y00253
X00266Y00266
X00279
Y00292
X002985Y00279
X003115
X001295
X00123Y00292
X00136
X001295Y00305
Y00331
Y00357
Y00383
X0011Y0037
X000905Y00383
X00084Y00396
X00097
X001035Y00409
X000905
X000775
X000645
X000515
X000385
X000255
X000125
X00006Y00422
X00019
X00032
X000385Y00435
X000255
X000125
X00006Y00448
X00019
X00032
X00045
X00058
X00071
X00084
X00097
X001035Y00461
X000905
X00084Y00474
X00097
X001035Y00487
X001165
X001295
X000905
Y00513
X001035
X00097Y00526
X0011
X00123
X00136
X001035Y00539
X000905
X00084Y00526
X00071
X00058
X000645Y00513
X000775
X000515
X000385
X000255
X000125
X00006Y00526
X00019
X00032
X000385Y00539
X000255
X000125
X00006Y005
X00019
X00032
X00045
X00058
X000515Y00487
X000385
X000255
X000125
X00006Y00474
X00019
X00032
X00045
X00058
X000515Y00461
X000385
X000255
X000125
X00006Y00396
X00019
X00032
X00045
X00058
X00071
X000515Y00383
X000385
X000255
X000125
X00006Y0037
X00019
X00032
X00045
X00058
X000645Y00357
X000775
X000515
X000385
X000255
X000125
X00006Y00344
X00019
X00032
X00045
X00058
X000645Y00331
X000515
X000385
X000255
X000125
X00006Y00318
X00019
X00032
X00045
X00058
X000515Y00305
X000385
X000255
X000125
X00006Y00292
X00019
X00032
X00045
X00058
X00071
X00084
X000905Y00279
X000775
X000645
X000515
X000385
X000255
X000125
X00006Y00266
X00019
X00032
X00045
X00058
X00071
X00084
X00097
X0011
X00123
Y0024
X00136
X001425Y00227
Y00201
X001295
X001275Y0017
X00115
X00105
X001035Y00149
X001165
X001295
X000905
X000775
X000645
X000515
X00045Y00162
X00032
X00019
X00006
X000125Y00175
X000255
X000385
X00032Y00188
X00019
X00006
X000125Y00201
X00006Y00214
X00019
X000125Y00227
X00006Y0024
X00019
X00032
X000385Y00253
X000515
X000775
X00097Y0024
X0011
X000905Y00227
Y00201
X000515
X000385
X00058Y00214
X000645Y00175
X000255Y00149
X000125
Y00253
X000255
X0011Y00292
X001035Y00331
X00084Y00318
X00097Y00422
X001035Y00435
X000905
X00058Y00422
Y00552
X00045
X00032
X00019
X00006
X000125Y00565
X000255
X000385
X00032Y00578
X00019
X00006
X000125Y00591
X000255
X000385
X000515
X00045Y00604
X00058
X000515Y00617
X000385
X000255
X000125
X00006Y0063
X00019
X00032
X00045
X00058
X00071
X000775Y00643
Y00669
X000645
Y00695
X000775
X000905
X001035
X001165
X001295
X001425
X001165Y00721
X001035
X000905
X000775
X000645
Y00747
X000775
X000905
X001035
X001165
X0011Y0076
X00123
X00136
X001165Y00773
X001035
X000905
X00084Y0076
X00097
X00071
X000645Y00773
X000515
X000385
X00032Y0076
X00019
X00006
X000125Y00773
X00006Y00786
X000125Y00799
X000255
X000385
X000515
X00045Y00786
X000385Y00747
X000255
X000125
X00006Y00734
X00019
X00032
X000385Y00721
X000255
X000125
X00006Y00708
X00019
X00032
X000385Y00695
X000255
X000125
X00006Y00682
X00019
X00032
X000385Y00669
X000255
X000125
X00006Y00656
X00019
X00032
X000385Y00643
X000255
X000125
X00006Y00604
X00019
X00032
X00084
X00097
X001035Y00617
X000905
Y00591
X001035
X00097Y00578
X001035Y00565
X000905
X000775
X000645
X00058Y00578
X00097Y00552
X0011Y00786
X001165Y00799
X001035
Y00825
X00123Y00838
X00136
Y00864
X00123
X001165Y00851
X00123Y0089
X00136
X001425Y00929
X001165
X000515
X000385
X000255
X000125
X00006Y00916
X00019
X00045
X000385Y00903
X00032Y0089
X00045
X00019
X00006Y00864
X000125Y00851
X00006Y00838
X00019
X000125Y00825
X00006Y00812
X00019
X000645Y00825
X00149Y00838
Y00864
X001555Y00877
X00149Y0089
X00162
Y00916
X00175
X00188
X00201
X00214
X0024
X00266
X00279
X00278188Y00910066
X00285158Y00910503
X002925Y0091
X00292Y00916
X00305
X003025Y0091
Y009
X003125
X00312167Y00911898
X00312606Y00917922
Y00923962
Y00930002
Y00936042
X00323394Y00933964
Y00927924
Y00921884
Y00915844
X00325Y0091
Y009
X00318Y0089
X00305
X003115Y00877
X003245
X00318Y00864
X00305
X00292
X00282986Y008701
X00277411Y00867775
X00271374Y00867606
X00265334
X00259294
X00253254
X00247214
X00244394Y00862265
Y00856225
X00243909Y00850204
X00233606Y00856548
Y00862588
X00233653Y00868628
X0023579Y00874277
X00240679Y00877824
X00246692Y00878394
X00252732
X00258772
X00264812
X00270852
X00276606Y0088023
Y00886271
Y0089231
Y00898351
X00276167Y00904374
X00287394Y00899064
Y00893024
Y00886984
Y00880944
X00286572Y0087496
X002985Y00877
Y00851
X00305Y00816
X00305Y00812
X0026925Y00811
X0026525
X0026625Y008245
X0027Y008275
Y008325
X002375Y008365
Y00826
X00234
X002305
X00227
Y008225
Y00819
X002305
X00234
Y008225
X002305
Y008155
X00234
Y00812
X002305
X00227
Y008155
X002235
Y00812
Y00819
Y008225
Y00826
X0022Y00833
X00213Y00805
X002075Y00799
X0018575Y008145
X001805
X001685Y00799
Y00773
X00162Y0076
X00188
X001945Y00773
X002025Y007475
X00201Y00734
X00214
X00227
X0024
X002465Y00747
X002595
X00253Y0076
X00266
X002725Y00773
X002855
X002985
Y00747
X00292Y00734
X00305
Y00708
X00331
X00344
X00357
X003505Y00695
X003375
X003245
Y00669
X003375
X003505
X00357Y00682
X00383
Y00708
X003765Y00721
Y00747
X003895
X003505
Y00773
X003635
X0037Y00786
X003635Y00799
Y00825
X003765
X003895
X00383Y00838
X0037
X003765Y00851
X003895
X003635
X003505
X00344Y00838
Y00812
X003245Y00747
X00279Y00734
X002855Y00721
Y00695
Y00669
X002595
X002465
X002335
X00227Y00682
X0024
X00253
X002595Y00695
Y00721
X002075
X001945
X00201Y00708
X00214
X002205Y00695
X002075
X00201Y00682
X00175
X001815Y00695
X001685
X001555
Y00721
X0015Y0074
X00175Y00734
X001815Y00747
X002205
X002225Y007675
X002465Y00773
X00253Y00786
X00241Y00805
Y008155
X0024Y0089
X00253
X00266
X002595Y00903
Y00929
X002725
X002855
X002985
X001555
X001945Y00851
X00175Y00708
X00214Y00656
X0024
X00253
X00266
X002595Y00643
X002465
X0024Y0063
X00253
X00279
X00292
X00305
X00318
X00331
X00344
X00357
X003635Y00643
X00357Y00656
X00383
Y0063
X003765Y00617
X0037Y00604
X00383
X003765Y00591
X003635
X00357Y00604
X00344
X00331
X00318
X003245Y00617
Y00643
X00331Y00656
X00305
Y00682
Y00578
X00318
X00331
X003375Y00591
X003245
Y00565
X003375
X003505
X003635
X00383Y00578
Y00552
X00331
X00318
X00279
X00266
X002595Y00565
X00253Y00578
X0024
X002595Y00591
X00266Y00604
X00279Y00578
X00292
X00201
X00188
X00175
X001675Y00565
X002075Y00565
X00214Y00604
X0024Y00942
X00266
X00279
X00292
X00305
X00312606Y00942082
Y00948122
Y00954162
Y00960202
X00312711Y00966241
X00313943Y00972154
X00316911Y00977415
X0032124Y00981627
X00326655Y00984303
X003326Y00985367
X0033864Y00985394
X0034468
X00349627Y0098886
X00355648Y00989333
X00357Y00994
X003635Y01007
X003765
X003895
X00383Y0102
X0037
X00357
X00344
X00331
X00318
X003245Y01033
X00324325Y01039606
X00318285
X00312245
X00306205
X00305262Y0103364
X003115Y01033
X00310141Y01050394
X00316181
X00322221
X00328261
X00334301
X00340341
X00346381
X00351707Y01053242
X00352106Y01059268
Y01065309
Y01071348
Y01077389
Y01083428
Y01089469
Y01095508
Y01101548
Y01107588
Y01113628
Y01119668
Y01125708
Y01131748
Y01137788
Y01143828
X00350201Y0114956
X00344161Y01149606
X00338121
X00332081
X00326041
X00320094Y01150663
X00315208Y01154213
X00312482Y01159603
X00312106Y01165631
Y01171671
Y01177711
Y01183751
Y01189791
Y01195831
X00307927Y01200192
X00307667Y01206227
X003115Y01215
X00318Y01228
X003175Y01237
X00326333Y01204548
X00325186Y01198618
X00322894Y0119303
Y0118699
Y0118095
Y0117491
Y0116887
Y0116283
X00328421Y01160394
X00334461
X00340501
X00346541
X00352573Y01160085
X00358028Y01157491
X00361713Y01152705
X00362894Y01146782
Y01140742
Y01134702
Y01128662
Y01122622
Y01116582
Y01110542
Y01104502
Y01098462
Y01092422
Y01086382
Y01080342
Y01074302
Y01068262
Y01062222
Y01056182
X00362085Y01050197
X00359091Y01044951
X00354318Y01041249
X00348484Y01039684
X00342445Y01039606
X00336405
X00330365
X003375Y01033
X003505
X003635
X003765
X003895
X00383Y01046
X0037
X003765Y01059
X003895
X00383Y01072
X0037
X003765Y01085
X003895
X00383Y01098
X0037
X003765Y01111
X003895
X00383Y01124
X0037
X003765Y01137
X003895
X00383Y0115
X0037
X003765Y01163
X003895
X00383Y01176
X0037
X00357
X00344
X00331
X003375Y01189
X003505
X003635
X003765
X003895
X00383Y01202
X0037
X00357
X00344
X00331
X00292
X00279
X00266
X002725Y01189
X002855
X002985
X00292Y01176
X00305
X002985Y01163
X002855
X00292Y0115
X00305
X003115Y01137
X003245
X003375
X00331Y01124
X00329116Y01118365
X00331983Y01113048
X00332894Y01107077
Y01101037
Y01094997
Y01088957
X00332672Y01082921
X003375Y01085
X00330717Y01077206
X00326663Y01072729
X00321223Y01070105
X00315203Y01069606
X00309179Y01069167
X00303316Y01070616
X00306443Y01080822
X00312468Y01080394
X00318507Y01080533
X00322106Y01085384
Y01091424
Y01097464
Y01103504
X00321798Y01109536
X00317738Y01114007
X00311728Y01114606
X00305688
X00299648
X00293608
X00287568
X00281528
X00275487
X00269447
X00263407
X00264Y0111
X00257367Y01114606
X00251327
X002525Y0111
X002475
X002425
X002375
X002325
X002275
X00227168Y01114606
X00233208
X00239248
X00245287
X00246711Y01125394
X00252751
X00258791
X00264831
X00270871
X00276911
X00282951
X00288991
X00295031
X00301071
X00307111
X00313151
X00319171Y011249
X00324714Y01122499
X00344Y01124
X003375Y01111
X00344Y01098
Y01072
X003375Y01059
X003245
X003115
X002985
X00298077Y01050833
X00304101Y01050394
X00271Y0105
Y01055
Y01065
Y0107
Y0108
Y01101
X002595Y01137
X002465
X00240671Y01125394
X00234631
X00228591
X00223329Y01128359
Y01134398
X00223571Y01140434
X00224843Y01146338
X0024Y0115
X00212541Y01135792
Y01129752
X00213073Y01123736
X00216058Y01118485
X00221163Y01115256
X002225Y0111
X002175
X002125
X00175Y01124
X00162
X001685Y01137
X001815
X00175Y0115
X00188
X001815Y01163
X001685
X001555
X00149Y01176
X00162
X001555Y01189
X00162Y01202
X00175
X0018825Y012185
X00188Y01228
X00214
X002205Y01189
X002335
X002465
X002595
X00266Y01228
X00279
X00357
X0037
X00383
X003895Y01215
X003765
X003635
Y01163
X002985Y01137
X002855
X00201Y01176
X00188
X00162Y0115
X00149
X001555Y01137
X001525Y011125
X00149Y01228
X00155Y009775
X0016
X00165
X0017
X00175
X0018
X00185
X001925Y00985
Y0099
X001975
X002025
Y00985
X001975
X00222Y0099
X00228
X00222Y00977
X00252Y00992
X00264Y00991
X002725Y00981
X002855
X002985
X003115
X00305Y00994
X00318
X00331
X003375Y01007
X003505
X003245
X003115
X002985
X002855
X00292Y00994
Y00968
X00305
X002985Y00955
X002855
X00279Y00968
X00266
X00324813Y00970035
X00323394Y00964164
Y00958124
Y00952084
Y00946044
Y00940004
X00331Y00968
X00329468Y00973884
X00335465Y00974606
X00341505
X00347453Y00973559
X00352756Y00970667
X00357Y00968
X00366333Y00977548
Y00983588
X003765Y00981
X003895
X0038975Y009645
X001685Y00955
X001295Y00981
X00125Y0098
Y00985
Y0099
X001063Y00993
X000976Y009988
X00099Y0102
X000995Y0103125
Y01035
X000975Y0105
Y01055
Y0106
Y01065
X00097Y01072
X000975Y0108
X001035Y01111
X000905
X001225Y0111
X00123Y01124
X001295Y01137
X00123Y0115
X00136
X001425Y01163
Y01189
Y01215
X00123Y01202
X0011Y01228
X00084
X000775Y01215
Y01189
X000905
X000515
X000385
X000255
X000125
X00006Y01202
X00019
X00032
X00045
X000515Y01215
X00045Y01228
X00019
X00006
X000125Y01215
X00006Y01176
X00019
X00032
X00045
X00058
Y0115
X00084
X00097
X00058Y01124
X00019
X00006
X000125Y01137
X000255
X00019Y0115
X00032
X000385Y01163
X000255
X000125
X00006Y0115
X000125Y01111
X000255
X00019Y01098
X00032
X00006
X000125Y01085
X00006Y01072
X000125Y01059
X00006Y01046
X000125Y01033
X00006Y0102
X000125Y01007
X00006Y00994
Y00968
X0006675Y0095975
X000665Y009445
X0008Y009395
X00097Y00942
X0011
X000945Y0095625
X00075Y01015
Y01025
X000625Y0103
X000385Y01033
X00045Y0102
X000425Y0105
X000475
X000525
X001375Y0111
M30
