M48
;Layer_Color=7618602
;FILE_FORMAT=4:4
METRIC,LZ
;TYPE=PLATED
T1F00S00C0.1500
%
T01
X00012Y00012
X00026
X0004
X00054
X00068
X00082
X00096
X0011
X00124
X00138
X00131Y00026
X00117
X00103
X00089
X00075
X00061
X00047
X00033
X00019
X00012Y0004
X00026
X0004
X00054
X00068
X00082
X00096
X0011
X00117Y00054
X00131
X00138Y0004
X00103Y00054
X00089
X00075
X00061
X00047
X00033
X00019
X00012Y00068
X00026
X0004
X00033Y00082
X00019
X00012Y00096
X00026
X00019Y0011
X00012Y00124
X00026
X00019Y00138
X00054Y00096
X00082
X00075Y00082
X00068Y00068
X00103Y00082
X00117
X00124Y00096
X00131Y00138
X00145
X00159
X0018Y00124
X00187Y0011
X00201
X00215
X00208Y00124
X00215Y00138
X00229
X00208Y00096
X00215Y00082
X00201
X00208Y00068
X00236
X0025
X00264
X00271Y00054
X00257
X00243
X00236Y0004
X0025
X00264
X00278
X00292
X00306
X0032
X00334
X00348
X00362
X00376
X00383Y00054
X00369
X00355
X00341
X00327
X0032Y00068
X00348
X00362
X00376
X00383Y00082
X00369
X00376Y00096
X00383Y0011
X00369
X00376Y00124
X00383Y00138
X00369
X00348Y00096
X0032
X00264
X0025
X00243Y00082
Y00026
X00257
X00271
X00285
X00299
X00313
X00327
X00341
X00355
X00369
X00383
X00376Y00012
X00362
X00348
X00334
X0032
X00306
X00292
X00278
X00264
X0025
X00236
X00222
X00208
X00194
X0018
X00166
X00152
X00159Y00026
X00173
X00187
X00201
X00215
X00229
X00222Y0004
X00208
X00194
X0018
X00166
X00152
X00145Y00026
X00152Y00068
X00166
X0018
Y00096
X00166
Y00152
X0018
Y0018
X00194
X00208
X00222
X00236
X00243Y00194
X00229
X00215
X00208Y00208
X00222
X00236
X00243Y00222
X00257
X00271
X00285
X00299
X00313
X00327
X00341
X00355
X00369
X00383
X00376Y00236
X00369Y0025
X00355
X00341
X00327
X00313
X00299
X00285
X00271
X00264Y00264
X00278
X00299Y00278
X00313
X00341
X00355
X00369
X00383
X00376Y00292
X00362
X00348
X00334
X00341Y00306
X00355
X00369
X00383
X00376Y0032
X00362
X00369Y00334
X00383
X00376Y00348
X00383Y00362
X00369
X00355
X00341
X00327
X00334Y00376
X00341Y0039
X00355
X00369
X00383
X00376Y00404
X00383Y00418
X00369
X00355
X00341
X00334Y00432
X00348
X00355Y00446
X00369
X00383
X00376Y0046
X00362
X00369Y00474
X00383
X00376Y00488
X00383Y00502
Y0053
X00355
X00341
X00327
Y00502
X00341
Y00446
X00327
X00313
X00299
X00292Y0046
X00278
X00271Y00474
X00264Y00488
X00257Y00502
X00285
X00292Y00488
X00285Y0053
X00243Y00474
X00229
X00222Y00432
X00236
X0025
X00264
X00278
X00299Y00418
X00292Y00404
X00306
X0032
X00334
X00348
X00313Y0039
X00306Y00376
X00299Y00362
X00285
X00271
X00257
X00264Y00376
Y00404
X00243Y00418
X00229
X00215
X00208Y00404
X00187Y00362
X0018Y00348
X00194
X00201Y00306
X00222Y00292
Y00264
Y00236
X00236
X0025
X00229Y00222
X00215
X00201
X00208Y00236
X0018
X00166
X00152
X00159Y0025
X00152Y00264
Y00292
X00159Y00334
Y00362
Y00474
X00152Y00488
X00145Y0053
X00264Y00348
Y0032
X00292
X00327Y00334
X00341
X00355
X00327Y00306
X00334Y00264
X00348
X00362
X00376
Y00208
X00383Y00194
X00369
X00362Y0018
X00376
X00383Y00166
X00369
X00376Y00152
X00348
X00341Y00166
Y00194
X00327
X0032Y0018
Y00152
X00299Y00194
X00306Y00208
X00334
X00271Y00194
X00278Y0018
X00257Y00166
X00229
X00166Y0018
Y00208
X0018
X00173Y00222
X00159
X00145
X00152Y00208
Y00152
X00376Y00376
Y00432
X00096
X00103Y00446
X00089
X00075
X00061
X00054Y0046
X0004
X00026
X00012
X00019Y00474
X00033
X00047
X00061
X00054Y00488
X0004
X00026
X00012
X00019Y00502
X00033
X00047
X0004Y00516
X00054
X00068
X00082
X00096
X0011
X00103Y0053
X00089
X00075
X00061
X00033
X00019
X00012Y00516
X00026
X00033Y00446
X00019
X00012Y00432
X00026
X0004
X00054
X00061Y00418
X00054Y00404
X00068
X00082
X00096
X00103Y00418
X00089
Y0039
X00103
X00131
Y00362
Y00334
Y00306
X00124Y00292
X00138
X00131Y00278
X00124Y00264
X0011
X00096
X00082
X00068
X00054
X0004
X00026
X00012
X00019Y00278
X00033
X00047
X00061
X00075
X00089
X00082Y00292
X00068
X00054
X0004
X00026
X00012
X00019Y00306
X00033
X00047
X0004Y0032
X00054
X00061Y00334
X00047
X00033
X00019
X00012Y00348
X00026
X0004
X00054
X00061Y00362
X00075
X00047
X00033
X00019
X00012Y00376
X00026
X0004
X00054
X00061Y0039
X00047
X00033
X00019
X00012Y00404
X00026
X0004
X00033Y00418
X00019
X00012Y0032
X00026
X00082
X00103Y00334
X0011Y00292
X00075Y0025
X00089Y00222
X00131
X00138Y00152
X00096
X00082Y0018
X00068
X0004
X00026
X00012
X00019Y00194
X00033
Y00166
X00019
X00012Y00152
X00026
X00012Y00208
X00019Y00222
X00012Y00236
X00026
X00033Y0025
X00019
X00096Y0046
X00089Y00474
X00096Y00488
X0011
X00124
X00131Y0053
X00096Y00544
X00103Y00558
X00089
X00096Y00572
X00103Y00586
X00089
X00082Y006
X00096
X00103Y00614
X00089
X00068Y006
X00054
X0004
X00026
X00012
X00019Y00614
X00033
X00047
X0004Y00628
X00054
X00026
X00012
X00019Y00642
X00033
X00026Y00656
X00012
X00019Y0067
X00033
X00026Y00684
X00012
X00019Y00698
X00033
X00026Y00712
X0004
X00033Y00726
X00019
X00012Y0074
X00026
X0004
X00033Y00754
X00019
X00012Y00768
X00026
X0004
X00075Y00754
X00089
X00103
X00117
X00131
X0011Y0074
X00096
X00082
X00068
X00089Y00726
Y00698
X00117
X00131
X00138Y00712
X0011
X00075Y0067
X00061
X00075Y00642
X00054Y00572
X0004
X00026
X00012
X00019Y00586
X00033
Y00558
X00019
X00012Y00544
X00026
X00061Y00558
X00012Y00712
X00047Y0081
X00061
X00054Y00824
X00026Y00852
X0004Y0088
X00033Y00894
X00019
X00012Y00908
X00026
X00033Y00922
X00019
X00012Y00936
X00054
X00061Y00922
X00075
X00103
X00117
X00124Y00908
X00138
Y00936
X00054Y00908
X00012Y0088
X00131Y0081
X00124Y00796
X00166
Y00768
X00152
Y0074
Y00712
X00166
X00173Y00726
X00187
X00194Y0074
X00187Y00754
X00194Y00768
X00187Y00782
X00208Y00796
X00213Y00805
X002235Y00812
Y008155
X00227
X002305
X00234
Y00812
X002305
X00227
Y00819
Y008225
Y00826
X002305
Y008225
X00234
Y00819
X002305
X002235
Y008225
Y00826
X0022Y00833
X002375Y008365
Y00826
X00234
X00241Y008155
Y00805
X0025Y00796
X00257Y00754
X00271
X00278Y0074
X00292
X00306Y00712
X0032
X00334
X00348
X00355Y00698
X00341
X00327
Y0067
X0032Y00656
X00334
X00327Y00642
X0032Y00628
X00334
X00348
X00362
X00355Y00642
X00383
Y0067
Y00698
Y00726
X00369
X00376Y0074
X00383Y00754
X00369
X00355
X00348Y00768
Y00796
X00362
X00376
Y00824
X00362
X00369Y00838
X00383
X00376Y00852
X00362
X00348
X00355Y00838
X00341
Y0081
X00334Y00796
X0032
X00306
X0032Y00768
X00348Y0074
X00355Y0067
X00306Y00656
Y00628
X00292
X00278
X00257Y00642
X00243
X00236Y00656
X0025
X00264
X00257Y0067
X00243
X00236Y00684
X00222
X00215Y00698
Y00726
X00194Y00712
X00187Y00698
X00173
X0018Y00684
X00215Y0067
X00208Y00656
X00236Y00628
Y006
X0025
X00264
X00278Y00572
X00292
X00306
X0032
X00334
X00348
X00362
X00355Y00558
X00383
Y00586
X00376Y006
X00362
X00348
X00334
X0032
X00327Y00614
Y00586
Y00558
X0032Y00544
X00334
X00264
X00257Y00558
X0025Y00572
X00208
X00194
X0018
X00166
X001675Y00565
X0018Y00544
X00208
Y006
X00152Y00628
X00145Y00698
X0025Y00712
X00264
Y00684
X00285Y00698
Y0067
X0025Y0074
X00229Y00754
X00222Y00768
X00233606Y00856548
Y00862588
X00233653Y00868628
X0023579Y00874277
X00236Y0088
X00240679Y00877824
X00246692Y00878394
X00252732
X00258772
X00264812
X00270852
X00276606Y0088023
Y00886271
Y0089231
Y00898351
X00276167Y00904374
X00278188Y00910066
X00285158Y00910503
X002925Y0091
X003025
Y009
X003125
X00313Y00894
X00327
X00325Y009
Y0091
X00323394Y00915844
Y00921884
Y00927924
Y00933964
X00312606Y00936042
Y00930002
Y00923962
Y00917922
X00312167Y00911898
X00299Y00922
X00285
X00271
X00257
X00243
X00236Y00936
X00222
X00278
X00292
X00306
X00287394Y00899064
Y00893024
Y00886984
Y00880944
X00286572Y0087496
X00282986Y008701
X00277411Y00867775
X00271374Y00867606
X00265334
X00259294
X00253254
X00247214
X00244394Y00862265
Y00856225
X00243909Y00850204
X0025Y00852
X00292
X00299Y00866
X00313
X00327
X0032Y0088
X00306
X00271Y00894
X00257
X00243
X00264Y00908
X00194Y0088
Y00852
X00173Y00894
X00159
X00152Y00908
X00159Y00922
X00383Y00614
Y00978
X00366333Y00977548
Y00983588
X00355648Y00989333
X00349627Y0098886
X0034468Y00985394
X0033864
X003326Y00985367
X00326655Y00984303
X0032124Y00981627
X00316911Y00977415
X00313943Y00972154
X00312711Y00966241
X00312606Y00960202
Y00954162
Y00948122
Y00942082
X00323394Y00940004
Y00946044
Y00952084
Y00958124
Y00964164
X00324813Y00970035
X00329468Y00973884
X00335465Y00974606
X00341505
X00347453Y00973559
X00352756Y00970667
X00348Y00964
X00334
Y00992
X0032
X00306
X00292
X00278
X00264
Y00964
X00278
X00292
X00306
X00299Y00978
X00285
Y01006
X00299
X00313
X00327
X00341
X00334Y0102
X00348
X00362
X00376
X00383Y01034
X00369
X00355
X00354318Y01041249
X00348484Y01039684
X00342445Y01039606
X00336405
X00330365
X00324325
X00318285
X00312245
X00306205
X00305262Y0103364
X00313Y01034
X00327
X00341
X00340341Y01050394
X00346381
X00351707Y01053242
X00352106Y01059268
Y01065309
Y01071348
Y01077389
Y01083428
Y01089469
Y01095508
Y01101548
Y01107588
Y01113628
Y01119668
Y01125708
Y01131748
Y01137788
Y01143828
X00350201Y0114956
X00344161Y01149606
X00338121
X00332081
X00326041
X00320094Y01150663
X00315208Y01154213
X00312482Y01159603
X00312106Y01165631
Y01171671
Y01177711
Y01183751
Y01189791
Y01195831
X00307927Y01200192
X00307667Y01206227
X00299Y01202
X00285
X00271
X00264Y01188
X00278
X00292
X00306
X00322894Y0118699
Y0118095
Y0117491
Y0116887
Y0116283
X00328421Y01160394
X00334461
X00340501
X00346541
X00352573Y01160085
X00358028Y01157491
X00361713Y01152705
X00362894Y01146782
Y01140742
Y01134702
Y01128662
Y01122622
Y01116582
Y01110542
Y01104502
Y01098462
Y01092422
Y01086382
Y01080342
Y01074302
Y01068262
Y01062222
Y01056182
X00362085Y01050197
X00359091Y01044951
X00376Y01048
X00383Y01062
X00369
X00376Y01076
X00383Y0109
X00369
X00376Y01104
X00383Y01118
X00369
X00376Y01132
X00383Y01146
X00369
X00376Y0116
X00383Y01174
X00369
X00355
X00341
X00334Y01188
X00348
X00362
X00376
X00383Y01202
X00369
X00355
X00341
X00326333Y01204548
X00325186Y01198618
X00322894Y0119303
X0032Y01216
X00313Y0123
X00271
X00278Y01216
X00285Y01174
X00299
X00292Y0116
X00306
X00313Y01146
X00299
X00285
X00271
X00270871Y01125394
X00276911
X00282951
X00288991
X00295031
X00301071
X00307111
X00313151
X00319171Y011249
X0032Y01132
X00334
X00329116Y01118365
X00331983Y01113048
X00332894Y01107077
Y01101037
Y01094997
Y01088957
X00332672Y01082921
X00330717Y01077206
X00326663Y01072729
X00321223Y01070105
X00315203Y01069606
X00309179Y01069167
X00303316Y01070616
X00299Y01062
X00298077Y01050833
X00304101Y01050394
X00310141
X00316181
X00322221
X00328261
X00334301
X00341Y01062
X00327
X00313
X00312468Y01080394
X00318507Y01080533
X00322106Y01085384
Y01091424
Y01097464
Y01103504
X00321798Y01109536
X00317738Y01114007
X00311728Y01114606
X00305688
X00299648
X00293608
X00287568
X00281528
X00275487
X00269447
X00263407
X00257367
X00251327
X00245287
X00239248
X00233208
X00227168
X00221163Y01115256
X00216058Y01118485
X00213073Y01123736
X00212541Y01129752
Y01135792
X00223329Y01134398
Y01128359
X00228591Y01125394
X00234631
X00240671
X00246711
X00252751
X00258791
X00264831
X00264Y01132
X00278
X00292
X00306
Y01104
X00292
X00278
X00271Y0109
X00306443Y01080822
X00341Y0109
X00348Y01104
X00341Y01118
X00324714Y01122499
X0025Y01132
X00236
X00223571Y01140434
X00224843Y01146338
X00243Y01146
X00236Y01188
X0025
X00222
X00215Y0123
X00187
X00173Y01202
X00159
X00152Y01216
X00145Y0123
X00152Y01188
X00159Y01174
X00145
X00152Y0116
X00166
X0018
X00187Y01174
Y01146
X00173
X00159
X00145
X00152Y01132
X00166
X0018
X00159Y01118
X00152Y00992
X00166
X00173Y00978
X00187
X00208Y00992
X00222
X00236Y00964
X00243Y0095
X00257
X00285
X00299
X0032Y0102
X00369Y01006
X00383
X00376Y01216
X00362
X00369Y0123
X00383
X00152Y00964
X00159Y0095
X00061
X00047
X00033
X00019
X00012Y00964
X00026
X00033Y00978
X00019
X00012Y00992
X00026
X00033Y01006
X00019
X00012Y0102
X00026
X0004
X00047Y01034
X00033
X00019
X00012Y01048
X00026
X0004
X00033Y01062
X00019
X00012Y01076
X00026
X0004
X00033Y0109
X00019
X00012Y01104
X00026
X00033Y01118
X00047
X0004Y01132
X00026
X00012
X00019Y01146
X00012Y0116
X0004
Y01188
X00047Y01202
X00033
X00019
X00012Y01216
X00019Y0123
X00047
X00054Y01216
X00082
X00089Y0123
X00103
X00117
X0011Y01216
X00117Y01202
Y01146
X00103
X00089
X00075
X00061
Y01174
X00012Y01188
X00019Y01118
X00082Y01132
X00096
X0011
X00138
X00096Y0102
X00075Y0123
M30
