G04*
G04 #@! TF.GenerationSoftware,Altium Limited,Altium Designer,19.1.9 (167)*
G04*
G04 Layer_Physical_Order=3*
G04 Layer_Color=14605976*
%FSLAX44Y44*%
%MOMM*%
G71*
G01*
G75*
%ADD12C,0.2500*%
%ADD15C,0.1500*%
%ADD47C,0.3500*%
%ADD117C,1.0000*%
%ADD125C,1.0000*%
%ADD126C,0.2500*%
%ADD127C,1.5000*%
G36*
X384941Y1246290D02*
X388025Y1245013D01*
X390799Y1243159D01*
X393159Y1240799D01*
X395013Y1238025D01*
X396290Y1234942D01*
X396941Y1231669D01*
X396941Y1230000D01*
Y955000D01*
X330000D01*
Y854000D01*
X396941D01*
Y20000D01*
X396941Y18331D01*
X396290Y15058D01*
X395013Y11975D01*
X393159Y9201D01*
X390799Y6841D01*
X388025Y4987D01*
X384941Y3710D01*
X381669Y3059D01*
X20000D01*
X18331Y3059D01*
X15058Y3710D01*
X11975Y4987D01*
X9201Y6841D01*
X6841Y9201D01*
X4987Y11975D01*
X3710Y15058D01*
X3059Y18331D01*
X3059Y20000D01*
Y1230000D01*
X3059Y1231669D01*
X3710Y1234941D01*
X4987Y1238025D01*
X6841Y1240799D01*
X9201Y1243159D01*
X11975Y1245013D01*
X15058Y1246290D01*
X18331Y1246941D01*
X20000Y1246941D01*
X381669D01*
X384941Y1246290D01*
D02*
G37*
%LPC*%
G36*
X347500Y1236117D02*
X345159Y1235652D01*
X343174Y1234326D01*
X341848Y1232341D01*
X341382Y1230000D01*
X341848Y1227659D01*
X343174Y1225674D01*
X345159Y1224348D01*
X347500Y1223883D01*
X349841Y1224348D01*
X351826Y1225674D01*
X353152Y1227659D01*
X353618Y1230000D01*
X353152Y1232341D01*
X351826Y1234326D01*
X349841Y1235652D01*
X347500Y1236117D01*
D02*
G37*
G36*
X252500D02*
X250159Y1235652D01*
X248174Y1234326D01*
X246848Y1232341D01*
X246383Y1230000D01*
X246848Y1227659D01*
X248174Y1225674D01*
X250159Y1224348D01*
X252500Y1223883D01*
X254841Y1224348D01*
X256826Y1225674D01*
X258152Y1227659D01*
X258617Y1230000D01*
X258152Y1232341D01*
X256826Y1234326D01*
X254841Y1235652D01*
X252500Y1236117D01*
D02*
G37*
G36*
X217000Y1226117D02*
X214659Y1225652D01*
X212674Y1224326D01*
X211348Y1222341D01*
X210882Y1220000D01*
X211348Y1217659D01*
X212674Y1215674D01*
X214659Y1214348D01*
X217000Y1213883D01*
X219341Y1214348D01*
X221326Y1215674D01*
X222652Y1217659D01*
X223118Y1220000D01*
X222652Y1222341D01*
X221326Y1224326D01*
X219341Y1225652D01*
X217000Y1226117D01*
D02*
G37*
G36*
X287500Y1236117D02*
X285159Y1235652D01*
X283174Y1234326D01*
X281848Y1232341D01*
X281383Y1230000D01*
X281848Y1227659D01*
X283174Y1225674D01*
X285045Y1224424D01*
X285105Y1223750D01*
X285045Y1223076D01*
X283174Y1221826D01*
X281848Y1219841D01*
X281383Y1217500D01*
X281848Y1215159D01*
X283174Y1213174D01*
X285159Y1211848D01*
X287500Y1211383D01*
X289841Y1211848D01*
X291826Y1213174D01*
X293152Y1215159D01*
X293617Y1217500D01*
X293152Y1219841D01*
X291826Y1221826D01*
X289955Y1223076D01*
X289895Y1223750D01*
X289955Y1224424D01*
X291826Y1225674D01*
X293152Y1227659D01*
X293617Y1230000D01*
X293152Y1232341D01*
X291826Y1234326D01*
X289841Y1235652D01*
X287500Y1236117D01*
D02*
G37*
G36*
X130000Y1229078D02*
X127650Y1228768D01*
X125461Y1227861D01*
X123581Y1226419D01*
X122139Y1224539D01*
X121232Y1222349D01*
X120922Y1220000D01*
X121232Y1217651D01*
X122139Y1215461D01*
X123581Y1213581D01*
X125461Y1212139D01*
X127650Y1211232D01*
X130000Y1210922D01*
X132349Y1211232D01*
X134539Y1212139D01*
X136419Y1213581D01*
X137861Y1215461D01*
X138768Y1217651D01*
X139078Y1220000D01*
X138768Y1222349D01*
X137861Y1224539D01*
X136419Y1226419D01*
X134539Y1227861D01*
X132349Y1228768D01*
X130000Y1229078D01*
D02*
G37*
G36*
X97500D02*
X95150Y1228768D01*
X92961Y1227861D01*
X91081Y1226419D01*
X89639Y1224539D01*
X88732Y1222349D01*
X88422Y1220000D01*
X88732Y1217651D01*
X89639Y1215461D01*
X91081Y1213581D01*
X92961Y1212139D01*
X95150Y1211232D01*
X97500Y1210922D01*
X99850Y1211232D01*
X102039Y1212139D01*
X103919Y1213581D01*
X105361Y1215461D01*
X106268Y1217651D01*
X106578Y1220000D01*
X106268Y1222349D01*
X105361Y1224539D01*
X103919Y1226419D01*
X102039Y1227861D01*
X99850Y1228768D01*
X97500Y1229078D01*
D02*
G37*
G36*
X65000D02*
X62650Y1228768D01*
X60461Y1227861D01*
X58581Y1226419D01*
X57139Y1224539D01*
X56232Y1222349D01*
X55922Y1220000D01*
X56232Y1217651D01*
X57139Y1215461D01*
X58581Y1213581D01*
X60461Y1212139D01*
X62650Y1211232D01*
X65000Y1210922D01*
X67349Y1211232D01*
X69539Y1212139D01*
X71419Y1213581D01*
X72861Y1215461D01*
X73768Y1217651D01*
X74078Y1220000D01*
X73768Y1222349D01*
X72861Y1224539D01*
X71419Y1226419D01*
X69539Y1227861D01*
X67349Y1228768D01*
X65000Y1229078D01*
D02*
G37*
G36*
X32500D02*
X30150Y1228768D01*
X27961Y1227861D01*
X26081Y1226419D01*
X24639Y1224539D01*
X23732Y1222349D01*
X23422Y1220000D01*
X23732Y1217651D01*
X24639Y1215461D01*
X26081Y1213581D01*
X27961Y1212139D01*
X30150Y1211232D01*
X32500Y1210922D01*
X34849Y1211232D01*
X37039Y1212139D01*
X38919Y1213581D01*
X40361Y1215461D01*
X41268Y1217651D01*
X41578Y1220000D01*
X41268Y1222349D01*
X40361Y1224539D01*
X38919Y1226419D01*
X37039Y1227861D01*
X34849Y1228768D01*
X32500Y1229078D01*
D02*
G37*
G36*
X267000Y1223118D02*
X264659Y1222652D01*
X262674Y1221326D01*
X261348Y1219341D01*
X260882Y1217000D01*
X261348Y1214659D01*
X262674Y1212674D01*
X264659Y1211348D01*
X267000Y1210882D01*
X269341Y1211348D01*
X271326Y1212674D01*
X272652Y1214659D01*
X273118Y1217000D01*
X272652Y1219341D01*
X271326Y1221326D01*
X269341Y1222652D01*
X267000Y1223118D01*
D02*
G37*
G36*
X347500Y1221117D02*
X345159Y1220652D01*
X343174Y1219326D01*
X341848Y1217341D01*
X341382Y1215000D01*
X341848Y1212659D01*
X343174Y1210674D01*
X345159Y1209348D01*
X347500Y1208883D01*
X349841Y1209348D01*
X351826Y1210674D01*
X353152Y1212659D01*
X353618Y1215000D01*
X353152Y1217341D01*
X351826Y1219326D01*
X349841Y1220652D01*
X347500Y1221117D01*
D02*
G37*
G36*
X160000Y1240618D02*
X157659Y1240152D01*
X155674Y1238826D01*
X154348Y1236841D01*
X153883Y1234500D01*
X154348Y1232159D01*
X155674Y1230174D01*
X157082Y1229233D01*
Y1227766D01*
X155674Y1226826D01*
X154348Y1224841D01*
X153883Y1222500D01*
X154348Y1220159D01*
X155674Y1218174D01*
X157082Y1217234D01*
Y1215767D01*
X155674Y1214826D01*
X154348Y1212841D01*
X153883Y1210500D01*
X154348Y1208159D01*
X155674Y1206174D01*
X157659Y1204848D01*
X160000Y1204382D01*
X162341Y1204848D01*
X164326Y1206174D01*
X165652Y1208159D01*
X166117Y1210500D01*
X165652Y1212841D01*
X164326Y1214826D01*
X162918Y1215767D01*
Y1217234D01*
X164326Y1218174D01*
X165652Y1220159D01*
X166117Y1222500D01*
X165652Y1224841D01*
X164326Y1226826D01*
X162918Y1227766D01*
Y1229233D01*
X164326Y1230174D01*
X165652Y1232159D01*
X166117Y1234500D01*
X165652Y1236841D01*
X164326Y1238826D01*
X162341Y1240152D01*
X160000Y1240618D01*
D02*
G37*
G36*
X203000Y1210117D02*
X200659Y1209652D01*
X198674Y1208326D01*
X197348Y1206341D01*
X196882Y1204000D01*
X197348Y1201659D01*
X198674Y1199674D01*
X200659Y1198348D01*
X203000Y1197883D01*
X205341Y1198348D01*
X207326Y1199674D01*
X208652Y1201659D01*
X209118Y1204000D01*
X208652Y1206341D01*
X207326Y1208326D01*
X205341Y1209652D01*
X203000Y1210117D01*
D02*
G37*
G36*
X144000Y1206117D02*
X141659Y1205652D01*
X139674Y1204326D01*
X138348Y1202341D01*
X137882Y1200000D01*
X138348Y1197659D01*
X139674Y1195674D01*
X141659Y1194348D01*
X144000Y1193882D01*
X146341Y1194348D01*
X148326Y1195674D01*
X149652Y1197659D01*
X150118Y1200000D01*
X149652Y1202341D01*
X148326Y1204326D01*
X146341Y1205652D01*
X144000Y1206117D01*
D02*
G37*
G36*
X100000D02*
X97659Y1205652D01*
X95674Y1204326D01*
X94348Y1202341D01*
X93883Y1200000D01*
X94348Y1197659D01*
X95674Y1195674D01*
X97659Y1194348D01*
X100000Y1193882D01*
X102341Y1194348D01*
X104326Y1195674D01*
X105652Y1197659D01*
X106117Y1200000D01*
X105652Y1202341D01*
X104326Y1204326D01*
X102341Y1205652D01*
X100000Y1206117D01*
D02*
G37*
G36*
X59000Y1204118D02*
X56659Y1203652D01*
X54674Y1202326D01*
X53348Y1200341D01*
X52882Y1198000D01*
X53348Y1195659D01*
X54674Y1193674D01*
X56659Y1192348D01*
X59000Y1191882D01*
X61341Y1192348D01*
X63326Y1193674D01*
X64652Y1195659D01*
X65118Y1198000D01*
X64652Y1200341D01*
X63326Y1202326D01*
X61341Y1203652D01*
X59000Y1204118D01*
D02*
G37*
G36*
X85000Y1203617D02*
X82659Y1203152D01*
X80674Y1201826D01*
X79348Y1199841D01*
X78882Y1197500D01*
X79348Y1195159D01*
X80674Y1193174D01*
X82659Y1191848D01*
X85000Y1191383D01*
X87341Y1191848D01*
X89326Y1193174D01*
X90652Y1195159D01*
X91117Y1197500D01*
X90652Y1199841D01*
X89326Y1201826D01*
X87341Y1203152D01*
X85000Y1203617D01*
D02*
G37*
G36*
X170000Y1198118D02*
X167659Y1197652D01*
X165674Y1196326D01*
X164348Y1194341D01*
X163883Y1192000D01*
X164348Y1189659D01*
X165674Y1187674D01*
X166481Y1187135D01*
Y1185865D01*
X165674Y1185326D01*
X164348Y1183341D01*
X163883Y1181000D01*
X164348Y1178659D01*
X165674Y1176674D01*
X167659Y1175348D01*
X170000Y1174883D01*
X172341Y1175348D01*
X174326Y1176674D01*
X175652Y1178659D01*
X176117Y1181000D01*
X175652Y1183341D01*
X174326Y1185326D01*
X173519Y1185865D01*
Y1187135D01*
X174326Y1187674D01*
X175652Y1189659D01*
X176118Y1192000D01*
X175652Y1194341D01*
X174326Y1196326D01*
X172341Y1197652D01*
X170000Y1198118D01*
D02*
G37*
G36*
X215500Y1164578D02*
X213939Y1164268D01*
X212616Y1163384D01*
X212384D01*
X211061Y1164268D01*
X209500Y1164578D01*
X207939Y1164268D01*
X207512Y1163982D01*
X206500Y1163446D01*
X205488Y1163982D01*
X205061Y1164268D01*
X203500Y1164578D01*
X201939Y1164268D01*
X200616Y1163384D01*
X200384D01*
X199061Y1164268D01*
X197500Y1164578D01*
X195939Y1164268D01*
X194616Y1163384D01*
X193732Y1162061D01*
X193422Y1160500D01*
X193732Y1158939D01*
X194018Y1158512D01*
X194555Y1157500D01*
X194018Y1156488D01*
X193732Y1156061D01*
X193422Y1154500D01*
X193732Y1152939D01*
X194616Y1151616D01*
X195939Y1150732D01*
X197500Y1150422D01*
X199061Y1150732D01*
X200384Y1151616D01*
X200616D01*
X201939Y1150732D01*
X203500Y1150422D01*
X205061Y1150732D01*
X205488Y1151018D01*
X206500Y1151555D01*
X207512Y1151018D01*
X207939Y1150732D01*
X209500Y1150422D01*
X211061Y1150732D01*
X212384Y1151616D01*
X212616D01*
X213939Y1150732D01*
X215500Y1150422D01*
X217061Y1150732D01*
X218384Y1151616D01*
X219268Y1152939D01*
X219578Y1154500D01*
X219268Y1156061D01*
X218982Y1156488D01*
X218445Y1157500D01*
X218982Y1158512D01*
X219268Y1158939D01*
X219578Y1160500D01*
X219268Y1162061D01*
X218384Y1163384D01*
X217061Y1164268D01*
X215500Y1164578D01*
D02*
G37*
G36*
X50000Y1168618D02*
X47659Y1168152D01*
X45674Y1166826D01*
X44348Y1164841D01*
X43882Y1162500D01*
X44348Y1160159D01*
X45674Y1158174D01*
X47659Y1156848D01*
X50000Y1156383D01*
X52341Y1156848D01*
X54326Y1158174D01*
X55652Y1160159D01*
X56118Y1162500D01*
X55652Y1164841D01*
X54326Y1166826D01*
X52341Y1168152D01*
X50000Y1168618D01*
D02*
G37*
G36*
X253000Y1149118D02*
X250659Y1148652D01*
X248674Y1147326D01*
X247348Y1145341D01*
X246882Y1143000D01*
X247348Y1140659D01*
X248674Y1138674D01*
X250659Y1137348D01*
X253000Y1136882D01*
X255341Y1137348D01*
X257326Y1138674D01*
X258652Y1140659D01*
X259118Y1143000D01*
X258652Y1145341D01*
X257326Y1147326D01*
X255341Y1148652D01*
X253000Y1149118D01*
D02*
G37*
G36*
X233000D02*
X230659Y1148652D01*
X228674Y1147326D01*
X227348Y1145341D01*
X226882Y1143000D01*
X227348Y1140659D01*
X228674Y1138674D01*
X230659Y1137348D01*
X233000Y1136882D01*
X235341Y1137348D01*
X237326Y1138674D01*
X238652Y1140659D01*
X239118Y1143000D01*
X238652Y1145341D01*
X237326Y1147326D01*
X235341Y1148652D01*
X233000Y1149118D01*
D02*
G37*
G36*
X272500Y1148617D02*
X270159Y1148152D01*
X268174Y1146826D01*
X266848Y1144841D01*
X266382Y1142500D01*
X266848Y1140159D01*
X268174Y1138174D01*
X270159Y1136848D01*
X272500Y1136383D01*
X274841Y1136848D01*
X276826Y1138174D01*
X278152Y1140159D01*
X278617Y1142500D01*
X278152Y1144841D01*
X276826Y1146826D01*
X274841Y1148152D01*
X272500Y1148617D01*
D02*
G37*
G36*
X83000Y1148118D02*
X80659Y1147652D01*
X78674Y1146326D01*
X77348Y1144341D01*
X76883Y1142000D01*
X77348Y1139659D01*
X78592Y1137798D01*
X78733Y1137362D01*
Y1136638D01*
X78592Y1136202D01*
X77348Y1134341D01*
X76883Y1132000D01*
X77348Y1129659D01*
X78674Y1127674D01*
X80659Y1126348D01*
X83000Y1125882D01*
X85341Y1126348D01*
X87202Y1127592D01*
X87638Y1127733D01*
X88362D01*
X88798Y1127592D01*
X90659Y1126348D01*
X93000Y1125882D01*
X95341Y1126348D01*
X97326Y1127674D01*
X98652Y1129659D01*
X99117Y1132000D01*
X98652Y1134341D01*
X97326Y1136326D01*
X95341Y1137652D01*
X93000Y1138118D01*
X90659Y1137652D01*
X88798Y1136408D01*
X88507Y1136314D01*
X88156Y1136473D01*
X87418Y1137211D01*
X87334Y1137570D01*
X87408Y1137798D01*
X88652Y1139659D01*
X89118Y1142000D01*
X88652Y1144341D01*
X87326Y1146326D01*
X85341Y1147652D01*
X83000Y1148118D01*
D02*
G37*
G36*
X202500Y1118617D02*
X200159Y1118152D01*
X198298Y1116908D01*
X197862Y1116767D01*
X197138D01*
X196702Y1116908D01*
X194841Y1118152D01*
X192500Y1118617D01*
X190159Y1118152D01*
X188298Y1116908D01*
X187862Y1116767D01*
X187138D01*
X186702Y1116908D01*
X184841Y1118152D01*
X182500Y1118617D01*
X180159Y1118152D01*
X178298Y1116908D01*
X177862Y1116767D01*
X176865D01*
X176826Y1116826D01*
X174841Y1118152D01*
X172500Y1118617D01*
X170159Y1118152D01*
X168298Y1116908D01*
X167862Y1116767D01*
X167138D01*
X166702Y1116908D01*
X164841Y1118152D01*
X162500Y1118617D01*
X160159Y1118152D01*
X158174Y1116826D01*
X156848Y1114841D01*
X156383Y1112500D01*
X156848Y1110159D01*
X158174Y1108174D01*
X160159Y1106848D01*
X162500Y1106383D01*
X164841Y1106848D01*
X166702Y1108092D01*
X167138Y1108233D01*
X167862D01*
X168298Y1108092D01*
X170159Y1106848D01*
X172500Y1106382D01*
X174841Y1106848D01*
X176702Y1108092D01*
X177138Y1108233D01*
X178135D01*
X178174Y1108174D01*
X180159Y1106848D01*
X182500Y1106383D01*
X184841Y1106848D01*
X186702Y1108092D01*
X187138Y1108233D01*
X187862D01*
X188298Y1108092D01*
X190159Y1106848D01*
X192500Y1106383D01*
X194841Y1106848D01*
X196702Y1108092D01*
X197138Y1108233D01*
X197862D01*
X198298Y1108092D01*
X200159Y1106848D01*
X202500Y1106383D01*
X204841Y1106848D01*
X206826Y1108174D01*
X208152Y1110159D01*
X208617Y1112500D01*
X208152Y1114841D01*
X206826Y1116826D01*
X204841Y1118152D01*
X202500Y1118617D01*
D02*
G37*
G36*
X129000Y1122117D02*
X126659Y1121652D01*
X124674Y1120326D01*
X123348Y1118341D01*
X122882Y1116000D01*
X123348Y1113659D01*
X124674Y1111674D01*
X126659Y1110348D01*
X129000Y1109883D01*
X131341Y1110348D01*
X133326Y1111674D01*
X134652Y1113659D01*
X135118Y1116000D01*
X134652Y1118341D01*
X133326Y1120326D01*
X131341Y1121652D01*
X129000Y1122117D01*
D02*
G37*
G36*
X275000Y1113617D02*
X272659Y1113152D01*
X270674Y1111826D01*
X269348Y1109841D01*
X268883Y1107500D01*
X269348Y1105159D01*
X270674Y1103174D01*
X272659Y1101848D01*
X275000Y1101383D01*
X277341Y1101848D01*
X279326Y1103174D01*
X280652Y1105159D01*
X281117Y1107500D01*
X280652Y1109841D01*
X279326Y1111826D01*
X277341Y1113152D01*
X275000Y1113617D01*
D02*
G37*
G36*
X315000Y1098617D02*
X312659Y1098152D01*
X310674Y1096826D01*
X309348Y1094841D01*
X308883Y1092500D01*
X309348Y1090159D01*
X310674Y1088174D01*
X312659Y1086848D01*
X315000Y1086383D01*
X317341Y1086848D01*
X319326Y1088174D01*
X320652Y1090159D01*
X321118Y1092500D01*
X320652Y1094841D01*
X319326Y1096826D01*
X317341Y1098152D01*
X315000Y1098617D01*
D02*
G37*
G36*
X86000Y1107367D02*
X83659Y1106902D01*
X81674Y1105576D01*
X80348Y1103591D01*
X79882Y1101250D01*
X80348Y1098909D01*
X81674Y1096924D01*
X83659Y1095598D01*
X85421Y1095248D01*
Y1093953D01*
X83909Y1093652D01*
X81924Y1092326D01*
X80598Y1090341D01*
X80133Y1088000D01*
X80598Y1085659D01*
X81924Y1083674D01*
X83909Y1082348D01*
X86250Y1081882D01*
X88591Y1082348D01*
X90452Y1083592D01*
X90888Y1083733D01*
X91612D01*
X92048Y1083592D01*
X93909Y1082348D01*
X96250Y1081882D01*
X98591Y1082348D01*
X100576Y1083674D01*
X101902Y1085659D01*
X102367Y1088000D01*
X101902Y1090341D01*
X100576Y1092326D01*
X98591Y1093652D01*
X97105Y1093948D01*
Y1095242D01*
X98641Y1095548D01*
X100626Y1096874D01*
X101952Y1098859D01*
X102417Y1101200D01*
X101952Y1103541D01*
X100626Y1105526D01*
X98641Y1106852D01*
X96300Y1107318D01*
X93959Y1106852D01*
X91974Y1105526D01*
X91802Y1105267D01*
X90532D01*
X90326Y1105576D01*
X88341Y1106902D01*
X86000Y1107367D01*
D02*
G37*
G36*
X277500Y1091117D02*
X275159Y1090652D01*
X273174Y1089326D01*
X271848Y1087341D01*
X271383Y1085000D01*
X271848Y1082659D01*
X273174Y1080674D01*
X275159Y1079348D01*
X277500Y1078882D01*
X279841Y1079348D01*
X281826Y1080674D01*
X283152Y1082659D01*
X283617Y1085000D01*
X283152Y1087341D01*
X281826Y1089326D01*
X279841Y1090652D01*
X277500Y1091117D01*
D02*
G37*
G36*
X252620Y1086588D02*
X250864Y1086239D01*
X249376Y1085244D01*
X248381Y1083756D01*
X248032Y1082000D01*
X248381Y1080244D01*
X249376Y1078756D01*
X250864Y1077761D01*
X252620Y1077412D01*
X254376Y1077761D01*
X255864Y1078756D01*
X256859Y1080244D01*
X257208Y1082000D01*
X256859Y1083756D01*
X255864Y1085244D01*
X254376Y1086239D01*
X252620Y1086588D01*
D02*
G37*
G36*
X235000D02*
X233244Y1086239D01*
X231756Y1085244D01*
X230761Y1083756D01*
X230412Y1082000D01*
X230761Y1080244D01*
X231756Y1078756D01*
X233244Y1077761D01*
X235000Y1077412D01*
X236756Y1077761D01*
X238244Y1078756D01*
X239239Y1080244D01*
X239588Y1082000D01*
X239239Y1083756D01*
X238244Y1085244D01*
X236756Y1086239D01*
X235000Y1086588D01*
D02*
G37*
G36*
X215000D02*
X213244Y1086239D01*
X211756Y1085244D01*
X210761Y1083756D01*
X210412Y1082000D01*
X210761Y1080244D01*
X211756Y1078756D01*
X213244Y1077761D01*
X215000Y1077412D01*
X216756Y1077761D01*
X218244Y1078756D01*
X219239Y1080244D01*
X219588Y1082000D01*
X219239Y1083756D01*
X218244Y1085244D01*
X216756Y1086239D01*
X215000Y1086588D01*
D02*
G37*
G36*
X195000D02*
X193244Y1086239D01*
X191756Y1085244D01*
X190761Y1083756D01*
X190412Y1082000D01*
X190761Y1080244D01*
X191756Y1078756D01*
X193244Y1077761D01*
X195000Y1077412D01*
X196756Y1077761D01*
X198244Y1078756D01*
X199239Y1080244D01*
X199588Y1082000D01*
X199239Y1083756D01*
X198244Y1085244D01*
X196756Y1086239D01*
X195000Y1086588D01*
D02*
G37*
G36*
X175000D02*
X173244Y1086239D01*
X171756Y1085244D01*
X170761Y1083756D01*
X170412Y1082000D01*
X170761Y1080244D01*
X171756Y1078756D01*
X173244Y1077761D01*
X175000Y1077412D01*
X176756Y1077761D01*
X178244Y1078756D01*
X179239Y1080244D01*
X179588Y1082000D01*
X179239Y1083756D01*
X178244Y1085244D01*
X176756Y1086239D01*
X175000Y1086588D01*
D02*
G37*
G36*
X155000D02*
X153244Y1086239D01*
X151756Y1085244D01*
X150761Y1083756D01*
X150412Y1082000D01*
X150761Y1080244D01*
X151756Y1078756D01*
X153244Y1077761D01*
X155000Y1077412D01*
X156756Y1077761D01*
X158244Y1078756D01*
X159239Y1080244D01*
X159588Y1082000D01*
X159239Y1083756D01*
X158244Y1085244D01*
X156756Y1086239D01*
X155000Y1086588D01*
D02*
G37*
G36*
X135000D02*
X133244Y1086239D01*
X131756Y1085244D01*
X130761Y1083756D01*
X130412Y1082000D01*
X130761Y1080244D01*
X131756Y1078756D01*
X133244Y1077761D01*
X135000Y1077412D01*
X136756Y1077761D01*
X138244Y1078756D01*
X139239Y1080244D01*
X139588Y1082000D01*
X139239Y1083756D01*
X138244Y1085244D01*
X136756Y1086239D01*
X135000Y1086588D01*
D02*
G37*
G36*
X117380D02*
X115624Y1086239D01*
X114136Y1085244D01*
X113141Y1083756D01*
X112792Y1082000D01*
X113141Y1080244D01*
X114136Y1078756D01*
X115624Y1077761D01*
X117380Y1077412D01*
X119136Y1077761D01*
X120624Y1078756D01*
X121619Y1080244D01*
X121968Y1082000D01*
X121619Y1083756D01*
X120624Y1085244D01*
X119136Y1086239D01*
X117380Y1086588D01*
D02*
G37*
G36*
X25000Y1089795D02*
X22128Y1089417D01*
X19453Y1088308D01*
X17155Y1086545D01*
X15391Y1084248D01*
X14283Y1081572D01*
X13905Y1078700D01*
X14283Y1075828D01*
X15391Y1073152D01*
X17155Y1070855D01*
X19453Y1069091D01*
X22128Y1067983D01*
X25000Y1067605D01*
X27872Y1067983D01*
X30547Y1069091D01*
X32845Y1070855D01*
X34609Y1073152D01*
X35717Y1075828D01*
X36095Y1078700D01*
X35717Y1081572D01*
X34609Y1084248D01*
X32845Y1086545D01*
X30547Y1088308D01*
X27872Y1089417D01*
X25000Y1089795D01*
D02*
G37*
G36*
X290000Y1066118D02*
X287659Y1065652D01*
X285674Y1064326D01*
X284424Y1062455D01*
X283750Y1062395D01*
X283076Y1062455D01*
X281826Y1064326D01*
X279841Y1065652D01*
X277500Y1066118D01*
X275159Y1065652D01*
X273174Y1064326D01*
X271848Y1062341D01*
X271382Y1060000D01*
X271848Y1057659D01*
X273174Y1055674D01*
X275159Y1054348D01*
X277500Y1053883D01*
X279841Y1054348D01*
X281826Y1055674D01*
X283076Y1057545D01*
X283750Y1057605D01*
X284424Y1057545D01*
X285674Y1055674D01*
X287659Y1054348D01*
X290000Y1053883D01*
X292341Y1054348D01*
X294326Y1055674D01*
X295652Y1057659D01*
X296117Y1060000D01*
X295652Y1062341D01*
X294326Y1064326D01*
X292341Y1065652D01*
X290000Y1066118D01*
D02*
G37*
G36*
X252620Y1070588D02*
X250864Y1070239D01*
X249376Y1069244D01*
X248381Y1067756D01*
X248032Y1066000D01*
X248381Y1064244D01*
X249376Y1062756D01*
X250864Y1061761D01*
X252620Y1061412D01*
X254376Y1061761D01*
X255864Y1062756D01*
X256859Y1064244D01*
X257208Y1066000D01*
X256859Y1067756D01*
X255864Y1069244D01*
X254376Y1070239D01*
X252620Y1070588D01*
D02*
G37*
G36*
X235000D02*
X233244Y1070239D01*
X231756Y1069244D01*
X230761Y1067756D01*
X230412Y1066000D01*
X230761Y1064244D01*
X231756Y1062756D01*
X233244Y1061761D01*
X235000Y1061412D01*
X236756Y1061761D01*
X238244Y1062756D01*
X239239Y1064244D01*
X239588Y1066000D01*
X239239Y1067756D01*
X238244Y1069244D01*
X236756Y1070239D01*
X235000Y1070588D01*
D02*
G37*
G36*
X215000D02*
X213244Y1070239D01*
X211756Y1069244D01*
X210761Y1067756D01*
X210412Y1066000D01*
X210761Y1064244D01*
X211756Y1062756D01*
X213244Y1061761D01*
X215000Y1061412D01*
X216756Y1061761D01*
X218244Y1062756D01*
X219239Y1064244D01*
X219588Y1066000D01*
X219239Y1067756D01*
X218244Y1069244D01*
X216756Y1070239D01*
X215000Y1070588D01*
D02*
G37*
G36*
X195000D02*
X193244Y1070239D01*
X191756Y1069244D01*
X190761Y1067756D01*
X190412Y1066000D01*
X190761Y1064244D01*
X191756Y1062756D01*
X193244Y1061761D01*
X195000Y1061412D01*
X196756Y1061761D01*
X198244Y1062756D01*
X199239Y1064244D01*
X199588Y1066000D01*
X199239Y1067756D01*
X198244Y1069244D01*
X196756Y1070239D01*
X195000Y1070588D01*
D02*
G37*
G36*
X175000D02*
X173244Y1070239D01*
X171756Y1069244D01*
X170761Y1067756D01*
X170412Y1066000D01*
X170761Y1064244D01*
X171756Y1062756D01*
X173244Y1061761D01*
X175000Y1061412D01*
X176756Y1061761D01*
X178244Y1062756D01*
X179239Y1064244D01*
X179588Y1066000D01*
X179239Y1067756D01*
X178244Y1069244D01*
X176756Y1070239D01*
X175000Y1070588D01*
D02*
G37*
G36*
X155000D02*
X153244Y1070239D01*
X151756Y1069244D01*
X150761Y1067756D01*
X150412Y1066000D01*
X150761Y1064244D01*
X151756Y1062756D01*
X153244Y1061761D01*
X155000Y1061412D01*
X156756Y1061761D01*
X158244Y1062756D01*
X159239Y1064244D01*
X159588Y1066000D01*
X159239Y1067756D01*
X158244Y1069244D01*
X156756Y1070239D01*
X155000Y1070588D01*
D02*
G37*
G36*
X135000D02*
X133244Y1070239D01*
X131756Y1069244D01*
X130761Y1067756D01*
X130412Y1066000D01*
X130761Y1064244D01*
X131756Y1062756D01*
X133244Y1061761D01*
X135000Y1061412D01*
X136756Y1061761D01*
X138244Y1062756D01*
X139239Y1064244D01*
X139588Y1066000D01*
X139239Y1067756D01*
X138244Y1069244D01*
X136756Y1070239D01*
X135000Y1070588D01*
D02*
G37*
G36*
X117380D02*
X115624Y1070239D01*
X114136Y1069244D01*
X113141Y1067756D01*
X112792Y1066000D01*
X113141Y1064244D01*
X114136Y1062756D01*
X115624Y1061761D01*
X117380Y1061412D01*
X119136Y1061761D01*
X120624Y1062756D01*
X121619Y1064244D01*
X121968Y1066000D01*
X121619Y1067756D01*
X120624Y1069244D01*
X119136Y1070239D01*
X117380Y1070588D01*
D02*
G37*
G36*
X252620Y1054588D02*
X250864Y1054239D01*
X249376Y1053244D01*
X248381Y1051756D01*
X248032Y1050000D01*
X248381Y1048244D01*
X249376Y1046756D01*
X250864Y1045761D01*
X252620Y1045412D01*
X254376Y1045761D01*
X255864Y1046756D01*
X256859Y1048244D01*
X257208Y1050000D01*
X256859Y1051756D01*
X255864Y1053244D01*
X254376Y1054239D01*
X252620Y1054588D01*
D02*
G37*
G36*
X235000D02*
X233244Y1054239D01*
X231756Y1053244D01*
X230761Y1051756D01*
X230412Y1050000D01*
X230761Y1048244D01*
X231756Y1046756D01*
X233244Y1045761D01*
X235000Y1045412D01*
X236756Y1045761D01*
X238244Y1046756D01*
X239239Y1048244D01*
X239588Y1050000D01*
X239239Y1051756D01*
X238244Y1053244D01*
X236756Y1054239D01*
X235000Y1054588D01*
D02*
G37*
G36*
X215000D02*
X213244Y1054239D01*
X211756Y1053244D01*
X210761Y1051756D01*
X210412Y1050000D01*
X210761Y1048244D01*
X211756Y1046756D01*
X213244Y1045761D01*
X215000Y1045412D01*
X216756Y1045761D01*
X218244Y1046756D01*
X219239Y1048244D01*
X219588Y1050000D01*
X219239Y1051756D01*
X218244Y1053244D01*
X216756Y1054239D01*
X215000Y1054588D01*
D02*
G37*
G36*
X195000D02*
X193244Y1054239D01*
X191756Y1053244D01*
X190761Y1051756D01*
X190412Y1050000D01*
X190761Y1048244D01*
X191756Y1046756D01*
X193244Y1045761D01*
X195000Y1045412D01*
X196756Y1045761D01*
X198244Y1046756D01*
X199239Y1048244D01*
X199588Y1050000D01*
X199239Y1051756D01*
X198244Y1053244D01*
X196756Y1054239D01*
X195000Y1054588D01*
D02*
G37*
G36*
X175000D02*
X173244Y1054239D01*
X171756Y1053244D01*
X170761Y1051756D01*
X170412Y1050000D01*
X170761Y1048244D01*
X171756Y1046756D01*
X173244Y1045761D01*
X175000Y1045412D01*
X176756Y1045761D01*
X178244Y1046756D01*
X179239Y1048244D01*
X179588Y1050000D01*
X179239Y1051756D01*
X178244Y1053244D01*
X176756Y1054239D01*
X175000Y1054588D01*
D02*
G37*
G36*
X155000D02*
X153244Y1054239D01*
X151756Y1053244D01*
X150761Y1051756D01*
X150412Y1050000D01*
X150761Y1048244D01*
X151756Y1046756D01*
X153244Y1045761D01*
X155000Y1045412D01*
X156756Y1045761D01*
X158244Y1046756D01*
X159239Y1048244D01*
X159588Y1050000D01*
X159239Y1051756D01*
X158244Y1053244D01*
X156756Y1054239D01*
X155000Y1054588D01*
D02*
G37*
G36*
X135000D02*
X133244Y1054239D01*
X131756Y1053244D01*
X130761Y1051756D01*
X130412Y1050000D01*
X130761Y1048244D01*
X131756Y1046756D01*
X133244Y1045761D01*
X135000Y1045412D01*
X136756Y1045761D01*
X138244Y1046756D01*
X139239Y1048244D01*
X139588Y1050000D01*
X139239Y1051756D01*
X138244Y1053244D01*
X136756Y1054239D01*
X135000Y1054588D01*
D02*
G37*
G36*
X117380D02*
X115624Y1054239D01*
X114136Y1053244D01*
X113141Y1051756D01*
X112792Y1050000D01*
X113141Y1048244D01*
X114136Y1046756D01*
X115624Y1045761D01*
X117380Y1045412D01*
X119136Y1045761D01*
X120624Y1046756D01*
X121619Y1048244D01*
X121968Y1050000D01*
X121619Y1051756D01*
X120624Y1053244D01*
X119136Y1054239D01*
X117380Y1054588D01*
D02*
G37*
G36*
X25000Y1064395D02*
X22128Y1064017D01*
X19453Y1062908D01*
X17155Y1061145D01*
X15391Y1058848D01*
X14283Y1056172D01*
X13905Y1053300D01*
X14283Y1050428D01*
X15391Y1047753D01*
X17155Y1045455D01*
X19453Y1043691D01*
X22128Y1042583D01*
X25000Y1042205D01*
X27872Y1042583D01*
X30547Y1043691D01*
X32845Y1045455D01*
X34609Y1047753D01*
X35717Y1050428D01*
X36095Y1053300D01*
X35717Y1056172D01*
X34609Y1058848D01*
X32845Y1061145D01*
X30547Y1062908D01*
X27872Y1064017D01*
X25000Y1064395D01*
D02*
G37*
G36*
X252620Y1038588D02*
X250864Y1038239D01*
X249376Y1037244D01*
X248381Y1035756D01*
X248032Y1034000D01*
X248381Y1032244D01*
X249376Y1030756D01*
X250864Y1029761D01*
X252620Y1029412D01*
X254376Y1029761D01*
X255864Y1030756D01*
X256859Y1032244D01*
X257208Y1034000D01*
X256859Y1035756D01*
X255864Y1037244D01*
X254376Y1038239D01*
X252620Y1038588D01*
D02*
G37*
G36*
X235000D02*
X233244Y1038239D01*
X231756Y1037244D01*
X230761Y1035756D01*
X230412Y1034000D01*
X230761Y1032244D01*
X231756Y1030756D01*
X233244Y1029761D01*
X235000Y1029412D01*
X236756Y1029761D01*
X238244Y1030756D01*
X239239Y1032244D01*
X239588Y1034000D01*
X239239Y1035756D01*
X238244Y1037244D01*
X236756Y1038239D01*
X235000Y1038588D01*
D02*
G37*
G36*
X215000D02*
X213244Y1038239D01*
X211756Y1037244D01*
X210761Y1035756D01*
X210412Y1034000D01*
X210761Y1032244D01*
X211756Y1030756D01*
X213244Y1029761D01*
X215000Y1029412D01*
X216756Y1029761D01*
X218244Y1030756D01*
X219239Y1032244D01*
X219588Y1034000D01*
X219239Y1035756D01*
X218244Y1037244D01*
X216756Y1038239D01*
X215000Y1038588D01*
D02*
G37*
G36*
X195000D02*
X193244Y1038239D01*
X191756Y1037244D01*
X190761Y1035756D01*
X190412Y1034000D01*
X190761Y1032244D01*
X191756Y1030756D01*
X193244Y1029761D01*
X195000Y1029412D01*
X196756Y1029761D01*
X198244Y1030756D01*
X199239Y1032244D01*
X199588Y1034000D01*
X199239Y1035756D01*
X198244Y1037244D01*
X196756Y1038239D01*
X195000Y1038588D01*
D02*
G37*
G36*
X175000D02*
X173244Y1038239D01*
X171756Y1037244D01*
X170761Y1035756D01*
X170412Y1034000D01*
X170761Y1032244D01*
X171756Y1030756D01*
X173244Y1029761D01*
X175000Y1029412D01*
X176756Y1029761D01*
X178244Y1030756D01*
X179239Y1032244D01*
X179588Y1034000D01*
X179239Y1035756D01*
X178244Y1037244D01*
X176756Y1038239D01*
X175000Y1038588D01*
D02*
G37*
G36*
X155000D02*
X153244Y1038239D01*
X151756Y1037244D01*
X150761Y1035756D01*
X150412Y1034000D01*
X150761Y1032244D01*
X151756Y1030756D01*
X153244Y1029761D01*
X155000Y1029412D01*
X156756Y1029761D01*
X158244Y1030756D01*
X159239Y1032244D01*
X159588Y1034000D01*
X159239Y1035756D01*
X158244Y1037244D01*
X156756Y1038239D01*
X155000Y1038588D01*
D02*
G37*
G36*
X135000D02*
X133244Y1038239D01*
X131756Y1037244D01*
X130761Y1035756D01*
X130412Y1034000D01*
X130761Y1032244D01*
X131756Y1030756D01*
X133244Y1029761D01*
X135000Y1029412D01*
X136756Y1029761D01*
X138244Y1030756D01*
X139239Y1032244D01*
X139588Y1034000D01*
X139239Y1035756D01*
X138244Y1037244D01*
X136756Y1038239D01*
X135000Y1038588D01*
D02*
G37*
G36*
X117380D02*
X115624Y1038239D01*
X114136Y1037244D01*
X113141Y1035756D01*
X112792Y1034000D01*
X113141Y1032244D01*
X114136Y1030756D01*
X115624Y1029761D01*
X117380Y1029412D01*
X119136Y1029761D01*
X120624Y1030756D01*
X121619Y1032244D01*
X121968Y1034000D01*
X121619Y1035756D01*
X120624Y1037244D01*
X119136Y1038239D01*
X117380Y1038588D01*
D02*
G37*
G36*
X276000Y1039118D02*
X273659Y1038652D01*
X271674Y1037326D01*
X270348Y1035341D01*
X269883Y1033000D01*
X270348Y1030659D01*
X271674Y1028674D01*
X273659Y1027348D01*
X276000Y1026882D01*
X278341Y1027348D01*
X280326Y1028674D01*
X281652Y1030659D01*
X282118Y1033000D01*
X281652Y1035341D01*
X280326Y1037326D01*
X278341Y1038652D01*
X276000Y1039118D01*
D02*
G37*
G36*
X48000Y1047117D02*
X45659Y1046652D01*
X43674Y1045326D01*
X42348Y1043341D01*
X41883Y1041000D01*
X42348Y1038659D01*
X43674Y1036674D01*
X45659Y1035348D01*
X46668Y1035147D01*
Y1033853D01*
X45659Y1033652D01*
X43674Y1032326D01*
X42348Y1030341D01*
X41883Y1028000D01*
X42348Y1025659D01*
X43674Y1023674D01*
X45659Y1022348D01*
X48000Y1021882D01*
X50341Y1022348D01*
X52326Y1023674D01*
X53652Y1025659D01*
X54117Y1028000D01*
X53652Y1030341D01*
X52326Y1032326D01*
X50341Y1033652D01*
X49332Y1033853D01*
Y1035147D01*
X50341Y1035348D01*
X52326Y1036674D01*
X53652Y1038659D01*
X54117Y1041000D01*
X53652Y1043341D01*
X52326Y1045326D01*
X50341Y1046652D01*
X48000Y1047117D01*
D02*
G37*
G36*
X301000Y1023118D02*
X298659Y1022652D01*
X296674Y1021326D01*
X295348Y1019341D01*
X295147Y1018332D01*
X293853D01*
X293652Y1019341D01*
X292326Y1021326D01*
X290341Y1022652D01*
X288000Y1023118D01*
X285659Y1022652D01*
X283674Y1021326D01*
X282733Y1019918D01*
X281266D01*
X280326Y1021326D01*
X278341Y1022652D01*
X276000Y1023118D01*
X273659Y1022652D01*
X271674Y1021326D01*
X270348Y1019341D01*
X269883Y1017000D01*
X270348Y1014659D01*
X271674Y1012674D01*
X273659Y1011348D01*
X276000Y1010882D01*
X278341Y1011348D01*
X280326Y1012674D01*
X281266Y1014082D01*
X282733D01*
X283674Y1012674D01*
X285659Y1011348D01*
X288000Y1010882D01*
X290341Y1011348D01*
X292326Y1012674D01*
X293652Y1014659D01*
X293853Y1015668D01*
X295147D01*
X295348Y1014659D01*
X296674Y1012674D01*
X298659Y1011348D01*
X301000Y1010882D01*
X303341Y1011348D01*
X305326Y1012674D01*
X306652Y1014659D01*
X307118Y1017000D01*
X306652Y1019341D01*
X305326Y1021326D01*
X303341Y1022652D01*
X301000Y1023118D01*
D02*
G37*
G36*
X25000Y1038995D02*
X22128Y1038617D01*
X19453Y1037508D01*
X17155Y1035745D01*
X15391Y1033447D01*
X14283Y1030772D01*
X13905Y1027900D01*
X14283Y1025028D01*
X15391Y1022353D01*
X17155Y1020055D01*
X19453Y1018291D01*
X22128Y1017183D01*
X25000Y1016805D01*
X27872Y1017183D01*
X30547Y1018291D01*
X32845Y1020055D01*
X34609Y1022353D01*
X35717Y1025028D01*
X36095Y1027900D01*
X35717Y1030772D01*
X34609Y1033447D01*
X32845Y1035745D01*
X30547Y1037508D01*
X27872Y1038617D01*
X25000Y1038995D01*
D02*
G37*
G36*
X252620Y1022588D02*
X250864Y1022239D01*
X249376Y1021244D01*
X248381Y1019756D01*
X248032Y1018000D01*
X248381Y1016244D01*
X249376Y1014756D01*
X250864Y1013761D01*
X252620Y1013412D01*
X254376Y1013761D01*
X255864Y1014756D01*
X256859Y1016244D01*
X257208Y1018000D01*
X256859Y1019756D01*
X255864Y1021244D01*
X254376Y1022239D01*
X252620Y1022588D01*
D02*
G37*
G36*
X235000D02*
X233244Y1022239D01*
X231756Y1021244D01*
X230761Y1019756D01*
X230412Y1018000D01*
X230761Y1016244D01*
X231756Y1014756D01*
X233244Y1013761D01*
X235000Y1013412D01*
X236756Y1013761D01*
X238244Y1014756D01*
X239239Y1016244D01*
X239588Y1018000D01*
X239239Y1019756D01*
X238244Y1021244D01*
X236756Y1022239D01*
X235000Y1022588D01*
D02*
G37*
G36*
X215000D02*
X213244Y1022239D01*
X211756Y1021244D01*
X210761Y1019756D01*
X210412Y1018000D01*
X210761Y1016244D01*
X211756Y1014756D01*
X213244Y1013761D01*
X215000Y1013412D01*
X216756Y1013761D01*
X218244Y1014756D01*
X219239Y1016244D01*
X219588Y1018000D01*
X219239Y1019756D01*
X218244Y1021244D01*
X216756Y1022239D01*
X215000Y1022588D01*
D02*
G37*
G36*
X195000D02*
X193244Y1022239D01*
X191756Y1021244D01*
X190761Y1019756D01*
X190412Y1018000D01*
X190761Y1016244D01*
X191756Y1014756D01*
X193244Y1013761D01*
X195000Y1013412D01*
X196756Y1013761D01*
X198244Y1014756D01*
X199239Y1016244D01*
X199588Y1018000D01*
X199239Y1019756D01*
X198244Y1021244D01*
X196756Y1022239D01*
X195000Y1022588D01*
D02*
G37*
G36*
X175000D02*
X173244Y1022239D01*
X171756Y1021244D01*
X170761Y1019756D01*
X170412Y1018000D01*
X170761Y1016244D01*
X171756Y1014756D01*
X173244Y1013761D01*
X175000Y1013412D01*
X176756Y1013761D01*
X178244Y1014756D01*
X179239Y1016244D01*
X179588Y1018000D01*
X179239Y1019756D01*
X178244Y1021244D01*
X176756Y1022239D01*
X175000Y1022588D01*
D02*
G37*
G36*
X155000D02*
X153244Y1022239D01*
X151756Y1021244D01*
X150761Y1019756D01*
X150412Y1018000D01*
X150761Y1016244D01*
X151756Y1014756D01*
X153244Y1013761D01*
X155000Y1013412D01*
X156756Y1013761D01*
X158244Y1014756D01*
X159239Y1016244D01*
X159588Y1018000D01*
X159239Y1019756D01*
X158244Y1021244D01*
X156756Y1022239D01*
X155000Y1022588D01*
D02*
G37*
G36*
X135000D02*
X133244Y1022239D01*
X131756Y1021244D01*
X130761Y1019756D01*
X130412Y1018000D01*
X130761Y1016244D01*
X131756Y1014756D01*
X133244Y1013761D01*
X135000Y1013412D01*
X136756Y1013761D01*
X138244Y1014756D01*
X139239Y1016244D01*
X139588Y1018000D01*
X139239Y1019756D01*
X138244Y1021244D01*
X136756Y1022239D01*
X135000Y1022588D01*
D02*
G37*
G36*
X117380D02*
X115624Y1022239D01*
X114136Y1021244D01*
X113141Y1019756D01*
X112792Y1018000D01*
X113141Y1016244D01*
X114136Y1014756D01*
X115624Y1013761D01*
X117380Y1013412D01*
X119136Y1013761D01*
X120624Y1014756D01*
X121619Y1016244D01*
X121968Y1018000D01*
X121619Y1019756D01*
X120624Y1021244D01*
X119136Y1022239D01*
X117380Y1022588D01*
D02*
G37*
G36*
X95000Y1016118D02*
X92659Y1015652D01*
X90674Y1014326D01*
X89348Y1012341D01*
X88882Y1010000D01*
X89348Y1007659D01*
X90674Y1005674D01*
X92659Y1004348D01*
X95000Y1003883D01*
X97341Y1004348D01*
X99326Y1005674D01*
X100652Y1007659D01*
X101117Y1010000D01*
X100652Y1012341D01*
X99326Y1014326D01*
X97341Y1015652D01*
X95000Y1016118D01*
D02*
G37*
G36*
X275000Y1006117D02*
X272659Y1005652D01*
X270674Y1004326D01*
X269348Y1002341D01*
X268883Y1000000D01*
X269348Y997659D01*
X270674Y995674D01*
X272659Y994348D01*
X275000Y993883D01*
X277341Y994348D01*
X279326Y995674D01*
X280652Y997659D01*
X281117Y1000000D01*
X280652Y1002341D01*
X279326Y1004326D01*
X277341Y1005652D01*
X275000Y1006117D01*
D02*
G37*
G36*
X25000Y1013595D02*
X22128Y1013217D01*
X19453Y1012109D01*
X17155Y1010345D01*
X15391Y1008047D01*
X14283Y1005372D01*
X13905Y1002500D01*
X14283Y999628D01*
X15391Y996953D01*
X17155Y994655D01*
X19453Y992891D01*
X22128Y991783D01*
X25000Y991405D01*
X27872Y991783D01*
X30547Y992891D01*
X32845Y994655D01*
X34609Y996953D01*
X35717Y999628D01*
X36095Y1002500D01*
X35717Y1005372D01*
X34609Y1008047D01*
X32845Y1010345D01*
X30547Y1012109D01*
X27872Y1013217D01*
X25000Y1013595D01*
D02*
G37*
G36*
X345000Y1003618D02*
X342659Y1003152D01*
X340674Y1001826D01*
X339348Y999841D01*
X338882Y997500D01*
X339348Y995159D01*
X340674Y993174D01*
X342659Y991848D01*
X345000Y991383D01*
X347341Y991848D01*
X349326Y993174D01*
X350652Y995159D01*
X351118Y997500D01*
X350652Y999841D01*
X349326Y1001826D01*
X347341Y1003152D01*
X345000Y1003618D01*
D02*
G37*
G36*
X171000Y989804D02*
X169927Y989590D01*
X169017Y988983D01*
X168410Y988073D01*
X168196Y987000D01*
X168341Y986270D01*
X167433Y985486D01*
X167312Y985431D01*
X167073Y985590D01*
X166000Y985804D01*
X164927Y985590D01*
X164017Y984983D01*
X163410Y984073D01*
X163196Y983000D01*
X163410Y981927D01*
X164017Y981017D01*
X164927Y980410D01*
X166000Y980196D01*
X167073Y980410D01*
X167983Y981017D01*
X168590Y981927D01*
X168804Y983000D01*
X168659Y983730D01*
X169567Y984514D01*
X169688Y984569D01*
X169927Y984410D01*
X171000Y984196D01*
X172073Y984410D01*
X172139Y984454D01*
X172755Y984073D01*
X173169Y983614D01*
X172991Y982722D01*
X173205Y981649D01*
X173812Y980740D01*
X174722Y980132D01*
X175795Y979919D01*
X176868Y980132D01*
X177778Y980740D01*
X178386Y981649D01*
X178599Y982722D01*
X178386Y983795D01*
X177778Y984705D01*
X176868Y985313D01*
X175795Y985526D01*
X174722Y985313D01*
X174656Y985268D01*
X174040Y985649D01*
X173626Y986108D01*
X173804Y987000D01*
X173590Y988073D01*
X172983Y988983D01*
X172073Y989590D01*
X171000Y989804D01*
D02*
G37*
G36*
X209375Y994243D02*
X207034Y993777D01*
X205049Y992451D01*
X203723Y990466D01*
X203257Y988125D01*
X203723Y985784D01*
X205049Y983799D01*
X207034Y982473D01*
X209375Y982008D01*
X211716Y982473D01*
X213701Y983799D01*
X215027Y985784D01*
X215492Y988125D01*
X215027Y990466D01*
X213701Y992451D01*
X211716Y993777D01*
X209375Y994243D01*
D02*
G37*
G36*
X135000Y994118D02*
X132659Y993652D01*
X130674Y992326D01*
X129348Y990341D01*
X128883Y988000D01*
X129348Y985659D01*
X130674Y983674D01*
X132659Y982348D01*
X135000Y981882D01*
X137341Y982348D01*
X139326Y983674D01*
X140652Y985659D01*
X141117Y988000D01*
X140652Y990341D01*
X139326Y992326D01*
X137341Y993652D01*
X135000Y994118D01*
D02*
G37*
G36*
X185000Y993118D02*
X182659Y992652D01*
X180674Y991326D01*
X179348Y989341D01*
X178883Y987000D01*
X179348Y984659D01*
X180674Y982674D01*
X182659Y981348D01*
X185000Y980882D01*
X187341Y981348D01*
X189326Y982674D01*
X190652Y984659D01*
X191118Y987000D01*
X190652Y989341D01*
X189326Y991326D01*
X187341Y992652D01*
X185000Y993118D01*
D02*
G37*
G36*
X155000Y991118D02*
X152659Y990652D01*
X150674Y989326D01*
X149348Y987341D01*
X148883Y985000D01*
X149348Y982659D01*
X150674Y980674D01*
X152659Y979348D01*
X155000Y978883D01*
X157341Y979348D01*
X159326Y980674D01*
X160652Y982659D01*
X161117Y985000D01*
X160652Y987341D01*
X159326Y989326D01*
X157341Y990652D01*
X155000Y991118D01*
D02*
G37*
G36*
X225250Y989617D02*
X222909Y989152D01*
X220924Y987826D01*
X219598Y985841D01*
X219132Y983500D01*
X219598Y981159D01*
X220924Y979174D01*
X222909Y977848D01*
X225250Y977382D01*
X227591Y977848D01*
X229576Y979174D01*
X230902Y981159D01*
X231367Y983500D01*
X230902Y985841D01*
X229576Y987826D01*
X227591Y989152D01*
X225250Y989617D01*
D02*
G37*
G36*
X264000Y982117D02*
X261659Y981652D01*
X259674Y980326D01*
X258348Y978341D01*
X257882Y976000D01*
X258348Y973659D01*
X259674Y971674D01*
X261659Y970348D01*
X264000Y969883D01*
X266341Y970348D01*
X268326Y971674D01*
X269652Y973659D01*
X270117Y976000D01*
X269652Y978341D01*
X268326Y980326D01*
X266341Y981652D01*
X264000Y982117D01*
D02*
G37*
G36*
X36000Y988100D02*
X14000D01*
Y966100D01*
X36000D01*
Y988100D01*
D02*
G37*
G36*
X233750Y972868D02*
X231409Y972402D01*
X229424Y971076D01*
X228098Y969091D01*
X227633Y966750D01*
X228098Y964409D01*
X229424Y962424D01*
X231409Y961098D01*
X233750Y960632D01*
X236091Y961098D01*
X238076Y962424D01*
X239402Y964409D01*
X239867Y966750D01*
X239402Y969091D01*
X238076Y971076D01*
X236091Y972402D01*
X233750Y972868D01*
D02*
G37*
G36*
X345000Y968617D02*
X342659Y968152D01*
X340674Y966826D01*
X339348Y964841D01*
X338882Y962500D01*
X339348Y960159D01*
X340674Y958174D01*
X342659Y956848D01*
X345000Y956383D01*
X347341Y956848D01*
X349326Y958174D01*
X350652Y960159D01*
X351118Y962500D01*
X350652Y964841D01*
X349326Y966826D01*
X347341Y968152D01*
X345000Y968617D01*
D02*
G37*
G36*
X265000Y961117D02*
X262659Y960652D01*
X260674Y959326D01*
X259348Y957341D01*
X258883Y955000D01*
X259348Y952659D01*
X260674Y950674D01*
X262659Y949348D01*
X265000Y948883D01*
X267341Y949348D01*
X269326Y950674D01*
X270652Y952659D01*
X271117Y955000D01*
X270652Y957341D01*
X269326Y959326D01*
X267341Y960652D01*
X265000Y961117D01*
D02*
G37*
G36*
X229500Y953118D02*
X227159Y952652D01*
X225174Y951326D01*
X223848Y949341D01*
X223382Y947000D01*
X223848Y944659D01*
X225174Y942674D01*
X227159Y941348D01*
X229500Y940882D01*
X231841Y941348D01*
X233826Y942674D01*
X235152Y944659D01*
X235618Y947000D01*
X235152Y949341D01*
X233826Y951326D01*
X231841Y952652D01*
X229500Y953118D01*
D02*
G37*
G36*
X150000Y942500D02*
X147659Y942034D01*
X145674Y940708D01*
X144348Y938724D01*
X143883Y936383D01*
X144348Y934041D01*
X145674Y932057D01*
X147659Y930731D01*
X150000Y930265D01*
X152341Y930731D01*
X154326Y932057D01*
X155652Y934041D01*
X156117Y936383D01*
X155652Y938724D01*
X154326Y940708D01*
X152341Y942034D01*
X150000Y942500D01*
D02*
G37*
G36*
X130000D02*
X127659Y942034D01*
X125674Y940708D01*
X124348Y938724D01*
X123883Y936383D01*
X124348Y934041D01*
X125674Y932057D01*
X127659Y930731D01*
X130000Y930265D01*
X132341Y930731D01*
X134326Y932057D01*
X135652Y934041D01*
X136117Y936383D01*
X135652Y938724D01*
X134326Y940708D01*
X132341Y942034D01*
X130000Y942500D01*
D02*
G37*
G36*
X105000Y931117D02*
X102659Y930652D01*
X100674Y929326D01*
X99348Y927341D01*
X98883Y925000D01*
X99348Y922659D01*
X100674Y920674D01*
X102659Y919348D01*
X105000Y918883D01*
X107341Y919348D01*
X109326Y920674D01*
X110652Y922659D01*
X111117Y925000D01*
X110652Y927341D01*
X109326Y929326D01*
X107341Y930652D01*
X105000Y931117D01*
D02*
G37*
G36*
X37500Y926116D02*
X35159Y925650D01*
X33174Y924324D01*
X31848Y922339D01*
X31382Y919998D01*
X31848Y917657D01*
X33174Y915672D01*
X35159Y914346D01*
X37500Y913881D01*
X39841Y914346D01*
X41826Y915672D01*
X43152Y917657D01*
X43618Y919998D01*
X43152Y922339D01*
X41826Y924324D01*
X39841Y925650D01*
X37500Y926116D01*
D02*
G37*
G36*
X230000Y936117D02*
X227659Y935652D01*
X225674Y934326D01*
X224348Y932341D01*
X223883Y930000D01*
X224348Y927659D01*
X225674Y925674D01*
X227545Y924424D01*
X227605Y923750D01*
X227545Y923076D01*
X225674Y921826D01*
X224348Y919841D01*
X223883Y917500D01*
X224348Y915159D01*
X225674Y913174D01*
X227659Y911848D01*
X230000Y911383D01*
X232341Y911848D01*
X234326Y913174D01*
X235652Y915159D01*
X236117Y917500D01*
X235652Y919841D01*
X234326Y921826D01*
X232455Y923076D01*
X232395Y923750D01*
X232455Y924424D01*
X234326Y925674D01*
X235652Y927659D01*
X236117Y930000D01*
X235652Y932341D01*
X234326Y934326D01*
X232341Y935652D01*
X230000Y936117D01*
D02*
G37*
G36*
X159000Y910117D02*
X156659Y909652D01*
X154674Y908326D01*
X153348Y906341D01*
X152882Y904000D01*
X153348Y901659D01*
X154674Y899674D01*
X156659Y898348D01*
X159000Y897883D01*
X161341Y898348D01*
X163326Y899674D01*
X164652Y901659D01*
X165118Y904000D01*
X164652Y906341D01*
X163326Y908326D01*
X161341Y909652D01*
X159000Y910117D01*
D02*
G37*
G36*
X296000Y895117D02*
X293659Y894652D01*
X291674Y893326D01*
X290348Y891341D01*
X289883Y889000D01*
X290348Y886659D01*
X291674Y884674D01*
X293659Y883348D01*
X296000Y882883D01*
X298341Y883348D01*
X300326Y884674D01*
X301652Y886659D01*
X302118Y889000D01*
X301652Y891341D01*
X300326Y893326D01*
X298341Y894652D01*
X296000Y895117D01*
D02*
G37*
G36*
X207500Y884804D02*
X206427Y884590D01*
X205517Y883983D01*
X204910Y883073D01*
X204696Y882000D01*
X204910Y880927D01*
X205517Y880017D01*
X206427Y879410D01*
X207500Y879196D01*
X208573Y879410D01*
X209483Y880017D01*
X210090Y880927D01*
X210304Y882000D01*
X210090Y883073D01*
X209483Y883983D01*
X208573Y884590D01*
X207500Y884804D01*
D02*
G37*
G36*
X215000Y884575D02*
X213927Y884361D01*
X213017Y883754D01*
X212410Y882844D01*
X212196Y881771D01*
X212410Y880698D01*
X213017Y879788D01*
X213927Y879181D01*
X215000Y878967D01*
X216073Y879181D01*
X216983Y879788D01*
X217590Y880698D01*
X217804Y881771D01*
X217590Y882844D01*
X216983Y883754D01*
X216073Y884361D01*
X215000Y884575D01*
D02*
G37*
G36*
X112500Y888616D02*
X110159Y888150D01*
X108174Y886824D01*
X106848Y884839D01*
X106382Y882498D01*
X106848Y880157D01*
X108174Y878173D01*
X110159Y876846D01*
X112500Y876381D01*
X114841Y876846D01*
X116826Y878173D01*
X118152Y880157D01*
X118617Y882498D01*
X118152Y884839D01*
X116826Y886824D01*
X114841Y888150D01*
X112500Y888616D01*
D02*
G37*
G36*
X227000Y887117D02*
X224659Y886652D01*
X222674Y885326D01*
X221348Y883341D01*
X220882Y881000D01*
X221348Y878659D01*
X222674Y876674D01*
X224659Y875348D01*
X227000Y874883D01*
X229341Y875348D01*
X231326Y876674D01*
X232652Y878659D01*
X233118Y881000D01*
X232652Y883341D01*
X231326Y885326D01*
X229341Y886652D01*
X227000Y887117D01*
D02*
G37*
G36*
X197000Y877117D02*
X194659Y876652D01*
X192674Y875326D01*
X191348Y873341D01*
X190882Y871000D01*
X191348Y868659D01*
X192674Y866674D01*
X194659Y865348D01*
X197000Y864883D01*
X199341Y865348D01*
X201326Y866674D01*
X202652Y868659D01*
X203118Y871000D01*
X202652Y873341D01*
X201326Y875326D01*
X199341Y876652D01*
X197000Y877117D01*
D02*
G37*
G36*
X256196Y864608D02*
X255123Y864394D01*
X254214Y863786D01*
X253606Y862877D01*
X253392Y861804D01*
X253606Y860731D01*
X254214Y859821D01*
X255123Y859213D01*
X256196Y859000D01*
X257269Y859213D01*
X258179Y859821D01*
X258787Y860731D01*
X259000Y861804D01*
X258787Y862877D01*
X258179Y863786D01*
X257269Y864394D01*
X256196Y864608D01*
D02*
G37*
G36*
X115000Y871117D02*
X112659Y870652D01*
X110674Y869326D01*
X109348Y867341D01*
X108883Y865000D01*
X109348Y862659D01*
X110674Y860674D01*
X112659Y859348D01*
X115000Y858883D01*
X117341Y859348D01*
X119326Y860674D01*
X120652Y862659D01*
X121117Y865000D01*
X120652Y867341D01*
X119326Y869326D01*
X117341Y870652D01*
X115000Y871117D01*
D02*
G37*
G36*
X227000Y857117D02*
X224659Y856652D01*
X222674Y855326D01*
X221348Y853341D01*
X220882Y851000D01*
X221348Y848659D01*
X222674Y846674D01*
X224659Y845348D01*
X227000Y844882D01*
X229341Y845348D01*
X231326Y846674D01*
X232652Y848659D01*
X233118Y851000D01*
X232652Y853341D01*
X231326Y855326D01*
X229341Y856652D01*
X227000Y857117D01*
D02*
G37*
G36*
X277999Y864802D02*
X276926Y864589D01*
X276017Y863981D01*
X275409Y863071D01*
X275196Y861998D01*
X275409Y860925D01*
X276017Y860016D01*
X276926Y859408D01*
X277999Y859194D01*
X279002Y858099D01*
X278882Y857500D01*
X279348Y855159D01*
X280592Y853298D01*
X280733Y852862D01*
Y852138D01*
X280592Y851702D01*
X279348Y849841D01*
X278882Y847500D01*
X279348Y845159D01*
X280674Y843174D01*
X282659Y841848D01*
X285000Y841383D01*
X287341Y841848D01*
X289326Y843174D01*
X290652Y845159D01*
X291117Y847500D01*
X290652Y849841D01*
X289408Y851702D01*
X289267Y852138D01*
Y852862D01*
X289408Y853298D01*
X290652Y855159D01*
X291117Y857500D01*
X290652Y859841D01*
X289326Y861826D01*
X287341Y863152D01*
X285000Y863618D01*
X282659Y863152D01*
X281961Y862686D01*
X280760Y863024D01*
X280486Y863227D01*
X279982Y863981D01*
X279072Y864589D01*
X277999Y864802D01*
D02*
G37*
G36*
X163000Y861802D02*
X161927Y861589D01*
X161017Y860981D01*
X160409Y860071D01*
X160196Y858998D01*
X160409Y857925D01*
X161017Y857016D01*
X161215Y856883D01*
Y847000D01*
X161351Y846318D01*
X161738Y845739D01*
X163738Y843738D01*
X164317Y843352D01*
X165000Y843216D01*
X185894D01*
X186397Y842840D01*
X186892Y842000D01*
X186725Y841456D01*
X186017Y840983D01*
X185410Y840073D01*
X185196Y839000D01*
X185410Y837927D01*
X186017Y837017D01*
X186927Y836410D01*
X188000Y836196D01*
X189073Y836410D01*
X189983Y837017D01*
X190590Y837927D01*
X190804Y839000D01*
X191857Y840216D01*
X213970D01*
X214884Y839234D01*
X214642Y838000D01*
X212000D01*
Y805000D01*
X235716Y805000D01*
Y802500D01*
X235851Y801817D01*
X236238Y801238D01*
X245716Y791761D01*
Y784615D01*
X245517Y784483D01*
X244910Y783573D01*
X244696Y782500D01*
X244910Y781427D01*
X245517Y780517D01*
X246427Y779910D01*
X247500Y779696D01*
X248573Y779910D01*
X249483Y780517D01*
X250090Y781427D01*
X250304Y782500D01*
X250090Y783573D01*
X249483Y784483D01*
X249284Y784615D01*
Y792500D01*
X249148Y793183D01*
X248762Y793762D01*
X239284Y803239D01*
Y805000D01*
X255000D01*
X255000Y834102D01*
X255898Y835000D01*
X260000Y835000D01*
X260000Y849000D01*
X245000Y849000D01*
X245000Y838000D01*
X228766D01*
X214004Y852762D01*
X213426Y853148D01*
X212743Y853284D01*
X181596D01*
X180804Y854250D01*
X180590Y855323D01*
X179983Y856233D01*
X179073Y856840D01*
X178000Y857054D01*
X176927Y856840D01*
X176017Y856233D01*
X175410Y855323D01*
X175196Y854250D01*
X175410Y853177D01*
X176017Y852267D01*
X176017Y850981D01*
X175409Y850071D01*
X175196Y848998D01*
X175384Y848054D01*
X175336Y847817D01*
X174644Y846784D01*
X165739D01*
X164784Y847739D01*
Y856883D01*
X164982Y857016D01*
X165590Y857925D01*
X165804Y858998D01*
X165590Y860071D01*
X164982Y860981D01*
X164073Y861589D01*
X163000Y861802D01*
D02*
G37*
G36*
X115000Y846117D02*
X112659Y845652D01*
X110674Y844326D01*
X109348Y842341D01*
X108883Y840000D01*
X109348Y837659D01*
X110674Y835674D01*
X112659Y834348D01*
X115000Y833883D01*
X117341Y834348D01*
X119326Y835674D01*
X120652Y837659D01*
X121117Y840000D01*
X120652Y842341D01*
X119326Y844326D01*
X117341Y845652D01*
X115000Y846117D01*
D02*
G37*
G36*
X359000Y836804D02*
X357927Y836590D01*
X357017Y835983D01*
X356410Y835073D01*
X356196Y834000D01*
X356410Y832927D01*
X357017Y832017D01*
X357927Y831410D01*
X359000Y831196D01*
X360073Y831410D01*
X360983Y832017D01*
X361590Y832927D01*
X361804Y834000D01*
X361590Y835073D01*
X360983Y835983D01*
X360073Y836590D01*
X359000Y836804D01*
D02*
G37*
G36*
X344787Y836265D02*
X343714Y836052D01*
X342804Y835444D01*
X342196Y834535D01*
X341983Y833462D01*
X342196Y832389D01*
X342804Y831479D01*
X343347Y831116D01*
X343498Y831015D01*
X343003Y829819D01*
X342883Y829843D01*
X341500Y830117D01*
X339159Y829652D01*
X337174Y828326D01*
X335848Y826341D01*
X335382Y824000D01*
X335848Y821659D01*
X337174Y819674D01*
X339159Y818348D01*
X341500Y817883D01*
X343841Y818348D01*
X345826Y819674D01*
X347152Y821659D01*
X347617Y824000D01*
X347152Y826341D01*
X345826Y828326D01*
X344207Y829407D01*
X344056Y829508D01*
X344552Y830704D01*
X344787Y830658D01*
X345860Y830871D01*
X346769Y831479D01*
X347377Y832389D01*
X347590Y833462D01*
X347377Y834535D01*
X346769Y835444D01*
X345860Y836052D01*
X344787Y836265D01*
D02*
G37*
G36*
X175000Y828118D02*
X172659Y827652D01*
X170674Y826326D01*
X169348Y824341D01*
X168883Y822000D01*
X169348Y819659D01*
X170674Y817674D01*
X172659Y816348D01*
X175000Y815882D01*
X177341Y816348D01*
X179326Y817674D01*
X180652Y819659D01*
X181117Y822000D01*
X180652Y824341D01*
X179326Y826326D01*
X177341Y827652D01*
X175000Y828118D01*
D02*
G37*
G36*
X267500Y823616D02*
X265158Y823150D01*
X263174Y821824D01*
X261848Y819839D01*
X261382Y817498D01*
X261848Y815157D01*
X263174Y813173D01*
X265158Y811846D01*
X267500Y811381D01*
X269841Y811846D01*
X271825Y813173D01*
X273151Y815157D01*
X273617Y817498D01*
X273151Y819839D01*
X271825Y821824D01*
X269841Y823150D01*
X267500Y823616D01*
D02*
G37*
G36*
X316000Y819118D02*
X313659Y818652D01*
X311674Y817326D01*
X310348Y815341D01*
X309883Y813000D01*
X310348Y810659D01*
X311674Y808674D01*
X313659Y807348D01*
X316000Y806882D01*
X318341Y807348D01*
X320326Y808674D01*
X321652Y810659D01*
X322118Y813000D01*
X321652Y815341D01*
X320326Y817326D01*
X318341Y818652D01*
X316000Y819118D01*
D02*
G37*
G36*
X366000Y821078D02*
X363651Y820768D01*
X361461Y819862D01*
X359581Y818419D01*
X358139Y816539D01*
X357232Y814350D01*
X356922Y812000D01*
X357232Y809650D01*
X358139Y807461D01*
X359581Y805581D01*
X361461Y804138D01*
X363651Y803232D01*
X366000Y802922D01*
X368349Y803232D01*
X370539Y804138D01*
X372419Y805581D01*
X373862Y807461D01*
X374768Y809650D01*
X375078Y812000D01*
X374768Y814350D01*
X373862Y816539D01*
X372419Y818419D01*
X370539Y819862D01*
X368349Y820768D01*
X366000Y821078D01*
D02*
G37*
G36*
X286000Y809118D02*
X283659Y808652D01*
X281674Y807326D01*
X280348Y805341D01*
X279883Y803000D01*
X280348Y800659D01*
X281674Y798674D01*
X283659Y797348D01*
X286000Y796882D01*
X288341Y797348D01*
X290326Y798674D01*
X291652Y800659D01*
X292118Y803000D01*
X291652Y805341D01*
X290326Y807326D01*
X288341Y808652D01*
X286000Y809118D01*
D02*
G37*
G36*
X191000Y799804D02*
X189927Y799590D01*
X189017Y798983D01*
X188410Y798073D01*
X188196Y797000D01*
X188410Y795927D01*
X189017Y795017D01*
X189927Y794410D01*
X191000Y794196D01*
X192073Y794410D01*
X192983Y795017D01*
X193590Y795927D01*
X193804Y797000D01*
X193590Y798073D01*
X192983Y798983D01*
X192073Y799590D01*
X191000Y799804D01*
D02*
G37*
G36*
X99000Y796117D02*
X96659Y795652D01*
X94674Y794326D01*
X93348Y792341D01*
X92882Y790000D01*
X93348Y787659D01*
X94674Y785674D01*
X96659Y784348D01*
X99000Y783883D01*
X101341Y784348D01*
X103326Y785674D01*
X104652Y787659D01*
X105118Y790000D01*
X104652Y792341D01*
X103326Y794326D01*
X101341Y795652D01*
X99000Y796117D01*
D02*
G37*
G36*
X22500Y783617D02*
X20159Y783152D01*
X18174Y781826D01*
X16848Y779841D01*
X16382Y777500D01*
X16848Y775159D01*
X18174Y773174D01*
X20159Y771848D01*
X22500Y771383D01*
X24841Y771848D01*
X26826Y773174D01*
X28152Y775159D01*
X28617Y777500D01*
X28152Y779841D01*
X26826Y781826D01*
X24841Y783152D01*
X22500Y783617D01*
D02*
G37*
G36*
X75000Y776117D02*
X72659Y775652D01*
X70674Y774326D01*
X69348Y772341D01*
X68882Y770000D01*
X69348Y767659D01*
X70674Y765674D01*
X72659Y764348D01*
X75000Y763883D01*
X77341Y764348D01*
X79326Y765674D01*
X80652Y767659D01*
X81117Y770000D01*
X80652Y772341D01*
X79326Y774326D01*
X77341Y775652D01*
X75000Y776117D01*
D02*
G37*
G36*
X147500Y773617D02*
X145159Y773152D01*
X143174Y771826D01*
X141848Y769841D01*
X141383Y767500D01*
X141848Y765159D01*
X143174Y763174D01*
X145159Y761848D01*
X147500Y761382D01*
X149841Y761848D01*
X151826Y763174D01*
X153152Y765159D01*
X153617Y767500D01*
X153152Y769841D01*
X151826Y771826D01*
X149841Y773152D01*
X147500Y773617D01*
D02*
G37*
G36*
X233410Y761731D02*
X232337Y761517D01*
X231427Y760910D01*
X230819Y760000D01*
X230606Y758927D01*
X230819Y757854D01*
X231427Y756944D01*
X232337Y756337D01*
X233410Y756123D01*
X234483Y756337D01*
X235392Y756944D01*
X236000Y757854D01*
X236213Y758927D01*
X236000Y760000D01*
X235392Y760910D01*
X234483Y761517D01*
X233410Y761731D01*
D02*
G37*
G36*
X283000Y754118D02*
X280659Y753652D01*
X278674Y752326D01*
X277348Y750341D01*
X277098Y749082D01*
X275803D01*
X275652Y749841D01*
X274326Y751826D01*
X272341Y753152D01*
X270000Y753617D01*
X267659Y753152D01*
X265674Y751826D01*
X264348Y749841D01*
X263883Y747500D01*
X264348Y745159D01*
X265674Y743174D01*
X267659Y741848D01*
X270000Y741383D01*
X272341Y741848D01*
X274326Y743174D01*
X275652Y745159D01*
X275902Y746418D01*
X277197D01*
X277348Y745659D01*
X278674Y743674D01*
X280659Y742348D01*
X283000Y741882D01*
X285341Y742348D01*
X287326Y743674D01*
X288652Y745659D01*
X289118Y748000D01*
X288652Y750341D01*
X287326Y752326D01*
X285341Y753652D01*
X283000Y754118D01*
D02*
G37*
G36*
X233446Y753054D02*
X232373Y752840D01*
X231464Y752233D01*
X230856Y751323D01*
X230642Y750250D01*
X230856Y749177D01*
X231464Y748267D01*
X232373Y747660D01*
X233446Y747446D01*
X234519Y747660D01*
X235429Y748267D01*
X236037Y749177D01*
X236250Y750250D01*
X236037Y751323D01*
X235429Y752233D01*
X234519Y752840D01*
X233446Y753054D01*
D02*
G37*
G36*
X212000Y759118D02*
X209659Y758652D01*
X207674Y757326D01*
X206348Y755341D01*
X205882Y753000D01*
X206348Y750659D01*
X207674Y748674D01*
X209659Y747348D01*
X212000Y746882D01*
X214341Y747348D01*
X216326Y748674D01*
X217652Y750659D01*
X218118Y753000D01*
X217652Y755341D01*
X216326Y757326D01*
X214341Y758652D01*
X212000Y759118D01*
D02*
G37*
G36*
X147500Y758617D02*
X145159Y758152D01*
X143174Y756826D01*
X141848Y754841D01*
X141383Y752500D01*
X141848Y750159D01*
X143174Y748174D01*
X145159Y746848D01*
X147500Y746383D01*
X149841Y746848D01*
X151826Y748174D01*
X153152Y750159D01*
X153617Y752500D01*
X153152Y754841D01*
X151826Y756826D01*
X149841Y758152D01*
X147500Y758617D01*
D02*
G37*
G36*
X52025Y767370D02*
X49153Y766992D01*
X46477Y765883D01*
X44180Y764120D01*
X42417Y761823D01*
X41308Y759147D01*
X40930Y756275D01*
X41308Y753403D01*
X42417Y750727D01*
X44180Y748430D01*
X46477Y746666D01*
X49153Y745558D01*
X52025Y745180D01*
X54897Y745558D01*
X57572Y746666D01*
X59870Y748430D01*
X61634Y750727D01*
X62742Y753403D01*
X63120Y756275D01*
X62742Y759147D01*
X61634Y761823D01*
X59870Y764120D01*
X57572Y765883D01*
X54897Y766992D01*
X52025Y767370D01*
D02*
G37*
G36*
X335000Y753118D02*
X332659Y752652D01*
X330674Y751326D01*
X329348Y749341D01*
X328882Y747000D01*
X329348Y744659D01*
X330674Y742674D01*
X332659Y741348D01*
X335000Y740882D01*
X337341Y741348D01*
X339326Y742674D01*
X340652Y744659D01*
X341118Y747000D01*
X340652Y749341D01*
X339326Y751326D01*
X337341Y752652D01*
X335000Y753118D01*
D02*
G37*
G36*
X129000Y749118D02*
X126659Y748652D01*
X124674Y747326D01*
X123348Y745341D01*
X122882Y743000D01*
X123348Y740659D01*
X124674Y738674D01*
X126659Y737348D01*
X129000Y736882D01*
X131341Y737348D01*
X133326Y738674D01*
X134652Y740659D01*
X135118Y743000D01*
X134652Y745341D01*
X133326Y747326D01*
X131341Y748652D01*
X129000Y749118D01*
D02*
G37*
G36*
X312500Y748617D02*
X310159Y748152D01*
X308174Y746826D01*
X306848Y744841D01*
X306383Y742500D01*
X306848Y740159D01*
X308174Y738174D01*
X310159Y736848D01*
X312500Y736382D01*
X314841Y736848D01*
X316826Y738174D01*
X318152Y740159D01*
X318617Y742500D01*
X318152Y744841D01*
X316826Y746826D01*
X314841Y748152D01*
X312500Y748617D01*
D02*
G37*
G36*
X162000Y746117D02*
X159659Y745652D01*
X157674Y744326D01*
X156348Y742341D01*
X155883Y740000D01*
X156348Y737659D01*
X157674Y735674D01*
X159659Y734348D01*
X162000Y733883D01*
X164341Y734348D01*
X166326Y735674D01*
X167652Y737659D01*
X168118Y740000D01*
X167652Y742341D01*
X166326Y744326D01*
X164341Y745652D01*
X162000Y746117D01*
D02*
G37*
G36*
X260000Y742117D02*
X257659Y741652D01*
X255674Y740326D01*
X254348Y738341D01*
X253882Y736000D01*
X254348Y733659D01*
X255674Y731674D01*
X257659Y730348D01*
X260000Y729883D01*
X262341Y730348D01*
X264326Y731674D01*
X265652Y733659D01*
X266117Y736000D01*
X265652Y738341D01*
X264326Y740326D01*
X262341Y741652D01*
X260000Y742117D01*
D02*
G37*
G36*
X163000Y732117D02*
X160659Y731652D01*
X158674Y730326D01*
X157348Y728341D01*
X156882Y726000D01*
X157348Y723659D01*
X158674Y721674D01*
X160659Y720348D01*
X163000Y719883D01*
X165341Y720348D01*
X167326Y721674D01*
X168652Y723659D01*
X169118Y726000D01*
X168652Y728341D01*
X167326Y730326D01*
X165341Y731652D01*
X163000Y732117D01*
D02*
G37*
G36*
X52025Y741970D02*
X49153Y741592D01*
X46477Y740483D01*
X44180Y738720D01*
X42417Y736423D01*
X41308Y733747D01*
X40930Y730875D01*
X41308Y728003D01*
X42417Y725328D01*
X44180Y723030D01*
X46477Y721266D01*
X49153Y720158D01*
X52025Y719780D01*
X54897Y720158D01*
X57572Y721266D01*
X59870Y723030D01*
X61634Y725328D01*
X62742Y728003D01*
X63120Y730875D01*
X62742Y733747D01*
X61634Y736423D01*
X59870Y738720D01*
X57572Y740483D01*
X54897Y741592D01*
X52025Y741970D01*
D02*
G37*
G36*
X124000Y722117D02*
X121659Y721652D01*
X119674Y720326D01*
X118348Y718341D01*
X117882Y716000D01*
X118348Y713659D01*
X119674Y711674D01*
X121659Y710348D01*
X124000Y709883D01*
X126341Y710348D01*
X128326Y711674D01*
X129652Y713659D01*
X130118Y716000D01*
X129652Y718341D01*
X128326Y720326D01*
X126341Y721652D01*
X124000Y722117D01*
D02*
G37*
G36*
X161000Y710117D02*
X158659Y709652D01*
X156674Y708326D01*
X155348Y706341D01*
X154882Y704000D01*
X155348Y701659D01*
X156674Y699674D01*
X158659Y698348D01*
X161000Y697882D01*
X163341Y698348D01*
X165326Y699674D01*
X166652Y701659D01*
X167118Y704000D01*
X166652Y706341D01*
X165326Y708326D01*
X163341Y709652D01*
X161000Y710117D01*
D02*
G37*
G36*
X263189Y708746D02*
X260848Y708280D01*
X258864Y706954D01*
X257537Y704970D01*
X257072Y702629D01*
X257537Y700288D01*
X258864Y698303D01*
X260848Y696977D01*
X263189Y696511D01*
X265530Y696977D01*
X267515Y698303D01*
X268841Y700288D01*
X269307Y702629D01*
X268841Y704970D01*
X267515Y706954D01*
X265530Y708280D01*
X263189Y708746D01*
D02*
G37*
G36*
X315000Y708617D02*
X312659Y708152D01*
X310674Y706826D01*
X309348Y704841D01*
X308883Y702500D01*
X309348Y700159D01*
X310674Y698174D01*
X312659Y696848D01*
X315000Y696383D01*
X317341Y696848D01*
X319326Y698174D01*
X320652Y700159D01*
X321118Y702500D01*
X320652Y704841D01*
X319326Y706826D01*
X317341Y708152D01*
X315000Y708617D01*
D02*
G37*
G36*
X295000D02*
X292659Y708152D01*
X290674Y706826D01*
X289348Y704841D01*
X288883Y702500D01*
X289348Y700159D01*
X290674Y698174D01*
X292659Y696848D01*
X295000Y696383D01*
X297341Y696848D01*
X299326Y698174D01*
X300652Y700159D01*
X301118Y702500D01*
X300652Y704841D01*
X299326Y706826D01*
X297341Y708152D01*
X295000Y708617D01*
D02*
G37*
G36*
X52025Y716570D02*
X49153Y716192D01*
X46477Y715083D01*
X44180Y713320D01*
X42417Y711022D01*
X41308Y708347D01*
X40930Y705475D01*
X41308Y702603D01*
X42417Y699928D01*
X44180Y697630D01*
X46477Y695866D01*
X49153Y694758D01*
X52025Y694380D01*
X54897Y694758D01*
X57572Y695866D01*
X59870Y697630D01*
X61634Y699928D01*
X62742Y702603D01*
X63120Y705475D01*
X62742Y708347D01*
X61634Y711022D01*
X59870Y713320D01*
X57572Y715083D01*
X54897Y716192D01*
X52025Y716570D01*
D02*
G37*
G36*
X248000Y696117D02*
X245659Y695652D01*
X243674Y694326D01*
X242348Y692341D01*
X242147Y691332D01*
X240853D01*
X240652Y692341D01*
X239326Y694326D01*
X237341Y695652D01*
X235000Y696117D01*
X232659Y695652D01*
X230674Y694326D01*
X229348Y692341D01*
X228883Y690000D01*
X229348Y687659D01*
X230674Y685674D01*
X232659Y684348D01*
X235000Y683883D01*
X237341Y684348D01*
X239326Y685674D01*
X240652Y687659D01*
X240853Y688668D01*
X242147D01*
X242348Y687659D01*
X243674Y685674D01*
X245659Y684348D01*
X248000Y683883D01*
X250341Y684348D01*
X252326Y685674D01*
X253652Y687659D01*
X254118Y690000D01*
X253652Y692341D01*
X252326Y694326D01*
X250341Y695652D01*
X248000Y696117D01*
D02*
G37*
G36*
X192000Y685117D02*
X189659Y684652D01*
X187674Y683326D01*
X186348Y681341D01*
X185882Y679000D01*
X186348Y676659D01*
X187674Y674674D01*
X189659Y673348D01*
X192000Y672882D01*
X194341Y673348D01*
X196326Y674674D01*
X197652Y676659D01*
X198118Y679000D01*
X197652Y681341D01*
X196326Y683326D01*
X194341Y684652D01*
X192000Y685117D01*
D02*
G37*
G36*
X163000D02*
X160659Y684652D01*
X158674Y683326D01*
X157348Y681341D01*
X156882Y679000D01*
X157348Y676659D01*
X158674Y674674D01*
X160659Y673348D01*
X163000Y672882D01*
X165341Y673348D01*
X167326Y674674D01*
X168652Y676659D01*
X169118Y679000D01*
X168652Y681341D01*
X167326Y683326D01*
X165341Y684652D01*
X163000Y685117D01*
D02*
G37*
G36*
X345000Y689078D02*
X342650Y688768D01*
X340461Y687861D01*
X338581Y686419D01*
X337139Y684539D01*
X336232Y682349D01*
X335922Y680000D01*
X336232Y677651D01*
X337139Y675461D01*
X338581Y673581D01*
X340461Y672139D01*
X342650Y671232D01*
X345000Y670922D01*
X347350Y671232D01*
X349539Y672139D01*
X351419Y673581D01*
X352862Y675461D01*
X353768Y677651D01*
X354078Y680000D01*
X353768Y682349D01*
X352862Y684539D01*
X351419Y686419D01*
X349539Y687861D01*
X347350Y688768D01*
X345000Y689078D01*
D02*
G37*
G36*
X52025Y691170D02*
X49153Y690792D01*
X46477Y689684D01*
X44180Y687920D01*
X42417Y685622D01*
X41308Y682947D01*
X40930Y680075D01*
X41308Y677203D01*
X42417Y674528D01*
X44180Y672230D01*
X46477Y670467D01*
X49153Y669358D01*
X52025Y668980D01*
X54897Y669358D01*
X57572Y670467D01*
X59870Y672230D01*
X61634Y674528D01*
X62742Y677203D01*
X63120Y680075D01*
X62742Y682947D01*
X61634Y685622D01*
X59870Y687920D01*
X57572Y689684D01*
X54897Y690792D01*
X52025Y691170D01*
D02*
G37*
G36*
X63025Y665675D02*
X41025D01*
Y643675D01*
X63025D01*
Y665675D01*
D02*
G37*
G36*
X62500Y963582D02*
X24503D01*
X24304Y963500D01*
X24088D01*
X23170Y963119D01*
X23017Y962967D01*
X22819Y962885D01*
X22115Y962181D01*
X22033Y961983D01*
X21881Y961830D01*
X21500Y960911D01*
Y960696D01*
X21418Y960497D01*
X21418Y935000D01*
X21418Y934503D01*
X21500Y934304D01*
Y934089D01*
X21880Y933170D01*
X22033Y933017D01*
X22115Y932818D01*
X22818Y932115D01*
X23017Y932033D01*
X23170Y931880D01*
X24088Y931500D01*
X24304D01*
X24503Y931417D01*
X25000Y931417D01*
X25000Y931418D01*
X25000Y931417D01*
X56519Y931418D01*
X56904Y930147D01*
X55674Y929326D01*
X54348Y927341D01*
X53882Y925000D01*
X54348Y922659D01*
X55674Y920674D01*
X57659Y919348D01*
X60000Y918883D01*
X62341Y919348D01*
X64326Y920674D01*
X65652Y922659D01*
X66118Y925000D01*
X65652Y927341D01*
X64326Y929326D01*
X63371Y929964D01*
X63265Y931043D01*
X63410Y931500D01*
X64330Y931881D01*
X64482Y932033D01*
X64681Y932115D01*
X65384Y932819D01*
X65467Y933018D01*
X65619Y933170D01*
X66000Y934090D01*
Y934305D01*
X66082Y934504D01*
Y935001D01*
X66082Y935001D01*
Y938927D01*
X70162D01*
X76427Y932662D01*
Y835000D01*
X76719Y832781D01*
X77575Y830713D01*
X78938Y828938D01*
X111427Y796449D01*
Y766051D01*
X91438Y746062D01*
X90075Y744287D01*
X89219Y742219D01*
X88927Y740000D01*
Y662500D01*
X89219Y660281D01*
X90075Y658213D01*
X91438Y656438D01*
X98938Y648938D01*
X100713Y647575D01*
X102781Y646719D01*
X105000Y646427D01*
X118918D01*
Y645000D01*
X118918Y644503D01*
X119000Y644304D01*
Y644089D01*
X119381Y643170D01*
X119533Y643017D01*
X119615Y642819D01*
X120318Y642115D01*
X120517Y642033D01*
X120670Y641880D01*
X121588Y641500D01*
X121804D01*
X122003Y641418D01*
X122500Y641418D01*
X122500Y641418D01*
X162500Y641418D01*
X162997Y641417D01*
X163196Y641500D01*
X163411D01*
X164330Y641880D01*
X164482Y642033D01*
X164681Y642115D01*
X165385Y642818D01*
X165467Y643017D01*
X165619Y643170D01*
X166000Y644088D01*
Y644304D01*
X166082Y644503D01*
X166082Y644999D01*
X166082Y645000D01*
X166082Y667997D01*
X166000Y668196D01*
Y668411D01*
X165619Y669330D01*
X165467Y669483D01*
X165385Y669681D01*
X164681Y670385D01*
X164482Y670467D01*
X164330Y670619D01*
X164059Y670732D01*
X163967D01*
X163892Y670786D01*
X162748Y671054D01*
X162620Y671033D01*
X162501Y671082D01*
X162500D01*
X162500Y671082D01*
X122500Y671082D01*
X122003Y671082D01*
X121804Y671000D01*
X121588D01*
X120670Y670619D01*
X120517Y670467D01*
X120318Y670385D01*
X119615Y669681D01*
X119533Y669483D01*
X119381Y669330D01*
X119000Y668411D01*
Y668196D01*
X118918Y667997D01*
X118918Y667500D01*
Y663573D01*
X108551D01*
X106073Y666051D01*
Y736449D01*
X126062Y756438D01*
X127425Y758213D01*
X128281Y760281D01*
X128573Y762500D01*
Y800000D01*
X128281Y802219D01*
X127425Y804287D01*
X126062Y806062D01*
X93573Y838551D01*
Y936213D01*
X93281Y938432D01*
X92425Y940500D01*
X91062Y942275D01*
X79776Y953562D01*
X78000Y954925D01*
X75932Y955781D01*
X73713Y956073D01*
X66082D01*
Y960497D01*
X66000Y960696D01*
Y960911D01*
X65619Y961830D01*
X65467Y961982D01*
X65385Y962181D01*
X64682Y962885D01*
X64482Y962967D01*
X64330Y963119D01*
X63411Y963500D01*
X63196D01*
X62997Y963582D01*
X62500D01*
X62500Y963582D01*
D02*
G37*
G36*
X215000Y651117D02*
X212659Y650652D01*
X210674Y649326D01*
X209348Y647341D01*
X208882Y645000D01*
X209348Y642659D01*
X210674Y640674D01*
X212659Y639348D01*
X215000Y638882D01*
X217341Y639348D01*
X219326Y640674D01*
X220652Y642659D01*
X221117Y645000D01*
X220652Y647341D01*
X219326Y649326D01*
X217341Y650652D01*
X215000Y651117D01*
D02*
G37*
G36*
X345000Y656578D02*
X342650Y656268D01*
X340461Y655361D01*
X338581Y653919D01*
X337139Y652039D01*
X336232Y649849D01*
X335922Y647500D01*
X336232Y645151D01*
X337139Y642961D01*
X338581Y641081D01*
X340461Y639638D01*
X342650Y638732D01*
X345000Y638422D01*
X347350Y638732D01*
X349539Y639638D01*
X351419Y641081D01*
X352862Y642961D01*
X353768Y645151D01*
X354078Y647500D01*
X353768Y649849D01*
X352862Y652039D01*
X351419Y653919D01*
X349539Y655361D01*
X347350Y656268D01*
X345000Y656578D01*
D02*
G37*
G36*
X307500Y614588D02*
X305744Y614239D01*
X304256Y613244D01*
X303261Y611756D01*
X303148Y611184D01*
X301853D01*
X301739Y611756D01*
X300744Y613244D01*
X299256Y614239D01*
X297500Y614588D01*
X295744Y614239D01*
X294256Y613244D01*
X293261Y611756D01*
X293148Y611185D01*
X291853D01*
X291739Y611756D01*
X290744Y613244D01*
X289256Y614239D01*
X287500Y614588D01*
X285744Y614239D01*
X284256Y613244D01*
X283261Y611756D01*
X283148Y611184D01*
X281853D01*
X281739Y611756D01*
X280744Y613244D01*
X279256Y614239D01*
X277500Y614588D01*
X275744Y614239D01*
X274256Y613244D01*
X273261Y611756D01*
X272912Y610000D01*
X273261Y608244D01*
X274256Y606756D01*
X275744Y605761D01*
X276316Y605647D01*
Y604353D01*
X275744Y604239D01*
X274256Y603244D01*
X273261Y601756D01*
X272912Y600000D01*
X273261Y598244D01*
X274256Y596756D01*
X275744Y595761D01*
X276316Y595647D01*
Y594353D01*
X275744Y594239D01*
X274256Y593244D01*
X273261Y591756D01*
X272912Y590000D01*
X273261Y588244D01*
X274256Y586756D01*
X275744Y585761D01*
X277500Y585412D01*
X279256Y585761D01*
X280744Y586756D01*
X281739Y588244D01*
X281853Y588816D01*
X283148D01*
X283261Y588244D01*
X284256Y586756D01*
X285744Y585761D01*
X287500Y585412D01*
X289256Y585761D01*
X290744Y586756D01*
X291739Y588244D01*
X291853Y588815D01*
X293148D01*
X293261Y588244D01*
X294256Y586756D01*
X295744Y585761D01*
X297500Y585412D01*
X299256Y585761D01*
X300744Y586756D01*
X301739Y588244D01*
X301853Y588816D01*
X303148D01*
X303261Y588244D01*
X304256Y586756D01*
X305744Y585761D01*
X307500Y585412D01*
X309256Y585761D01*
X310744Y586756D01*
X311739Y588244D01*
X312088Y590000D01*
X311739Y591756D01*
X310744Y593244D01*
X309256Y594239D01*
X308684Y594353D01*
Y595647D01*
X309256Y595761D01*
X310744Y596756D01*
X311739Y598244D01*
X312088Y600000D01*
X311739Y601756D01*
X310744Y603244D01*
X309256Y604239D01*
X308684Y604353D01*
Y605647D01*
X309256Y605761D01*
X310744Y606756D01*
X311739Y608244D01*
X312088Y610000D01*
X311739Y611756D01*
X310744Y613244D01*
X309256Y614239D01*
X307500Y614588D01*
D02*
G37*
G36*
X215000Y618618D02*
X212659Y618152D01*
X210674Y616826D01*
X209348Y614841D01*
X208882Y612500D01*
X209348Y610159D01*
X210674Y608174D01*
X212659Y606848D01*
X215000Y606382D01*
X217341Y606848D01*
X219326Y608174D01*
X220652Y610159D01*
X221117Y612500D01*
X220652Y614841D01*
X219326Y616826D01*
X217341Y618152D01*
X215000Y618618D01*
D02*
G37*
G36*
X345000Y624078D02*
X342650Y623768D01*
X340461Y622861D01*
X338581Y621419D01*
X337139Y619539D01*
X336232Y617350D01*
X335922Y615000D01*
X336232Y612650D01*
X337139Y610461D01*
X338581Y608581D01*
X340461Y607138D01*
X342650Y606232D01*
X345000Y605922D01*
X347350Y606232D01*
X349539Y607138D01*
X351419Y608581D01*
X352862Y610461D01*
X353768Y612650D01*
X354078Y615000D01*
X353768Y617350D01*
X352862Y619539D01*
X351419Y621419D01*
X349539Y622861D01*
X347350Y623768D01*
X345000Y624078D01*
D02*
G37*
G36*
X72500Y627104D02*
X69367Y626691D01*
X66448Y625482D01*
X63941Y623559D01*
X62018Y621052D01*
X60809Y618133D01*
X60396Y615000D01*
X60809Y611867D01*
X62018Y608948D01*
X63941Y606441D01*
X66448Y604518D01*
X69367Y603309D01*
X72500Y602896D01*
X75633Y603309D01*
X78552Y604518D01*
X81059Y606441D01*
X82982Y608948D01*
X84191Y611867D01*
X84604Y615000D01*
X84191Y618133D01*
X82982Y621052D01*
X81059Y623559D01*
X78552Y625482D01*
X75633Y626691D01*
X72500Y627104D01*
D02*
G37*
G36*
X217500Y591118D02*
X215159Y590652D01*
X213174Y589326D01*
X211924Y587455D01*
X211250Y587395D01*
X210576Y587455D01*
X209326Y589326D01*
X207341Y590652D01*
X205000Y591118D01*
X202659Y590652D01*
X200674Y589326D01*
X199424Y587455D01*
X198750Y587395D01*
X198076Y587455D01*
X196826Y589326D01*
X194841Y590652D01*
X192500Y591118D01*
X190159Y590652D01*
X188174Y589326D01*
X186924Y587455D01*
X186250Y587395D01*
X185576Y587455D01*
X184326Y589326D01*
X182341Y590652D01*
X180000Y591118D01*
X177659Y590652D01*
X175674Y589326D01*
X174424Y587455D01*
X173750Y587395D01*
X173076Y587455D01*
X171826Y589326D01*
X169841Y590652D01*
X167500Y591118D01*
X165159Y590652D01*
X163174Y589326D01*
X161848Y587341D01*
X161382Y585000D01*
X161848Y582659D01*
X163174Y580674D01*
X165159Y579348D01*
X167500Y578882D01*
X169841Y579348D01*
X171826Y580674D01*
X173076Y582545D01*
X173750Y582605D01*
X174424Y582545D01*
X175674Y580674D01*
X177659Y579348D01*
X180000Y578882D01*
X182341Y579348D01*
X184326Y580674D01*
X185576Y582545D01*
X186250Y582605D01*
X186924Y582545D01*
X188174Y580674D01*
X190159Y579348D01*
X192500Y578882D01*
X194841Y579348D01*
X196826Y580674D01*
X198076Y582545D01*
X198750Y582605D01*
X199424Y582545D01*
X200674Y580674D01*
X202659Y579348D01*
X205000Y578882D01*
X207341Y579348D01*
X209326Y580674D01*
X210576Y582545D01*
X211250Y582605D01*
X211924Y582545D01*
X213174Y580674D01*
X215159Y579348D01*
X217500Y578882D01*
X219841Y579348D01*
X221826Y580674D01*
X223152Y582659D01*
X223617Y585000D01*
X223152Y587341D01*
X221826Y589326D01*
X219841Y590652D01*
X217500Y591118D01*
D02*
G37*
G36*
X47500Y586118D02*
X45159Y585652D01*
X43174Y584326D01*
X41848Y582341D01*
X41382Y580000D01*
X41848Y577659D01*
X43174Y575674D01*
X45159Y574348D01*
X47500Y573882D01*
X49841Y574348D01*
X51826Y575674D01*
X53152Y577659D01*
X53618Y580000D01*
X53152Y582341D01*
X51826Y584326D01*
X49841Y585652D01*
X47500Y586118D01*
D02*
G37*
G36*
X345000Y591578D02*
X342650Y591268D01*
X340461Y590361D01*
X338581Y588919D01*
X337139Y587039D01*
X336232Y584850D01*
X335922Y582500D01*
X336232Y580150D01*
X337139Y577961D01*
X338581Y576081D01*
X340461Y574638D01*
X342650Y573732D01*
X345000Y573422D01*
X347350Y573732D01*
X349539Y574638D01*
X351419Y576081D01*
X352862Y577961D01*
X353768Y580150D01*
X354078Y582500D01*
X353768Y584850D01*
X352862Y587039D01*
X351419Y588919D01*
X349539Y590361D01*
X347350Y591268D01*
X345000Y591578D01*
D02*
G37*
G36*
X263000Y585117D02*
X260659Y584652D01*
X258674Y583326D01*
X257348Y581341D01*
X256882Y579000D01*
X257348Y576659D01*
X258674Y574674D01*
X260659Y573348D01*
X263000Y572882D01*
X265341Y573348D01*
X267326Y574674D01*
X268652Y576659D01*
X269118Y579000D01*
X268652Y581341D01*
X267326Y583326D01*
X265341Y584652D01*
X263000Y585117D01*
D02*
G37*
G36*
X72500Y592104D02*
X69367Y591691D01*
X66448Y590482D01*
X63941Y588559D01*
X62018Y586052D01*
X60809Y583133D01*
X60396Y580000D01*
X60809Y576867D01*
X62018Y573948D01*
X63941Y571441D01*
X66448Y569518D01*
X69367Y568309D01*
X72500Y567896D01*
X75633Y568309D01*
X78552Y569518D01*
X81059Y571441D01*
X82982Y573948D01*
X84191Y576867D01*
X84604Y580000D01*
X84191Y583133D01*
X82982Y586052D01*
X81059Y588559D01*
X78552Y590482D01*
X75633Y591691D01*
X72500Y592104D01*
D02*
G37*
G36*
X230000Y568618D02*
X227659Y568152D01*
X225674Y566826D01*
X224348Y564841D01*
X223883Y562500D01*
X224348Y560159D01*
X225674Y558174D01*
X227659Y556848D01*
X230000Y556382D01*
X232341Y556848D01*
X234326Y558174D01*
X235652Y560159D01*
X236117Y562500D01*
X235652Y564841D01*
X234326Y566826D01*
X232341Y568152D01*
X230000Y568618D01*
D02*
G37*
G36*
X47500Y568618D02*
X45159Y568152D01*
X43174Y566826D01*
X41848Y564841D01*
X41382Y562500D01*
X41848Y560159D01*
X43174Y558174D01*
X45159Y556848D01*
X47500Y556382D01*
X49841Y556848D01*
X51826Y558174D01*
X53152Y560159D01*
X53618Y562500D01*
X53152Y564841D01*
X51826Y566826D01*
X49841Y568152D01*
X47500Y568618D01*
D02*
G37*
G36*
X345000Y559078D02*
X342650Y558768D01*
X340461Y557861D01*
X338581Y556419D01*
X337139Y554539D01*
X336232Y552350D01*
X335922Y550000D01*
X336232Y547650D01*
X337139Y545461D01*
X338581Y543581D01*
X340461Y542138D01*
X342650Y541232D01*
X345000Y540922D01*
X347350Y541232D01*
X349539Y542138D01*
X351419Y543581D01*
X352862Y545461D01*
X353768Y547650D01*
X354078Y550000D01*
X353768Y552350D01*
X352862Y554539D01*
X351419Y556419D01*
X349539Y557861D01*
X347350Y558768D01*
X345000Y559078D01*
D02*
G37*
G36*
X47500Y548618D02*
X45159Y548152D01*
X43174Y546826D01*
X41848Y544841D01*
X41382Y542500D01*
X41848Y540159D01*
X43174Y538174D01*
X45159Y536848D01*
X47500Y536382D01*
X49841Y536848D01*
X51826Y538174D01*
X53152Y540159D01*
X53618Y542500D01*
X53152Y544841D01*
X51826Y546826D01*
X49841Y548152D01*
X47500Y548618D01*
D02*
G37*
G36*
X72500Y557104D02*
X69367Y556691D01*
X66448Y555482D01*
X63941Y553559D01*
X62018Y551052D01*
X60809Y548133D01*
X60396Y545000D01*
X60809Y541867D01*
X62018Y538948D01*
X63941Y536441D01*
X66448Y534518D01*
X69367Y533309D01*
X72500Y532896D01*
X75633Y533309D01*
X78552Y534518D01*
X81059Y536441D01*
X82982Y538948D01*
X84191Y541867D01*
X84604Y545000D01*
X84191Y548133D01*
X82982Y551052D01*
X81059Y553559D01*
X78552Y555482D01*
X75633Y556691D01*
X72500Y557104D01*
D02*
G37*
G36*
X130000Y526118D02*
X127659Y525652D01*
X125674Y524326D01*
X124424Y522455D01*
X123750Y522395D01*
X123076Y522455D01*
X121826Y524326D01*
X119841Y525652D01*
X117500Y526118D01*
X115159Y525652D01*
X113174Y524326D01*
X111848Y522341D01*
X111382Y520000D01*
X111848Y517659D01*
X113174Y515674D01*
X115159Y514348D01*
X117500Y513882D01*
X119841Y514348D01*
X121826Y515674D01*
X123076Y517545D01*
X123750Y517605D01*
X124424Y517545D01*
X125674Y515674D01*
X127659Y514348D01*
X130000Y513882D01*
X132341Y514348D01*
X134326Y515674D01*
X135652Y517659D01*
X136117Y520000D01*
X135652Y522341D01*
X134326Y524326D01*
X132341Y525652D01*
X130000Y526118D01*
D02*
G37*
G36*
X47500Y531118D02*
X45159Y530652D01*
X43174Y529326D01*
X41848Y527341D01*
X41382Y525000D01*
X41848Y522659D01*
X43174Y520674D01*
X45159Y519348D01*
X47500Y518882D01*
X49841Y519348D01*
X51826Y520674D01*
X53152Y522659D01*
X53618Y525000D01*
X53152Y527341D01*
X51826Y529326D01*
X49841Y530652D01*
X47500Y531118D01*
D02*
G37*
G36*
X345000Y526578D02*
X342650Y526268D01*
X340461Y525361D01*
X338581Y523919D01*
X337139Y522039D01*
X336232Y519850D01*
X335922Y517500D01*
X336232Y515150D01*
X337139Y512961D01*
X338581Y511081D01*
X340461Y509638D01*
X342650Y508732D01*
X345000Y508422D01*
X347350Y508732D01*
X349539Y509638D01*
X351419Y511081D01*
X352862Y512961D01*
X353768Y515150D01*
X354078Y517500D01*
X353768Y519850D01*
X352862Y522039D01*
X351419Y523919D01*
X349539Y525361D01*
X347350Y526268D01*
X345000Y526578D01*
D02*
G37*
G36*
X230000Y538618D02*
X227659Y538152D01*
X225674Y536826D01*
X224348Y534841D01*
X223883Y532500D01*
X224348Y530159D01*
X225674Y528174D01*
X225733Y528135D01*
Y527138D01*
X225592Y526702D01*
X224348Y524841D01*
X223882Y522500D01*
X224348Y520159D01*
X225592Y518298D01*
X225733Y517862D01*
Y516865D01*
X225674Y516826D01*
X224348Y514841D01*
X223883Y512500D01*
X224348Y510159D01*
X225592Y508298D01*
X225733Y507862D01*
Y507138D01*
X225592Y506702D01*
X224348Y504841D01*
X223883Y502500D01*
X224348Y500159D01*
X225674Y498174D01*
X227659Y496848D01*
X230000Y496382D01*
X232341Y496848D01*
X234326Y498174D01*
X235652Y500159D01*
X236117Y502500D01*
X235652Y504841D01*
X234408Y506702D01*
X234267Y507138D01*
Y507862D01*
X234408Y508298D01*
X235652Y510159D01*
X236117Y512500D01*
X235652Y514841D01*
X234408Y516702D01*
X234267Y517138D01*
Y518135D01*
X234326Y518174D01*
X235652Y520159D01*
X236117Y522500D01*
X235652Y524841D01*
X234326Y526826D01*
X234267Y526865D01*
Y527862D01*
X234408Y528298D01*
X235652Y530159D01*
X236117Y532500D01*
X235652Y534841D01*
X234326Y536826D01*
X232341Y538152D01*
X230000Y538618D01*
D02*
G37*
G36*
X315000Y503618D02*
X312659Y503152D01*
X310674Y501826D01*
X309348Y499841D01*
X308883Y497500D01*
X309348Y495159D01*
X310674Y493174D01*
X312659Y491848D01*
X315000Y491382D01*
X317341Y491848D01*
X319326Y493174D01*
X320652Y495159D01*
X321118Y497500D01*
X320652Y499841D01*
X319326Y501826D01*
X317341Y503152D01*
X315000Y503618D01*
D02*
G37*
G36*
X275000D02*
X272659Y503152D01*
X270674Y501826D01*
X269348Y499841D01*
X268883Y497500D01*
X269348Y495159D01*
X270674Y493174D01*
X272659Y491848D01*
X275000Y491382D01*
X277341Y491848D01*
X279326Y493174D01*
X280652Y495159D01*
X281118Y497500D01*
X280652Y499841D01*
X279326Y501826D01*
X277341Y503152D01*
X275000Y503618D01*
D02*
G37*
G36*
X72500Y509604D02*
X69367Y509191D01*
X66448Y507982D01*
X63941Y506059D01*
X62018Y503552D01*
X60809Y500633D01*
X60396Y497500D01*
X60809Y494367D01*
X62018Y491448D01*
X63941Y488941D01*
X66448Y487018D01*
X69367Y485809D01*
X72500Y485396D01*
X75633Y485809D01*
X78552Y487018D01*
X81059Y488941D01*
X82982Y491448D01*
X84191Y494367D01*
X84604Y497500D01*
X84191Y500633D01*
X82982Y503552D01*
X81059Y506059D01*
X78552Y507982D01*
X75633Y509191D01*
X72500Y509604D01*
D02*
G37*
G36*
X197500Y496118D02*
X195159Y495652D01*
X193174Y494326D01*
X191848Y492341D01*
X191382Y490000D01*
X191848Y487659D01*
X193174Y485674D01*
X195159Y484348D01*
X197500Y483882D01*
X199841Y484348D01*
X201826Y485674D01*
X203152Y487659D01*
X203617Y490000D01*
X203152Y492341D01*
X201826Y494326D01*
X199841Y495652D01*
X197500Y496118D01*
D02*
G37*
G36*
X262000Y486118D02*
X259659Y485652D01*
X257674Y484326D01*
X256733Y482918D01*
X255266D01*
X254326Y484326D01*
X252341Y485652D01*
X250000Y486118D01*
X247659Y485652D01*
X245674Y484326D01*
X244348Y482341D01*
X243883Y480000D01*
X244348Y477659D01*
X245674Y475674D01*
X247659Y474348D01*
X250000Y473882D01*
X252341Y474348D01*
X254326Y475674D01*
X255266Y477082D01*
X256733D01*
X257674Y475674D01*
X259659Y474348D01*
X262000Y473882D01*
X264341Y474348D01*
X266326Y475674D01*
X267652Y477659D01*
X268118Y480000D01*
X267652Y482341D01*
X266326Y484326D01*
X264341Y485652D01*
X262000Y486118D01*
D02*
G37*
G36*
X140000Y484118D02*
X137659Y483652D01*
X135674Y482326D01*
X134733Y480918D01*
X133266D01*
X132326Y482326D01*
X130341Y483652D01*
X128000Y484118D01*
X125659Y483652D01*
X123674Y482326D01*
X122733Y480918D01*
X121266D01*
X120326Y482326D01*
X118341Y483652D01*
X116000Y484118D01*
X113659Y483652D01*
X111674Y482326D01*
X110733Y480918D01*
X109267D01*
X108326Y482326D01*
X106341Y483652D01*
X104000Y484118D01*
X101659Y483652D01*
X99674Y482326D01*
X98348Y480341D01*
X97882Y478000D01*
X98348Y475659D01*
X99674Y473674D01*
X101659Y472348D01*
X104000Y471883D01*
X106341Y472348D01*
X108326Y473674D01*
X109267Y475082D01*
X110733D01*
X111674Y473674D01*
X113659Y472348D01*
X114168Y472247D01*
Y470952D01*
X112659Y470652D01*
X110674Y469326D01*
X109348Y467341D01*
X108883Y465000D01*
X109348Y462659D01*
X110674Y460674D01*
X112659Y459348D01*
X115000Y458882D01*
X117341Y459348D01*
X119326Y460674D01*
X120652Y462659D01*
X120853Y463668D01*
X122147D01*
X122348Y462659D01*
X123674Y460674D01*
X125659Y459348D01*
X128000Y458882D01*
X130341Y459348D01*
X132326Y460674D01*
X133652Y462659D01*
X134117Y465000D01*
X133652Y467341D01*
X132326Y469326D01*
X130341Y470652D01*
X129332Y470853D01*
Y472147D01*
X130341Y472348D01*
X132326Y473674D01*
X133266Y475082D01*
X134733D01*
X135674Y473674D01*
X137659Y472348D01*
X140000Y471883D01*
X142341Y472348D01*
X144326Y473674D01*
X145652Y475659D01*
X146117Y478000D01*
X145652Y480341D01*
X144326Y482326D01*
X142341Y483652D01*
X140000Y484118D01*
D02*
G37*
G36*
X155000Y471118D02*
X152659Y470652D01*
X150674Y469326D01*
X149348Y467341D01*
X148882Y465000D01*
X149348Y462659D01*
X150674Y460674D01*
X152659Y459348D01*
X155000Y458882D01*
X157341Y459348D01*
X159326Y460674D01*
X160652Y462659D01*
X161117Y465000D01*
X160652Y467341D01*
X159326Y469326D01*
X157341Y470652D01*
X155000Y471118D01*
D02*
G37*
G36*
X185000D02*
X182659Y470652D01*
X180674Y469326D01*
X179348Y467341D01*
X178882Y465000D01*
X179348Y462659D01*
X180674Y460674D01*
X181904Y459852D01*
X181519Y458582D01*
X175000Y458582D01*
X174005Y458582D01*
X173806Y458500D01*
X173591D01*
X171754Y457739D01*
X171601Y457587D01*
X171402Y457504D01*
X169996Y456098D01*
X169913Y455899D01*
X169761Y455746D01*
X169000Y453909D01*
Y453693D01*
X168918Y453494D01*
X168918Y452500D01*
X168918Y452500D01*
X168918Y422500D01*
X168918Y421506D01*
X169000Y421306D01*
Y421091D01*
X169761Y419254D01*
X169913Y419101D01*
X169996Y418902D01*
X171402Y417496D01*
X171601Y417413D01*
X171754Y417261D01*
X173591Y416500D01*
X173806D01*
X174005Y416418D01*
X175000Y416418D01*
X175000Y416418D01*
X207500D01*
X208494Y416418D01*
X208693Y416500D01*
X208909D01*
X210746Y417261D01*
X210899Y417413D01*
X211098Y417496D01*
X212484Y418882D01*
X244966D01*
X246383Y417466D01*
Y373618D01*
X199034D01*
X195826Y376825D01*
X193842Y378151D01*
X191501Y378617D01*
X182500D01*
X180159Y378151D01*
X178174Y376825D01*
X176848Y374840D01*
X176382Y372499D01*
X176848Y370158D01*
X178174Y368173D01*
X180159Y366847D01*
X182500Y366382D01*
X188967D01*
X192174Y363174D01*
X194159Y361848D01*
X196500Y361382D01*
X246383D01*
Y336034D01*
X245112Y335648D01*
X244326Y336826D01*
X242341Y338152D01*
X240000Y338618D01*
X237659Y338152D01*
X235674Y336826D01*
X234348Y334841D01*
X233882Y332500D01*
X234348Y330159D01*
X235674Y328174D01*
X237659Y326848D01*
X240000Y326382D01*
X242341Y326848D01*
X244326Y328174D01*
X245112Y329352D01*
X246383Y328966D01*
Y294618D01*
X246848Y292276D01*
X248174Y290292D01*
X251983Y286483D01*
X253968Y285157D01*
X256309Y284691D01*
X261632D01*
Y284368D01*
X262098Y282026D01*
X263424Y280042D01*
X263674Y279792D01*
X265659Y278466D01*
X265935Y278411D01*
X266182Y277165D01*
X265674Y276826D01*
X264348Y274841D01*
X263883Y272500D01*
X264348Y270159D01*
X265674Y268174D01*
X267659Y266848D01*
X270000Y266382D01*
X272341Y266848D01*
X274326Y268174D01*
X275652Y270159D01*
X276117Y272500D01*
X275652Y274841D01*
X274326Y276826D01*
X272341Y278152D01*
X272065Y278207D01*
X271818Y279452D01*
X272326Y279792D01*
X273652Y281776D01*
X274118Y284118D01*
X273867Y285374D01*
Y297250D01*
X273402Y299591D01*
X272076Y301576D01*
X270091Y302902D01*
X267750Y303368D01*
X265409Y302902D01*
X263424Y301576D01*
X262098Y299591D01*
X261632Y297250D01*
Y296926D01*
X258843D01*
X258617Y297152D01*
Y367500D01*
Y420000D01*
X258152Y422341D01*
X256826Y424326D01*
X251826Y429326D01*
X249841Y430652D01*
X247500Y431118D01*
X213582D01*
X213582Y453495D01*
X213500Y453694D01*
Y453909D01*
X212739Y455746D01*
X212586Y455899D01*
X212504Y456098D01*
X211098Y457504D01*
X210899Y457587D01*
X210746Y457739D01*
X209085Y458427D01*
X208903D01*
X208739Y458507D01*
X207571Y458580D01*
X207536Y458568D01*
X207503Y458582D01*
X207500D01*
X207500Y458582D01*
X188481Y458582D01*
X188096Y459852D01*
X189326Y460674D01*
X190652Y462659D01*
X191117Y465000D01*
X190652Y467341D01*
X189326Y469326D01*
X187341Y470652D01*
X185000Y471118D01*
D02*
G37*
G36*
X309000Y470118D02*
X306659Y469652D01*
X304674Y468326D01*
X303348Y466341D01*
X302882Y464000D01*
X303348Y461659D01*
X304674Y459674D01*
X306659Y458348D01*
X309000Y457882D01*
X311341Y458348D01*
X313326Y459674D01*
X314652Y461659D01*
X315117Y464000D01*
X314652Y466341D01*
X313326Y468326D01*
X311341Y469652D01*
X309000Y470118D01*
D02*
G37*
G36*
X72500Y474604D02*
X69367Y474191D01*
X66448Y472982D01*
X63941Y471059D01*
X62018Y468552D01*
X60809Y465633D01*
X60396Y462500D01*
X60809Y459367D01*
X62018Y456448D01*
X63941Y453941D01*
X66448Y452018D01*
X69367Y450809D01*
X72500Y450396D01*
X75633Y450809D01*
X78552Y452018D01*
X81059Y453941D01*
X82982Y456448D01*
X84191Y459367D01*
X84604Y462500D01*
X84191Y465633D01*
X82982Y468552D01*
X81059Y471059D01*
X78552Y472982D01*
X75633Y474191D01*
X72500Y474604D01*
D02*
G37*
G36*
X352500Y451118D02*
X350159Y450652D01*
X348174Y449326D01*
X346848Y447341D01*
X346382Y445000D01*
X346848Y442659D01*
X348174Y440674D01*
X350159Y439348D01*
X352500Y438882D01*
X354841Y439348D01*
X356826Y440674D01*
X358152Y442659D01*
X358618Y445000D01*
X358152Y447341D01*
X356826Y449326D01*
X354841Y450652D01*
X352500Y451118D01*
D02*
G37*
G36*
X47500Y446118D02*
X45159Y445652D01*
X43174Y444326D01*
X41848Y442341D01*
X41382Y440000D01*
X41848Y437659D01*
X43174Y435674D01*
X45159Y434348D01*
X47500Y433882D01*
X49841Y434348D01*
X51826Y435674D01*
X53152Y437659D01*
X53618Y440000D01*
X53152Y442341D01*
X51826Y444326D01*
X49841Y445652D01*
X47500Y446118D01*
D02*
G37*
G36*
X320000Y443618D02*
X317659Y443152D01*
X315674Y441826D01*
X314348Y439841D01*
X313883Y437500D01*
X314348Y435159D01*
X315674Y433174D01*
X317659Y431848D01*
X320000Y431382D01*
X322341Y431848D01*
X324326Y433174D01*
X325652Y435159D01*
X326118Y437500D01*
X325652Y439841D01*
X324326Y441826D01*
X322341Y443152D01*
X320000Y443618D01*
D02*
G37*
G36*
X287500Y446578D02*
X285151Y446268D01*
X282961Y445361D01*
X281081Y443919D01*
X279639Y442039D01*
X278732Y439850D01*
X278422Y437500D01*
X278732Y435150D01*
X279639Y432961D01*
X281081Y431081D01*
X282961Y429638D01*
X285151Y428732D01*
X287500Y428422D01*
X289849Y428732D01*
X292039Y429638D01*
X293919Y431081D01*
X295361Y432961D01*
X296268Y435150D01*
X296578Y437500D01*
X296268Y439850D01*
X295361Y442039D01*
X293919Y443919D01*
X292039Y445361D01*
X289849Y446268D01*
X287500Y446578D01*
D02*
G37*
G36*
X72500Y439604D02*
X69367Y439191D01*
X66448Y437982D01*
X63941Y436059D01*
X62018Y433552D01*
X60809Y430633D01*
X60396Y427500D01*
X60809Y424367D01*
X62018Y421448D01*
X63941Y418941D01*
X66448Y417018D01*
X69367Y415809D01*
X72500Y415396D01*
X75633Y415809D01*
X78552Y417018D01*
X81059Y418941D01*
X82982Y421448D01*
X84191Y424367D01*
X84604Y427500D01*
X84191Y430633D01*
X82982Y433552D01*
X81059Y436059D01*
X78552Y437982D01*
X75633Y439191D01*
X72500Y439604D01*
D02*
G37*
G36*
X47500Y426118D02*
X45159Y425652D01*
X43174Y424326D01*
X41848Y422341D01*
X41382Y420000D01*
X41848Y417659D01*
X43174Y415674D01*
X45159Y414348D01*
X47500Y413882D01*
X49841Y414348D01*
X51826Y415674D01*
X53152Y417659D01*
X53618Y420000D01*
X53152Y422341D01*
X51826Y424326D01*
X49841Y425652D01*
X47500Y426118D01*
D02*
G37*
G36*
X287500Y418618D02*
X285159Y418152D01*
X283174Y416826D01*
X281848Y414841D01*
X281383Y412500D01*
X281848Y410159D01*
X283174Y408174D01*
X285159Y406848D01*
X287500Y406382D01*
X289841Y406848D01*
X291826Y408174D01*
X293152Y410159D01*
X293617Y412500D01*
X293152Y414841D01*
X291826Y416826D01*
X289841Y418152D01*
X287500Y418618D01*
D02*
G37*
G36*
X325000Y424078D02*
X322650Y423768D01*
X320461Y422861D01*
X318581Y421419D01*
X317139Y419539D01*
X316232Y417350D01*
X315922Y415000D01*
X316232Y412650D01*
X317139Y410461D01*
X318581Y408581D01*
X320461Y407138D01*
X322650Y406232D01*
X325000Y405922D01*
X327349Y406232D01*
X329539Y407138D01*
X331419Y408581D01*
X332861Y410461D01*
X333768Y412650D01*
X334078Y415000D01*
X333768Y417350D01*
X332861Y419539D01*
X331419Y421419D01*
X329539Y422861D01*
X327349Y423768D01*
X325000Y424078D01*
D02*
G37*
G36*
X222000Y411118D02*
X219659Y410652D01*
X217674Y409326D01*
X216348Y407341D01*
X215882Y405000D01*
X216348Y402659D01*
X217674Y400674D01*
X219659Y399348D01*
X222000Y398882D01*
X224341Y399348D01*
X226326Y400674D01*
X227652Y402659D01*
X228118Y405000D01*
X227652Y407341D01*
X226326Y409326D01*
X224341Y410652D01*
X222000Y411118D01*
D02*
G37*
G36*
X196000D02*
X193659Y410652D01*
X191674Y409326D01*
X190348Y407341D01*
X189882Y405000D01*
X190348Y402659D01*
X191674Y400674D01*
X193659Y399348D01*
X196000Y398882D01*
X198341Y399348D01*
X200326Y400674D01*
X201652Y402659D01*
X202118Y405000D01*
X201652Y407341D01*
X200326Y409326D01*
X198341Y410652D01*
X196000Y411118D01*
D02*
G37*
G36*
X180000D02*
X177659Y410652D01*
X175674Y409326D01*
X174348Y407341D01*
X173883Y405000D01*
X174348Y402659D01*
X175674Y400674D01*
X177659Y399348D01*
X180000Y398882D01*
X182341Y399348D01*
X184326Y400674D01*
X185652Y402659D01*
X186117Y405000D01*
X185652Y407341D01*
X184326Y409326D01*
X182341Y410652D01*
X180000Y411118D01*
D02*
G37*
G36*
X350000Y406118D02*
X347659Y405652D01*
X345674Y404326D01*
X344348Y402341D01*
X343882Y400000D01*
X344348Y397659D01*
X345674Y395674D01*
X347659Y394348D01*
X350000Y393882D01*
X352341Y394348D01*
X354326Y395674D01*
X355652Y397659D01*
X356118Y400000D01*
X355652Y402341D01*
X354326Y404326D01*
X352341Y405652D01*
X350000Y406118D01*
D02*
G37*
G36*
Y388618D02*
X347659Y388152D01*
X345674Y386826D01*
X344348Y384841D01*
X343882Y382500D01*
X344348Y380159D01*
X345674Y378174D01*
X347659Y376848D01*
X350000Y376382D01*
X352341Y376848D01*
X354326Y378174D01*
X355652Y380159D01*
X356118Y382500D01*
X355652Y384841D01*
X354326Y386826D01*
X352341Y388152D01*
X350000Y388618D01*
D02*
G37*
G36*
X325000Y391578D02*
X322650Y391268D01*
X320461Y390361D01*
X318581Y388919D01*
X317139Y387039D01*
X316232Y384850D01*
X315922Y382500D01*
X316232Y380150D01*
X317139Y377961D01*
X318581Y376081D01*
X320461Y374638D01*
X322650Y373732D01*
X325000Y373422D01*
X327349Y373732D01*
X329539Y374638D01*
X331419Y376081D01*
X332861Y377961D01*
X333768Y380150D01*
X334078Y382500D01*
X333768Y384850D01*
X332861Y387039D01*
X331419Y388919D01*
X329539Y390361D01*
X327349Y391268D01*
X325000Y391578D01*
D02*
G37*
G36*
X154000Y384118D02*
X151659Y383652D01*
X149674Y382326D01*
X148348Y380341D01*
X147882Y378000D01*
X148348Y375659D01*
X149674Y373674D01*
X151659Y372348D01*
X154000Y371883D01*
X156341Y372348D01*
X158326Y373674D01*
X159652Y375659D01*
X160117Y378000D01*
X159652Y380341D01*
X158326Y382326D01*
X156341Y383652D01*
X154000Y384118D01*
D02*
G37*
G36*
X72500Y389604D02*
X69367Y389191D01*
X66448Y387982D01*
X63941Y386059D01*
X62018Y383552D01*
X60809Y380633D01*
X60396Y377500D01*
X60809Y374367D01*
X62018Y371448D01*
X63941Y368941D01*
X66448Y367018D01*
X69367Y365809D01*
X72500Y365396D01*
X75633Y365809D01*
X78552Y367018D01*
X81059Y368941D01*
X82982Y371448D01*
X84191Y374367D01*
X84604Y377500D01*
X84191Y380633D01*
X82982Y383552D01*
X81059Y386059D01*
X78552Y387982D01*
X75633Y389191D01*
X72500Y389604D01*
D02*
G37*
G36*
X106000Y368118D02*
X103659Y367652D01*
X101674Y366326D01*
X100348Y364341D01*
X99882Y362000D01*
X100348Y359659D01*
X101674Y357674D01*
X103659Y356348D01*
X106000Y355882D01*
X108341Y356348D01*
X110326Y357674D01*
X111652Y359659D01*
X112118Y362000D01*
X111652Y364341D01*
X110326Y366326D01*
X108341Y367652D01*
X106000Y368118D01*
D02*
G37*
G36*
X207500Y355304D02*
X206427Y355090D01*
X205858Y354710D01*
X205000Y354568D01*
X204142Y354710D01*
X203573Y355090D01*
X202500Y355304D01*
X201427Y355090D01*
X200517Y354483D01*
X199910Y353573D01*
X199696Y352500D01*
X199910Y351427D01*
X200290Y350858D01*
X200432Y350000D01*
X200290Y349142D01*
X199910Y348573D01*
X199696Y347500D01*
X199910Y346427D01*
X200517Y345517D01*
X201427Y344910D01*
X202500Y344696D01*
X203573Y344910D01*
X203978Y345180D01*
X204612Y344974D01*
X205037Y343764D01*
X204909Y343573D01*
X204696Y342500D01*
X204909Y341427D01*
X205290Y340858D01*
X205432Y340000D01*
X205290Y339142D01*
X204909Y338573D01*
X204696Y337500D01*
X204909Y336427D01*
X205517Y335517D01*
Y334483D01*
X204909Y333573D01*
X204696Y332500D01*
X204909Y331427D01*
X205517Y330517D01*
X206427Y329910D01*
X207500Y329696D01*
X208573Y329910D01*
X209483Y330517D01*
X210517D01*
X211427Y329910D01*
X212500Y329696D01*
X213573Y329910D01*
X214483Y330517D01*
X215517D01*
X216427Y329910D01*
X217500Y329696D01*
X218573Y329910D01*
X219483Y330517D01*
X220090Y331427D01*
X220304Y332500D01*
X220090Y333573D01*
X219483Y334483D01*
X218573Y335090D01*
X217500Y335304D01*
X216427Y335090D01*
X216022Y334820D01*
X215388Y335026D01*
X214962Y336236D01*
X215090Y336427D01*
X215304Y337500D01*
X215090Y338573D01*
X214710Y339142D01*
X214661Y339441D01*
X215559Y340339D01*
X215858Y340290D01*
X216427Y339910D01*
X217500Y339696D01*
X218573Y339910D01*
X219483Y340517D01*
X220090Y341427D01*
X220304Y342500D01*
X220090Y343573D01*
X219483Y344483D01*
Y345517D01*
X220090Y346427D01*
X220304Y347500D01*
X220090Y348573D01*
X219483Y349483D01*
X218573Y350090D01*
X217500Y350304D01*
X216427Y350090D01*
X215517Y349483D01*
X214483D01*
X213573Y350090D01*
X212500Y350304D01*
X211427Y350090D01*
X211423Y350088D01*
X210067Y350365D01*
X209778Y350959D01*
X210090Y351427D01*
X210304Y352500D01*
X210090Y353573D01*
X209483Y354483D01*
X208573Y355090D01*
X207500Y355304D01*
D02*
G37*
G36*
X325000Y359078D02*
X322650Y358768D01*
X320461Y357861D01*
X318581Y356419D01*
X317139Y354539D01*
X316232Y352350D01*
X315922Y350000D01*
X316232Y347650D01*
X317139Y345461D01*
X318581Y343581D01*
X320461Y342138D01*
X322650Y341232D01*
X325000Y340922D01*
X327349Y341232D01*
X329539Y342138D01*
X331419Y343581D01*
X332861Y345461D01*
X333768Y347650D01*
X334078Y350000D01*
X333768Y352350D01*
X332861Y354539D01*
X331419Y356419D01*
X329539Y357861D01*
X327349Y358768D01*
X325000Y359078D01*
D02*
G37*
G36*
X350000Y346118D02*
X347659Y345652D01*
X345674Y344326D01*
X344348Y342341D01*
X343882Y340000D01*
X344348Y337659D01*
X345674Y335674D01*
X347659Y334348D01*
X350000Y333882D01*
X352341Y334348D01*
X354326Y335674D01*
X355652Y337659D01*
X356118Y340000D01*
X355652Y342341D01*
X354326Y344326D01*
X352341Y345652D01*
X350000Y346118D01*
D02*
G37*
G36*
X72500Y354604D02*
X69367Y354191D01*
X66448Y352982D01*
X63941Y351059D01*
X62018Y348552D01*
X60809Y345633D01*
X60396Y342500D01*
X60809Y339367D01*
X62018Y336448D01*
X63941Y333941D01*
X66448Y332018D01*
X69367Y330809D01*
X72500Y330396D01*
X75633Y330809D01*
X78552Y332018D01*
X81059Y333941D01*
X82982Y336448D01*
X84191Y339367D01*
X84604Y342500D01*
X84191Y345633D01*
X82982Y348552D01*
X81059Y351059D01*
X78552Y352982D01*
X75633Y354191D01*
X72500Y354604D01*
D02*
G37*
G36*
X185251Y334867D02*
X182910Y334402D01*
X180925Y333075D01*
X179599Y331091D01*
X179133Y328750D01*
X179599Y326409D01*
X180691Y324774D01*
X180030Y323611D01*
X180000Y323617D01*
X177659Y323151D01*
X175674Y321825D01*
X174348Y319841D01*
X173882Y317499D01*
X174348Y315158D01*
X175674Y313174D01*
X177659Y311848D01*
X180000Y311382D01*
X182341Y311848D01*
X184325Y313174D01*
X185651Y315158D01*
X186117Y317499D01*
X185651Y319841D01*
X184559Y321475D01*
X185221Y322638D01*
X185251Y322632D01*
X187592Y323098D01*
X189576Y324424D01*
X190902Y326409D01*
X191368Y328750D01*
X190902Y331091D01*
X189576Y333075D01*
X187592Y334402D01*
X185251Y334867D01*
D02*
G37*
G36*
X350000Y323618D02*
X347659Y323152D01*
X345674Y321826D01*
X344348Y319841D01*
X343882Y317500D01*
X344348Y315159D01*
X345674Y313174D01*
X347659Y311848D01*
X350000Y311383D01*
X352341Y311848D01*
X354326Y313174D01*
X355652Y315159D01*
X356118Y317500D01*
X355652Y319841D01*
X354326Y321826D01*
X352341Y323152D01*
X350000Y323618D01*
D02*
G37*
G36*
X325000Y326578D02*
X322650Y326268D01*
X320461Y325362D01*
X318581Y323919D01*
X317139Y322039D01*
X316232Y319849D01*
X315922Y317500D01*
X316232Y315151D01*
X317139Y312961D01*
X318581Y311081D01*
X320461Y309639D01*
X322650Y308732D01*
X325000Y308422D01*
X327349Y308732D01*
X329539Y309639D01*
X331419Y311081D01*
X332861Y312961D01*
X333768Y315151D01*
X334078Y317500D01*
X333768Y319849D01*
X332861Y322039D01*
X331419Y323919D01*
X329539Y325362D01*
X327349Y326268D01*
X325000Y326578D01*
D02*
G37*
G36*
X160750Y312367D02*
X158409Y311902D01*
X156424Y310576D01*
X155098Y308591D01*
X154633Y306250D01*
X155098Y303909D01*
X156424Y301924D01*
X158409Y300598D01*
X160750Y300133D01*
X163091Y300598D01*
X165076Y301924D01*
X166402Y303909D01*
X166868Y306250D01*
X166402Y308591D01*
X165076Y310576D01*
X163091Y311902D01*
X160750Y312367D01*
D02*
G37*
G36*
X192500Y311117D02*
X190159Y310652D01*
X188174Y309326D01*
X186848Y307341D01*
X186382Y305000D01*
X186848Y302659D01*
X188174Y300674D01*
X190159Y299348D01*
X192500Y298883D01*
X194841Y299348D01*
X196826Y300674D01*
X198152Y302659D01*
X198617Y305000D01*
X198152Y307341D01*
X196826Y309326D01*
X194841Y310652D01*
X192500Y311117D01*
D02*
G37*
G36*
X107500Y308617D02*
X105159Y308152D01*
X103174Y306826D01*
X101848Y304841D01*
X101382Y302500D01*
X101848Y300159D01*
X103174Y298174D01*
X105159Y296848D01*
X107500Y296382D01*
X109841Y296848D01*
X111826Y298174D01*
X113152Y300159D01*
X113617Y302500D01*
X113152Y304841D01*
X111826Y306826D01*
X109841Y308152D01*
X107500Y308617D01*
D02*
G37*
G36*
X298000Y308118D02*
X295659Y307652D01*
X293674Y306326D01*
X292348Y304341D01*
X291882Y302000D01*
X292348Y299659D01*
X293674Y297674D01*
X295659Y296348D01*
X298000Y295882D01*
X300341Y296348D01*
X302326Y297674D01*
X303652Y299659D01*
X304118Y302000D01*
X303652Y304341D01*
X302326Y306326D01*
X300341Y307652D01*
X298000Y308118D01*
D02*
G37*
G36*
X72500Y319604D02*
X69367Y319191D01*
X66448Y317982D01*
X63941Y316059D01*
X62018Y313552D01*
X60809Y310633D01*
X60396Y307500D01*
X60809Y304367D01*
X62018Y301448D01*
X63941Y298941D01*
X66448Y297018D01*
X69367Y295809D01*
X72500Y295396D01*
X75633Y295809D01*
X78552Y297018D01*
X81059Y298941D01*
X82982Y301448D01*
X84191Y304367D01*
X84604Y307500D01*
X84191Y310633D01*
X82982Y313552D01*
X81059Y316059D01*
X78552Y317982D01*
X75633Y319191D01*
X72500Y319604D01*
D02*
G37*
G36*
X152500Y288617D02*
X150159Y288152D01*
X148174Y286826D01*
X146848Y284841D01*
X146382Y282500D01*
X146848Y280159D01*
X148174Y278174D01*
X150159Y276848D01*
X152500Y276382D01*
X154841Y276848D01*
X156826Y278174D01*
X158152Y280159D01*
X158617Y282500D01*
X158152Y284841D01*
X156826Y286826D01*
X154841Y288152D01*
X152500Y288617D01*
D02*
G37*
G36*
X325000Y294078D02*
X322650Y293768D01*
X320461Y292861D01*
X318581Y291419D01*
X317139Y289539D01*
X316232Y287349D01*
X315922Y285000D01*
X316232Y282651D01*
X317139Y280461D01*
X318581Y278581D01*
X320461Y277139D01*
X322650Y276232D01*
X325000Y275922D01*
X327349Y276232D01*
X329539Y277139D01*
X331419Y278581D01*
X332861Y280461D01*
X333768Y282651D01*
X334078Y285000D01*
X333768Y287349D01*
X332861Y289539D01*
X331419Y291419D01*
X329539Y292861D01*
X327349Y293768D01*
X325000Y294078D01*
D02*
G37*
G36*
X287500D02*
X285151Y293768D01*
X282961Y292861D01*
X281081Y291419D01*
X279639Y289539D01*
X278732Y287349D01*
X278422Y285000D01*
X278732Y282651D01*
X279639Y280461D01*
X281081Y278581D01*
X282961Y277139D01*
X285151Y276232D01*
X287500Y275922D01*
X289849Y276232D01*
X292039Y277139D01*
X293919Y278581D01*
X295361Y280461D01*
X296268Y282651D01*
X296578Y285000D01*
X296268Y287349D01*
X295361Y289539D01*
X293919Y291419D01*
X292039Y292861D01*
X289849Y293768D01*
X287500Y294078D01*
D02*
G37*
G36*
X352500Y278617D02*
X350159Y278152D01*
X348174Y276826D01*
X346848Y274841D01*
X346382Y272500D01*
X346848Y270159D01*
X348174Y268174D01*
X350159Y266848D01*
X352500Y266382D01*
X354841Y266848D01*
X356826Y268174D01*
X358152Y270159D01*
X358618Y272500D01*
X358152Y274841D01*
X356826Y276826D01*
X354841Y278152D01*
X352500Y278617D01*
D02*
G37*
G36*
X313375Y273743D02*
X311034Y273277D01*
X309049Y271951D01*
X307723Y269966D01*
X307257Y267625D01*
X307723Y265284D01*
X309049Y263299D01*
X311034Y261973D01*
X313375Y261507D01*
X315716Y261973D01*
X317701Y263299D01*
X319027Y265284D01*
X319492Y267625D01*
X319027Y269966D01*
X317701Y271951D01*
X315716Y273277D01*
X313375Y273743D01*
D02*
G37*
G36*
X232500Y266117D02*
X230159Y265652D01*
X228174Y264326D01*
X226848Y262341D01*
X226382Y260000D01*
X226848Y257659D01*
X228174Y255674D01*
X230159Y254348D01*
X232500Y253882D01*
X234841Y254348D01*
X236826Y255674D01*
X238152Y257659D01*
X238617Y260000D01*
X238152Y262341D01*
X236826Y264326D01*
X234841Y265652D01*
X232500Y266117D01*
D02*
G37*
G36*
X212500D02*
X210159Y265652D01*
X208174Y264326D01*
X206848Y262341D01*
X206382Y260000D01*
X206848Y257659D01*
X208174Y255674D01*
X210159Y254348D01*
X212500Y253882D01*
X214841Y254348D01*
X216826Y255674D01*
X218152Y257659D01*
X218617Y260000D01*
X218152Y262341D01*
X216826Y264326D01*
X214841Y265652D01*
X212500Y266117D01*
D02*
G37*
G36*
X192500D02*
X190159Y265652D01*
X188174Y264326D01*
X186848Y262341D01*
X186382Y260000D01*
X186848Y257659D01*
X188174Y255674D01*
X190159Y254348D01*
X192500Y253882D01*
X194841Y254348D01*
X196826Y255674D01*
X198152Y257659D01*
X198617Y260000D01*
X198152Y262341D01*
X196826Y264326D01*
X194841Y265652D01*
X192500Y266117D01*
D02*
G37*
G36*
X172500D02*
X170159Y265652D01*
X168174Y264326D01*
X166848Y262341D01*
X166382Y260000D01*
X166848Y257659D01*
X168174Y255674D01*
X170159Y254348D01*
X172500Y253882D01*
X174841Y254348D01*
X176826Y255674D01*
X178152Y257659D01*
X178617Y260000D01*
X178152Y262341D01*
X176826Y264326D01*
X174841Y265652D01*
X172500Y266117D01*
D02*
G37*
G36*
X137500D02*
X135159Y265652D01*
X133174Y264326D01*
X131848Y262341D01*
X131383Y260000D01*
X131848Y257659D01*
X133174Y255674D01*
X135159Y254348D01*
X137500Y253882D01*
X139841Y254348D01*
X141826Y255674D01*
X143152Y257659D01*
X143617Y260000D01*
X143152Y262341D01*
X141826Y264326D01*
X139841Y265652D01*
X137500Y266117D01*
D02*
G37*
G36*
X62500Y253617D02*
X60159Y253152D01*
X58174Y251826D01*
X56848Y249841D01*
X56382Y247500D01*
X56848Y245159D01*
X58174Y243174D01*
X60159Y241848D01*
X62500Y241382D01*
X64841Y241848D01*
X66826Y243174D01*
X68152Y245159D01*
X68618Y247500D01*
X68152Y249841D01*
X66826Y251826D01*
X64841Y253152D01*
X62500Y253617D01*
D02*
G37*
G36*
X45000D02*
X42659Y253152D01*
X40674Y251826D01*
X39348Y249841D01*
X38883Y247500D01*
X39348Y245159D01*
X40674Y243174D01*
X42659Y241848D01*
X45000Y241382D01*
X47341Y241848D01*
X49326Y243174D01*
X50652Y245159D01*
X51118Y247500D01*
X50652Y249841D01*
X49326Y251826D01*
X47341Y253152D01*
X45000Y253617D01*
D02*
G37*
G36*
X77791Y229227D02*
X76425Y228956D01*
X75268Y228182D01*
X74494Y227024D01*
X74222Y225659D01*
X74494Y224293D01*
X75268Y223135D01*
X76425Y222362D01*
X77791Y222090D01*
X79157Y222362D01*
X80314Y223135D01*
X81088Y224293D01*
X81360Y225659D01*
X81088Y227024D01*
X80314Y228182D01*
X79157Y228956D01*
X77791Y229227D01*
D02*
G37*
G36*
X67791D02*
X66425Y228956D01*
X65268Y228182D01*
X64494Y227024D01*
X64222Y225659D01*
X64494Y224293D01*
X65268Y223135D01*
X66425Y222362D01*
X67791Y222090D01*
X69157Y222362D01*
X70314Y223135D01*
X71088Y224293D01*
X71360Y225659D01*
X71088Y227024D01*
X70314Y228182D01*
X69157Y228956D01*
X67791Y229227D01*
D02*
G37*
G36*
X192500Y239078D02*
X190151Y238768D01*
X187961Y237861D01*
X186081Y236419D01*
X184639Y234539D01*
X183732Y232349D01*
X183422Y230000D01*
X183732Y227651D01*
X184639Y225461D01*
X186081Y223581D01*
X187961Y222139D01*
X190151Y221232D01*
X192500Y220922D01*
X194849Y221232D01*
X197039Y222139D01*
X198919Y223581D01*
X200361Y225461D01*
X201268Y227651D01*
X201578Y230000D01*
X201268Y232349D01*
X200361Y234539D01*
X198919Y236419D01*
X197039Y237861D01*
X194849Y238768D01*
X192500Y239078D01*
D02*
G37*
G36*
X77791Y219227D02*
X76425Y218956D01*
X75268Y218182D01*
X74494Y217024D01*
X74222Y215659D01*
X74494Y214293D01*
X75268Y213135D01*
X76425Y212362D01*
X77791Y212090D01*
X79157Y212362D01*
X80314Y213135D01*
X81088Y214293D01*
X81360Y215659D01*
X81088Y217024D01*
X80314Y218182D01*
X79157Y218956D01*
X77791Y219227D01*
D02*
G37*
G36*
X67791D02*
X66425Y218956D01*
X65268Y218182D01*
X64494Y217024D01*
X64222Y215659D01*
X64494Y214293D01*
X65268Y213135D01*
X66425Y212362D01*
X67791Y212090D01*
X69157Y212362D01*
X70314Y213135D01*
X71088Y214293D01*
X71360Y215659D01*
X71088Y217024D01*
X70314Y218182D01*
X69157Y218956D01*
X67791Y219227D01*
D02*
G37*
G36*
X352500Y216578D02*
X350150Y216268D01*
X347961Y215361D01*
X346081Y213919D01*
X344639Y212039D01*
X343732Y209849D01*
X343422Y207500D01*
X343732Y205151D01*
X344639Y202961D01*
X346081Y201081D01*
X347961Y199639D01*
X350150Y198732D01*
X352500Y198422D01*
X354850Y198732D01*
X357039Y199639D01*
X358919Y201081D01*
X360362Y202961D01*
X361268Y205151D01*
X361578Y207500D01*
X361268Y209849D01*
X360362Y212039D01*
X358919Y213919D01*
X357039Y215361D01*
X354850Y216268D01*
X352500Y216578D01*
D02*
G37*
G36*
X320000D02*
X317651Y216268D01*
X315461Y215361D01*
X313581Y213919D01*
X312139Y212039D01*
X311232Y209849D01*
X310922Y207500D01*
X311232Y205151D01*
X312139Y202961D01*
X313581Y201081D01*
X315461Y199639D01*
X317651Y198732D01*
X320000Y198422D01*
X322350Y198732D01*
X324539Y199639D01*
X326419Y201081D01*
X327861Y202961D01*
X328768Y205151D01*
X329078Y207500D01*
X328768Y209849D01*
X327861Y212039D01*
X326419Y213919D01*
X324539Y215361D01*
X322350Y216268D01*
X320000Y216578D01*
D02*
G37*
G36*
X287500D02*
X285151Y216268D01*
X282961Y215361D01*
X281081Y213919D01*
X279639Y212039D01*
X278732Y209849D01*
X278422Y207500D01*
X278732Y205151D01*
X279639Y202961D01*
X281081Y201081D01*
X282961Y199639D01*
X285151Y198732D01*
X287500Y198422D01*
X289849Y198732D01*
X292039Y199639D01*
X293919Y201081D01*
X295361Y202961D01*
X296268Y205151D01*
X296578Y207500D01*
X296268Y209849D01*
X295361Y212039D01*
X293919Y213919D01*
X292039Y215361D01*
X289849Y216268D01*
X287500Y216578D01*
D02*
G37*
G36*
X255000D02*
X252651Y216268D01*
X250461Y215361D01*
X248581Y213919D01*
X247139Y212039D01*
X246232Y209849D01*
X245922Y207500D01*
X246232Y205151D01*
X247139Y202961D01*
X248581Y201081D01*
X250461Y199639D01*
X252651Y198732D01*
X255000Y198422D01*
X257349Y198732D01*
X259539Y199639D01*
X261419Y201081D01*
X262861Y202961D01*
X263768Y205151D01*
X264078Y207500D01*
X263768Y209849D01*
X262861Y212039D01*
X261419Y213919D01*
X259539Y215361D01*
X257349Y216268D01*
X255000Y216578D01*
D02*
G37*
G36*
X192500Y206578D02*
X190151Y206268D01*
X187961Y205361D01*
X186081Y203919D01*
X184639Y202039D01*
X183732Y199849D01*
X183422Y197500D01*
X183732Y195151D01*
X184639Y192961D01*
X186081Y191081D01*
X187961Y189639D01*
X190151Y188732D01*
X192500Y188422D01*
X194849Y188732D01*
X197039Y189639D01*
X198919Y191081D01*
X200361Y192961D01*
X201268Y195151D01*
X201578Y197500D01*
X201268Y199849D01*
X200361Y202039D01*
X198919Y203919D01*
X197039Y205361D01*
X194849Y206268D01*
X192500Y206578D01*
D02*
G37*
G36*
X150000Y186117D02*
X147659Y185652D01*
X145674Y184326D01*
X144348Y182341D01*
X143883Y180000D01*
X144348Y177659D01*
X145674Y175674D01*
X147659Y174348D01*
X150000Y173883D01*
X152341Y174348D01*
X154326Y175674D01*
X155652Y177659D01*
X156117Y180000D01*
X155652Y182341D01*
X154326Y184326D01*
X152341Y185652D01*
X150000Y186117D01*
D02*
G37*
G36*
X330000Y183617D02*
X327659Y183152D01*
X325674Y181826D01*
X324348Y179841D01*
X323882Y177500D01*
X324348Y175159D01*
X325674Y173174D01*
X327659Y171848D01*
X330000Y171383D01*
X332341Y171848D01*
X334326Y173174D01*
X335652Y175159D01*
X336118Y177500D01*
X335652Y179841D01*
X334326Y181826D01*
X332341Y183152D01*
X330000Y183617D01*
D02*
G37*
G36*
X310000D02*
X307659Y183152D01*
X305674Y181826D01*
X304348Y179841D01*
X303883Y177500D01*
X304348Y175159D01*
X305674Y173174D01*
X307659Y171848D01*
X310000Y171383D01*
X312341Y171848D01*
X314326Y173174D01*
X315652Y175159D01*
X316117Y177500D01*
X315652Y179841D01*
X314326Y181826D01*
X312341Y183152D01*
X310000Y183617D01*
D02*
G37*
G36*
X290000D02*
X287659Y183152D01*
X285674Y181826D01*
X284348Y179841D01*
X283883Y177500D01*
X284348Y175159D01*
X285674Y173174D01*
X287659Y171848D01*
X290000Y171383D01*
X292341Y171848D01*
X294326Y173174D01*
X295652Y175159D01*
X296117Y177500D01*
X295652Y179841D01*
X294326Y181826D01*
X292341Y183152D01*
X290000Y183617D01*
D02*
G37*
G36*
X270000D02*
X267659Y183152D01*
X265674Y181826D01*
X264348Y179841D01*
X263883Y177500D01*
X264348Y175159D01*
X265674Y173174D01*
X267659Y171848D01*
X270000Y171383D01*
X272341Y171848D01*
X274326Y173174D01*
X275652Y175159D01*
X276117Y177500D01*
X275652Y179841D01*
X274326Y181826D01*
X272341Y183152D01*
X270000Y183617D01*
D02*
G37*
G36*
X75000Y178617D02*
X72659Y178152D01*
X70674Y176826D01*
X69348Y174841D01*
X68882Y172500D01*
X69348Y170159D01*
X70674Y168174D01*
X72659Y166848D01*
X75000Y166382D01*
X77341Y166848D01*
X79326Y168174D01*
X80652Y170159D01*
X81117Y172500D01*
X80652Y174841D01*
X79326Y176826D01*
X77341Y178152D01*
X75000Y178617D01*
D02*
G37*
G36*
X55000D02*
X52659Y178152D01*
X50674Y176826D01*
X49348Y174841D01*
X48882Y172500D01*
X49348Y170159D01*
X50674Y168174D01*
X52659Y166848D01*
X55000Y166382D01*
X57341Y166848D01*
X59326Y168174D01*
X60652Y170159D01*
X61118Y172500D01*
X60652Y174841D01*
X59326Y176826D01*
X57341Y178152D01*
X55000Y178617D01*
D02*
G37*
G36*
X216000Y178118D02*
X213659Y177652D01*
X211674Y176326D01*
X210348Y174341D01*
X209883Y172000D01*
X210348Y169659D01*
X211674Y167674D01*
X213659Y166348D01*
X216000Y165882D01*
X218341Y166348D01*
X220326Y167674D01*
X221652Y169659D01*
X222118Y172000D01*
X221652Y174341D01*
X220326Y176326D01*
X218341Y177652D01*
X216000Y178118D01*
D02*
G37*
G36*
X192500Y174078D02*
X190151Y173768D01*
X187961Y172861D01*
X186081Y171419D01*
X184639Y169539D01*
X183732Y167349D01*
X183422Y165000D01*
X183732Y162651D01*
X184639Y160461D01*
X186081Y158581D01*
X187961Y157139D01*
X190151Y156232D01*
X192500Y155922D01*
X194849Y156232D01*
X197039Y157139D01*
X198919Y158581D01*
X200361Y160461D01*
X201268Y162651D01*
X201578Y165000D01*
X201268Y167349D01*
X200361Y169539D01*
X198919Y171419D01*
X197039Y172861D01*
X194849Y173768D01*
X192500Y174078D01*
D02*
G37*
G36*
X130000Y166117D02*
X127659Y165652D01*
X125674Y164326D01*
X124348Y162341D01*
X123882Y160000D01*
X124348Y157659D01*
X125674Y155674D01*
X127659Y154348D01*
X130000Y153882D01*
X132341Y154348D01*
X134326Y155674D01*
X135652Y157659D01*
X136117Y160000D01*
X135652Y162341D01*
X134326Y164326D01*
X132341Y165652D01*
X130000Y166117D01*
D02*
G37*
G36*
X225000Y163617D02*
X222659Y163152D01*
X220674Y161826D01*
X219348Y159841D01*
X218883Y157500D01*
X219348Y155159D01*
X220674Y153174D01*
X222659Y151848D01*
X225000Y151383D01*
X227341Y151848D01*
X229326Y153174D01*
X230652Y155159D01*
X231117Y157500D01*
X230652Y159841D01*
X229326Y161826D01*
X227341Y163152D01*
X225000Y163617D01*
D02*
G37*
G36*
X357500Y166578D02*
X355150Y166268D01*
X352961Y165361D01*
X351081Y163919D01*
X349638Y162039D01*
X348732Y159850D01*
X348422Y157500D01*
X348732Y155150D01*
X349638Y152961D01*
X351081Y151081D01*
X352961Y149639D01*
X355150Y148732D01*
X357500Y148422D01*
X359850Y148732D01*
X362039Y149639D01*
X363919Y151081D01*
X365361Y152961D01*
X366268Y155150D01*
X366578Y157500D01*
X366268Y159850D01*
X365361Y162039D01*
X363919Y163919D01*
X362039Y165361D01*
X359850Y166268D01*
X357500Y166578D01*
D02*
G37*
G36*
X242500D02*
X240151Y166268D01*
X237961Y165361D01*
X236081Y163919D01*
X234639Y162039D01*
X233732Y159850D01*
X233422Y157500D01*
X233732Y155150D01*
X234639Y152961D01*
X236081Y151081D01*
X237961Y149639D01*
X240151Y148732D01*
X242500Y148422D01*
X244849Y148732D01*
X247039Y149639D01*
X248919Y151081D01*
X250361Y152961D01*
X251268Y155150D01*
X251578Y157500D01*
X251268Y159850D01*
X250361Y162039D01*
X248919Y163919D01*
X247039Y165361D01*
X244849Y166268D01*
X242500Y166578D01*
D02*
G37*
G36*
X207500Y153617D02*
X205159Y153152D01*
X203174Y151826D01*
X201848Y149841D01*
X201382Y147500D01*
X201848Y145159D01*
X203174Y143174D01*
X205159Y141848D01*
X207500Y141382D01*
X209841Y141848D01*
X211826Y143174D01*
X213152Y145159D01*
X213617Y147500D01*
X213152Y149841D01*
X211826Y151826D01*
X209841Y153152D01*
X207500Y153617D01*
D02*
G37*
G36*
X226000Y136117D02*
X223659Y135652D01*
X221674Y134326D01*
X220348Y132341D01*
X219883Y130000D01*
X220348Y127659D01*
X221674Y125674D01*
X223659Y124348D01*
X226000Y123883D01*
X228341Y124348D01*
X230326Y125674D01*
X231652Y127659D01*
X232118Y130000D01*
X231652Y132341D01*
X230326Y134326D01*
X228341Y135652D01*
X226000Y136117D01*
D02*
G37*
G36*
X192500Y141578D02*
X190151Y141268D01*
X187961Y140361D01*
X186081Y138919D01*
X184639Y137039D01*
X183732Y134850D01*
X183422Y132500D01*
X183732Y130150D01*
X184639Y127961D01*
X186081Y126081D01*
X187961Y124639D01*
X190151Y123732D01*
X192500Y123422D01*
X194849Y123732D01*
X197039Y124639D01*
X198919Y126081D01*
X200361Y127961D01*
X201268Y130150D01*
X201578Y132500D01*
X201268Y134850D01*
X200361Y137039D01*
X198919Y138919D01*
X197039Y140361D01*
X194849Y141268D01*
X192500Y141578D01*
D02*
G37*
G36*
X345000Y138617D02*
X342659Y138152D01*
X340674Y136826D01*
X339348Y134841D01*
X338882Y132500D01*
X339348Y130159D01*
X340674Y128174D01*
X342545Y126924D01*
X342605Y126250D01*
X342545Y125576D01*
X340674Y124326D01*
X339348Y122341D01*
X338882Y120000D01*
X339348Y117659D01*
X340674Y115674D01*
X342659Y114348D01*
X345000Y113882D01*
X347341Y114348D01*
X349326Y115674D01*
X350652Y117659D01*
X351118Y120000D01*
X350652Y122341D01*
X349326Y124326D01*
X347455Y125576D01*
X347395Y126250D01*
X347455Y126924D01*
X349326Y128174D01*
X350652Y130159D01*
X351118Y132500D01*
X350652Y134841D01*
X349326Y136826D01*
X347341Y138152D01*
X345000Y138617D01*
D02*
G37*
G36*
X255000D02*
X252659Y138152D01*
X250674Y136826D01*
X249348Y134841D01*
X248883Y132500D01*
X249348Y130159D01*
X250674Y128174D01*
X252545Y126924D01*
X252605Y126250D01*
X252545Y125576D01*
X250674Y124326D01*
X249348Y122341D01*
X248883Y120000D01*
X249348Y117659D01*
X250674Y115674D01*
X252659Y114348D01*
X255000Y113882D01*
X257341Y114348D01*
X259326Y115674D01*
X260652Y117659D01*
X261117Y120000D01*
X260652Y122341D01*
X259326Y124326D01*
X257455Y125576D01*
X257395Y126250D01*
X257455Y126924D01*
X259326Y128174D01*
X260652Y130159D01*
X261117Y132500D01*
X260652Y134841D01*
X259326Y136826D01*
X257341Y138152D01*
X255000Y138617D01*
D02*
G37*
G36*
X207500Y121117D02*
X205159Y120652D01*
X203174Y119326D01*
X201848Y117341D01*
X201382Y115000D01*
X201848Y112659D01*
X203174Y110674D01*
X205159Y109348D01*
X207500Y108882D01*
X209841Y109348D01*
X211826Y110674D01*
X213152Y112659D01*
X213617Y115000D01*
X213152Y117341D01*
X211826Y119326D01*
X209841Y120652D01*
X207500Y121117D01*
D02*
G37*
G36*
X107500Y103617D02*
X105159Y103152D01*
X103174Y101826D01*
X101848Y99841D01*
X101382Y97500D01*
X101848Y95159D01*
X103174Y93174D01*
X105159Y91848D01*
X107500Y91382D01*
X109841Y91848D01*
X111826Y93174D01*
X113152Y95159D01*
X113617Y97500D01*
X113152Y99841D01*
X111826Y101826D01*
X109841Y103152D01*
X107500Y103617D01*
D02*
G37*
G36*
X90000D02*
X87659Y103152D01*
X85674Y101826D01*
X84348Y99841D01*
X83882Y97500D01*
X84348Y95159D01*
X85674Y93174D01*
X87659Y91848D01*
X90000Y91382D01*
X92341Y91848D01*
X94326Y93174D01*
X95652Y95159D01*
X96117Y97500D01*
X95652Y99841D01*
X94326Y101826D01*
X92341Y103152D01*
X90000Y103617D01*
D02*
G37*
G36*
X72500D02*
X70159Y103152D01*
X68174Y101826D01*
X66848Y99841D01*
X66382Y97500D01*
X66848Y95159D01*
X68174Y93174D01*
X70159Y91848D01*
X72500Y91382D01*
X74841Y91848D01*
X76826Y93174D01*
X78152Y95159D01*
X78618Y97500D01*
X78152Y99841D01*
X76826Y101826D01*
X74841Y103152D01*
X72500Y103617D01*
D02*
G37*
G36*
X192500Y109078D02*
X190151Y108768D01*
X187961Y107861D01*
X186081Y106419D01*
X184639Y104539D01*
X183732Y102350D01*
X183422Y100000D01*
X183732Y97650D01*
X184639Y95461D01*
X186081Y93581D01*
X187961Y92139D01*
X190151Y91232D01*
X192500Y90922D01*
X194849Y91232D01*
X197039Y92139D01*
X198919Y93581D01*
X200361Y95461D01*
X201268Y97650D01*
X201578Y100000D01*
X201268Y102350D01*
X200361Y104539D01*
X198919Y106419D01*
X197039Y107861D01*
X194849Y108768D01*
X192500Y109078D01*
D02*
G37*
G36*
X55000Y76118D02*
X52659Y75652D01*
X50674Y74326D01*
X49348Y72341D01*
X48882Y70000D01*
X49348Y67659D01*
X50674Y65674D01*
X52659Y64348D01*
X55000Y63882D01*
X57341Y64348D01*
X59326Y65674D01*
X60652Y67659D01*
X61118Y70000D01*
X60652Y72341D01*
X59326Y74326D01*
X57341Y75652D01*
X55000Y76118D01*
D02*
G37*
G36*
X85000Y73618D02*
X82659Y73152D01*
X80674Y71826D01*
X79348Y69841D01*
X78882Y67500D01*
X79348Y65159D01*
X80674Y63174D01*
X82659Y61848D01*
X85000Y61382D01*
X87341Y61848D01*
X89326Y63174D01*
X90652Y65159D01*
X91117Y67500D01*
X90652Y69841D01*
X89326Y71826D01*
X87341Y73152D01*
X85000Y73618D01*
D02*
G37*
G36*
X192500Y76578D02*
X190151Y76268D01*
X187961Y75361D01*
X186081Y73919D01*
X184639Y72039D01*
X183732Y69850D01*
X183422Y67500D01*
X183732Y65150D01*
X184639Y62961D01*
X186081Y61081D01*
X187961Y59639D01*
X190151Y58732D01*
X192500Y58422D01*
X194849Y58732D01*
X197039Y59639D01*
X198919Y61081D01*
X200361Y62961D01*
X201268Y65150D01*
X201578Y67500D01*
X201268Y69850D01*
X200361Y72039D01*
X198919Y73919D01*
X197039Y75361D01*
X194849Y76268D01*
X192500Y76578D01*
D02*
G37*
G36*
X310000Y60118D02*
X307659Y59652D01*
X305674Y58326D01*
X304348Y56341D01*
X303883Y54000D01*
X304348Y51659D01*
X305674Y49674D01*
X307659Y48348D01*
X310000Y47882D01*
X312341Y48348D01*
X314326Y49674D01*
X315652Y51659D01*
X316117Y54000D01*
X315652Y56341D01*
X314326Y58326D01*
X312341Y59652D01*
X310000Y60118D01*
D02*
G37*
G36*
X292000D02*
X289659Y59652D01*
X287674Y58326D01*
X286348Y56341D01*
X285882Y54000D01*
X286348Y51659D01*
X287674Y49674D01*
X289659Y48348D01*
X292000Y47882D01*
X294341Y48348D01*
X296326Y49674D01*
X297652Y51659D01*
X298118Y54000D01*
X297652Y56341D01*
X296326Y58326D01*
X294341Y59652D01*
X292000Y60118D01*
D02*
G37*
G36*
X125000Y53618D02*
X122659Y53152D01*
X120674Y51826D01*
X119348Y49841D01*
X118883Y47500D01*
X119348Y45159D01*
X120674Y43174D01*
X122659Y41848D01*
X125000Y41382D01*
X127341Y41848D01*
X129326Y43174D01*
X130652Y45159D01*
X131117Y47500D01*
X130652Y49841D01*
X129326Y51826D01*
X127341Y53152D01*
X125000Y53618D01*
D02*
G37*
%LPD*%
G36*
X62500Y962500D02*
X62997D01*
X63916Y962119D01*
X64619Y961416D01*
X65000Y960497D01*
Y960000D01*
Y935001D01*
X65000D01*
Y934504D01*
X64619Y933584D01*
X63915Y932881D01*
X62996Y932500D01*
X62498D01*
X25000Y932500D01*
X25000Y932500D01*
X24502Y932500D01*
X23584Y932880D01*
X22880Y933584D01*
X22500Y934503D01*
X22500Y935000D01*
X22500Y960000D01*
Y960497D01*
X22881Y961416D01*
X23584Y962119D01*
X24503Y962500D01*
X62500D01*
Y962500D01*
D02*
G37*
G36*
X162500Y670000D02*
X162500Y670000D01*
X162501D01*
X163645Y669732D01*
X163916Y669619D01*
X164619Y668916D01*
X165000Y667997D01*
X165000Y645000D01*
X165000Y645000D01*
X165000Y644503D01*
X164619Y643584D01*
X163916Y642880D01*
X162997Y642500D01*
X162500Y642500D01*
X122500Y642500D01*
X122500Y642500D01*
X122003Y642500D01*
X121084Y642881D01*
X120380Y643584D01*
X120000Y644503D01*
X120000Y645000D01*
X120000Y667500D01*
X120000Y667997D01*
X120381Y668916D01*
X121084Y669619D01*
X122003Y670000D01*
X122500Y670000D01*
X162500Y670000D01*
X162500Y670000D01*
D02*
G37*
G36*
X207500Y457500D02*
X207500Y457500D01*
X207503D01*
X208671Y457427D01*
X210332Y456739D01*
X211739Y455332D01*
X212500Y453495D01*
X212500Y422500D01*
X212500Y422500D01*
X212500Y421505D01*
X211739Y419668D01*
X210332Y418261D01*
X208494Y417500D01*
X207500Y417500D01*
X175000D01*
X175000Y417500D01*
X174005Y417500D01*
X172168Y418261D01*
X170761Y419668D01*
X170000Y421505D01*
X170000Y422500D01*
X170000Y452500D01*
X170000D01*
X170000Y453494D01*
X170761Y455332D01*
X172168Y456739D01*
X174005Y457500D01*
X175000Y457500D01*
X207500Y457500D01*
X207500Y457500D01*
D02*
G37*
D12*
X241000Y812000D02*
X259000Y830000D01*
X260000D01*
X243500Y829500D02*
X253000Y839000D01*
X241000Y829500D02*
X243500D01*
X253000Y839000D02*
Y854000D01*
D15*
X180501Y851500D02*
X212743D01*
X178000Y848998D02*
X180501Y851500D01*
X237500Y802500D02*
Y822500D01*
Y802500D02*
X247500Y792500D01*
Y782500D02*
Y792500D01*
X165000Y845000D02*
X187500D01*
X163000Y847000D02*
X165000Y845000D01*
X163000Y847000D02*
Y858998D01*
X190500Y842000D02*
X215243D01*
X187500Y845000D02*
X190500Y842000D01*
X233500Y818500D02*
Y830743D01*
X212743Y851500D02*
X233500Y830743D01*
X230500Y815500D02*
X233500Y818500D01*
X220000Y815500D02*
X230500D01*
X220000Y827000D02*
Y837243D01*
Y827000D02*
X224379Y822621D01*
X215243Y842000D02*
X220000Y837243D01*
X224379Y819879D02*
Y822621D01*
X220000Y819000D02*
X223500D01*
X224379Y819879D01*
D47*
X247500Y782500D02*
D03*
X163000Y858998D02*
D03*
X178000Y848998D02*
D03*
X217500Y337500D02*
D03*
D117*
X182500Y372499D02*
X191501D01*
X196500Y367500D01*
X252500D02*
Y420000D01*
Y294618D02*
Y367500D01*
X256309Y290809D02*
X267750D01*
X196500Y367500D02*
X252500D01*
X267750Y290809D02*
Y297250D01*
Y284368D02*
Y290809D01*
X252500Y294618D02*
X256309Y290809D01*
X267750Y284368D02*
X268000Y284118D01*
X247500Y425000D02*
X252500Y420000D01*
X202500Y425000D02*
X247500D01*
D125*
X182500Y372499D02*
D03*
X260000Y830000D02*
D03*
X264000Y782000D02*
D03*
Y770000D02*
D03*
X224750Y786250D02*
D03*
X142500Y650000D02*
D03*
X155000D02*
D03*
X130000D02*
D03*
X142500Y662500D02*
D03*
X155000D02*
D03*
X130000D02*
D03*
X31000Y941000D02*
D03*
Y955000D02*
D03*
X56000Y941000D02*
D03*
X57000Y955000D02*
D03*
X60000Y1100000D02*
D03*
X47500D02*
D03*
X60000Y1087500D02*
D03*
X253000Y854000D02*
D03*
X179000Y834000D02*
D03*
X184259Y866042D02*
D03*
X37500Y1142500D02*
D03*
Y1122500D02*
D03*
X268000Y284118D02*
D03*
X267750Y297250D02*
D03*
X27500Y220000D02*
D03*
Y200000D02*
D03*
X209000Y382000D02*
D03*
X139000Y786000D02*
D03*
X247000Y623000D02*
D03*
X202500Y425000D02*
D03*
X190000Y425000D02*
D03*
X226000Y1230000D02*
D03*
X239000D02*
D03*
X285000Y1097500D02*
D03*
X177500Y437500D02*
D03*
X177500Y450000D02*
D03*
X142500Y400000D02*
D03*
X155000Y400000D02*
D03*
X117500Y400000D02*
D03*
X130000Y400000D02*
D03*
X117500Y412500D02*
D03*
X130000Y412500D02*
D03*
X142500Y412500D02*
D03*
X155000Y412500D02*
D03*
X155000Y425000D02*
D03*
X130000D02*
D03*
X142500Y425000D02*
D03*
X117500D02*
D03*
X72500Y1100000D02*
D03*
X47500Y1087500D02*
D03*
Y1002500D02*
D03*
Y987500D02*
D03*
Y972500D02*
D03*
X62500Y987500D02*
D03*
X177500Y425000D02*
D03*
X37500Y117500D02*
D03*
Y97500D02*
D03*
Y130000D02*
D03*
Y150000D02*
D03*
X170000Y127500D02*
D03*
Y107500D02*
D03*
Y87500D02*
D03*
X255000Y107500D02*
D03*
X345000D02*
D03*
X135000Y230000D02*
D03*
Y210000D02*
D03*
X72500Y1087500D02*
D03*
X62500Y1002500D02*
D03*
Y972500D02*
D03*
X117500Y437500D02*
D03*
Y450000D02*
D03*
D126*
X241000Y829500D02*
D03*
X237500Y822500D02*
D03*
X220000Y815500D02*
D03*
Y819000D02*
D03*
X241000Y812000D02*
D03*
D127*
X120000Y762500D02*
Y800000D01*
X85000Y835000D02*
X120000Y800000D01*
X85000Y835000D02*
Y936213D01*
X73713Y947500D02*
X85000Y936213D01*
X97500Y740000D02*
X120000Y762500D01*
X97500Y662500D02*
Y740000D01*
X42500Y947500D02*
X73713D01*
X105000Y655000D02*
X142500D01*
X97500Y662500D02*
X105000Y655000D01*
M02*
