G04*
G04 #@! TF.GenerationSoftware,Altium Limited,Altium Designer,19.1.9 (167)*
G04*
G04 Layer_Physical_Order=4*
G04 Layer_Color=13727573*
%FSLAX44Y44*%
%MOMM*%
G71*
G01*
G75*
%ADD13C,0.3000*%
%ADD14C,0.6000*%
%ADD15C,0.1500*%
%ADD16C,0.5000*%
%ADD46C,0.3500*%
%ADD105C,0.6000*%
%ADD107C,0.7000*%
%ADD116C,0.8000*%
%ADD117C,0.5000*%
%ADD121C,2.0000*%
%ADD122R,2.0000X2.0000*%
%ADD123C,1.6000*%
%ADD124C,2.2000*%
%ADD125C,1.0000*%
%ADD126C,0.2500*%
G36*
X384941Y1246290D02*
X388025Y1245013D01*
X390799Y1243159D01*
X393159Y1240799D01*
X395013Y1238025D01*
X396290Y1234942D01*
X396941Y1231669D01*
X396941Y1230000D01*
Y955000D01*
X330000D01*
Y854000D01*
X396941D01*
Y20000D01*
X396941Y18331D01*
X396290Y15058D01*
X395013Y11975D01*
X393159Y9201D01*
X390799Y6841D01*
X388025Y4987D01*
X384941Y3710D01*
X381669Y3059D01*
X20000D01*
X18331Y3059D01*
X15058Y3710D01*
X11975Y4987D01*
X9201Y6841D01*
X6841Y9201D01*
X4987Y11975D01*
X3710Y15058D01*
X3059Y18331D01*
X3059Y20000D01*
Y1230000D01*
X3059Y1231669D01*
X3710Y1234941D01*
X4987Y1238025D01*
X6841Y1240799D01*
X9201Y1243159D01*
X11975Y1245013D01*
X15058Y1246290D01*
X18331Y1246941D01*
X20000Y1246941D01*
X381669D01*
X384941Y1246290D01*
D02*
G37*
%LPC*%
G36*
X239000Y1236117D02*
X236659Y1235652D01*
X234674Y1234326D01*
X233348Y1232341D01*
X233147Y1231332D01*
X231853D01*
X231652Y1232341D01*
X230326Y1234326D01*
X228341Y1235652D01*
X226000Y1236117D01*
X223659Y1235652D01*
X221674Y1234326D01*
X220348Y1232341D01*
X219883Y1230000D01*
X220348Y1227659D01*
X221674Y1225674D01*
X223659Y1224348D01*
X226000Y1223883D01*
X228341Y1224348D01*
X230326Y1225674D01*
X231652Y1227659D01*
X231853Y1228668D01*
X233147D01*
X233348Y1227659D01*
X234674Y1225674D01*
X236659Y1224348D01*
X239000Y1223883D01*
X241341Y1224348D01*
X243326Y1225674D01*
X244652Y1227659D01*
X245117Y1230000D01*
X244652Y1232341D01*
X243326Y1234326D01*
X241341Y1235652D01*
X239000Y1236117D01*
D02*
G37*
G36*
X65000Y1229078D02*
X62650Y1228768D01*
X60461Y1227861D01*
X58581Y1226419D01*
X57139Y1224539D01*
X56232Y1222349D01*
X55922Y1220000D01*
X56232Y1217651D01*
X57139Y1215461D01*
X58581Y1213581D01*
X59536Y1212848D01*
X59105Y1211578D01*
X46689D01*
X41077Y1217190D01*
X41268Y1217651D01*
X41578Y1220000D01*
X41268Y1222349D01*
X40361Y1224539D01*
X38919Y1226419D01*
X37039Y1227861D01*
X34849Y1228768D01*
X32500Y1229078D01*
X30150Y1228768D01*
X27961Y1227861D01*
X26081Y1226419D01*
X24639Y1224539D01*
X23732Y1222349D01*
X23422Y1220000D01*
X23732Y1217651D01*
X24639Y1215461D01*
X26081Y1213581D01*
X27961Y1212139D01*
X30150Y1211232D01*
X32500Y1210922D01*
X34849Y1211232D01*
X35310Y1211422D01*
X42116Y1204616D01*
X42116Y1204616D01*
X43439Y1203732D01*
X45000Y1203422D01*
X45000Y1203422D01*
X54202D01*
X54558Y1202152D01*
X53348Y1200341D01*
X52882Y1198000D01*
X53348Y1195659D01*
X54674Y1193674D01*
X56659Y1192348D01*
X57216Y1192237D01*
Y1156739D01*
X15738Y1115262D01*
X15352Y1114683D01*
X15216Y1114000D01*
Y898000D01*
X15352Y897317D01*
X15738Y896738D01*
X19738Y892738D01*
X20317Y892352D01*
X21000Y892216D01*
X109596D01*
X110279Y892352D01*
X110858Y892738D01*
X123335Y905216D01*
X143011D01*
X143136Y903946D01*
X141659Y903652D01*
X139674Y902326D01*
X138487Y900549D01*
X136000D01*
X135024Y900355D01*
X134198Y899802D01*
X123198Y888802D01*
X122645Y887975D01*
X122451Y887000D01*
Y766513D01*
X120674Y765326D01*
X119348Y763341D01*
X118883Y761000D01*
X119348Y758659D01*
X120674Y756674D01*
X122659Y755348D01*
X125000Y754883D01*
X127341Y755348D01*
X129326Y756674D01*
X130652Y758659D01*
X131117Y761000D01*
X130652Y763341D01*
X129326Y765326D01*
X127549Y766513D01*
Y885944D01*
X137056Y895451D01*
X138487D01*
X139674Y893674D01*
X141659Y892348D01*
X144000Y891882D01*
X146341Y892348D01*
X148326Y893674D01*
X149652Y895659D01*
X150118Y898000D01*
X149865Y899270D01*
X151035Y899895D01*
X160216Y890715D01*
Y859380D01*
X159881Y858878D01*
X159706Y858000D01*
X159881Y857122D01*
X160378Y856378D01*
X160598Y856231D01*
X160893Y854730D01*
X147238Y841075D01*
X146852Y840497D01*
X146716Y839814D01*
Y768500D01*
X146852Y767817D01*
X147238Y767238D01*
X152203Y762273D01*
X151636Y761045D01*
X149659Y760652D01*
X147674Y759326D01*
X146348Y757341D01*
X145883Y755000D01*
X146348Y752659D01*
X147674Y750674D01*
X149451Y749487D01*
Y745056D01*
X126096Y721701D01*
X124000Y722117D01*
X121659Y721652D01*
X119674Y720326D01*
X118348Y718341D01*
X117882Y716000D01*
X118348Y713659D01*
X119674Y711674D01*
X121659Y710348D01*
X124000Y709883D01*
X126341Y710348D01*
X128326Y711674D01*
X129652Y713659D01*
X130118Y716000D01*
X129701Y718096D01*
X153802Y742198D01*
X154355Y743025D01*
X154549Y744000D01*
Y749487D01*
X156326Y750674D01*
X157652Y752659D01*
X158045Y754635D01*
X159273Y755203D01*
X160216Y754261D01*
Y745763D01*
X159659Y745652D01*
X157674Y744326D01*
X156348Y742341D01*
X155883Y740000D01*
X156348Y737659D01*
X157674Y735674D01*
X159659Y734348D01*
X162000Y733883D01*
X164341Y734348D01*
X166326Y735674D01*
X166696Y736228D01*
X167966Y735843D01*
Y676943D01*
X139488Y648466D01*
X139102Y647887D01*
X138966Y647204D01*
Y556296D01*
X139102Y555613D01*
X139488Y555034D01*
X197175Y497348D01*
X196757Y495970D01*
X195159Y495652D01*
X194330Y495098D01*
X173112D01*
X162584Y505626D01*
X160930Y506731D01*
X158979Y507119D01*
X99521D01*
X97570Y506731D01*
X95916Y505626D01*
X88895Y498605D01*
X87790Y496951D01*
X87402Y495000D01*
Y467598D01*
X83377D01*
X82982Y468552D01*
X81059Y471059D01*
X78552Y472982D01*
X75633Y474191D01*
X72500Y474604D01*
X69367Y474191D01*
X66448Y472982D01*
X63941Y471059D01*
X62018Y468552D01*
X60809Y465633D01*
X60396Y462500D01*
X60809Y459367D01*
X62018Y456448D01*
X63941Y453941D01*
X66448Y452018D01*
X69367Y450809D01*
X72500Y450396D01*
X75633Y450809D01*
X78552Y452018D01*
X81059Y453941D01*
X82982Y456448D01*
X83377Y457402D01*
X90000D01*
X91951Y457790D01*
X93605Y458895D01*
X96105Y461395D01*
X97210Y463049D01*
X97598Y465000D01*
Y492888D01*
X101632Y496923D01*
X156868D01*
X167395Y486395D01*
X169049Y485290D01*
X171000Y484902D01*
X194330D01*
X195159Y484348D01*
X197500Y483882D01*
X199841Y484348D01*
X201826Y485674D01*
X203152Y487659D01*
X203470Y489257D01*
X204848Y489675D01*
X207466Y487057D01*
Y430426D01*
X206196Y429747D01*
X204841Y430652D01*
X202500Y431118D01*
X200159Y430652D01*
X198174Y429326D01*
X196924Y427455D01*
X196250Y427395D01*
X195576Y427455D01*
X194326Y429326D01*
X192341Y430652D01*
X190000Y431118D01*
X187659Y430652D01*
X185674Y429326D01*
X184424Y427455D01*
X183750Y427395D01*
X183076Y427455D01*
X181826Y429326D01*
X179955Y430576D01*
X179895Y431250D01*
X179955Y431924D01*
X181826Y433174D01*
X183152Y435159D01*
X183618Y437500D01*
X183152Y439841D01*
X181826Y441826D01*
X179955Y443076D01*
X179895Y443750D01*
X179955Y444424D01*
X181826Y445674D01*
X183152Y447659D01*
X183617Y450000D01*
X183152Y452341D01*
X181826Y454326D01*
X179841Y455652D01*
X177500Y456118D01*
X175159Y455652D01*
X173174Y454326D01*
X171848Y452341D01*
X171383Y450000D01*
X171848Y447659D01*
X173174Y445674D01*
X175045Y444424D01*
X175105Y443750D01*
X175045Y443076D01*
X173174Y441826D01*
X171848Y439841D01*
X171383Y437500D01*
X171848Y435159D01*
X173174Y433174D01*
X175045Y431924D01*
X175105Y431250D01*
X175045Y430576D01*
X173174Y429326D01*
X171848Y427341D01*
X171383Y425000D01*
X171848Y422659D01*
X173174Y420674D01*
X175159Y419348D01*
X177500Y418882D01*
X179841Y419348D01*
X181826Y420674D01*
X183076Y422545D01*
X183750Y422605D01*
X184424Y422545D01*
X185674Y420674D01*
X187659Y419348D01*
X190000Y418882D01*
X192341Y419348D01*
X194326Y420674D01*
X195576Y422545D01*
X196250Y422605D01*
X196924Y422545D01*
X198174Y420674D01*
X200159Y419348D01*
X202500Y418882D01*
X204841Y419348D01*
X206196Y420253D01*
X207466Y419574D01*
Y409443D01*
X192307Y394284D01*
X159531D01*
X159146Y395554D01*
X159326Y395674D01*
X160652Y397659D01*
X161117Y400000D01*
X160652Y402341D01*
X159326Y404326D01*
X157455Y405576D01*
X157395Y406250D01*
X157455Y406924D01*
X159326Y408174D01*
X160652Y410159D01*
X161117Y412500D01*
X160652Y414841D01*
X159326Y416826D01*
X157455Y418076D01*
X157395Y418750D01*
X157455Y419424D01*
X159326Y420674D01*
X160652Y422659D01*
X161118Y425000D01*
X160652Y427341D01*
X159326Y429326D01*
X157341Y430652D01*
X155000Y431118D01*
X152659Y430652D01*
X150674Y429326D01*
X149424Y427455D01*
X148750Y427394D01*
X148076Y427455D01*
X146826Y429326D01*
X144841Y430652D01*
X142500Y431118D01*
X140159Y430652D01*
X138174Y429326D01*
X136924Y427455D01*
X136250Y427395D01*
X135576Y427455D01*
X134326Y429326D01*
X132341Y430652D01*
X130000Y431118D01*
X127659Y430652D01*
X125674Y429326D01*
X124424Y427455D01*
X123750Y427394D01*
X123076Y427455D01*
X121826Y429326D01*
X119955Y430576D01*
X119895Y431250D01*
X119955Y431924D01*
X121826Y433174D01*
X123152Y435159D01*
X123617Y437500D01*
X123152Y439841D01*
X121826Y441826D01*
X119955Y443076D01*
X119895Y443750D01*
X119955Y444424D01*
X121826Y445674D01*
X123152Y447659D01*
X123617Y450000D01*
X123152Y452341D01*
X121826Y454326D01*
X119841Y455652D01*
X117500Y456118D01*
X115159Y455652D01*
X113174Y454326D01*
X111848Y452341D01*
X111382Y450000D01*
X111848Y447659D01*
X113174Y445674D01*
X115045Y444424D01*
X115105Y443750D01*
X115045Y443076D01*
X113174Y441826D01*
X111848Y439841D01*
X111382Y437500D01*
X111848Y435159D01*
X113174Y433174D01*
X115045Y431924D01*
X115105Y431250D01*
X115045Y430576D01*
X113174Y429326D01*
X111848Y427341D01*
X111383Y425000D01*
X111848Y422659D01*
X113174Y420674D01*
X115045Y419424D01*
X115105Y418750D01*
X115045Y418076D01*
X113174Y416826D01*
X111848Y414841D01*
X111383Y412500D01*
X111848Y410159D01*
X113174Y408174D01*
X115045Y406924D01*
X115105Y406250D01*
X115045Y405576D01*
X113174Y404326D01*
X111848Y402341D01*
X111383Y400000D01*
X111848Y397659D01*
X113174Y395674D01*
X115159Y394348D01*
X117500Y393882D01*
X119841Y394348D01*
X121826Y395674D01*
X123076Y397545D01*
X123750Y397605D01*
X124424Y397545D01*
X125674Y395674D01*
X127659Y394348D01*
X130000Y393882D01*
X132341Y394348D01*
X134326Y395674D01*
X135576Y397545D01*
X136250Y397605D01*
X136924Y397545D01*
X138174Y395674D01*
X140159Y394348D01*
X142500Y393882D01*
X144841Y394348D01*
X146826Y395674D01*
X148076Y397545D01*
X148750Y397605D01*
X149424Y397545D01*
X150674Y395674D01*
X152659Y394348D01*
X152899Y394300D01*
X153317Y392922D01*
X126988Y366593D01*
X126602Y366014D01*
X126466Y365331D01*
Y201750D01*
X126602Y201067D01*
X126988Y200488D01*
X144663Y182813D01*
X144348Y182341D01*
X143883Y180000D01*
X144348Y177659D01*
X145674Y175674D01*
X147659Y174348D01*
X150000Y173883D01*
X152341Y174348D01*
X154326Y175674D01*
X155652Y177659D01*
X156117Y180000D01*
X155652Y182341D01*
X154326Y184326D01*
X152341Y185652D01*
X150000Y186117D01*
X147659Y185652D01*
X147187Y185336D01*
X130034Y202489D01*
Y204574D01*
X131304Y205253D01*
X132659Y204348D01*
X135000Y203882D01*
X137341Y204348D01*
X139326Y205674D01*
X140652Y207659D01*
X141117Y210000D01*
X140652Y212341D01*
X139326Y214326D01*
X137341Y215652D01*
X135000Y216117D01*
X132659Y215652D01*
X131304Y214747D01*
X130034Y215425D01*
Y224574D01*
X131304Y225253D01*
X132659Y224348D01*
X135000Y223882D01*
X137341Y224348D01*
X139326Y225674D01*
X140652Y227659D01*
X141117Y230000D01*
X140652Y232341D01*
X139326Y234326D01*
X137341Y235652D01*
X135000Y236117D01*
X132659Y235652D01*
X131304Y234747D01*
X130034Y235425D01*
Y364592D01*
X134542Y369100D01*
X135716Y368615D01*
Y265763D01*
X135159Y265652D01*
X133174Y264326D01*
X131848Y262341D01*
X131383Y260000D01*
X131848Y257659D01*
X133174Y255674D01*
X135159Y254348D01*
X137500Y253882D01*
X139841Y254348D01*
X141826Y255674D01*
X143152Y257659D01*
X143617Y260000D01*
X143152Y262341D01*
X141826Y264326D01*
X139841Y265652D01*
X139284Y265763D01*
Y370307D01*
X146652Y377675D01*
X148030Y377257D01*
X148348Y375659D01*
X149674Y373674D01*
X151659Y372348D01*
X154000Y371883D01*
X154893Y372060D01*
X190682Y336271D01*
Y333533D01*
X189412Y333185D01*
X187592Y334402D01*
X185251Y334867D01*
X182910Y334402D01*
X180925Y333075D01*
X180419Y332318D01*
X169729D01*
X168363Y332047D01*
X167206Y331273D01*
X148977Y313044D01*
X148203Y311886D01*
X147931Y310521D01*
Y297687D01*
X148203Y296321D01*
X148931Y295231D01*
Y287332D01*
X148174Y286826D01*
X146848Y284841D01*
X146382Y282500D01*
X146848Y280159D01*
X148174Y278174D01*
X150159Y276848D01*
X152500Y276382D01*
X154841Y276848D01*
X156826Y278174D01*
X158152Y280159D01*
X158617Y282500D01*
X158152Y284841D01*
X156826Y286826D01*
X156068Y287332D01*
Y296687D01*
X155797Y298053D01*
X155069Y299143D01*
Y301551D01*
X156339Y302230D01*
X157659Y301348D01*
X160000Y300882D01*
X162341Y301348D01*
X164326Y302674D01*
X165652Y304659D01*
X165763Y305216D01*
X182239D01*
X182922Y305352D01*
X183501Y305738D01*
X185678Y307916D01*
X186781Y307357D01*
X186835Y307277D01*
X186382Y305000D01*
X186848Y302659D01*
X188174Y300674D01*
X190159Y299348D01*
X192500Y298883D01*
X194841Y299348D01*
X196826Y300674D01*
X198152Y302659D01*
X198617Y305000D01*
X198201Y307096D01*
X209302Y318198D01*
X209855Y319025D01*
X210049Y320000D01*
Y331365D01*
X210090Y331427D01*
X210304Y332500D01*
X210090Y333573D01*
X209483Y334483D01*
X208573Y335090D01*
X207500Y335304D01*
X206427Y335090D01*
X205517Y334483D01*
X204909Y333573D01*
X204696Y332500D01*
X204909Y331427D01*
X204951Y331365D01*
Y321056D01*
X194596Y310701D01*
X192500Y311117D01*
X190223Y310665D01*
X190143Y310719D01*
X189584Y311822D01*
X199762Y322000D01*
X200149Y322579D01*
X200285Y323261D01*
Y352711D01*
X201789Y354216D01*
X208261D01*
X214743Y347734D01*
X214696Y347500D01*
X214910Y346427D01*
X215517Y345517D01*
X216427Y344910D01*
X217500Y344696D01*
X218573Y344910D01*
X219483Y345517D01*
X220090Y346427D01*
X220304Y347500D01*
X220090Y348573D01*
X219483Y349483D01*
X218573Y350090D01*
X217500Y350304D01*
X217266Y350257D01*
X210262Y357262D01*
X209683Y357648D01*
X209000Y357784D01*
X201050D01*
X200367Y357648D01*
X199789Y357262D01*
X197239Y354712D01*
X196852Y354133D01*
X196716Y353450D01*
Y341990D01*
X195543Y341504D01*
X159940Y377107D01*
X160117Y378000D01*
X159652Y380341D01*
X158326Y382326D01*
X156341Y383652D01*
X154743Y383970D01*
X154325Y385348D01*
X157193Y388216D01*
X182011D01*
X182136Y386946D01*
X180659Y386652D01*
X178674Y385326D01*
X177348Y383341D01*
X176882Y381000D01*
X177348Y378659D01*
X178674Y376674D01*
X180659Y375348D01*
X183000Y374883D01*
X185341Y375348D01*
X187326Y376674D01*
X188652Y378659D01*
X189118Y381000D01*
X188652Y383341D01*
X187326Y385326D01*
X185341Y386652D01*
X183864Y386946D01*
X183989Y388216D01*
X194081D01*
X194764Y388352D01*
X195343Y388738D01*
X213012Y406407D01*
X213398Y406986D01*
X213534Y407669D01*
Y482131D01*
X214708Y482617D01*
X244966Y452359D01*
Y337926D01*
X243696Y337247D01*
X242341Y338152D01*
X240000Y338618D01*
X237659Y338152D01*
X235674Y336826D01*
X234487Y335049D01*
X220697D01*
X220018Y336319D01*
X220090Y336427D01*
X220304Y337500D01*
X220090Y338573D01*
X219483Y339483D01*
X218573Y340090D01*
X217500Y340304D01*
X216427Y340090D01*
X215517Y339483D01*
X214910Y338573D01*
X214696Y337500D01*
X214910Y336427D01*
X215517Y335517D01*
Y334483D01*
X214910Y333573D01*
X214696Y332500D01*
X214910Y331427D01*
X215517Y330517D01*
X216427Y329910D01*
X217500Y329696D01*
X218573Y329910D01*
X218635Y329951D01*
X234487D01*
X235674Y328174D01*
X237659Y326848D01*
X240000Y326382D01*
X242341Y326848D01*
X243696Y327753D01*
X244966Y327074D01*
Y265443D01*
X207988Y228466D01*
X207602Y227887D01*
X207466Y227204D01*
Y169204D01*
X207602Y168521D01*
X207988Y167942D01*
X213027Y162904D01*
X213606Y162517D01*
X214289Y162381D01*
X217596D01*
X219664Y160313D01*
X219348Y159841D01*
X218883Y157500D01*
X219348Y155159D01*
X220674Y153174D01*
X222659Y151848D01*
X225000Y151383D01*
X227341Y151848D01*
X229326Y153174D01*
X230652Y155159D01*
X231117Y157500D01*
X230652Y159841D01*
X229326Y161826D01*
X227341Y163152D01*
X225000Y163617D01*
X222659Y163152D01*
X222187Y162836D01*
X219596Y165427D01*
X219422Y165543D01*
X219279Y166798D01*
X219335Y167013D01*
X220326Y167674D01*
X221652Y169659D01*
X222118Y172000D01*
X221652Y174341D01*
X220326Y176326D01*
X218341Y177652D01*
X217784Y177763D01*
Y229680D01*
X242292Y254188D01*
X243466Y253702D01*
Y203461D01*
X243601Y202779D01*
X243988Y202200D01*
X250466Y195722D01*
Y163989D01*
X249196Y163558D01*
X248919Y163919D01*
X247039Y165361D01*
X244849Y166268D01*
X242500Y166578D01*
X240151Y166268D01*
X237961Y165361D01*
X236081Y163919D01*
X234639Y162039D01*
X233732Y159850D01*
X233422Y157500D01*
X233732Y155150D01*
X234639Y152961D01*
X236081Y151081D01*
X237961Y149639D01*
X240151Y148732D01*
X242500Y148422D01*
X242951Y148482D01*
X243544Y147279D01*
X240593Y144328D01*
X238544D01*
X237861Y144192D01*
X237282Y143806D01*
X228813Y135337D01*
X228341Y135652D01*
X226000Y136117D01*
X223659Y135652D01*
X221674Y134326D01*
X220348Y132341D01*
X220030Y130743D01*
X218652Y130325D01*
X209284Y139693D01*
Y141737D01*
X209841Y141848D01*
X211826Y143174D01*
X213152Y145159D01*
X213617Y147500D01*
X213152Y149841D01*
X211826Y151826D01*
X209841Y153152D01*
X207500Y153617D01*
X205159Y153152D01*
X203174Y151826D01*
X201848Y149841D01*
X201382Y147500D01*
X201848Y145159D01*
X203174Y143174D01*
X205159Y141848D01*
X205716Y141737D01*
Y138954D01*
X205851Y138271D01*
X206238Y137692D01*
X242723Y101208D01*
X242237Y100034D01*
X224989D01*
X212836Y112187D01*
X213152Y112659D01*
X213617Y115000D01*
X213152Y117341D01*
X211826Y119326D01*
X209841Y120652D01*
X207500Y121117D01*
X205159Y120652D01*
X203174Y119326D01*
X201848Y117341D01*
X201382Y115000D01*
X201848Y112659D01*
X203174Y110674D01*
X205159Y109348D01*
X207500Y108882D01*
X209841Y109348D01*
X210313Y109663D01*
X222988Y96988D01*
X223567Y96601D01*
X224250Y96466D01*
X258831D01*
X259514Y96601D01*
X260093Y96988D01*
X301012Y137907D01*
X301398Y138486D01*
X301534Y139169D01*
Y226250D01*
X301398Y226933D01*
X301012Y227512D01*
X279534Y248989D01*
Y278511D01*
X280804Y278942D01*
X281081Y278581D01*
X282961Y277139D01*
X285151Y276232D01*
X287500Y275922D01*
X289849Y276232D01*
X292039Y277139D01*
X293919Y278581D01*
X295361Y280461D01*
X296268Y282651D01*
X296578Y285000D01*
X296268Y287349D01*
X295361Y289539D01*
X293919Y291419D01*
X292039Y292861D01*
X289849Y293768D01*
X287500Y294078D01*
X285151Y293768D01*
X283922Y293259D01*
X282652Y294108D01*
Y306051D01*
X282516Y306734D01*
X282129Y307313D01*
X277034Y312408D01*
Y441835D01*
X288012Y452812D01*
X288398Y453391D01*
X288534Y454074D01*
Y522367D01*
X288398Y523050D01*
X288012Y523629D01*
X236129Y575512D01*
X235550Y575898D01*
X234867Y576034D01*
X169443D01*
X162534Y582943D01*
Y619715D01*
X205012Y662192D01*
X205398Y662771D01*
X205534Y663454D01*
Y701704D01*
X205398Y702387D01*
X205012Y702966D01*
X195284Y712693D01*
Y762106D01*
X195149Y762789D01*
X194762Y763368D01*
X189784Y768346D01*
Y793695D01*
X191000Y794706D01*
X191878Y794881D01*
X192622Y795378D01*
X193119Y796122D01*
X193294Y797000D01*
X193119Y797878D01*
X192784Y798380D01*
Y802796D01*
X207204Y817216D01*
X215121D01*
X215622Y816881D01*
X216500Y816706D01*
X217378Y816881D01*
X218122Y817378D01*
X218619Y818122D01*
X218794Y819000D01*
X218619Y819878D01*
X218122Y820622D01*
Y820878D01*
X218619Y821622D01*
X218794Y822500D01*
X218619Y823378D01*
X218122Y824122D01*
Y824378D01*
X218619Y825122D01*
X218794Y826000D01*
X218619Y826878D01*
X218122Y827622D01*
Y827878D01*
X218619Y828622D01*
X218794Y829500D01*
X218619Y830378D01*
X218186Y831250D01*
X218619Y832122D01*
X218794Y833000D01*
X218619Y833878D01*
X218122Y834622D01*
Y834878D01*
X218619Y835622D01*
X218794Y836500D01*
X218619Y837378D01*
X218122Y838122D01*
X217378Y838619D01*
X216500Y838794D01*
X215622Y838619D01*
X215121Y838284D01*
X207467D01*
X206981Y839458D01*
X208640Y841117D01*
X209027Y841696D01*
X209163Y842379D01*
Y850621D01*
X209027Y851304D01*
X208640Y851883D01*
X204763Y855760D01*
X204184Y856147D01*
X203502Y856283D01*
X178880D01*
X178378Y856618D01*
X177500Y856792D01*
X176284Y857803D01*
Y864459D01*
X176812Y864871D01*
X178211Y864351D01*
X178348Y863659D01*
X179674Y861674D01*
X181659Y860348D01*
X184000Y859883D01*
X186341Y860348D01*
X188326Y861674D01*
X189652Y863659D01*
X190117Y866000D01*
X189652Y868341D01*
X188326Y870326D01*
X186341Y871652D01*
X184743Y871970D01*
X184325Y873348D01*
X193193Y882216D01*
X201621D01*
X202122Y881881D01*
X203000Y881706D01*
X203878Y881881D01*
X204622Y882378D01*
X205119Y883122D01*
X205294Y884000D01*
X206305Y885216D01*
X211990D01*
X212830Y884376D01*
X212881Y884122D01*
X213378Y883378D01*
X214122Y882881D01*
X215000Y882706D01*
X215878Y882881D01*
X216622Y883378D01*
X217119Y884122D01*
X217294Y885000D01*
X217119Y885878D01*
X216740Y886446D01*
X216941Y887159D01*
X217271Y887716D01*
X259761D01*
X263216Y884261D01*
Y854428D01*
X262748Y853352D01*
X262748Y853352D01*
Y853352D01*
X261946Y853273D01*
X261926Y853375D01*
X261882Y853592D01*
X261385Y854336D01*
X260641Y854833D01*
X260049Y854951D01*
X248738Y866262D01*
X248160Y866648D01*
X247477Y866784D01*
X220000D01*
X219317Y866648D01*
X218738Y866262D01*
X216238Y863762D01*
X215851Y863183D01*
X215716Y862500D01*
Y845157D01*
X215851Y844474D01*
X216238Y843895D01*
X221716Y838418D01*
Y834380D01*
X221381Y833878D01*
X221206Y833000D01*
X221381Y832122D01*
X221814Y831250D01*
X221381Y830378D01*
X221206Y829500D01*
X221381Y828622D01*
X221716Y828120D01*
Y824824D01*
X221852Y824141D01*
X222238Y823562D01*
X233763Y812038D01*
X233342Y810663D01*
X233122Y810619D01*
X232378Y810122D01*
X232122D01*
X231378Y810619D01*
X230500Y810794D01*
X229622Y810619D01*
X228878Y810122D01*
X228622D01*
X227878Y810619D01*
X227000Y810794D01*
X226122Y810619D01*
X225378Y810122D01*
X225122D01*
X224378Y810619D01*
X223500Y810794D01*
X223283Y810751D01*
X222251Y811783D01*
X222294Y812000D01*
X222119Y812878D01*
X221622Y813622D01*
X220878Y814119D01*
X220000Y814294D01*
X219122Y814119D01*
X218620Y813784D01*
X212000D01*
X211317Y813648D01*
X210738Y813262D01*
X197238Y799762D01*
X196852Y799183D01*
X196716Y798500D01*
Y749000D01*
X196852Y748317D01*
X197238Y747738D01*
X217466Y727511D01*
Y655750D01*
X217602Y655067D01*
X217988Y654488D01*
X222466Y650011D01*
Y603250D01*
X222602Y602567D01*
X222988Y601988D01*
X313216Y511761D01*
Y503263D01*
X312659Y503152D01*
X310674Y501826D01*
X309348Y499841D01*
X308883Y497500D01*
X309348Y495159D01*
X310674Y493174D01*
X312659Y491848D01*
X315000Y491382D01*
X315156Y491413D01*
X315782Y490243D01*
X300363Y474824D01*
X299977Y474246D01*
X299841Y473563D01*
Y427364D01*
X290313Y417836D01*
X289841Y418152D01*
X287500Y418618D01*
X285159Y418152D01*
X283174Y416826D01*
X281848Y414841D01*
X281383Y412500D01*
X281848Y410159D01*
X283174Y408174D01*
X285159Y406848D01*
X287500Y406382D01*
X289841Y406848D01*
X291826Y408174D01*
X293152Y410159D01*
X293617Y412500D01*
X293152Y414841D01*
X292836Y415313D01*
X301167Y423644D01*
X302341Y423158D01*
Y308864D01*
X300813Y307337D01*
X300341Y307652D01*
X298000Y308118D01*
X295659Y307652D01*
X293674Y306326D01*
X292348Y304341D01*
X291882Y302000D01*
X292348Y299659D01*
X293674Y297674D01*
X295659Y296348D01*
X298000Y295882D01*
X300341Y296348D01*
X302326Y297674D01*
X302900Y298534D01*
X304627Y298834D01*
X304841Y298678D01*
Y255875D01*
X304977Y255192D01*
X305363Y254613D01*
X307966Y252011D01*
Y183213D01*
X307659Y183152D01*
X305674Y181826D01*
X304348Y179841D01*
X303883Y177500D01*
X304348Y175159D01*
X305674Y173174D01*
X307659Y171848D01*
X310000Y171383D01*
X312341Y171848D01*
X314326Y173174D01*
X315652Y175159D01*
X316117Y177500D01*
X315652Y179841D01*
X314326Y181826D01*
X312341Y183152D01*
X311534Y183312D01*
Y201663D01*
X312804Y202094D01*
X313581Y201081D01*
X315461Y199639D01*
X317651Y198732D01*
X320000Y198422D01*
X322350Y198732D01*
X324539Y199639D01*
X326419Y201081D01*
X326946Y201768D01*
X328216Y201337D01*
Y183263D01*
X327659Y183152D01*
X325674Y181826D01*
X324348Y179841D01*
X323882Y177500D01*
X324348Y175159D01*
X325674Y173174D01*
X327659Y171848D01*
X330000Y171383D01*
X332341Y171848D01*
X334326Y173174D01*
X335652Y175159D01*
X336118Y177500D01*
X335652Y179841D01*
X334326Y181826D01*
X332341Y183152D01*
X331784Y183263D01*
Y231761D01*
X369292Y269269D01*
X370466Y268783D01*
Y172989D01*
X362491Y165014D01*
X362039Y165361D01*
X359850Y166268D01*
X357500Y166578D01*
X355150Y166268D01*
X352961Y165361D01*
X351081Y163919D01*
X349638Y162039D01*
X348732Y159850D01*
X348422Y157500D01*
X348732Y155150D01*
X349638Y152961D01*
X351081Y151081D01*
X352961Y149639D01*
X355150Y148732D01*
X357500Y148422D01*
X359850Y148732D01*
X362039Y149639D01*
X363919Y151081D01*
X365361Y152961D01*
X366268Y155150D01*
X366578Y157500D01*
X366268Y159850D01*
X365361Y162039D01*
X365014Y162491D01*
X373512Y170988D01*
X373898Y171567D01*
X374034Y172250D01*
Y771436D01*
X373898Y772119D01*
X373512Y772697D01*
X300947Y845262D01*
X300368Y845648D01*
X299686Y845784D01*
X294380D01*
X293878Y846119D01*
X293000Y846294D01*
X292122Y846119D01*
X291378Y845622D01*
X290881Y844878D01*
X290706Y844000D01*
X290881Y843122D01*
X291378Y842378D01*
X292122Y841881D01*
X293000Y841706D01*
X293878Y841881D01*
X294380Y842216D01*
X298947D01*
X303205Y837958D01*
X302719Y836784D01*
X282193D01*
X276466Y842512D01*
X275887Y842898D01*
X275204Y843034D01*
X264717D01*
X264231Y844208D01*
X266262Y846238D01*
X266649Y846817D01*
X266784Y847500D01*
Y885000D01*
X266649Y885683D01*
X266262Y886262D01*
X261762Y890762D01*
X261183Y891149D01*
X260500Y891284D01*
X190883D01*
X190200Y891149D01*
X189621Y890762D01*
X168238Y869379D01*
X168054Y869103D01*
X166784Y869448D01*
Y881261D01*
X186618Y901094D01*
X235879D01*
X236562Y901230D01*
X237140Y901617D01*
X252262Y916738D01*
X252649Y917317D01*
X252784Y918000D01*
Y977382D01*
X257368Y981966D01*
X259843D01*
X260228Y980696D01*
X259674Y980326D01*
X258348Y978341D01*
X257882Y976000D01*
X258348Y973659D01*
X259674Y971674D01*
X261659Y970348D01*
X264000Y969883D01*
X266341Y970348D01*
X268326Y971674D01*
X269652Y973659D01*
X269763Y974216D01*
X295896D01*
X296099Y973977D01*
X296496Y973019D01*
X280261Y956784D01*
X270763D01*
X270652Y957341D01*
X269326Y959326D01*
X267341Y960652D01*
X265000Y961117D01*
X262659Y960652D01*
X260674Y959326D01*
X259348Y957341D01*
X258883Y955000D01*
X259348Y952659D01*
X260674Y950674D01*
X262659Y949348D01*
X265000Y948883D01*
X267341Y949348D01*
X269326Y950674D01*
X270652Y952659D01*
X270763Y953216D01*
X281000D01*
X281683Y953352D01*
X282262Y953738D01*
X328262Y999738D01*
X328648Y1000317D01*
X328784Y1001000D01*
Y1148000D01*
X328648Y1148683D01*
X328262Y1149262D01*
X280262Y1197262D01*
X279683Y1197648D01*
X279000Y1197784D01*
X194739D01*
X188262Y1204262D01*
X187683Y1204649D01*
X187000Y1204784D01*
X105000D01*
X104317Y1204649D01*
X103738Y1204262D01*
X102813Y1203336D01*
X102341Y1203652D01*
X100000Y1204118D01*
X97659Y1203652D01*
X95674Y1202326D01*
X94348Y1200341D01*
X93883Y1198000D01*
X94348Y1195659D01*
X95674Y1193674D01*
X97659Y1192348D01*
X100000Y1191882D01*
X102341Y1192348D01*
X104326Y1193674D01*
X105652Y1195659D01*
X106117Y1198000D01*
X105730Y1199950D01*
X106337Y1200977D01*
X106595Y1201216D01*
X144011D01*
X144136Y1199946D01*
X142659Y1199652D01*
X140674Y1198326D01*
X139348Y1196341D01*
X138883Y1194000D01*
X139348Y1191659D01*
X140674Y1189674D01*
X142659Y1188348D01*
X145000Y1187883D01*
X147341Y1188348D01*
X149326Y1189674D01*
X150652Y1191659D01*
X151117Y1194000D01*
X150730Y1195950D01*
X151337Y1196977D01*
X151595Y1197216D01*
X185261D01*
X191238Y1191238D01*
X191817Y1190852D01*
X192500Y1190716D01*
X276761D01*
X322716Y1144761D01*
Y1125467D01*
X321542Y1124981D01*
X316262Y1130262D01*
X315683Y1130648D01*
X315000Y1130784D01*
X235739D01*
X234784Y1131739D01*
Y1137237D01*
X235341Y1137348D01*
X237326Y1138674D01*
X238652Y1140659D01*
X239118Y1143000D01*
X238652Y1145341D01*
X237326Y1147326D01*
X237078Y1147491D01*
Y1161485D01*
X237078Y1161485D01*
X236768Y1163046D01*
X235884Y1164369D01*
X235884Y1164369D01*
X227369Y1172884D01*
X226046Y1173768D01*
X224485Y1174078D01*
X224485Y1174078D01*
X81689D01*
X79078Y1176689D01*
Y1197500D01*
X78768Y1199061D01*
X77884Y1200384D01*
X77884Y1200384D01*
X68100Y1210168D01*
X68117Y1211069D01*
X68307Y1211628D01*
X69539Y1212139D01*
X71419Y1213581D01*
X72861Y1215461D01*
X73768Y1217651D01*
X74078Y1220000D01*
X73768Y1222349D01*
X72861Y1224539D01*
X71419Y1226419D01*
X69539Y1227861D01*
X67349Y1228768D01*
X65000Y1229078D01*
D02*
G37*
G36*
X130000D02*
X127650Y1228768D01*
X125461Y1227861D01*
X123581Y1226419D01*
X122139Y1224539D01*
X121232Y1222349D01*
X120922Y1220000D01*
X121232Y1217651D01*
X122139Y1215461D01*
X123581Y1213581D01*
X125461Y1212139D01*
X127650Y1211232D01*
X130000Y1210922D01*
X132349Y1211232D01*
X134539Y1212139D01*
X136419Y1213581D01*
X137861Y1215461D01*
X138768Y1217651D01*
X139078Y1220000D01*
X138768Y1222349D01*
X137861Y1224539D01*
X136419Y1226419D01*
X134539Y1227861D01*
X132349Y1228768D01*
X130000Y1229078D01*
D02*
G37*
G36*
X97500D02*
X95150Y1228768D01*
X92961Y1227861D01*
X91081Y1226419D01*
X89639Y1224539D01*
X88732Y1222349D01*
X88422Y1220000D01*
X88732Y1217651D01*
X89639Y1215461D01*
X91081Y1213581D01*
X92961Y1212139D01*
X95150Y1211232D01*
X97500Y1210922D01*
X99850Y1211232D01*
X102039Y1212139D01*
X103919Y1213581D01*
X105361Y1215461D01*
X106268Y1217651D01*
X106578Y1220000D01*
X106268Y1222349D01*
X105361Y1224539D01*
X103919Y1226419D01*
X102039Y1227861D01*
X99850Y1228768D01*
X97500Y1229078D01*
D02*
G37*
G36*
X30000Y1199118D02*
X27659Y1198652D01*
X25674Y1197326D01*
X24348Y1195341D01*
X23883Y1193000D01*
X24348Y1190659D01*
X25674Y1188674D01*
X27659Y1187348D01*
X30000Y1186882D01*
X32341Y1187348D01*
X34326Y1188674D01*
X35652Y1190659D01*
X36117Y1193000D01*
X35652Y1195341D01*
X34326Y1197326D01*
X32341Y1198652D01*
X30000Y1199118D01*
D02*
G37*
G36*
X17500Y1186618D02*
X15159Y1186152D01*
X13174Y1184826D01*
X11848Y1182841D01*
X11382Y1180500D01*
X11848Y1178159D01*
X13174Y1176174D01*
X15159Y1174848D01*
X17500Y1174382D01*
X19841Y1174848D01*
X21826Y1176174D01*
X23152Y1178159D01*
X23617Y1180500D01*
X23152Y1182841D01*
X21826Y1184826D01*
X19841Y1186152D01*
X17500Y1186618D01*
D02*
G37*
G36*
X361000Y821078D02*
X358651Y820768D01*
X356461Y819862D01*
X354581Y818419D01*
X353139Y816539D01*
X352232Y814350D01*
X351922Y812000D01*
X352232Y809650D01*
X353139Y807461D01*
X354581Y805581D01*
X356461Y804138D01*
X358651Y803232D01*
X361000Y802922D01*
X363349Y803232D01*
X365539Y804138D01*
X367419Y805581D01*
X368861Y807461D01*
X369768Y809650D01*
X370078Y812000D01*
X369768Y814350D01*
X368861Y816539D01*
X367419Y818419D01*
X365539Y819862D01*
X363349Y820768D01*
X361000Y821078D01*
D02*
G37*
G36*
X139000Y792117D02*
X136659Y791652D01*
X134674Y790326D01*
X133348Y788341D01*
X132882Y786000D01*
X133348Y783659D01*
X134674Y781674D01*
X136659Y780348D01*
X139000Y779883D01*
X141341Y780348D01*
X143326Y781674D01*
X144652Y783659D01*
X145118Y786000D01*
X144652Y788341D01*
X143326Y790326D01*
X141341Y791652D01*
X139000Y792117D01*
D02*
G37*
G36*
X54525Y768049D02*
Y758775D01*
X63799D01*
X63716Y759408D01*
X62507Y762327D01*
X60584Y764834D01*
X58077Y766757D01*
X55158Y767966D01*
X54525Y768049D01*
D02*
G37*
G36*
X49525D02*
X48892Y767966D01*
X45973Y766757D01*
X43467Y764834D01*
X41543Y762327D01*
X40334Y759408D01*
X40251Y758775D01*
X49525D01*
Y768049D01*
D02*
G37*
G36*
X63799Y753775D02*
X54525D01*
Y744501D01*
X55158Y744584D01*
X58077Y745793D01*
X60584Y747717D01*
X62507Y750223D01*
X63716Y753142D01*
X63799Y753775D01*
D02*
G37*
G36*
X49525D02*
X40251D01*
X40334Y753142D01*
X41543Y750223D01*
X43467Y747717D01*
X45973Y745793D01*
X48892Y744584D01*
X49525Y744501D01*
Y753775D01*
D02*
G37*
G36*
X129000Y749118D02*
X126659Y748652D01*
X124674Y747326D01*
X123348Y745341D01*
X122882Y743000D01*
X123348Y740659D01*
X124674Y738674D01*
X126659Y737348D01*
X129000Y736882D01*
X131341Y737348D01*
X133326Y738674D01*
X134652Y740659D01*
X135118Y743000D01*
X134652Y745341D01*
X133326Y747326D01*
X131341Y748652D01*
X129000Y749118D01*
D02*
G37*
G36*
X52025Y741970D02*
X49153Y741592D01*
X46477Y740483D01*
X44180Y738720D01*
X42417Y736423D01*
X41308Y733747D01*
X40930Y730875D01*
X41308Y728003D01*
X42417Y725328D01*
X44180Y723030D01*
X46477Y721266D01*
X49153Y720158D01*
X52025Y719780D01*
X54897Y720158D01*
X57572Y721266D01*
X59870Y723030D01*
X61634Y725328D01*
X62742Y728003D01*
X63120Y730875D01*
X62742Y733747D01*
X61634Y736423D01*
X59870Y738720D01*
X57572Y740483D01*
X54897Y741592D01*
X52025Y741970D01*
D02*
G37*
G36*
Y716570D02*
X49153Y716192D01*
X46477Y715083D01*
X44180Y713320D01*
X42417Y711022D01*
X41308Y708347D01*
X40930Y705475D01*
X41308Y702603D01*
X42417Y699928D01*
X44180Y697630D01*
X46477Y695866D01*
X49153Y694758D01*
X52025Y694380D01*
X54897Y694758D01*
X57572Y695866D01*
X59870Y697630D01*
X61634Y699928D01*
X62742Y702603D01*
X63120Y705475D01*
X62742Y708347D01*
X61634Y711022D01*
X59870Y713320D01*
X57572Y715083D01*
X54897Y716192D01*
X52025Y716570D01*
D02*
G37*
G36*
Y691170D02*
X49153Y690792D01*
X46477Y689684D01*
X44180Y687920D01*
X42417Y685622D01*
X41308Y682947D01*
X40930Y680075D01*
X41308Y677203D01*
X42417Y674528D01*
X44180Y672230D01*
X46477Y670467D01*
X49153Y669358D01*
X52025Y668980D01*
X54897Y669358D01*
X57572Y670467D01*
X59870Y672230D01*
X61634Y674528D01*
X62742Y677203D01*
X63120Y680075D01*
X62742Y682947D01*
X61634Y685622D01*
X59870Y687920D01*
X57572Y689684D01*
X54897Y690792D01*
X52025Y691170D01*
D02*
G37*
G36*
X63025Y665675D02*
X41025D01*
Y643675D01*
X63025D01*
Y665675D01*
D02*
G37*
G36*
X72500Y627104D02*
X69367Y626691D01*
X66448Y625482D01*
X63941Y623559D01*
X62018Y621052D01*
X60809Y618133D01*
X60396Y615000D01*
X60809Y611867D01*
X62018Y608948D01*
X63941Y606441D01*
X66448Y604518D01*
X69367Y603309D01*
X72500Y602896D01*
X75633Y603309D01*
X78552Y604518D01*
X81059Y606441D01*
X82982Y608948D01*
X84191Y611867D01*
X84604Y615000D01*
X84191Y618133D01*
X82982Y621052D01*
X81059Y623559D01*
X78552Y625482D01*
X75633Y626691D01*
X72500Y627104D01*
D02*
G37*
G36*
X75000Y592783D02*
Y582500D01*
X85283D01*
X85165Y583394D01*
X83855Y586556D01*
X81772Y589272D01*
X79056Y591356D01*
X75894Y592665D01*
X75000Y592783D01*
D02*
G37*
G36*
X70000D02*
X69106Y592665D01*
X65944Y591356D01*
X63228Y589272D01*
X61144Y586556D01*
X59835Y583394D01*
X59717Y582500D01*
X70000D01*
Y592783D01*
D02*
G37*
G36*
X85283Y577500D02*
X75000D01*
Y567217D01*
X75894Y567335D01*
X79056Y568644D01*
X81772Y570728D01*
X83855Y573444D01*
X85165Y576606D01*
X85283Y577500D01*
D02*
G37*
G36*
X70000D02*
X59717D01*
X59835Y576606D01*
X61144Y573444D01*
X63228Y570728D01*
X65944Y568644D01*
X69106Y567335D01*
X70000Y567217D01*
Y577500D01*
D02*
G37*
G36*
X75000Y557783D02*
Y547500D01*
X85283D01*
X85165Y548394D01*
X83855Y551556D01*
X81772Y554272D01*
X79056Y556356D01*
X75894Y557665D01*
X75000Y557783D01*
D02*
G37*
G36*
X70000D02*
X69106Y557665D01*
X65944Y556356D01*
X63228Y554272D01*
X61144Y551556D01*
X59835Y548394D01*
X59717Y547500D01*
X70000D01*
Y557783D01*
D02*
G37*
G36*
X85283Y542500D02*
X75000D01*
Y532217D01*
X75894Y532335D01*
X79056Y533644D01*
X81772Y535728D01*
X83855Y538444D01*
X85165Y541606D01*
X85283Y542500D01*
D02*
G37*
G36*
X70000D02*
X59717D01*
X59835Y541606D01*
X61144Y538444D01*
X63228Y535728D01*
X65944Y533644D01*
X69106Y532335D01*
X70000Y532217D01*
Y542500D01*
D02*
G37*
G36*
X72500Y509604D02*
X69367Y509191D01*
X66448Y507982D01*
X63941Y506059D01*
X62018Y503552D01*
X60809Y500633D01*
X60396Y497500D01*
X60809Y494367D01*
X62018Y491448D01*
X63941Y488941D01*
X66448Y487018D01*
X69367Y485809D01*
X72500Y485396D01*
X75633Y485809D01*
X78552Y487018D01*
X81059Y488941D01*
X82982Y491448D01*
X84191Y494367D01*
X84604Y497500D01*
X84191Y500633D01*
X82982Y503552D01*
X81059Y506059D01*
X78552Y507982D01*
X75633Y509191D01*
X72500Y509604D01*
D02*
G37*
G36*
X75000Y440283D02*
Y430000D01*
X85283D01*
X85165Y430894D01*
X83855Y434056D01*
X81772Y436772D01*
X79056Y438855D01*
X75894Y440165D01*
X75000Y440283D01*
D02*
G37*
G36*
X70000D02*
X69106Y440165D01*
X65944Y438855D01*
X63228Y436772D01*
X61144Y434056D01*
X59835Y430894D01*
X59717Y430000D01*
X70000D01*
Y440283D01*
D02*
G37*
G36*
X287500Y446578D02*
X285151Y446268D01*
X282961Y445361D01*
X281081Y443919D01*
X279639Y442039D01*
X278732Y439850D01*
X278422Y437500D01*
X278732Y435150D01*
X279639Y432961D01*
X281081Y431081D01*
X282961Y429638D01*
X285151Y428732D01*
X287500Y428422D01*
X289849Y428732D01*
X292039Y429638D01*
X293919Y431081D01*
X295361Y432961D01*
X296268Y435150D01*
X296578Y437500D01*
X296268Y439850D01*
X295361Y442039D01*
X293919Y443919D01*
X292039Y445361D01*
X289849Y446268D01*
X287500Y446578D01*
D02*
G37*
G36*
X70000Y425000D02*
X59717D01*
X59835Y424106D01*
X61144Y420944D01*
X63228Y418228D01*
X65944Y416144D01*
X69106Y414835D01*
X70000Y414717D01*
Y425000D01*
D02*
G37*
G36*
X85283D02*
X75000D01*
Y414717D01*
X75894Y414835D01*
X79056Y416144D01*
X81772Y418228D01*
X83855Y420944D01*
X85165Y424106D01*
X85283Y425000D01*
D02*
G37*
G36*
X209000Y388117D02*
X206659Y387652D01*
X204674Y386326D01*
X203348Y384341D01*
X202882Y382000D01*
X203348Y379659D01*
X204674Y377674D01*
X206659Y376348D01*
X209000Y375882D01*
X211341Y376348D01*
X213326Y377674D01*
X214652Y379659D01*
X215117Y382000D01*
X214652Y384341D01*
X213326Y386326D01*
X211341Y387652D01*
X209000Y388117D01*
D02*
G37*
G36*
X72500Y389604D02*
X69367Y389191D01*
X66448Y387982D01*
X63941Y386059D01*
X62018Y383552D01*
X60809Y380633D01*
X60396Y377500D01*
X60809Y374367D01*
X62018Y371448D01*
X63941Y368941D01*
X66448Y367018D01*
X69367Y365809D01*
X72500Y365396D01*
X75633Y365809D01*
X78552Y367018D01*
X81059Y368941D01*
X82982Y371448D01*
X84191Y374367D01*
X84604Y377500D01*
X84191Y380633D01*
X82982Y383552D01*
X81059Y386059D01*
X78552Y387982D01*
X75633Y389191D01*
X72500Y389604D01*
D02*
G37*
G36*
Y354604D02*
X69367Y354191D01*
X66448Y352982D01*
X63941Y351059D01*
X62018Y348552D01*
X60809Y345633D01*
X60396Y342500D01*
X60809Y339367D01*
X62018Y336448D01*
X63941Y333941D01*
X66448Y332018D01*
X69367Y330809D01*
X72500Y330396D01*
X75633Y330809D01*
X78552Y332018D01*
X81059Y333941D01*
X82982Y336448D01*
X84191Y339367D01*
X84604Y342500D01*
X84191Y345633D01*
X82982Y348552D01*
X81059Y351059D01*
X78552Y352982D01*
X75633Y354191D01*
X72500Y354604D01*
D02*
G37*
G36*
X75000Y320283D02*
Y310000D01*
X85283D01*
X85165Y310894D01*
X83855Y314056D01*
X81772Y316772D01*
X79056Y318855D01*
X75894Y320165D01*
X75000Y320283D01*
D02*
G37*
G36*
X70000D02*
X69106Y320165D01*
X65944Y318855D01*
X63228Y316772D01*
X61144Y314056D01*
X59835Y310894D01*
X59717Y310000D01*
X70000D01*
Y320283D01*
D02*
G37*
G36*
Y305000D02*
X59717D01*
X59835Y304106D01*
X61144Y300944D01*
X63228Y298228D01*
X65944Y296145D01*
X69106Y294835D01*
X70000Y294717D01*
Y305000D01*
D02*
G37*
G36*
X85283D02*
X75000D01*
Y294717D01*
X75894Y294835D01*
X79056Y296145D01*
X81772Y298228D01*
X83855Y300944D01*
X85165Y304106D01*
X85283Y305000D01*
D02*
G37*
G36*
X77791Y229227D02*
X76425Y228956D01*
X75268Y228182D01*
X74494Y227024D01*
X74222Y225659D01*
X74494Y224293D01*
X75268Y223135D01*
X76425Y222362D01*
X77791Y222090D01*
X79157Y222362D01*
X80314Y223135D01*
X81088Y224293D01*
X81360Y225659D01*
X81088Y227024D01*
X80314Y228182D01*
X79157Y228956D01*
X77791Y229227D01*
D02*
G37*
G36*
X67791D02*
X66425Y228956D01*
X65268Y228182D01*
X64494Y227024D01*
X64222Y225659D01*
X64494Y224293D01*
X65268Y223135D01*
X66425Y222362D01*
X67791Y222090D01*
X69157Y222362D01*
X70314Y223135D01*
X71088Y224293D01*
X71360Y225659D01*
X71088Y227024D01*
X70314Y228182D01*
X69157Y228956D01*
X67791Y229227D01*
D02*
G37*
G36*
X192500Y239078D02*
X190151Y238768D01*
X187961Y237861D01*
X186081Y236419D01*
X184639Y234539D01*
X183732Y232349D01*
X183422Y230000D01*
X183732Y227651D01*
X184639Y225461D01*
X186081Y223581D01*
X187961Y222139D01*
X190151Y221232D01*
X192500Y220922D01*
X194849Y221232D01*
X197039Y222139D01*
X198919Y223581D01*
X200361Y225461D01*
X201268Y227651D01*
X201578Y230000D01*
X201268Y232349D01*
X200361Y234539D01*
X198919Y236419D01*
X197039Y237861D01*
X194849Y238768D01*
X192500Y239078D01*
D02*
G37*
G36*
X27500Y226117D02*
X25159Y225652D01*
X23174Y224326D01*
X21848Y222341D01*
X21383Y220000D01*
X21848Y217659D01*
X23174Y215674D01*
X25159Y214348D01*
X27500Y213882D01*
X29841Y214348D01*
X31826Y215674D01*
X33152Y217659D01*
X33617Y220000D01*
X33152Y222341D01*
X31826Y224326D01*
X29841Y225652D01*
X27500Y226117D01*
D02*
G37*
G36*
X77791Y219227D02*
X76425Y218956D01*
X75268Y218182D01*
X74494Y217024D01*
X74222Y215659D01*
X74494Y214293D01*
X75268Y213135D01*
X76425Y212362D01*
X77791Y212090D01*
X79157Y212362D01*
X80314Y213135D01*
X81088Y214293D01*
X81360Y215659D01*
X81088Y217024D01*
X80314Y218182D01*
X79157Y218956D01*
X77791Y219227D01*
D02*
G37*
G36*
X67791D02*
X66425Y218956D01*
X65268Y218182D01*
X64494Y217024D01*
X64222Y215659D01*
X64494Y214293D01*
X65268Y213135D01*
X66425Y212362D01*
X67791Y212090D01*
X69157Y212362D01*
X70314Y213135D01*
X71088Y214293D01*
X71360Y215659D01*
X71088Y217024D01*
X70314Y218182D01*
X69157Y218956D01*
X67791Y219227D01*
D02*
G37*
G36*
X352500Y216578D02*
X350150Y216268D01*
X347961Y215361D01*
X346081Y213919D01*
X344639Y212039D01*
X343732Y209849D01*
X343422Y207500D01*
X343732Y205151D01*
X344639Y202961D01*
X346081Y201081D01*
X347961Y199639D01*
X350150Y198732D01*
X352500Y198422D01*
X354850Y198732D01*
X357039Y199639D01*
X358919Y201081D01*
X360362Y202961D01*
X361268Y205151D01*
X361578Y207500D01*
X361268Y209849D01*
X360362Y212039D01*
X358919Y213919D01*
X357039Y215361D01*
X354850Y216268D01*
X352500Y216578D01*
D02*
G37*
G36*
X27500Y206117D02*
X25159Y205652D01*
X23174Y204326D01*
X21848Y202341D01*
X21383Y200000D01*
X21848Y197659D01*
X23174Y195674D01*
X25159Y194348D01*
X27500Y193882D01*
X29841Y194348D01*
X31826Y195674D01*
X33152Y197659D01*
X33617Y200000D01*
X33152Y202341D01*
X31826Y204326D01*
X29841Y205652D01*
X27500Y206117D01*
D02*
G37*
G36*
X192500Y206578D02*
X190151Y206268D01*
X187961Y205361D01*
X186081Y203919D01*
X184639Y202039D01*
X183732Y199849D01*
X183422Y197500D01*
X183732Y195151D01*
X184639Y192961D01*
X186081Y191081D01*
X187961Y189639D01*
X190151Y188732D01*
X192500Y188422D01*
X194849Y188732D01*
X197039Y189639D01*
X198919Y191081D01*
X200361Y192961D01*
X201268Y195151D01*
X201578Y197500D01*
X201268Y199849D01*
X200361Y202039D01*
X198919Y203919D01*
X197039Y205361D01*
X194849Y206268D01*
X192500Y206578D01*
D02*
G37*
G36*
X192500Y174078D02*
X190151Y173768D01*
X187961Y172861D01*
X186081Y171419D01*
X184639Y169539D01*
X183732Y167349D01*
X183422Y165000D01*
X183732Y162651D01*
X184639Y160461D01*
X186081Y158581D01*
X187961Y157139D01*
X190151Y156232D01*
X192500Y155922D01*
X194849Y156232D01*
X197039Y157139D01*
X198919Y158581D01*
X200361Y160461D01*
X201268Y162651D01*
X201578Y165000D01*
X201268Y167349D01*
X200361Y169539D01*
X198919Y171419D01*
X197039Y172861D01*
X194849Y173768D01*
X192500Y174078D01*
D02*
G37*
G36*
X37500Y156117D02*
X35159Y155652D01*
X33174Y154326D01*
X31848Y152341D01*
X31382Y150000D01*
X31848Y147659D01*
X33174Y145674D01*
X35159Y144348D01*
X37500Y143882D01*
X39841Y144348D01*
X41826Y145674D01*
X43152Y147659D01*
X43618Y150000D01*
X43152Y152341D01*
X41826Y154326D01*
X39841Y155652D01*
X37500Y156117D01*
D02*
G37*
G36*
X192500Y141578D02*
X190151Y141268D01*
X187961Y140361D01*
X186081Y138919D01*
X184639Y137039D01*
X183732Y134850D01*
X183422Y132500D01*
X183732Y130150D01*
X184639Y127961D01*
X186081Y126081D01*
X187961Y124639D01*
X190151Y123732D01*
X192500Y123422D01*
X194849Y123732D01*
X197039Y124639D01*
X198919Y126081D01*
X200361Y127961D01*
X201268Y130150D01*
X201578Y132500D01*
X201268Y134850D01*
X200361Y137039D01*
X198919Y138919D01*
X197039Y140361D01*
X194849Y141268D01*
X192500Y141578D01*
D02*
G37*
G36*
X170000Y133617D02*
X167659Y133152D01*
X165674Y131826D01*
X164348Y129841D01*
X163882Y127500D01*
X164348Y125159D01*
X165674Y123174D01*
X167659Y121848D01*
X170000Y121382D01*
X172341Y121848D01*
X174326Y123174D01*
X175652Y125159D01*
X176117Y127500D01*
X175652Y129841D01*
X174326Y131826D01*
X172341Y133152D01*
X170000Y133617D01*
D02*
G37*
G36*
X37500Y136117D02*
X35159Y135652D01*
X33174Y134326D01*
X31848Y132341D01*
X31382Y130000D01*
X31848Y127659D01*
X33174Y125674D01*
X35045Y124424D01*
X35105Y123750D01*
X35045Y123076D01*
X33174Y121826D01*
X31848Y119841D01*
X31382Y117500D01*
X31848Y115159D01*
X33174Y113174D01*
X35159Y111848D01*
X37500Y111382D01*
X39841Y111848D01*
X41826Y113174D01*
X43152Y115159D01*
X43618Y117500D01*
X43152Y119841D01*
X41826Y121826D01*
X39955Y123076D01*
X39895Y123750D01*
X39955Y124424D01*
X41826Y125674D01*
X43152Y127659D01*
X43618Y130000D01*
X43152Y132341D01*
X41826Y134326D01*
X39841Y135652D01*
X37500Y136117D01*
D02*
G37*
G36*
X345000Y113617D02*
X342659Y113152D01*
X340674Y111826D01*
X339348Y109841D01*
X338882Y107500D01*
X339348Y105159D01*
X340674Y103174D01*
X342659Y101848D01*
X345000Y101382D01*
X347341Y101848D01*
X349326Y103174D01*
X350652Y105159D01*
X351118Y107500D01*
X350652Y109841D01*
X349326Y111826D01*
X347341Y113152D01*
X345000Y113617D01*
D02*
G37*
G36*
X170000Y113617D02*
X167659Y113152D01*
X165674Y111826D01*
X164348Y109841D01*
X163882Y107500D01*
X164348Y105159D01*
X165674Y103174D01*
X167659Y101848D01*
X170000Y101382D01*
X172341Y101848D01*
X174326Y103174D01*
X175652Y105159D01*
X176117Y107500D01*
X175652Y109841D01*
X174326Y111826D01*
X172341Y113152D01*
X170000Y113617D01*
D02*
G37*
G36*
X37500Y103617D02*
X35159Y103152D01*
X33174Y101826D01*
X31848Y99841D01*
X31382Y97500D01*
X31848Y95159D01*
X33174Y93174D01*
X35159Y91848D01*
X37500Y91382D01*
X39841Y91848D01*
X41826Y93174D01*
X43152Y95159D01*
X43618Y97500D01*
X43152Y99841D01*
X41826Y101826D01*
X39841Y103152D01*
X37500Y103617D01*
D02*
G37*
G36*
X192500Y109078D02*
X190151Y108768D01*
X187961Y107861D01*
X186081Y106419D01*
X184639Y104539D01*
X183732Y102350D01*
X183422Y100000D01*
X183732Y97650D01*
X184639Y95461D01*
X186081Y93581D01*
X187961Y92139D01*
X190151Y91232D01*
X192500Y90922D01*
X194849Y91232D01*
X197039Y92139D01*
X198919Y93581D01*
X200361Y95461D01*
X201268Y97650D01*
X201578Y100000D01*
X201268Y102350D01*
X200361Y104539D01*
X198919Y106419D01*
X197039Y107861D01*
X194849Y108768D01*
X192500Y109078D01*
D02*
G37*
G36*
X170000Y93617D02*
X167659Y93152D01*
X165674Y91826D01*
X164348Y89841D01*
X163882Y87500D01*
X164348Y85159D01*
X165674Y83174D01*
X167659Y81848D01*
X170000Y81382D01*
X172341Y81848D01*
X174326Y83174D01*
X175652Y85159D01*
X176117Y87500D01*
X175652Y89841D01*
X174326Y91826D01*
X172341Y93152D01*
X170000Y93617D01*
D02*
G37*
G36*
X192500Y76578D02*
X190151Y76268D01*
X187961Y75361D01*
X186081Y73919D01*
X184639Y72039D01*
X183732Y69850D01*
X183422Y67500D01*
X183732Y65150D01*
X184639Y62961D01*
X186081Y61081D01*
X187961Y59639D01*
X190151Y58732D01*
X192500Y58422D01*
X194849Y58732D01*
X197039Y59639D01*
X198919Y61081D01*
X200361Y62961D01*
X201268Y65150D01*
X201578Y67500D01*
X201268Y69850D01*
X200361Y72039D01*
X198919Y73919D01*
X197039Y75361D01*
X194849Y76268D01*
X192500Y76578D01*
D02*
G37*
%LPD*%
G36*
X321926Y1004606D02*
X321952Y1004475D01*
X295261Y977784D01*
X269763D01*
X269652Y978341D01*
X268326Y980326D01*
X267772Y980696D01*
X268157Y981966D01*
X296750D01*
X297433Y982102D01*
X298012Y982488D01*
X320547Y1005024D01*
X321926Y1004606D01*
D02*
G37*
G36*
X70922Y1195811D02*
Y1175000D01*
X70922Y1175000D01*
X71232Y1173439D01*
X72116Y1172116D01*
X77116Y1167116D01*
X78439Y1166232D01*
X80000Y1165922D01*
X80000Y1165922D01*
X194328D01*
X194714Y1164652D01*
X193895Y1164105D01*
X193157Y1163000D01*
X197500D01*
Y1158000D01*
X193157D01*
X193491Y1157500D01*
X193157Y1157000D01*
X197500D01*
Y1154500D01*
X200000D01*
Y1150157D01*
X200500Y1150491D01*
X201000Y1150157D01*
Y1154500D01*
X206000D01*
Y1150157D01*
X206500Y1150491D01*
X207000Y1150157D01*
Y1154500D01*
X212000D01*
Y1150157D01*
X212500Y1150491D01*
X213000Y1150157D01*
Y1154500D01*
X215500D01*
Y1157000D01*
X219843D01*
X219509Y1157500D01*
X219843Y1158000D01*
X215500D01*
Y1163000D01*
X219843D01*
X219105Y1164105D01*
X218286Y1164652D01*
X218672Y1165922D01*
X222796D01*
X228922Y1159796D01*
Y1147491D01*
X228674Y1147326D01*
X227348Y1145341D01*
X226882Y1143000D01*
X227348Y1140659D01*
X228674Y1138674D01*
X230659Y1137348D01*
X231216Y1137237D01*
Y1131000D01*
X231352Y1130317D01*
X231738Y1129738D01*
X233738Y1127738D01*
X234317Y1127352D01*
X235000Y1127216D01*
X314261D01*
X320216Y1121261D01*
Y1009739D01*
X296011Y985534D01*
X256629D01*
X255946Y985398D01*
X255367Y985012D01*
X249738Y979383D01*
X249352Y978804D01*
X249216Y978121D01*
Y918739D01*
X235140Y904663D01*
X185879D01*
X185196Y904527D01*
X184617Y904140D01*
X164958Y884481D01*
X163784Y884967D01*
Y891454D01*
X163648Y892137D01*
X163262Y892716D01*
X147716Y908262D01*
X147137Y908648D01*
X146454Y908784D01*
X122596D01*
X121913Y908648D01*
X121334Y908262D01*
X108857Y895784D01*
X45106D01*
X44580Y897054D01*
X45513Y898451D01*
X102000D01*
X102976Y898645D01*
X103802Y899198D01*
X149056Y944451D01*
X226487D01*
X227674Y942674D01*
X229659Y941348D01*
X232000Y940882D01*
X234341Y941348D01*
X236326Y942674D01*
X237652Y944659D01*
X238118Y947000D01*
X237652Y949341D01*
X236326Y951326D01*
X234341Y952652D01*
X232000Y953118D01*
X229659Y952652D01*
X227674Y951326D01*
X226487Y949549D01*
X148000D01*
X147025Y949355D01*
X146198Y948802D01*
X100944Y903549D01*
X45513D01*
X44326Y905326D01*
X42341Y906652D01*
X40000Y907117D01*
X37659Y906652D01*
X35674Y905326D01*
X34348Y903341D01*
X33883Y901000D01*
X34348Y898659D01*
X35420Y897054D01*
X34894Y895784D01*
X21739D01*
X18784Y898739D01*
Y1113261D01*
X60262Y1154738D01*
X60648Y1155317D01*
X60784Y1156000D01*
Y1192237D01*
X61341Y1192348D01*
X63326Y1193674D01*
X64652Y1195659D01*
X65118Y1198000D01*
X64666Y1200270D01*
X64721Y1200349D01*
X65875Y1200857D01*
X70922Y1195811D01*
D02*
G37*
G36*
X205594Y849882D02*
Y843118D01*
X203261Y840784D01*
X198967D01*
X198481Y841958D01*
X202286Y845763D01*
X202878Y845881D01*
X203622Y846378D01*
X204119Y847122D01*
X204294Y848000D01*
X204119Y848878D01*
X203622Y849622D01*
X202878Y850119D01*
X202000Y850294D01*
X201122Y850119D01*
X200378Y849622D01*
X199881Y848878D01*
X199763Y848286D01*
X196055Y844578D01*
X194351Y844653D01*
X194062Y845000D01*
X193887Y845878D01*
X193390Y846622D01*
X192646Y847119D01*
X191768Y847294D01*
X190890Y847119D01*
X190388Y846784D01*
X176919D01*
X176236Y846648D01*
X175657Y846262D01*
X166208Y836812D01*
X165034Y837298D01*
Y843218D01*
X174047Y852231D01*
X174677Y852332D01*
X175646Y852033D01*
X175833Y851636D01*
X175706Y850998D01*
X175880Y850120D01*
X176378Y849376D01*
X177122Y848879D01*
X178000Y848704D01*
X178878Y848879D01*
X179622Y849376D01*
X180119Y850120D01*
X180294Y850998D01*
X180205Y851444D01*
X180844Y852504D01*
X181087Y852714D01*
X202763D01*
X205594Y849882D01*
D02*
G37*
G36*
X257526Y852428D02*
X257644Y851836D01*
X258141Y851092D01*
X258885Y850594D01*
X259763Y850420D01*
X260641Y850594D01*
X261385Y851092D01*
X261882Y851836D01*
X261926Y852053D01*
X261946Y852155D01*
X262748Y852076D01*
Y852076D01*
X262748Y852076D01*
X263216Y850999D01*
Y848239D01*
X260511Y845534D01*
X240472D01*
X239789Y845398D01*
X239210Y845012D01*
X230054Y835856D01*
X228784Y836382D01*
Y845237D01*
X229341Y845348D01*
X231326Y846674D01*
X232652Y848659D01*
X233118Y851000D01*
X232652Y853341D01*
X231326Y855326D01*
X229341Y856652D01*
X227000Y857117D01*
X224659Y856652D01*
X222674Y855326D01*
X221348Y853341D01*
X220882Y851000D01*
X221348Y848659D01*
X222674Y846674D01*
X224659Y845348D01*
X225216Y845237D01*
Y841760D01*
X223946Y841234D01*
X219284Y845896D01*
Y861761D01*
X220739Y863216D01*
X246738D01*
X257526Y852428D01*
D02*
G37*
G36*
X185706Y839000D02*
X185881Y838122D01*
X186378Y837378D01*
X187122Y836881D01*
X188000Y836706D01*
X188878Y836881D01*
X189380Y837216D01*
X200356D01*
X200842Y836042D01*
X174238Y809439D01*
X173852Y808860D01*
X173716Y808177D01*
Y765145D01*
X172542Y764658D01*
X170034Y767167D01*
Y832057D01*
X171652Y833675D01*
X173030Y833257D01*
X173348Y831659D01*
X174674Y829674D01*
X176659Y828348D01*
X179000Y827883D01*
X181341Y828348D01*
X183326Y829674D01*
X184652Y831659D01*
X185117Y834000D01*
X184652Y836341D01*
X183326Y838326D01*
X182398Y838946D01*
X182783Y840216D01*
X184695D01*
X185706Y839000D01*
D02*
G37*
G36*
X238749Y829717D02*
X238706Y829500D01*
X238881Y828622D01*
X239378Y827878D01*
Y827622D01*
X238881Y826878D01*
X238706Y826000D01*
X238749Y825782D01*
X237717Y824751D01*
X237500Y824794D01*
X236622Y824619D01*
X235878Y824122D01*
X235381Y823378D01*
X235206Y822500D01*
X235381Y821622D01*
X235878Y820878D01*
X236622Y820381D01*
X237500Y820206D01*
X237717Y820249D01*
X238749Y819218D01*
X238706Y819000D01*
X238881Y818122D01*
X239378Y817378D01*
X240122Y816881D01*
X241000Y816706D01*
X241878Y816881D01*
X242379Y817216D01*
X253715D01*
X269442Y801488D01*
X270021Y801102D01*
X270704Y800966D01*
X285574D01*
X286253Y799696D01*
X285348Y798341D01*
X284883Y796000D01*
X285348Y793659D01*
X286674Y791674D01*
X288659Y790348D01*
X291000Y789883D01*
X293341Y790348D01*
X295326Y791674D01*
X296652Y793659D01*
X296970Y795257D01*
X298348Y795675D01*
X357966Y736057D01*
Y691671D01*
X356792Y691185D01*
X312825Y735152D01*
X313243Y736530D01*
X314841Y736848D01*
X316826Y738174D01*
X318152Y740159D01*
X318617Y742500D01*
X318152Y744841D01*
X316826Y746826D01*
X314841Y748152D01*
X314284Y748263D01*
Y757500D01*
X314149Y758183D01*
X313762Y758762D01*
X284012Y788512D01*
X283433Y788898D01*
X282750Y789034D01*
X268426D01*
X267747Y790304D01*
X268652Y791659D01*
X269118Y794000D01*
X268652Y796341D01*
X267326Y798326D01*
X265341Y799652D01*
X264784Y799763D01*
Y802000D01*
X264648Y802683D01*
X264262Y803262D01*
X254512Y813012D01*
X253933Y813398D01*
X253250Y813534D01*
X242681D01*
X242622Y813622D01*
X241878Y814119D01*
X241000Y814294D01*
X240122Y814119D01*
X239378Y813622D01*
X239208Y813368D01*
X237843Y813135D01*
X237670Y813178D01*
X225839Y825009D01*
X225928Y825510D01*
X227295Y825939D01*
X227996Y825238D01*
X228575Y824852D01*
X229257Y824716D01*
X232750D01*
X233433Y824852D01*
X234012Y825238D01*
X235762Y826988D01*
X236148Y827567D01*
X236284Y828250D01*
Y829695D01*
X237500Y830706D01*
X237717Y830749D01*
X238749Y829717D01*
D02*
G37*
G36*
X285338Y817987D02*
X285916Y817600D01*
X286599Y817464D01*
X309556D01*
X360466Y766555D01*
Y740263D01*
X359292Y739777D01*
X295058Y804012D01*
X294479Y804398D01*
X293796Y804534D01*
X271443D01*
X255716Y820262D01*
X255137Y820648D01*
X254454Y820784D01*
X253558D01*
X253032Y822054D01*
X257652Y826675D01*
X259030Y826257D01*
X259348Y824659D01*
X260674Y822674D01*
X262659Y821348D01*
X265000Y820882D01*
X267341Y821348D01*
X269326Y822674D01*
X270652Y824659D01*
X271117Y827000D01*
X270652Y829341D01*
X269883Y830491D01*
X270457Y831632D01*
X271583Y831742D01*
X285338Y817987D01*
D02*
G37*
G36*
X245009Y796387D02*
X244383Y795216D01*
X244000Y795293D01*
X243122Y795118D01*
X242377Y794621D01*
X241880Y793876D01*
X241705Y792998D01*
X241880Y792121D01*
X242377Y791376D01*
X243122Y790879D01*
X243713Y790761D01*
X256486Y777988D01*
X257065Y777601D01*
X257187Y777577D01*
X257752Y776403D01*
X257753Y776196D01*
X256848Y774841D01*
X256383Y772500D01*
X256848Y770159D01*
X258174Y768174D01*
X260159Y766848D01*
X262500Y766383D01*
X264841Y766848D01*
X266826Y768174D01*
X268152Y770159D01*
X268617Y772500D01*
X268152Y774841D01*
X267247Y776196D01*
X267926Y777466D01*
X277511D01*
X295716Y759261D01*
Y744419D01*
X295851Y743736D01*
X296238Y743157D01*
X351233Y688162D01*
X350394Y687206D01*
X349539Y687861D01*
X347350Y688768D01*
X345000Y689078D01*
X342650Y688768D01*
X340461Y687861D01*
X338581Y686419D01*
X337139Y684539D01*
X336232Y682349D01*
X335922Y680000D01*
X336232Y677651D01*
X337139Y675461D01*
X338581Y673581D01*
X340461Y672139D01*
X342650Y671232D01*
X345000Y670922D01*
X347350Y671232D01*
X349539Y672139D01*
X351419Y673581D01*
X351696Y673942D01*
X352966Y673511D01*
Y653989D01*
X351696Y653558D01*
X351419Y653919D01*
X349539Y655361D01*
X347350Y656268D01*
X345000Y656578D01*
X342650Y656268D01*
X340461Y655361D01*
X338581Y653919D01*
X337139Y652039D01*
X336232Y649849D01*
X335922Y647500D01*
X336232Y645151D01*
X337139Y642961D01*
X338581Y641081D01*
X340461Y639638D01*
X342650Y638732D01*
X345000Y638422D01*
X347350Y638732D01*
X349539Y639638D01*
X351419Y641081D01*
X351696Y641442D01*
X352966Y641011D01*
Y621489D01*
X351696Y621058D01*
X351419Y621419D01*
X349539Y622861D01*
X347350Y623768D01*
X345000Y624078D01*
X342650Y623768D01*
X340461Y622861D01*
X338581Y621419D01*
X337139Y619539D01*
X336232Y617350D01*
X335922Y615000D01*
X336232Y612650D01*
X337139Y610461D01*
X338581Y608581D01*
X340461Y607138D01*
X342650Y606232D01*
X345000Y605922D01*
X347350Y606232D01*
X349539Y607138D01*
X351419Y608581D01*
X351696Y608942D01*
X352966Y608511D01*
Y588989D01*
X351696Y588558D01*
X351419Y588919D01*
X349539Y590361D01*
X347350Y591268D01*
X345000Y591578D01*
X342650Y591268D01*
X340461Y590361D01*
X338581Y588919D01*
X337139Y587039D01*
X336232Y584850D01*
X335922Y582500D01*
X336232Y580150D01*
X337139Y577961D01*
X338581Y576081D01*
X340461Y574638D01*
X342650Y573732D01*
X345000Y573422D01*
X347350Y573732D01*
X349539Y574638D01*
X351419Y576081D01*
X351696Y576442D01*
X352966Y576011D01*
Y556489D01*
X351696Y556058D01*
X351419Y556419D01*
X349539Y557861D01*
X347350Y558768D01*
X345000Y559078D01*
X342650Y558768D01*
X340461Y557861D01*
X338581Y556419D01*
X337139Y554539D01*
X336232Y552350D01*
X335922Y550000D01*
X336232Y547650D01*
X337139Y545461D01*
X338581Y543581D01*
X340461Y542138D01*
X342650Y541232D01*
X345000Y540922D01*
X347350Y541232D01*
X349539Y542138D01*
X351419Y543581D01*
X351696Y543942D01*
X352966Y543511D01*
Y523989D01*
X351696Y523558D01*
X351419Y523919D01*
X349539Y525361D01*
X347350Y526268D01*
X345000Y526578D01*
X342650Y526268D01*
X340461Y525361D01*
X338581Y523919D01*
X337139Y522039D01*
X336232Y519850D01*
X335922Y517500D01*
X336232Y515150D01*
X337139Y512961D01*
X338581Y511081D01*
X340461Y509638D01*
X342650Y508732D01*
X345000Y508422D01*
X347350Y508732D01*
X349539Y509638D01*
X351419Y511081D01*
X351696Y511442D01*
X352966Y511011D01*
Y500943D01*
X316348Y464325D01*
X314970Y464743D01*
X314652Y466341D01*
X314336Y466813D01*
X325512Y477988D01*
X325899Y478567D01*
X326034Y479250D01*
Y702796D01*
X325899Y703479D01*
X325512Y704058D01*
X297005Y732564D01*
X296427Y732951D01*
X295744Y733086D01*
X276937D01*
X274284Y735739D01*
Y748954D01*
X274148Y749637D01*
X273762Y750216D01*
X269966Y754012D01*
X269387Y754398D01*
X268704Y754534D01*
X243989D01*
X238237Y760286D01*
X238120Y760878D01*
X237622Y761622D01*
X236878Y762119D01*
X236000Y762294D01*
X235517Y762198D01*
X234892Y763369D01*
X239012Y767488D01*
X239398Y768067D01*
X239534Y768750D01*
Y789785D01*
X239398Y790468D01*
X239012Y791047D01*
X235784Y794275D01*
Y803952D01*
X236958Y804438D01*
X245009Y796387D01*
D02*
G37*
G36*
X228716Y799396D02*
Y793250D01*
X228852Y792567D01*
X229238Y791988D01*
X228410Y791021D01*
X227091Y791902D01*
X224750Y792368D01*
X222409Y791902D01*
X220424Y790576D01*
X219098Y788591D01*
X218633Y786250D01*
X219098Y783909D01*
X220424Y781924D01*
X222409Y780598D01*
X224750Y780133D01*
X227091Y780598D01*
X229076Y781924D01*
X230402Y783909D01*
X230868Y786250D01*
X230402Y788591D01*
X229521Y789910D01*
X230507Y790720D01*
X232966Y788261D01*
Y770024D01*
X226238Y763297D01*
X225851Y762718D01*
X225716Y762036D01*
Y756685D01*
X224446Y756159D01*
X216284Y764321D01*
Y788761D01*
X227446Y799922D01*
X228716Y799396D01*
D02*
G37*
G36*
X156466Y843597D02*
Y764717D01*
X155292Y764231D01*
X150284Y769239D01*
Y839075D01*
X155292Y844083D01*
X156466Y843597D01*
D02*
G37*
G36*
X310716Y756761D02*
Y748263D01*
X310159Y748152D01*
X308174Y746826D01*
X306848Y744841D01*
X306530Y743243D01*
X305152Y742825D01*
X301784Y746193D01*
Y762500D01*
X301649Y763183D01*
X301262Y763762D01*
X282012Y783012D01*
X281433Y783399D01*
X280750Y783534D01*
X263051D01*
X262460Y784268D01*
X262985Y785466D01*
X282011D01*
X310716Y756761D01*
D02*
G37*
G36*
X270716Y748215D02*
Y735000D01*
X270851Y734317D01*
X271238Y733738D01*
X274936Y730041D01*
X275515Y729654D01*
X276198Y729518D01*
X295005D01*
X314675Y709848D01*
X314257Y708470D01*
X312659Y708152D01*
X310674Y706826D01*
X309348Y704841D01*
X308883Y702500D01*
X309348Y700159D01*
X310674Y698174D01*
X312659Y696848D01*
X313216Y696737D01*
Y675739D01*
X284261Y646784D01*
X280967D01*
X280481Y647958D01*
X296262Y663738D01*
X296649Y664317D01*
X296784Y665000D01*
Y696737D01*
X297341Y696848D01*
X299326Y698174D01*
X300652Y700159D01*
X301118Y702500D01*
X300652Y704841D01*
X299326Y706826D01*
X297341Y708152D01*
X295000Y708617D01*
X292659Y708152D01*
X290674Y706826D01*
X289348Y704841D01*
X288883Y702500D01*
X289348Y700159D01*
X290674Y698174D01*
X292659Y696848D01*
X293216Y696737D01*
Y665739D01*
X276761Y649284D01*
X240739D01*
X229284Y660739D01*
Y711533D01*
X230458Y712019D01*
X244716Y697761D01*
Y695022D01*
X243674Y694326D01*
X242348Y692341D01*
X241882Y690000D01*
X242348Y687659D01*
X243674Y685674D01*
X245659Y684348D01*
X248000Y683883D01*
X250341Y684348D01*
X252326Y685674D01*
X253652Y687659D01*
X254118Y690000D01*
X253652Y692341D01*
X252326Y694326D01*
X250341Y695652D01*
X248284Y696061D01*
Y698500D01*
X248148Y699183D01*
X247762Y699762D01*
X231784Y715739D01*
Y749695D01*
X231988Y749930D01*
X233360Y750117D01*
X238738Y744738D01*
X239317Y744352D01*
X240000Y744216D01*
X254237D01*
X254348Y743659D01*
X255674Y741674D01*
X257659Y740348D01*
X260000Y739883D01*
X262341Y740348D01*
X264326Y741674D01*
X265652Y743659D01*
X266117Y746000D01*
X265652Y748341D01*
X264747Y749696D01*
X265426Y750966D01*
X267965D01*
X270716Y748215D01*
D02*
G37*
G36*
X212799Y809619D02*
X213240Y808263D01*
X210238Y805262D01*
X209851Y804683D01*
X209716Y804000D01*
Y763046D01*
X209851Y762363D01*
X210238Y761784D01*
X219966Y752057D01*
Y731717D01*
X218792Y731231D01*
X200284Y749739D01*
Y797761D01*
X212232Y809708D01*
X212799Y809619D01*
D02*
G37*
G36*
X196966Y698894D02*
Y684426D01*
X195696Y683747D01*
X194341Y684652D01*
X192000Y685117D01*
X189659Y684652D01*
X189187Y684336D01*
X187784Y685739D01*
Y706416D01*
X188958Y706902D01*
X196966Y698894D01*
D02*
G37*
G36*
X186663Y681813D02*
X186348Y681341D01*
X185882Y679000D01*
X186348Y676659D01*
X187674Y674674D01*
X189659Y673348D01*
X192000Y672882D01*
X194341Y673348D01*
X195696Y674253D01*
X196966Y673574D01*
Y666264D01*
X156208Y625506D01*
X155034Y625992D01*
Y641288D01*
X183512Y669765D01*
X183898Y670344D01*
X184034Y671027D01*
Y682646D01*
X185304Y683172D01*
X186663Y681813D01*
D02*
G37*
G36*
X322466Y700883D02*
Y534242D01*
X321292Y533756D01*
X259284Y595764D01*
Y622500D01*
X259149Y623183D01*
X258762Y623762D01*
X240481Y642042D01*
X240967Y643216D01*
X285000D01*
X285683Y643352D01*
X286262Y643738D01*
X316262Y673738D01*
X316649Y674317D01*
X316784Y675000D01*
Y696737D01*
X317341Y696848D01*
X319326Y698174D01*
X320652Y700159D01*
X320737Y700585D01*
X322139Y701126D01*
X322466Y700883D01*
D02*
G37*
G36*
X247203Y630273D02*
X246635Y629045D01*
X244659Y628652D01*
X242674Y627326D01*
X241348Y625341D01*
X240882Y623000D01*
X241348Y620659D01*
X242674Y618674D01*
X244659Y617348D01*
X247000Y616883D01*
X249341Y617348D01*
X251326Y618674D01*
X252652Y620659D01*
X253045Y622636D01*
X254273Y623203D01*
X255716Y621761D01*
Y595025D01*
X255851Y594342D01*
X256238Y593764D01*
X319966Y530036D01*
Y502925D01*
X318696Y502247D01*
X317341Y503152D01*
X316784Y503263D01*
Y512500D01*
X316649Y513183D01*
X316262Y513762D01*
X226034Y603989D01*
Y649646D01*
X227304Y650172D01*
X247203Y630273D01*
D02*
G37*
G36*
X165371Y567988D02*
X165950Y567602D01*
X166633Y567466D01*
X232057D01*
X279966Y519557D01*
Y502925D01*
X278696Y502247D01*
X277341Y503152D01*
X275000Y503618D01*
X272659Y503152D01*
X270674Y501826D01*
X269348Y499841D01*
X268883Y497500D01*
X269348Y495159D01*
X270674Y493174D01*
X272659Y491848D01*
X275000Y491382D01*
X277341Y491848D01*
X278696Y492753D01*
X279966Y492074D01*
Y456884D01*
X257488Y434407D01*
X257304Y434131D01*
X256034Y434476D01*
Y456204D01*
X255898Y456887D01*
X255512Y457466D01*
X223534Y489443D01*
Y492973D01*
X223398Y493656D01*
X223012Y494235D01*
X155034Y562212D01*
Y576666D01*
X156208Y577152D01*
X165371Y567988D01*
D02*
G37*
G36*
X322466Y490221D02*
Y479989D01*
X311813Y469337D01*
X311341Y469652D01*
X309000Y470118D01*
X306659Y469652D01*
X304674Y468326D01*
X304625Y468251D01*
X303409Y468620D01*
Y472824D01*
X321292Y490707D01*
X322466Y490221D01*
D02*
G37*
G36*
X357966Y495702D02*
Y477989D01*
X322813Y442836D01*
X322341Y443152D01*
X320000Y443618D01*
X317659Y443152D01*
X315674Y441826D01*
X314348Y439841D01*
X313883Y437500D01*
X314348Y435159D01*
X315674Y433174D01*
X317659Y431848D01*
X319257Y431530D01*
X319675Y430152D01*
X311488Y421966D01*
X311101Y421387D01*
X310966Y420704D01*
Y273231D01*
X309679Y272372D01*
X308409Y273051D01*
Y447804D01*
X356792Y496188D01*
X357966Y495702D01*
D02*
G37*
G36*
X362966Y466737D02*
Y441701D01*
X335221Y413956D01*
X334018Y414549D01*
X334078Y415000D01*
X333768Y417350D01*
X332861Y419539D01*
X331419Y421419D01*
X329539Y422861D01*
X327349Y423768D01*
X325000Y424078D01*
X322650Y423768D01*
X320461Y422861D01*
X318581Y421419D01*
X317139Y419539D01*
X316232Y417350D01*
X315922Y415000D01*
X316232Y412650D01*
X317139Y410461D01*
X318581Y408581D01*
X320461Y407138D01*
X322650Y406232D01*
X325000Y405922D01*
X325451Y405982D01*
X326044Y404779D01*
X315708Y394442D01*
X314534Y394928D01*
Y419965D01*
X361792Y467223D01*
X362966Y466737D01*
D02*
G37*
G36*
X365466Y437495D02*
Y400489D01*
X352813Y387836D01*
X352341Y388152D01*
X350000Y388618D01*
X347659Y388152D01*
X345674Y386826D01*
X344348Y384841D01*
X343882Y382500D01*
X344348Y380159D01*
X345674Y378174D01*
X347659Y376848D01*
X350000Y376382D01*
X352341Y376848D01*
X354326Y378174D01*
X355652Y380159D01*
X356118Y382500D01*
X355652Y384841D01*
X355336Y385313D01*
X366792Y396769D01*
X367966Y396283D01*
Y272989D01*
X328738Y233762D01*
X328352Y233183D01*
X328216Y232500D01*
Y213663D01*
X326946Y213232D01*
X326419Y213919D01*
X324539Y215361D01*
X322350Y216268D01*
X320000Y216578D01*
X317651Y216268D01*
X315461Y215361D01*
X313581Y213919D01*
X312804Y212906D01*
X311534Y213337D01*
Y252750D01*
X311399Y253433D01*
X311012Y254012D01*
X308409Y256614D01*
Y262199D01*
X309679Y262878D01*
X311034Y261973D01*
X313375Y261507D01*
X315716Y261973D01*
X317701Y263299D01*
X319027Y265284D01*
X319492Y267625D01*
X319027Y269966D01*
X317701Y271951D01*
X315716Y273277D01*
X314534Y273512D01*
Y323783D01*
X315708Y324269D01*
X317486Y322491D01*
X317139Y322039D01*
X316232Y319849D01*
X315922Y317500D01*
X316232Y315151D01*
X317139Y312961D01*
X318581Y311081D01*
X320461Y309639D01*
X322650Y308732D01*
X325000Y308422D01*
X327349Y308732D01*
X329539Y309639D01*
X331419Y311081D01*
X332861Y312961D01*
X333768Y315151D01*
X333843Y315716D01*
X344237D01*
X344348Y315159D01*
X345674Y313174D01*
X347659Y311848D01*
X350000Y311383D01*
X352341Y311848D01*
X354326Y313174D01*
X355652Y315159D01*
X356118Y317500D01*
X355652Y319841D01*
X354326Y321826D01*
X352341Y323152D01*
X350000Y323618D01*
X347659Y323152D01*
X345674Y321826D01*
X344348Y319841D01*
X344237Y319284D01*
X333843D01*
X333768Y319849D01*
X332861Y322039D01*
X331419Y323919D01*
X329539Y325362D01*
X327349Y326268D01*
X325000Y326578D01*
X322650Y326268D01*
X320461Y325362D01*
X320009Y325014D01*
X317034Y327989D01*
Y343511D01*
X318304Y343942D01*
X318581Y343581D01*
X320461Y342138D01*
X322650Y341232D01*
X325000Y340922D01*
X327349Y341232D01*
X329539Y342138D01*
X331419Y343581D01*
X332861Y345461D01*
X333768Y347650D01*
X334078Y350000D01*
X333768Y352350D01*
X332861Y354539D01*
X331419Y356419D01*
X329539Y357861D01*
X327349Y358768D01*
X325000Y359078D01*
X322650Y358768D01*
X320461Y357861D01*
X318581Y356419D01*
X318304Y356058D01*
X317034Y356489D01*
Y376011D01*
X318304Y376442D01*
X318581Y376081D01*
X320461Y374638D01*
X322650Y373732D01*
X325000Y373422D01*
X327349Y373732D01*
X329539Y374638D01*
X331419Y376081D01*
X332861Y377961D01*
X333768Y380150D01*
X334078Y382500D01*
X333768Y384850D01*
X332861Y387039D01*
X331419Y388919D01*
X329539Y390361D01*
X327349Y391268D01*
X325000Y391578D01*
X322650Y391268D01*
X320461Y390361D01*
X318581Y388919D01*
X318304Y388558D01*
X317034Y388989D01*
Y390722D01*
X364292Y437980D01*
X365466Y437495D01*
D02*
G37*
G36*
X179657Y324844D02*
X179016Y323421D01*
X177659Y323151D01*
X175674Y321825D01*
X174348Y319841D01*
X173882Y317499D01*
X174348Y315158D01*
X175674Y313174D01*
X177659Y311848D01*
X180000Y311382D01*
X182341Y311848D01*
X183626Y312707D01*
X184436Y311720D01*
X181500Y308784D01*
X165763D01*
X165652Y309341D01*
X164326Y311326D01*
X162341Y312652D01*
X160784Y312962D01*
X160366Y314340D01*
X171207Y325181D01*
X179461D01*
X179657Y324844D01*
D02*
G37*
G36*
X273466Y440143D02*
Y311668D01*
X273602Y310986D01*
X273988Y310407D01*
X279083Y305312D01*
Y302426D01*
X277813Y301747D01*
X276459Y302652D01*
X274118Y303118D01*
X271776Y302652D01*
X269792Y301326D01*
X268466Y299341D01*
X268000Y297000D01*
X268466Y294659D01*
X269792Y292674D01*
X271776Y291348D01*
X274118Y290882D01*
X275580Y291173D01*
X275883Y290882D01*
X276303Y290022D01*
X276101Y289721D01*
X275966Y289039D01*
Y250681D01*
X274792Y250196D01*
X263034Y261954D01*
Y272574D01*
X264304Y273253D01*
X265659Y272348D01*
X268000Y271882D01*
X270341Y272348D01*
X272326Y273674D01*
X273652Y275659D01*
X274118Y278000D01*
X273652Y280341D01*
X272326Y282326D01*
X270341Y283652D01*
X268000Y284118D01*
X265659Y283652D01*
X264304Y282747D01*
X263034Y283426D01*
Y431371D01*
X272292Y440629D01*
X273466Y440143D01*
D02*
G37*
G36*
X268216Y244655D02*
Y183263D01*
X267659Y183152D01*
X265674Y181826D01*
X264348Y179841D01*
X263883Y177500D01*
X264348Y175159D01*
X265674Y173174D01*
X267659Y171848D01*
X270000Y171383D01*
X272341Y171848D01*
X274326Y173174D01*
X275652Y175159D01*
X276117Y177500D01*
X275652Y179841D01*
X274326Y181826D01*
X272341Y183152D01*
X271784Y183263D01*
Y242962D01*
X272958Y243448D01*
X285716Y230690D01*
Y216343D01*
X285151Y216268D01*
X282961Y215361D01*
X281081Y213919D01*
X279639Y212039D01*
X278732Y209849D01*
X278422Y207500D01*
X278732Y205151D01*
X279639Y202961D01*
X281081Y201081D01*
X282961Y199639D01*
X285151Y198732D01*
X287500Y198422D01*
X289849Y198732D01*
X292039Y199639D01*
X293919Y201081D01*
X294196Y201442D01*
X295466Y201011D01*
Y182232D01*
X294196Y181913D01*
X292341Y183152D01*
X290000Y183617D01*
X287659Y183152D01*
X285674Y181826D01*
X284348Y179841D01*
X283883Y177500D01*
X284348Y175159D01*
X285674Y173174D01*
X287659Y171848D01*
X290000Y171383D01*
X292341Y171848D01*
X294196Y173087D01*
X295466Y172768D01*
Y140943D01*
X262348Y107825D01*
X260970Y108243D01*
X260652Y109841D01*
X259326Y111826D01*
X257341Y113152D01*
X255000Y113617D01*
X252659Y113152D01*
X250674Y111826D01*
X249348Y109841D01*
X248883Y107500D01*
X249348Y105159D01*
X250253Y103804D01*
X249574Y102534D01*
X246443D01*
X226325Y122652D01*
X226743Y124030D01*
X228341Y124348D01*
X230326Y125674D01*
X231652Y127659D01*
X232118Y130000D01*
X231652Y132341D01*
X231336Y132813D01*
X239283Y140760D01*
X241332D01*
X242015Y140896D01*
X242594Y141282D01*
X253512Y152200D01*
X253899Y152779D01*
X254034Y153461D01*
Y196461D01*
X253899Y197144D01*
X253794Y197300D01*
X254473Y198492D01*
X255000Y198422D01*
X257349Y198732D01*
X259539Y199639D01*
X261419Y201081D01*
X262861Y202961D01*
X263768Y205151D01*
X264078Y207500D01*
X263768Y209849D01*
X262861Y212039D01*
X261419Y213919D01*
X259539Y215361D01*
X257349Y216268D01*
X255000Y216578D01*
X252651Y216268D01*
X250461Y215361D01*
X248581Y213919D01*
X248304Y213558D01*
X247034Y213989D01*
Y255394D01*
X251521Y259880D01*
X252988Y259882D01*
X268216Y244655D01*
D02*
G37*
%LPC*%
G36*
X195000Y1152000D02*
X193157D01*
X193895Y1150895D01*
X195000Y1150157D01*
Y1152000D01*
D02*
G37*
G36*
X219843D02*
X218000D01*
Y1150157D01*
X219105Y1150895D01*
X219843Y1152000D01*
D02*
G37*
G36*
X72500Y1106117D02*
X70159Y1105652D01*
X68174Y1104326D01*
X66924Y1102455D01*
X66250Y1102395D01*
X65576Y1102455D01*
X64326Y1104326D01*
X62341Y1105652D01*
X60000Y1106117D01*
X57659Y1105652D01*
X55674Y1104326D01*
X54424Y1102455D01*
X53750Y1102395D01*
X53076Y1102455D01*
X51826Y1104326D01*
X49841Y1105652D01*
X47500Y1106117D01*
X45159Y1105652D01*
X43174Y1104326D01*
X41848Y1102341D01*
X41382Y1100000D01*
X41848Y1097659D01*
X43174Y1095674D01*
X45045Y1094424D01*
X45105Y1093750D01*
X45045Y1093076D01*
X43174Y1091826D01*
X41848Y1089841D01*
X41382Y1087500D01*
X41848Y1085159D01*
X43174Y1083174D01*
X45159Y1081848D01*
X47500Y1081383D01*
X49841Y1081848D01*
X51826Y1083174D01*
X53076Y1085045D01*
X53750Y1085105D01*
X54424Y1085045D01*
X55674Y1083174D01*
X57659Y1081848D01*
X60000Y1081383D01*
X62341Y1081848D01*
X64326Y1083174D01*
X65576Y1085045D01*
X66250Y1085105D01*
X66924Y1085045D01*
X68174Y1083174D01*
X70159Y1081848D01*
X72500Y1081383D01*
X74841Y1081848D01*
X76826Y1083174D01*
X78152Y1085159D01*
X78618Y1087500D01*
X78152Y1089841D01*
X76826Y1091826D01*
X74955Y1093076D01*
X74895Y1093750D01*
X74955Y1094424D01*
X76826Y1095674D01*
X78152Y1097659D01*
X78618Y1100000D01*
X78152Y1102341D01*
X76826Y1104326D01*
X74841Y1105652D01*
X72500Y1106117D01*
D02*
G37*
G36*
X285000Y1103617D02*
X282659Y1103152D01*
X280674Y1101826D01*
X279348Y1099841D01*
X278882Y1097500D01*
X279348Y1095159D01*
X280674Y1093174D01*
X282659Y1091848D01*
X285000Y1091383D01*
X287341Y1091848D01*
X289326Y1093174D01*
X290652Y1095159D01*
X291117Y1097500D01*
X290652Y1099841D01*
X289326Y1101826D01*
X287341Y1103152D01*
X285000Y1103617D01*
D02*
G37*
G36*
X62500Y1008617D02*
X60159Y1008152D01*
X58174Y1006826D01*
X56848Y1004841D01*
X56382Y1002500D01*
X56848Y1000159D01*
X58174Y998174D01*
X60159Y996848D01*
X62500Y996383D01*
X64841Y996848D01*
X66826Y998174D01*
X68152Y1000159D01*
X68618Y1002500D01*
X68152Y1004841D01*
X66826Y1006826D01*
X64841Y1008152D01*
X62500Y1008617D01*
D02*
G37*
G36*
X47500D02*
X45159Y1008152D01*
X43174Y1006826D01*
X41848Y1004841D01*
X41382Y1002500D01*
X41848Y1000159D01*
X43174Y998174D01*
X45159Y996848D01*
X47500Y996383D01*
X49841Y996848D01*
X51826Y998174D01*
X53152Y1000159D01*
X53618Y1002500D01*
X53152Y1004841D01*
X51826Y1006826D01*
X49841Y1008152D01*
X47500Y1008617D01*
D02*
G37*
G36*
X62500Y993617D02*
X60159Y993152D01*
X58174Y991826D01*
X56848Y989841D01*
X56382Y987500D01*
X56848Y985159D01*
X58174Y983174D01*
X60159Y981848D01*
X62500Y981383D01*
X64841Y981848D01*
X66826Y983174D01*
X68152Y985159D01*
X68618Y987500D01*
X68152Y989841D01*
X66826Y991826D01*
X64841Y993152D01*
X62500Y993617D01*
D02*
G37*
G36*
X47500D02*
X45159Y993152D01*
X43174Y991826D01*
X41848Y989841D01*
X41382Y987500D01*
X41848Y985159D01*
X43174Y983174D01*
X45159Y981848D01*
X47500Y981383D01*
X49841Y981848D01*
X51826Y983174D01*
X53152Y985159D01*
X53618Y987500D01*
X53152Y989841D01*
X51826Y991826D01*
X49841Y993152D01*
X47500Y993617D01*
D02*
G37*
G36*
X62500Y978617D02*
X60159Y978152D01*
X58174Y976826D01*
X56848Y974841D01*
X56382Y972500D01*
X56848Y970159D01*
X58174Y968174D01*
X60159Y966848D01*
X62500Y966383D01*
X64841Y966848D01*
X66826Y968174D01*
X68152Y970159D01*
X68618Y972500D01*
X68152Y974841D01*
X66826Y976826D01*
X64841Y978152D01*
X62500Y978617D01*
D02*
G37*
G36*
X47500D02*
X45159Y978152D01*
X43174Y976826D01*
X41848Y974841D01*
X41382Y972500D01*
X41848Y970159D01*
X43174Y968174D01*
X45159Y966848D01*
X47500Y966383D01*
X49841Y966848D01*
X51826Y968174D01*
X53152Y970159D01*
X53618Y972500D01*
X53152Y974841D01*
X51826Y976826D01*
X49841Y978152D01*
X47500Y978617D01*
D02*
G37*
G36*
X272556Y612500D02*
X272556Y612500D01*
X272556D01*
Y612500D01*
D02*
G37*
G36*
Y607500D02*
X272556D01*
X272556Y607500D01*
Y607500D01*
D02*
G37*
G36*
Y597500D02*
X272556D01*
X272556Y597500D01*
Y597500D01*
D02*
G37*
G36*
Y592500D02*
X272556Y592500D01*
X272556D01*
Y592500D01*
D02*
G37*
G36*
Y587500D02*
X272556D01*
X272556Y587500D01*
Y587500D01*
D02*
G37*
G36*
X325000Y294078D02*
X322650Y293768D01*
X320461Y292861D01*
X318581Y291419D01*
X317139Y289539D01*
X316232Y287349D01*
X315922Y285000D01*
X316232Y282651D01*
X317139Y280461D01*
X318581Y278581D01*
X320461Y277139D01*
X322650Y276232D01*
X325000Y275922D01*
X327349Y276232D01*
X329539Y277139D01*
X331419Y278581D01*
X332861Y280461D01*
X333768Y282651D01*
X334078Y285000D01*
X333768Y287349D01*
X332861Y289539D01*
X331419Y291419D01*
X329539Y292861D01*
X327349Y293768D01*
X325000Y294078D01*
D02*
G37*
%LPD*%
D13*
X136000Y898000D02*
X144000D01*
X125000Y887000D02*
X136000Y898000D01*
X125000Y761000D02*
Y887000D01*
X148000Y947000D02*
X232000D01*
X102000Y901000D02*
X148000Y947000D01*
X40000Y901000D02*
X102000D01*
X217500Y332500D02*
X240000D01*
X217500Y332500D02*
X217500Y332500D01*
X152000Y744000D02*
Y755000D01*
X124000Y716000D02*
X152000Y744000D01*
X207500Y320000D02*
Y332500D01*
X192500Y305000D02*
X207500Y320000D01*
D14*
X65000Y1207500D02*
X75000Y1197500D01*
X45000Y1207500D02*
X65000D01*
X32500Y1220000D02*
X45000Y1207500D01*
X75000Y1175000D02*
Y1197500D01*
Y1175000D02*
X80000Y1170000D01*
X224485D01*
X233000Y1161485D01*
Y1143000D02*
Y1161485D01*
D15*
X220000Y865000D02*
X247477D01*
X217500Y862500D02*
X220000Y865000D01*
X217500Y845157D02*
Y862500D01*
Y845157D02*
X223500Y839157D01*
X247477Y865000D02*
X259763Y852714D01*
X265000Y847500D02*
Y885000D01*
X260500Y889500D02*
X265000Y885000D01*
X190883Y889500D02*
X260500D01*
X261250Y843750D02*
X265000Y847500D01*
X240472Y843750D02*
X261250D01*
X278250Y779250D02*
X297500Y760000D01*
Y744419D02*
Y760000D01*
Y744419D02*
X354750Y687169D01*
X257748Y779250D02*
X278250D01*
X280750Y781750D02*
X300000Y762500D01*
Y745454D02*
Y762500D01*
Y745454D02*
X357250Y688204D01*
X262169Y781750D02*
X280750D01*
X272500Y735000D02*
X276198Y731302D01*
X272500Y735000D02*
Y748954D01*
X268704Y752750D02*
X272500Y748954D01*
X243250Y752750D02*
X268704D01*
X276198Y731302D02*
X295744D01*
X240000Y746000D02*
X260000D01*
X233000Y753000D02*
X240000Y746000D01*
X257500Y595025D02*
X321750Y530775D01*
X257500Y595025D02*
Y622500D01*
X321750Y493688D02*
Y530775D01*
X315000Y497500D02*
Y512500D01*
X224250Y603250D02*
X315000Y512500D01*
X224250Y603250D02*
Y650750D01*
X221750Y658250D02*
X257500Y622500D01*
X240000Y647500D02*
X277500D01*
X227500Y660000D02*
X240000Y647500D01*
X227500Y660000D02*
Y762036D01*
X238535Y645000D02*
X285000D01*
X224250Y659286D02*
X238535Y645000D01*
X224250Y659286D02*
Y753831D01*
X221750Y658250D02*
Y752796D01*
X219250Y655750D02*
X224250Y650750D01*
X219250Y655750D02*
Y728250D01*
X198500Y749000D02*
X219250Y728250D01*
X198500Y749000D02*
Y798500D01*
X212000Y812000D02*
X220000D01*
X198500Y798500D02*
X212000Y812000D01*
X227000Y802000D02*
Y808500D01*
X214500Y789500D02*
X227000Y802000D01*
X214500Y763581D02*
Y789500D01*
X216000Y808500D02*
X223500D01*
X211500Y804000D02*
X216000Y808500D01*
X211500Y763046D02*
Y804000D01*
X312750Y268250D02*
X313375Y267625D01*
X306625Y255875D02*
Y448544D01*
X214500Y763581D02*
X224250Y753831D01*
X211500Y763046D02*
X221750Y752796D01*
X234750Y769286D02*
Y789000D01*
X230500Y793250D02*
X234750Y789000D01*
X230500Y793250D02*
Y808500D01*
X227500Y762036D02*
X234750Y769286D01*
X234500Y828250D02*
Y834243D01*
X232750Y826500D02*
X234500Y828250D01*
X229257Y826500D02*
X232750D01*
X230500Y829500D02*
Y833778D01*
X295000Y665000D02*
Y702500D01*
X277500Y647500D02*
X295000Y665000D01*
X315000Y675000D02*
Y702500D01*
X285000Y645000D02*
X315000Y675000D01*
X369750Y272250D02*
Y770400D01*
X330000Y232500D02*
X369750Y272250D01*
X330000Y177500D02*
Y232500D01*
X309750Y177750D02*
Y252750D01*
X306625Y255875D02*
X309750Y252750D01*
X309000Y464000D02*
X324250Y479250D01*
X186000Y685000D02*
Y759000D01*
X178000Y767000D02*
X186000Y759000D01*
X178000Y767000D02*
Y807142D01*
X236000Y760000D02*
X243250Y752750D01*
X230000Y761000D02*
X237750Y768750D01*
X230000Y715000D02*
Y761000D01*
X168250Y766428D02*
Y832796D01*
X177454Y842000D01*
X168250Y766428D02*
X179750Y754928D01*
X245757Y826000D02*
X258507Y838750D01*
X310295Y819248D02*
X362250Y767294D01*
X312750Y268250D02*
Y420704D01*
X315250Y391461D02*
X364750Y440961D01*
Y768329D01*
X367250Y399750D02*
Y769365D01*
X274169Y838750D02*
X280419Y832500D01*
X241000Y822500D02*
X250954D01*
X286599Y819248D02*
X310295D01*
X362250Y470204D02*
Y767294D01*
X272098Y833750D02*
X286599Y819248D01*
X253500Y829500D02*
X260250Y836250D01*
X304115Y832500D02*
X367250Y769365D01*
X258507Y838750D02*
X274169D01*
X280419Y832500D02*
X304115D01*
X241000Y826000D02*
X245757D01*
X305150Y835000D02*
X369750Y770400D01*
X241507Y841250D02*
X275204D01*
X320000Y437500D02*
X359750Y477250D01*
Y736796D01*
X293796Y802750D02*
X359750Y736796D01*
X263000Y794000D02*
Y802000D01*
X253250Y811750D02*
X263000Y802000D01*
X241250Y811750D02*
X253250D01*
X262204Y833750D02*
X272098D01*
X270704Y802750D02*
X293796D01*
X207379Y842379D02*
Y850621D01*
X203502Y854498D02*
X207379Y850621D01*
X177500Y854498D02*
X203502D01*
X196000Y842000D02*
X202000Y848000D01*
X245250Y203461D02*
Y256133D01*
X150750Y560438D02*
Y643062D01*
X204000Y839000D02*
X207379Y842379D01*
X188000Y839000D02*
X204000D01*
X218335Y164165D02*
X225000Y157500D01*
X174500Y866046D02*
X192454Y884000D01*
X212729Y887000D02*
X214729Y885000D01*
X191919Y887000D02*
X212729D01*
X156454Y390000D02*
X194081D01*
X128250Y365331D02*
X155419Y392500D01*
X169500Y868117D02*
X190883Y889500D01*
X165000Y856314D02*
Y882000D01*
X148500Y839814D02*
X165000Y856314D01*
X162000Y858000D02*
Y891454D01*
X146454Y907000D02*
X162000Y891454D01*
X148500Y768500D02*
Y839814D01*
X169500Y857278D02*
Y868117D01*
X172000Y867082D02*
X191919Y887000D01*
X172000Y856243D02*
Y867082D01*
X174500Y855207D02*
Y866046D01*
X214250Y485598D02*
X246750Y453097D01*
X145750Y558367D02*
X214250Y489867D01*
X192454Y884000D02*
X203000D01*
X122596Y907000D02*
X146454D01*
X143250Y557331D02*
Y646169D01*
X214729Y885000D02*
X215000D01*
X176919Y845000D02*
X191768D01*
X140750Y647204D02*
X169750Y676204D01*
X177454Y842000D02*
X196000D01*
X206429Y822500D02*
X216500D01*
X203750Y663454D02*
Y701704D01*
X188000Y804071D02*
X206429Y822500D01*
X223500Y833000D02*
Y839157D01*
X227000Y833000D02*
Y851000D01*
X203858Y833000D02*
X216500D01*
X206465Y819000D02*
X216500D01*
X281454Y835000D02*
X305150D01*
X192500Y1192500D02*
X277500D01*
X186000Y1199000D02*
X192500Y1192500D01*
X150000Y1199000D02*
X186000D01*
X277500Y1192500D02*
X324500Y1145500D01*
X327000Y1001000D02*
Y1148000D01*
X279000Y1196000D02*
X327000Y1148000D01*
X194000Y1196000D02*
X279000D01*
X105000Y1203000D02*
X187000D01*
X100000Y1198000D02*
X105000Y1203000D01*
X145000Y1194000D02*
X150000Y1199000D01*
X254454Y819000D02*
X270704Y802750D01*
X250954Y822500D02*
X262204Y833750D01*
X237000Y806919D02*
X262169Y781750D01*
X304125Y449579D02*
X354750Y500204D01*
X260250Y836250D02*
X273133D01*
X279383Y830000D01*
X350000Y382500D02*
X367250Y399750D01*
X234500Y834243D02*
X241507Y841250D01*
X357500Y157500D02*
X372250Y172250D01*
X306625Y448544D02*
X357250Y499169D01*
X223500Y824824D02*
Y829500D01*
X241000Y806454D02*
X260204Y787250D01*
X241000Y806454D02*
Y808500D01*
X260204Y787250D02*
X282750D01*
X312500Y757500D01*
X143250Y557331D02*
X211750Y488831D01*
X143250Y646169D02*
X172250Y675169D01*
X194081Y390000D02*
X211750Y407669D01*
X158250Y762286D02*
X169750Y750786D01*
X209250Y408704D02*
Y487796D01*
X128250Y201750D02*
Y365331D01*
X275250Y442574D02*
X286750Y454074D01*
Y522367D01*
X277750Y289039D02*
X280868Y292156D01*
X275250Y311668D02*
Y442574D01*
X299750Y139169D02*
Y226250D01*
X280868Y292156D02*
Y306051D01*
X198750Y665525D02*
Y699633D01*
X188500Y709883D02*
X198750Y699633D01*
X258750Y433145D02*
X281750Y456145D01*
X185500Y766571D02*
X191000Y761071D01*
Y710919D02*
X201250Y700669D01*
X297250Y140204D02*
Y225215D01*
X312500Y742500D02*
Y757500D01*
X357250Y499169D02*
Y688204D01*
X304125Y308125D02*
Y449579D01*
X295744Y731302D02*
X324250Y702796D01*
X223500Y824824D02*
X237000Y811324D01*
X244000Y792998D02*
X257748Y779250D01*
X324250Y479250D02*
Y702796D01*
X137500Y371046D02*
X156454Y390000D01*
X155419Y392500D02*
X193046D01*
X193500Y711954D02*
Y762106D01*
X160750Y620454D02*
X203750Y663454D01*
X277750Y248250D02*
X299750Y226250D01*
X201250Y664490D02*
Y700669D01*
X167668Y571750D02*
X233831D01*
X261250Y432109D02*
X284250Y455110D01*
X182239Y307000D02*
X198501Y323261D01*
X201050Y356000D02*
X209000D01*
X198501Y353450D02*
X201050Y356000D01*
X198501Y323261D02*
Y353450D01*
X209000Y356000D02*
X217500Y347500D01*
X160000Y307000D02*
X182239D01*
X312750Y420704D02*
X362250Y470204D01*
X299686Y844000D02*
X372250Y771436D01*
X279383Y830000D02*
X303079D01*
X241000Y819000D02*
X254454D01*
X303079Y830000D02*
X364750Y768329D01*
X140750Y556296D02*
Y647204D01*
X193046Y392500D02*
X209250Y408704D01*
X172250Y675169D02*
Y751821D01*
X211750Y407669D02*
Y488831D01*
X160750Y763321D02*
X172250Y751821D01*
X169750Y676204D02*
Y750786D01*
X155750Y622525D02*
X198750Y665525D01*
X258750Y260179D02*
X287500Y231429D01*
X281750Y456145D02*
Y520296D01*
X284250Y455110D02*
Y521331D01*
X160750Y582204D02*
Y620454D01*
X137500Y260000D02*
Y371046D01*
X140750Y556296D02*
X209250Y487796D01*
X309750Y177750D02*
X310000Y177500D01*
X109596Y894000D02*
X122596Y907000D01*
X17000Y898000D02*
Y1114000D01*
Y898000D02*
X21000Y894000D01*
X109596D01*
X296000Y976000D02*
X324500Y1004500D01*
X264000Y976000D02*
X296000D01*
X265000Y955000D02*
X281000D01*
X322000Y1009000D02*
Y1122000D01*
X315000Y1129000D02*
X322000Y1122000D01*
X235000Y1129000D02*
X315000D01*
X324500Y1004500D02*
Y1145500D01*
X187000Y1203000D02*
X194000Y1196000D01*
X281000Y955000D02*
X327000Y1001000D01*
X296750Y983750D02*
X322000Y1009000D01*
X256629Y983750D02*
X296750D01*
X251000Y978121D02*
X256629Y983750D01*
X251000Y918000D02*
Y978121D01*
X165750Y833831D02*
X176919Y845000D01*
X165750Y765392D02*
Y833831D01*
X191000Y803536D02*
X206465Y819000D01*
X191000Y797000D02*
Y803536D01*
X185879Y902879D02*
X235879D01*
X165000Y882000D02*
X185879Y902879D01*
X235879D02*
X251000Y918000D01*
X251750Y262633D02*
Y455169D01*
X238544Y142544D02*
X241332D01*
X150750Y560438D02*
X219250Y491938D01*
X245250Y203461D02*
X252250Y196461D01*
X188500Y709883D02*
Y760035D01*
X166633Y569250D02*
X232796D01*
X281750Y520296D01*
X287500Y207500D02*
Y231429D01*
X315250Y327250D02*
Y391461D01*
Y327250D02*
X325000Y317500D01*
X301625Y426625D02*
Y473563D01*
X160750Y582204D02*
X168704Y574250D01*
X234867D01*
X301625Y473563D02*
X321750Y493688D01*
X287500Y412500D02*
X301625Y426625D01*
X188000Y767607D02*
X193500Y762106D01*
Y711954D02*
X203750Y701704D01*
X188000Y767607D02*
Y804071D01*
X183000Y806142D02*
X206358Y829500D01*
X183000Y765536D02*
Y806142D01*
X175500Y762713D02*
Y808177D01*
X254250Y261143D02*
Y456204D01*
Y261143D02*
X270000Y245394D01*
X165750Y765392D02*
X177250Y753892D01*
X174750Y674133D02*
Y752857D01*
X163250Y843957D02*
X174500Y855207D01*
X160750Y763321D02*
Y844993D01*
X172000Y856243D01*
X158250Y762286D02*
Y846028D01*
X169500Y857278D01*
X185500Y805107D02*
X206394Y826000D01*
X183000Y765536D02*
X188500Y760035D01*
X175500Y808177D02*
X203822Y836500D01*
X216500D01*
X178000Y807142D02*
X203858Y833000D01*
X206358Y829500D02*
X216500D01*
X206394Y826000D02*
X216500D01*
X158250Y581169D02*
X167668Y571750D01*
X158250Y581169D02*
Y621490D01*
X261250Y261215D02*
Y432109D01*
X275250Y311668D02*
X280868Y306051D01*
X207500Y115000D02*
X224250Y98250D01*
X277750Y248250D02*
Y289039D01*
X258831Y98250D02*
X299750Y139169D01*
X224250Y98250D02*
X258831D01*
X245704Y100750D02*
X257796D01*
X233831Y571750D02*
X284250Y521331D01*
X153250Y561473D02*
Y642027D01*
X148250Y559402D02*
Y644098D01*
X145750Y645133D02*
X174750Y674133D01*
X216000Y172000D02*
Y230419D01*
X226000Y130000D02*
X238544Y142544D01*
X163250Y764357D02*
X174750Y752857D01*
X246750Y264704D02*
Y453097D01*
X249250Y263669D02*
Y454133D01*
X153250Y642027D02*
X182250Y671027D01*
X221750Y488704D02*
Y492973D01*
X298000Y302000D02*
X304125Y308125D01*
X354750Y500204D02*
Y687169D01*
X261250Y261215D02*
X297250Y225215D01*
X234867Y574250D02*
X286750Y522367D01*
X155750Y580133D02*
X166633Y569250D01*
X185500Y766571D02*
Y805107D01*
X241000Y812000D02*
X241250Y811750D01*
X17000Y1114000D02*
X59000Y1156000D01*
Y1198000D01*
X234000Y793536D02*
Y808500D01*
X293000Y844000D02*
X299686D01*
X209250Y227204D02*
X246750Y264704D01*
X145750Y558367D02*
Y645133D01*
X216750Y486633D02*
X249250Y454133D01*
X177250Y673098D02*
Y753892D01*
X252250Y153461D02*
Y196461D01*
X245250Y256133D02*
X251750Y262633D01*
X219250Y487669D02*
X251750Y455169D01*
X257796Y100750D02*
X297250Y140204D01*
X207500Y138954D02*
X245704Y100750D01*
X207500Y138954D02*
Y147500D01*
X158250Y621490D02*
X201250Y664490D01*
X155750Y580133D02*
Y622525D01*
X191000Y710919D02*
Y761071D01*
X230500Y833778D02*
X240472Y843750D01*
X275204Y841250D02*
X281454Y835000D01*
X372250Y172250D02*
Y771436D01*
X258750Y260179D02*
Y433145D01*
X186000Y685000D02*
X192000Y679000D01*
X162000Y740000D02*
Y755000D01*
X148500Y768500D02*
X162000Y755000D01*
X179750Y672062D02*
Y754928D01*
X233000Y1131000D02*
X235000Y1129000D01*
X233000Y1131000D02*
Y1143000D01*
X163250Y764357D02*
Y843957D01*
X148250Y559402D02*
X216750Y490902D01*
X209250Y169204D02*
X214289Y164165D01*
X218335D01*
X209250Y169204D02*
Y227204D01*
X148250Y644098D02*
X177250Y673098D01*
X216000Y230419D02*
X249250Y263669D01*
X153250Y561473D02*
X221750Y492973D01*
X219250Y487669D02*
Y491938D01*
X216750Y486633D02*
Y490902D01*
X150750Y643062D02*
X179750Y672062D01*
X241332Y142544D02*
X252250Y153461D01*
X175500Y762713D02*
X182250Y755963D01*
Y671027D02*
Y755963D01*
X270000Y177500D02*
Y245394D01*
X214250Y485598D02*
Y489867D01*
X230000Y715000D02*
X246500Y698500D01*
X237750Y768750D02*
Y789785D01*
X234000Y793536D02*
X237750Y789785D01*
X221750Y488704D02*
X254250Y456204D01*
X237000Y806919D02*
Y811324D01*
X246500Y691000D02*
Y698500D01*
X227191Y828566D02*
X229257Y826500D01*
X227191Y828566D02*
Y829309D01*
X227000Y829500D02*
X227191Y829309D01*
X327500Y317500D02*
X350000D01*
X128250Y201750D02*
X150000Y180000D01*
D16*
X67791Y215659D02*
D03*
Y225659D02*
D03*
X77791Y215659D02*
D03*
Y225659D02*
D03*
D46*
X212500Y347500D02*
D03*
Y332500D02*
D03*
Y337500D02*
D03*
Y342500D02*
D03*
X207500Y332500D02*
D03*
X217500Y337500D02*
D03*
X207500Y342500D02*
D03*
Y337500D02*
D03*
X202500Y352500D02*
D03*
X207500D02*
D03*
Y347500D02*
D03*
X217500Y342500D02*
D03*
Y347500D02*
D03*
Y332500D02*
D03*
X202500Y347500D02*
D03*
D105*
X215500Y1160500D02*
D03*
Y1154500D02*
D03*
X209500Y1160500D02*
D03*
Y1154500D02*
D03*
X203500Y1160500D02*
D03*
Y1154500D02*
D03*
X197500Y1160500D02*
D03*
Y1154500D02*
D03*
D107*
X307500Y610000D02*
D03*
Y600000D02*
D03*
Y590000D02*
D03*
X297500Y610000D02*
D03*
Y600000D02*
D03*
Y590000D02*
D03*
X287500Y610000D02*
D03*
Y600000D02*
D03*
Y590000D02*
D03*
X277500Y610000D02*
D03*
Y600000D02*
D03*
Y590000D02*
D03*
X117380Y1082000D02*
D03*
Y1066000D02*
D03*
Y1050000D02*
D03*
Y1034000D02*
D03*
Y1018000D02*
D03*
X252620Y1082000D02*
D03*
Y1066000D02*
D03*
Y1050000D02*
D03*
Y1034000D02*
D03*
Y1018000D02*
D03*
X155000D02*
D03*
X135000D02*
D03*
X175000D02*
D03*
X195000D02*
D03*
X215000D02*
D03*
X235000D02*
D03*
X155000Y1034000D02*
D03*
X135000D02*
D03*
X175000D02*
D03*
X195000D02*
D03*
X215000D02*
D03*
X235000D02*
D03*
X155000Y1050000D02*
D03*
X135000D02*
D03*
X175000D02*
D03*
X195000D02*
D03*
X215000D02*
D03*
X235000D02*
D03*
X155000Y1066000D02*
D03*
X135000D02*
D03*
X175000D02*
D03*
X195000D02*
D03*
X215000D02*
D03*
X235000D02*
D03*
Y1082000D02*
D03*
X215000D02*
D03*
X195000D02*
D03*
X175000D02*
D03*
X135000D02*
D03*
X155000D02*
D03*
D116*
X73000Y463000D02*
X73500Y462500D01*
X171000Y490000D02*
X197500D01*
X158979Y502021D02*
X171000Y490000D01*
X99521Y502021D02*
X158979D01*
X92500Y465000D02*
Y495000D01*
X90000Y462500D02*
X92500Y465000D01*
X73500Y462500D02*
X90000D01*
X92500Y495000D02*
X99521Y502021D01*
X72500Y462500D02*
X73000Y463000D01*
D117*
X169729Y328750D02*
X185251D01*
X194251Y325022D02*
Y337749D01*
X154000Y378000D02*
X194251Y337749D01*
X151500Y310521D02*
X169729Y328750D01*
X151500Y297687D02*
Y310521D01*
Y297687D02*
X152500Y296687D01*
Y282500D02*
Y296687D01*
X187685Y318456D02*
X194251Y325022D01*
X180956Y318456D02*
X187685D01*
X180000Y317499D02*
X180956Y318456D01*
D121*
X52025Y756275D02*
D03*
Y730875D02*
D03*
Y680075D02*
D03*
Y705475D02*
D03*
D122*
Y654675D02*
D03*
D123*
X192500Y67500D02*
D03*
X97500Y1220000D02*
D03*
X32500D02*
D03*
X65000D02*
D03*
X130000D02*
D03*
X192500Y197500D02*
D03*
Y230000D02*
D03*
X287500Y285000D02*
D03*
X325000D02*
D03*
Y317500D02*
D03*
Y350000D02*
D03*
Y382500D02*
D03*
Y415000D02*
D03*
X357500Y157500D02*
D03*
X242500D02*
D03*
X352500Y207500D02*
D03*
X320000D02*
D03*
X255000D02*
D03*
X287500D02*
D03*
X192500Y165000D02*
D03*
Y132500D02*
D03*
Y100000D02*
D03*
X345000Y680000D02*
D03*
Y647500D02*
D03*
Y615000D02*
D03*
Y582500D02*
D03*
Y550000D02*
D03*
Y517500D02*
D03*
X287500Y437500D02*
D03*
X361000Y812000D02*
D03*
D124*
X72500Y615000D02*
D03*
Y580000D02*
D03*
Y545000D02*
D03*
X72500Y377500D02*
D03*
Y342500D02*
D03*
Y307500D02*
D03*
X72500Y497500D02*
D03*
Y462500D02*
D03*
Y427500D02*
D03*
D125*
X125000Y47500D02*
D03*
X310000Y54000D02*
D03*
X292000D02*
D03*
X355000Y1010000D02*
D03*
X260000Y746000D02*
D03*
X313375Y267625D02*
D03*
X224750Y786250D02*
D03*
X205000Y1112500D02*
D03*
X195000D02*
D03*
X27500Y220000D02*
D03*
Y200000D02*
D03*
X248000Y764000D02*
D03*
X265000Y827000D02*
D03*
X268000Y815000D02*
D03*
X226000Y130000D02*
D03*
X107500Y97500D02*
D03*
X307499Y812498D02*
D03*
X209000Y382000D02*
D03*
X262500Y772500D02*
D03*
X154000Y378000D02*
D03*
X183000Y381000D02*
D03*
X274118Y297000D02*
D03*
X268000Y278000D02*
D03*
X222000Y405000D02*
D03*
X312500Y742500D02*
D03*
X185251Y328750D02*
D03*
X160000Y307000D02*
D03*
X263000Y794000D02*
D03*
X144000Y898000D02*
D03*
X125000Y761000D02*
D03*
X264000Y976000D02*
D03*
X265000Y955000D02*
D03*
X288000Y1017000D02*
D03*
X175000Y822000D02*
D03*
X184000Y866000D02*
D03*
X197000Y871000D02*
D03*
X290000Y1060000D02*
D03*
X301000Y1017000D02*
D03*
X145000Y1194000D02*
D03*
X263000Y579000D02*
D03*
X192500Y585000D02*
D03*
X179000Y834000D02*
D03*
X240000Y332500D02*
D03*
X180000Y585000D02*
D03*
X205000D02*
D03*
X167500D02*
D03*
X281000Y845000D02*
D03*
X170000Y1181000D02*
D03*
X59000Y1198000D02*
D03*
X100000D02*
D03*
X129000Y743000D02*
D03*
X227000Y881000D02*
D03*
X124000Y716000D02*
D03*
X262000Y480000D02*
D03*
X250000D02*
D03*
X230000Y911000D02*
D03*
X162000Y740000D02*
D03*
X163000Y726000D02*
D03*
X152000Y755000D02*
D03*
X192000Y679000D02*
D03*
X40000Y901000D02*
D03*
X232000Y947000D02*
D03*
X139000Y786000D02*
D03*
X216000Y172000D02*
D03*
X247000Y623000D02*
D03*
X161000Y704000D02*
D03*
X163000Y679000D02*
D03*
X309000Y464000D02*
D03*
X298000Y302000D02*
D03*
X225000Y157500D02*
D03*
X335000Y747000D02*
D03*
X350000Y317500D02*
D03*
Y382500D02*
D03*
X320000Y437500D02*
D03*
X287500Y412500D02*
D03*
X248000Y690000D02*
D03*
X217500Y585000D02*
D03*
X141000Y770000D02*
D03*
X180000Y317499D02*
D03*
X192500Y305000D02*
D03*
X150000Y180000D02*
D03*
X137500Y260000D02*
D03*
X202500Y425000D02*
D03*
X190000Y425000D02*
D03*
X227000Y851000D02*
D03*
X75000Y770000D02*
D03*
X287500Y1217500D02*
D03*
Y1230000D02*
D03*
X347500D02*
D03*
Y1215000D02*
D03*
X230000Y924000D02*
D03*
X159000Y904000D02*
D03*
X275000Y1000000D02*
D03*
X170000Y1192000D02*
D03*
X217000Y1220000D02*
D03*
X226000Y1230000D02*
D03*
X227000Y982210D02*
D03*
X144000Y872000D02*
D03*
Y847000D02*
D03*
X367000Y965000D02*
D03*
X296000Y889000D02*
D03*
X291000Y796000D02*
D03*
X124000Y955000D02*
D03*
X148000D02*
D03*
X101000D02*
D03*
X233000Y1143000D02*
D03*
X203000Y1204000D02*
D03*
X160000Y1210500D02*
D03*
Y1222500D02*
D03*
Y1234500D02*
D03*
X239000Y1230000D02*
D03*
X104000Y478000D02*
D03*
X128000D02*
D03*
Y465000D02*
D03*
X115000D02*
D03*
X116000Y478000D02*
D03*
X140000D02*
D03*
X285000Y1097500D02*
D03*
X315000Y1092500D02*
D03*
X267000Y1217000D02*
D03*
X253000Y1143000D02*
D03*
X252500Y1230000D02*
D03*
X283000Y748000D02*
D03*
X177500Y437500D02*
D03*
X177500Y450000D02*
D03*
X142500Y400000D02*
D03*
X155000Y400000D02*
D03*
X117500Y400000D02*
D03*
X130000Y400000D02*
D03*
X117500Y412500D02*
D03*
X130000Y412500D02*
D03*
X142500Y412500D02*
D03*
X155000Y412500D02*
D03*
X155000Y425000D02*
D03*
X130000D02*
D03*
X142500Y425000D02*
D03*
X117500D02*
D03*
X185000Y465000D02*
D03*
X276000Y795000D02*
D03*
X85000Y1197500D02*
D03*
X47500Y1045000D02*
D03*
Y1025000D02*
D03*
X60000Y1100000D02*
D03*
X72500D02*
D03*
X47500D02*
D03*
Y1087500D02*
D03*
Y1002500D02*
D03*
Y987500D02*
D03*
Y972500D02*
D03*
X62500Y987500D02*
D03*
X106000Y362000D02*
D03*
X180000Y405000D02*
D03*
X196000D02*
D03*
X177500Y425000D02*
D03*
X232500Y260000D02*
D03*
X212500D02*
D03*
X192500D02*
D03*
X172500D02*
D03*
X152500Y282500D02*
D03*
X107500Y302500D02*
D03*
X85000Y67500D02*
D03*
X207500Y115000D02*
D03*
Y147500D02*
D03*
X37500Y117500D02*
D03*
Y97500D02*
D03*
Y130000D02*
D03*
Y150000D02*
D03*
X55000Y70000D02*
D03*
X130000Y160000D02*
D03*
X55000Y172500D02*
D03*
X75000D02*
D03*
X90000Y97500D02*
D03*
X72500D02*
D03*
X170000Y127500D02*
D03*
Y107500D02*
D03*
Y87500D02*
D03*
X255000Y120000D02*
D03*
Y132500D02*
D03*
X270000Y177500D02*
D03*
X290000D02*
D03*
X330000D02*
D03*
X310000D02*
D03*
X255000Y107500D02*
D03*
X345000D02*
D03*
Y120000D02*
D03*
Y132500D02*
D03*
X62500Y247500D02*
D03*
X45000D02*
D03*
X135000Y230000D02*
D03*
Y210000D02*
D03*
X30000Y932500D02*
D03*
X22000Y803000D02*
D03*
X30000Y1144000D02*
D03*
X17500Y1180500D02*
D03*
X30000Y1193000D02*
D03*
X72500Y1087500D02*
D03*
X62500Y1002500D02*
D03*
Y972500D02*
D03*
X60000Y1087500D02*
D03*
X277500Y1060000D02*
D03*
X276000Y1033000D02*
D03*
Y1017000D02*
D03*
X343000Y823000D02*
D03*
X199000Y987000D02*
D03*
X182000D02*
D03*
X157500Y985000D02*
D03*
X95000Y1010000D02*
D03*
X95000Y1100000D02*
D03*
X95000Y1087500D02*
D03*
X185000Y1112500D02*
D03*
X172500Y1112500D02*
D03*
X129000Y1116000D02*
D03*
X47500Y440000D02*
D03*
Y420000D02*
D03*
X117500Y437500D02*
D03*
Y450000D02*
D03*
X155000Y465000D02*
D03*
X215000Y612500D02*
D03*
Y645000D02*
D03*
X117500Y520000D02*
D03*
X197500Y490000D02*
D03*
X130000Y520000D02*
D03*
X212000Y753000D02*
D03*
X210000Y705000D02*
D03*
X230000Y522500D02*
D03*
X47500Y525000D02*
D03*
Y562500D02*
D03*
X230000Y562500D02*
D03*
X230000Y542500D02*
D03*
X47500D02*
D03*
Y580000D02*
D03*
X230000Y490000D02*
D03*
Y505000D02*
D03*
X263189Y702629D02*
D03*
X315000Y702500D02*
D03*
X295000D02*
D03*
X275000Y497500D02*
D03*
X315000D02*
D03*
D126*
X259763Y852714D02*
D03*
X230500Y829500D02*
D03*
X233000Y753000D02*
D03*
X236000Y760000D02*
D03*
X241000Y826000D02*
D03*
X253500Y829500D02*
D03*
X241000D02*
D03*
X202000Y848000D02*
D03*
X177500Y854498D02*
D03*
X162000Y858000D02*
D03*
X178000Y850998D02*
D03*
X188000Y839000D02*
D03*
X191768Y845000D02*
D03*
X223500Y833000D02*
D03*
X216500D02*
D03*
X223500Y808500D02*
D03*
X220000Y812000D02*
D03*
X237500Y833000D02*
D03*
X227000Y833000D02*
D03*
X241000Y819000D02*
D03*
X227000Y808500D02*
D03*
X241000Y812000D02*
D03*
X216500Y826000D02*
D03*
X223500Y829500D02*
D03*
X241000Y808500D02*
D03*
X234000D02*
D03*
X216500Y836500D02*
D03*
X227000Y829500D02*
D03*
X230500Y808500D02*
D03*
X247999Y807998D02*
D03*
X216500Y822500D02*
D03*
Y829500D02*
D03*
X241000Y822500D02*
D03*
X216500Y819000D02*
D03*
X237500Y822500D02*
D03*
X244000Y792998D02*
D03*
X191000Y797000D02*
D03*
X293000Y844000D02*
D03*
X215000Y885000D02*
D03*
X203000Y884000D02*
D03*
M02*
