G04*
G04 #@! TF.GenerationSoftware,Altium Limited,Altium Designer,19.1.9 (167)*
G04*
G04 Layer_Physical_Order=2*
G04 Layer_Color=7196924*
%FSLAX44Y44*%
%MOMM*%
G71*
G01*
G75*
%ADD11C,0.2000*%
%ADD15C,0.1500*%
%ADD46C,0.3500*%
%ADD105C,0.6000*%
%ADD107C,0.7000*%
%ADD121C,2.0000*%
%ADD124C,2.2000*%
%ADD125C,1.0000*%
%ADD126C,0.2500*%
G36*
X384941Y1246290D02*
X388025Y1245013D01*
X390799Y1243159D01*
X393159Y1240799D01*
X395013Y1238025D01*
X396290Y1234942D01*
X396941Y1231669D01*
X396941Y1230000D01*
Y955000D01*
X330000D01*
Y854000D01*
X396941D01*
Y20000D01*
X396941Y18331D01*
X396290Y15058D01*
X395013Y11975D01*
X393159Y9201D01*
X390799Y6841D01*
X388025Y4987D01*
X384941Y3710D01*
X381669Y3059D01*
X20000D01*
X18331Y3059D01*
X15058Y3710D01*
X11975Y4987D01*
X9201Y6841D01*
X6841Y9201D01*
X4987Y11975D01*
X3710Y15058D01*
X3059Y18331D01*
X3059Y20000D01*
Y1230000D01*
X3059Y1231669D01*
X3710Y1234941D01*
X4987Y1238025D01*
X6841Y1240799D01*
X9201Y1243159D01*
X11975Y1245013D01*
X15058Y1246290D01*
X18331Y1246941D01*
X20000Y1246941D01*
X381669D01*
X384941Y1246290D01*
D02*
G37*
%LPC*%
G36*
X239000Y1236117D02*
X236659Y1235652D01*
X234674Y1234326D01*
X233348Y1232341D01*
X233147Y1231332D01*
X231853D01*
X231652Y1232341D01*
X230326Y1234326D01*
X228341Y1235652D01*
X226000Y1236117D01*
X223659Y1235652D01*
X221674Y1234326D01*
X220348Y1232341D01*
X219883Y1230000D01*
X220348Y1227659D01*
X221674Y1225674D01*
X223659Y1224348D01*
X226000Y1223883D01*
X228341Y1224348D01*
X230326Y1225674D01*
X231652Y1227659D01*
X231853Y1228668D01*
X233147D01*
X233348Y1227659D01*
X234674Y1225674D01*
X236659Y1224348D01*
X239000Y1223883D01*
X241341Y1224348D01*
X243326Y1225674D01*
X244652Y1227659D01*
X245117Y1230000D01*
X244652Y1232341D01*
X243326Y1234326D01*
X241341Y1235652D01*
X239000Y1236117D01*
D02*
G37*
G36*
X130000Y1229078D02*
X127650Y1228768D01*
X125461Y1227861D01*
X123581Y1226419D01*
X122139Y1224539D01*
X121232Y1222349D01*
X120922Y1220000D01*
X121232Y1217651D01*
X122139Y1215461D01*
X123581Y1213581D01*
X125461Y1212139D01*
X127650Y1211232D01*
X130000Y1210922D01*
X132349Y1211232D01*
X134539Y1212139D01*
X136419Y1213581D01*
X137861Y1215461D01*
X138768Y1217651D01*
X139078Y1220000D01*
X138768Y1222349D01*
X137861Y1224539D01*
X136419Y1226419D01*
X134539Y1227861D01*
X132349Y1228768D01*
X130000Y1229078D01*
D02*
G37*
G36*
X97500D02*
X95150Y1228768D01*
X92961Y1227861D01*
X91081Y1226419D01*
X89639Y1224539D01*
X88732Y1222349D01*
X88422Y1220000D01*
X88732Y1217651D01*
X89639Y1215461D01*
X91081Y1213581D01*
X92961Y1212139D01*
X95150Y1211232D01*
X97500Y1210922D01*
X99850Y1211232D01*
X102039Y1212139D01*
X103919Y1213581D01*
X105361Y1215461D01*
X106268Y1217651D01*
X106578Y1220000D01*
X106268Y1222349D01*
X105361Y1224539D01*
X103919Y1226419D01*
X102039Y1227861D01*
X99850Y1228768D01*
X97500Y1229078D01*
D02*
G37*
G36*
X65000D02*
X62650Y1228768D01*
X60461Y1227861D01*
X58581Y1226419D01*
X57139Y1224539D01*
X56232Y1222349D01*
X55922Y1220000D01*
X56232Y1217651D01*
X57139Y1215461D01*
X58581Y1213581D01*
X60461Y1212139D01*
X62650Y1211232D01*
X65000Y1210922D01*
X67349Y1211232D01*
X69539Y1212139D01*
X71419Y1213581D01*
X72861Y1215461D01*
X73768Y1217651D01*
X74078Y1220000D01*
X73768Y1222349D01*
X72861Y1224539D01*
X71419Y1226419D01*
X69539Y1227861D01*
X67349Y1228768D01*
X65000Y1229078D01*
D02*
G37*
G36*
X32500D02*
X30150Y1228768D01*
X27961Y1227861D01*
X26081Y1226419D01*
X24639Y1224539D01*
X23732Y1222349D01*
X23422Y1220000D01*
X23732Y1217651D01*
X24639Y1215461D01*
X26081Y1213581D01*
X27961Y1212139D01*
X30150Y1211232D01*
X32500Y1210922D01*
X34849Y1211232D01*
X37039Y1212139D01*
X38919Y1213581D01*
X40361Y1215461D01*
X41268Y1217651D01*
X41578Y1220000D01*
X41268Y1222349D01*
X40361Y1224539D01*
X38919Y1226419D01*
X37039Y1227861D01*
X34849Y1228768D01*
X32500Y1229078D01*
D02*
G37*
G36*
X100000Y1204118D02*
X97659Y1203652D01*
X95674Y1202326D01*
X94348Y1200341D01*
X93883Y1198000D01*
X94348Y1195659D01*
X95674Y1193674D01*
X97659Y1192348D01*
X100000Y1191882D01*
X102341Y1192348D01*
X104326Y1193674D01*
X105652Y1195659D01*
X106117Y1198000D01*
X105652Y1200341D01*
X104326Y1202326D01*
X102341Y1203652D01*
X100000Y1204118D01*
D02*
G37*
G36*
X59000D02*
X56659Y1203652D01*
X54674Y1202326D01*
X53348Y1200341D01*
X52882Y1198000D01*
X53348Y1195659D01*
X54674Y1193674D01*
X56659Y1192348D01*
X59000Y1191882D01*
X61341Y1192348D01*
X63326Y1193674D01*
X64652Y1195659D01*
X65118Y1198000D01*
X64652Y1200341D01*
X63326Y1202326D01*
X61341Y1203652D01*
X59000Y1204118D01*
D02*
G37*
G36*
X145000Y1200117D02*
X142659Y1199652D01*
X140674Y1198326D01*
X139348Y1196341D01*
X138883Y1194000D01*
X139348Y1191659D01*
X140674Y1189674D01*
X142659Y1188348D01*
X145000Y1187883D01*
X147341Y1188348D01*
X149326Y1189674D01*
X150652Y1191659D01*
X151117Y1194000D01*
X150652Y1196341D01*
X149326Y1198326D01*
X147341Y1199652D01*
X145000Y1200117D01*
D02*
G37*
G36*
X30000Y1199118D02*
X27659Y1198652D01*
X25674Y1197326D01*
X24348Y1195341D01*
X23883Y1193000D01*
X24348Y1190659D01*
X25674Y1188674D01*
X27659Y1187348D01*
X30000Y1186882D01*
X32341Y1187348D01*
X34326Y1188674D01*
X35652Y1190659D01*
X36117Y1193000D01*
X35652Y1195341D01*
X34326Y1197326D01*
X32341Y1198652D01*
X30000Y1199118D01*
D02*
G37*
G36*
X17500Y1186618D02*
X15159Y1186152D01*
X13174Y1184826D01*
X11848Y1182841D01*
X11382Y1180500D01*
X11848Y1178159D01*
X13174Y1176174D01*
X15159Y1174848D01*
X17500Y1174382D01*
X19841Y1174848D01*
X21826Y1176174D01*
X23152Y1178159D01*
X23617Y1180500D01*
X23152Y1182841D01*
X21826Y1184826D01*
X19841Y1186152D01*
X17500Y1186618D01*
D02*
G37*
G36*
X218000Y1164843D02*
Y1163000D01*
X219843D01*
X219105Y1164105D01*
X218000Y1164843D01*
D02*
G37*
G36*
X195000Y1164843D02*
X193895Y1164105D01*
X193157Y1163000D01*
X195000D01*
Y1164843D01*
D02*
G37*
G36*
X212000Y1164843D02*
Y1160500D01*
X207000D01*
Y1164843D01*
X206500Y1164509D01*
X206000Y1164843D01*
Y1160500D01*
X201000D01*
Y1164843D01*
X200500Y1164509D01*
X200000Y1164843D01*
Y1160500D01*
X197500D01*
Y1158000D01*
X193157D01*
X193491Y1157500D01*
X193157Y1157000D01*
X197500D01*
Y1154500D01*
X200000D01*
Y1150157D01*
X200500Y1150491D01*
X201000Y1150157D01*
Y1154500D01*
X206000D01*
Y1150157D01*
X206500Y1150491D01*
X207000Y1150157D01*
Y1154500D01*
X212000D01*
Y1150157D01*
X212500Y1150491D01*
X213000Y1150157D01*
Y1154500D01*
X215500D01*
Y1157000D01*
X219843D01*
X219509Y1157500D01*
X219843Y1158000D01*
X215500D01*
Y1160500D01*
X213000D01*
Y1164843D01*
X212500Y1164509D01*
X212000Y1164843D01*
D02*
G37*
G36*
X195000Y1152000D02*
X193157D01*
X193895Y1150895D01*
X195000Y1150157D01*
Y1152000D01*
D02*
G37*
G36*
X219843D02*
X218000D01*
Y1150157D01*
X219105Y1150895D01*
X219843Y1152000D01*
D02*
G37*
G36*
X233000Y1149118D02*
X230659Y1148652D01*
X228674Y1147326D01*
X227348Y1145341D01*
X226882Y1143000D01*
X227348Y1140659D01*
X228674Y1138674D01*
X230659Y1137348D01*
X233000Y1136882D01*
X235341Y1137348D01*
X237326Y1138674D01*
X238652Y1140659D01*
X239118Y1143000D01*
X238652Y1145341D01*
X237326Y1147326D01*
X235341Y1148652D01*
X233000Y1149118D01*
D02*
G37*
G36*
X72500Y1106117D02*
X70159Y1105652D01*
X68174Y1104326D01*
X66924Y1102455D01*
X66250Y1102395D01*
X65576Y1102455D01*
X64326Y1104326D01*
X62341Y1105652D01*
X60000Y1106117D01*
X57659Y1105652D01*
X55674Y1104326D01*
X54424Y1102455D01*
X53750Y1102395D01*
X53076Y1102455D01*
X51826Y1104326D01*
X49841Y1105652D01*
X47500Y1106117D01*
X45159Y1105652D01*
X43174Y1104326D01*
X41848Y1102341D01*
X41382Y1100000D01*
X41848Y1097659D01*
X43174Y1095674D01*
X45045Y1094424D01*
X45105Y1093750D01*
X45045Y1093076D01*
X43174Y1091826D01*
X41848Y1089841D01*
X41382Y1087500D01*
X41848Y1085159D01*
X43174Y1083174D01*
X45159Y1081848D01*
X47500Y1081383D01*
X49841Y1081848D01*
X51826Y1083174D01*
X53076Y1085045D01*
X53750Y1085105D01*
X54424Y1085045D01*
X55674Y1083174D01*
X57659Y1081848D01*
X60000Y1081383D01*
X62341Y1081848D01*
X64326Y1083174D01*
X65576Y1085045D01*
X66250Y1085105D01*
X66924Y1085045D01*
X68174Y1083174D01*
X70159Y1081848D01*
X72500Y1081383D01*
X74841Y1081848D01*
X76826Y1083174D01*
X78152Y1085159D01*
X78618Y1087500D01*
X78152Y1089841D01*
X76826Y1091826D01*
X74955Y1093076D01*
X74895Y1093750D01*
X74955Y1094424D01*
X76826Y1095674D01*
X78152Y1097659D01*
X78618Y1100000D01*
X78152Y1102341D01*
X76826Y1104326D01*
X74841Y1105652D01*
X72500Y1106117D01*
D02*
G37*
G36*
X285000Y1103617D02*
X282659Y1103152D01*
X280674Y1101826D01*
X279348Y1099841D01*
X278882Y1097500D01*
X279348Y1095159D01*
X280674Y1093174D01*
X282659Y1091848D01*
X285000Y1091383D01*
X287341Y1091848D01*
X289326Y1093174D01*
X290652Y1095159D01*
X291117Y1097500D01*
X290652Y1099841D01*
X289326Y1101826D01*
X287341Y1103152D01*
X285000Y1103617D01*
D02*
G37*
G36*
X62500Y1008617D02*
X60159Y1008152D01*
X58174Y1006826D01*
X56848Y1004841D01*
X56382Y1002500D01*
X56848Y1000159D01*
X58174Y998174D01*
X60159Y996848D01*
X62500Y996383D01*
X64841Y996848D01*
X66826Y998174D01*
X68152Y1000159D01*
X68618Y1002500D01*
X68152Y1004841D01*
X66826Y1006826D01*
X64841Y1008152D01*
X62500Y1008617D01*
D02*
G37*
G36*
X47500D02*
X45159Y1008152D01*
X43174Y1006826D01*
X41848Y1004841D01*
X41382Y1002500D01*
X41848Y1000159D01*
X43174Y998174D01*
X45159Y996848D01*
X47500Y996383D01*
X49841Y996848D01*
X51826Y998174D01*
X53152Y1000159D01*
X53618Y1002500D01*
X53152Y1004841D01*
X51826Y1006826D01*
X49841Y1008152D01*
X47500Y1008617D01*
D02*
G37*
G36*
X62500Y993617D02*
X60159Y993152D01*
X58174Y991826D01*
X56848Y989841D01*
X56382Y987500D01*
X56848Y985159D01*
X58174Y983174D01*
X60159Y981848D01*
X62500Y981383D01*
X64841Y981848D01*
X66826Y983174D01*
X68152Y985159D01*
X68618Y987500D01*
X68152Y989841D01*
X66826Y991826D01*
X64841Y993152D01*
X62500Y993617D01*
D02*
G37*
G36*
X47500D02*
X45159Y993152D01*
X43174Y991826D01*
X41848Y989841D01*
X41382Y987500D01*
X41848Y985159D01*
X43174Y983174D01*
X45159Y981848D01*
X47500Y981383D01*
X49841Y981848D01*
X51826Y983174D01*
X53152Y985159D01*
X53618Y987500D01*
X53152Y989841D01*
X51826Y991826D01*
X49841Y993152D01*
X47500Y993617D01*
D02*
G37*
G36*
X264000Y982117D02*
X261659Y981652D01*
X259674Y980326D01*
X258348Y978341D01*
X257882Y976000D01*
X258348Y973659D01*
X259674Y971674D01*
X261659Y970348D01*
X264000Y969883D01*
X266341Y970348D01*
X268326Y971674D01*
X269652Y973659D01*
X270117Y976000D01*
X269652Y978341D01*
X268326Y980326D01*
X266341Y981652D01*
X264000Y982117D01*
D02*
G37*
G36*
X62500Y978617D02*
X60159Y978152D01*
X58174Y976826D01*
X56848Y974841D01*
X56382Y972500D01*
X56848Y970159D01*
X58174Y968174D01*
X60159Y966848D01*
X62500Y966383D01*
X64841Y966848D01*
X66826Y968174D01*
X68152Y970159D01*
X68618Y972500D01*
X68152Y974841D01*
X66826Y976826D01*
X64841Y978152D01*
X62500Y978617D01*
D02*
G37*
G36*
X47500D02*
X45159Y978152D01*
X43174Y976826D01*
X41848Y974841D01*
X41382Y972500D01*
X41848Y970159D01*
X43174Y968174D01*
X45159Y966848D01*
X47500Y966383D01*
X49841Y966848D01*
X51826Y968174D01*
X53152Y970159D01*
X53618Y972500D01*
X53152Y974841D01*
X51826Y976826D01*
X49841Y978152D01*
X47500Y978617D01*
D02*
G37*
G36*
X265000Y961117D02*
X262659Y960652D01*
X260674Y959326D01*
X259348Y957341D01*
X258883Y955000D01*
X259348Y952659D01*
X260674Y950674D01*
X262659Y949348D01*
X265000Y948883D01*
X267341Y949348D01*
X269326Y950674D01*
X270652Y952659D01*
X271117Y955000D01*
X270652Y957341D01*
X269326Y959326D01*
X267341Y960652D01*
X265000Y961117D01*
D02*
G37*
G36*
X232000Y953118D02*
X229659Y952652D01*
X227674Y951326D01*
X226348Y949341D01*
X225882Y947000D01*
X226348Y944659D01*
X227674Y942674D01*
X229659Y941348D01*
X232000Y940882D01*
X234341Y941348D01*
X236326Y942674D01*
X237652Y944659D01*
X238118Y947000D01*
X237652Y949341D01*
X236326Y951326D01*
X234341Y952652D01*
X232000Y953118D01*
D02*
G37*
G36*
X40000Y907117D02*
X37659Y906652D01*
X35674Y905326D01*
X34348Y903341D01*
X33883Y901000D01*
X34348Y898659D01*
X35674Y896674D01*
X37659Y895348D01*
X40000Y894883D01*
X42341Y895348D01*
X44326Y896674D01*
X45652Y898659D01*
X46118Y901000D01*
X45652Y903341D01*
X44326Y905326D01*
X42341Y906652D01*
X40000Y907117D01*
D02*
G37*
G36*
X144000Y904118D02*
X141659Y903652D01*
X139674Y902326D01*
X138348Y900341D01*
X137882Y898000D01*
X138348Y895659D01*
X139674Y893674D01*
X141659Y892348D01*
X144000Y891882D01*
X146341Y892348D01*
X148326Y893674D01*
X149652Y895659D01*
X150118Y898000D01*
X149652Y900341D01*
X148326Y902326D01*
X146341Y903652D01*
X144000Y904118D01*
D02*
G37*
G36*
X215000Y887294D02*
X214122Y887119D01*
X213378Y886622D01*
X212881Y885878D01*
X212706Y885000D01*
X212881Y884122D01*
X213378Y883378D01*
X214122Y882881D01*
X215000Y882706D01*
X215878Y882881D01*
X216622Y883378D01*
X217119Y884122D01*
X217294Y885000D01*
X217119Y885878D01*
X216622Y886622D01*
X215878Y887119D01*
X215000Y887294D01*
D02*
G37*
G36*
X203000Y886294D02*
X202122Y886119D01*
X201378Y885622D01*
X200881Y884878D01*
X200706Y884000D01*
X200881Y883122D01*
X201378Y882378D01*
X202122Y881881D01*
X203000Y881706D01*
X203878Y881881D01*
X204622Y882378D01*
X205119Y883122D01*
X205294Y884000D01*
X205119Y884878D01*
X204622Y885622D01*
X203878Y886119D01*
X203000Y886294D01*
D02*
G37*
G36*
X184000Y872117D02*
X181659Y871652D01*
X179674Y870326D01*
X178348Y868341D01*
X177882Y866000D01*
X178348Y863659D01*
X179674Y861674D01*
X181659Y860348D01*
X184000Y859883D01*
X186341Y860348D01*
X188326Y861674D01*
X189652Y863659D01*
X190117Y866000D01*
X189652Y868341D01*
X188326Y870326D01*
X186341Y871652D01*
X184000Y872117D01*
D02*
G37*
G36*
X162000Y860294D02*
X161122Y860119D01*
X160378Y859622D01*
X159881Y858878D01*
X159706Y858000D01*
X159881Y857122D01*
X160378Y856378D01*
X161122Y855881D01*
X162000Y855706D01*
X162878Y855881D01*
X163622Y856378D01*
X164119Y857122D01*
X164294Y858000D01*
X164119Y858878D01*
X163622Y859622D01*
X162878Y860119D01*
X162000Y860294D01*
D02*
G37*
G36*
X259763Y855008D02*
X258885Y854833D01*
X258141Y854336D01*
X257644Y853592D01*
X257469Y852714D01*
X257644Y851836D01*
X258141Y851092D01*
X258885Y850594D01*
X259763Y850420D01*
X260641Y850594D01*
X261385Y851092D01*
X261882Y851836D01*
X262057Y852714D01*
X261882Y853592D01*
X261385Y854336D01*
X260641Y854833D01*
X259763Y855008D01*
D02*
G37*
G36*
X177500Y856792D02*
X176622Y856618D01*
X175878Y856120D01*
X175380Y855376D01*
X175206Y854498D01*
X175380Y853620D01*
X175878Y852876D01*
X176341Y852566D01*
X175880Y851876D01*
X175706Y850998D01*
X175880Y850120D01*
X176378Y849376D01*
X177122Y848879D01*
X178000Y848704D01*
X178878Y848879D01*
X179622Y849376D01*
X180119Y850120D01*
X180294Y850998D01*
X180119Y851876D01*
X179622Y852620D01*
X179158Y852930D01*
X179619Y853620D01*
X179794Y854498D01*
X179619Y855376D01*
X179122Y856120D01*
X178378Y856618D01*
X177500Y856792D01*
D02*
G37*
G36*
X202000Y850294D02*
X201122Y850119D01*
X200378Y849622D01*
X199881Y848878D01*
X199706Y848000D01*
X199881Y847122D01*
X200378Y846378D01*
X201122Y845881D01*
X202000Y845706D01*
X202878Y845881D01*
X203622Y846378D01*
X204119Y847122D01*
X204294Y848000D01*
X204119Y848878D01*
X203622Y849622D01*
X202878Y850119D01*
X202000Y850294D01*
D02*
G37*
G36*
X227000Y857117D02*
X224659Y856652D01*
X222674Y855326D01*
X221348Y853341D01*
X220882Y851000D01*
X221348Y848659D01*
X222674Y846674D01*
X224659Y845348D01*
X227000Y844882D01*
X229341Y845348D01*
X231326Y846674D01*
X232652Y848659D01*
X233118Y851000D01*
X232652Y853341D01*
X231326Y855326D01*
X229341Y856652D01*
X227000Y857117D01*
D02*
G37*
G36*
X191768Y847294D02*
X190890Y847119D01*
X190146Y846622D01*
X189648Y845878D01*
X189474Y845000D01*
X189648Y844122D01*
X190146Y843378D01*
X190890Y842881D01*
X191768Y842706D01*
X192646Y842881D01*
X193390Y843378D01*
X193887Y844122D01*
X194062Y845000D01*
X193887Y845878D01*
X193390Y846622D01*
X192646Y847119D01*
X191768Y847294D01*
D02*
G37*
G36*
X293000Y846294D02*
X292122Y846119D01*
X291378Y845622D01*
X290881Y844878D01*
X290706Y844000D01*
X290881Y843122D01*
X291378Y842378D01*
X292122Y841881D01*
X293000Y841706D01*
X293878Y841881D01*
X294622Y842378D01*
X295119Y843122D01*
X295294Y844000D01*
X295119Y844878D01*
X294622Y845622D01*
X293878Y846119D01*
X293000Y846294D01*
D02*
G37*
G36*
X219121Y843784D02*
X207000D01*
X206317Y843649D01*
X205738Y843262D01*
X203261Y840784D01*
X189380D01*
X188878Y841119D01*
X188000Y841294D01*
X187122Y841119D01*
X186378Y840622D01*
X185881Y839878D01*
X185706Y839000D01*
X185881Y838122D01*
X186378Y837378D01*
X187122Y836881D01*
X188000Y836706D01*
X188878Y836881D01*
X189380Y837216D01*
X204000D01*
X204683Y837352D01*
X205262Y837738D01*
X207739Y840216D01*
X216992D01*
X217058Y839978D01*
X216913Y839671D01*
X216091Y838713D01*
X215622Y838619D01*
X214878Y838122D01*
X214381Y837378D01*
X214206Y836500D01*
X214381Y835622D01*
X214878Y834878D01*
Y834622D01*
X214381Y833878D01*
X214206Y833000D01*
X214381Y832122D01*
X214814Y831250D01*
X214381Y830378D01*
X214206Y829500D01*
X214381Y828622D01*
X214878Y827878D01*
Y827622D01*
X214381Y826878D01*
X214206Y826000D01*
X214381Y825122D01*
X214878Y824378D01*
Y824122D01*
X214381Y823378D01*
X214206Y822500D01*
X214381Y821622D01*
X214878Y820878D01*
Y820622D01*
X214381Y819878D01*
X214206Y819000D01*
X214381Y818122D01*
X214878Y817378D01*
X215622Y816881D01*
X216500Y816706D01*
X216717Y816749D01*
X217749Y815717D01*
X217706Y815500D01*
X217881Y814622D01*
X218378Y813878D01*
Y813622D01*
X217881Y812878D01*
X217706Y812000D01*
X217881Y811122D01*
X218378Y810378D01*
X219122Y809881D01*
X220000Y809706D01*
X220217Y809749D01*
X221249Y808717D01*
X221206Y808500D01*
X221381Y807622D01*
X221878Y806878D01*
X222622Y806381D01*
X223500Y806206D01*
X224378Y806381D01*
X225122Y806878D01*
X225378D01*
X226122Y806381D01*
X227000Y806206D01*
X227878Y806381D01*
X228622Y806878D01*
X228878D01*
X229622Y806381D01*
X230500Y806206D01*
X231378Y806381D01*
X232122Y806878D01*
X232378D01*
X233122Y806381D01*
X234000Y806206D01*
X234878Y806381D01*
X235622Y806878D01*
X236119Y807622D01*
X236294Y808500D01*
X236119Y809378D01*
X235622Y810122D01*
X234878Y810619D01*
X234000Y810794D01*
X233122Y810619D01*
X232378Y810122D01*
X232122D01*
X231378Y810619D01*
X230500Y810794D01*
X229622Y810619D01*
X228878Y810122D01*
X228622D01*
X227878Y810619D01*
X227000Y810794D01*
X226122Y810619D01*
X225378Y810122D01*
X225122D01*
X224378Y810619D01*
X223500Y810794D01*
X223283Y810751D01*
X222251Y811783D01*
X222294Y812000D01*
X222119Y812878D01*
X221622Y813622D01*
Y813878D01*
X222119Y814622D01*
X222294Y815500D01*
X222119Y816378D01*
X221622Y817122D01*
Y817378D01*
X222119Y818122D01*
X222294Y819000D01*
X222119Y819878D01*
X221622Y820622D01*
X220878Y821119D01*
X220000Y821294D01*
X219783Y821251D01*
X218751Y822282D01*
X218794Y822500D01*
X218619Y823378D01*
X218122Y824122D01*
Y824378D01*
X218619Y825122D01*
X218794Y826000D01*
X218619Y826878D01*
X218122Y827622D01*
Y827878D01*
X218619Y828622D01*
X218794Y829500D01*
X219867Y830159D01*
X220133D01*
X221206Y829500D01*
X221381Y828622D01*
X221878Y827878D01*
X222622Y827381D01*
X223500Y827206D01*
X224378Y827381D01*
X225122Y827878D01*
X225378D01*
X226122Y827381D01*
X227000Y827206D01*
X227878Y827381D01*
X228622Y827878D01*
X228878D01*
X229622Y827381D01*
X230500Y827206D01*
X231378Y827381D01*
X232122Y827878D01*
X232619Y828622D01*
X232794Y829500D01*
X232619Y830378D01*
X232122Y831122D01*
X231378Y831619D01*
X230500Y831794D01*
X230282Y831751D01*
X229251Y832783D01*
X229294Y833000D01*
X229119Y833878D01*
X228622Y834622D01*
X227878Y835119D01*
X227000Y835294D01*
X226122Y835119D01*
X225378Y834622D01*
X225122D01*
X224378Y835119D01*
X223500Y835294D01*
X223054Y835205D01*
X221995Y835844D01*
X221784Y836087D01*
Y841121D01*
X221649Y841804D01*
X221262Y842383D01*
X220383Y843262D01*
X219804Y843649D01*
X219121Y843784D01*
D02*
G37*
G36*
X179000Y840117D02*
X176659Y839652D01*
X174674Y838326D01*
X173348Y836341D01*
X172882Y834000D01*
X173348Y831659D01*
X174674Y829674D01*
X176659Y828348D01*
X179000Y827883D01*
X181341Y828348D01*
X183326Y829674D01*
X184652Y831659D01*
X185117Y834000D01*
X184652Y836341D01*
X183326Y838326D01*
X181341Y839652D01*
X179000Y840117D01*
D02*
G37*
G36*
X237500Y835294D02*
X236622Y835119D01*
X235878Y834622D01*
X235381Y833878D01*
X235206Y833000D01*
X235381Y832122D01*
X235878Y831378D01*
X236622Y830881D01*
X237500Y830706D01*
X237717Y830749D01*
X238736Y829731D01*
X238744Y829691D01*
X238706Y829500D01*
X238881Y828622D01*
X239378Y827878D01*
Y827622D01*
X238881Y826878D01*
X238706Y826000D01*
X238749Y825782D01*
X237717Y824751D01*
X237500Y824794D01*
X236622Y824619D01*
X235878Y824122D01*
X235381Y823378D01*
X235206Y822500D01*
X235381Y821622D01*
X235878Y820878D01*
X236622Y820381D01*
X237500Y820206D01*
X237717Y820249D01*
X238749Y819218D01*
X238706Y819000D01*
X238881Y818122D01*
X239378Y817378D01*
X240122Y816881D01*
X241000Y816706D01*
X241878Y816881D01*
X242622Y817378D01*
X243120Y818122D01*
X243294Y819000D01*
X243120Y819878D01*
X242622Y820622D01*
Y820878D01*
X243120Y821622D01*
X243294Y822500D01*
X243120Y823378D01*
X242622Y824122D01*
Y824378D01*
X243120Y825122D01*
X243294Y826000D01*
X243120Y826878D01*
X242622Y827622D01*
Y827878D01*
X243120Y828622D01*
X243294Y829500D01*
X243256Y829691D01*
X243981Y830731D01*
X244952Y830787D01*
X245960Y829819D01*
Y808996D01*
X245880Y808876D01*
X245706Y807998D01*
X245880Y807121D01*
X246377Y806376D01*
X247122Y805879D01*
X247999Y805704D01*
X248877Y805879D01*
X249622Y806376D01*
X250119Y807121D01*
X250294Y807998D01*
X250119Y808876D01*
X250039Y808996D01*
Y827606D01*
X250074Y828862D01*
X250074Y828862D01*
Y828862D01*
X251309Y828984D01*
X251381Y828622D01*
X251878Y827878D01*
X252622Y827381D01*
X253500Y827206D01*
X254378Y827381D01*
X255122Y827878D01*
X255620Y828622D01*
X255794Y829500D01*
X255620Y830378D01*
X255122Y831122D01*
X254378Y831619D01*
X253500Y831794D01*
X252622Y831619D01*
X251878Y831122D01*
X251381Y830378D01*
X251309Y830016D01*
X250074Y830138D01*
Y830138D01*
X250074Y830138D01*
X250039Y831001D01*
X249966Y831364D01*
X249883Y831781D01*
X249441Y832442D01*
X249441Y832442D01*
X247442Y834442D01*
X246780Y834884D01*
X246000Y835039D01*
X238498D01*
X238378Y835119D01*
X237500Y835294D01*
D02*
G37*
G36*
X265000Y833118D02*
X262659Y832652D01*
X260674Y831326D01*
X259348Y829341D01*
X258883Y827000D01*
X259348Y824659D01*
X260674Y822674D01*
X262659Y821348D01*
X265000Y820882D01*
X267341Y821348D01*
X269326Y822674D01*
X270652Y824659D01*
X271117Y827000D01*
X270652Y829341D01*
X269326Y831326D01*
X267341Y832652D01*
X265000Y833118D01*
D02*
G37*
G36*
X241000Y814294D02*
X240122Y814119D01*
X239378Y813622D01*
X238881Y812878D01*
X238706Y812000D01*
X238881Y811122D01*
X239378Y810378D01*
Y810122D01*
X238881Y809378D01*
X238706Y808500D01*
X238881Y807622D01*
X239378Y806878D01*
X240122Y806381D01*
X241000Y806206D01*
X241878Y806381D01*
X242622Y806878D01*
X243120Y807622D01*
X243294Y808500D01*
X243120Y809378D01*
X242622Y810122D01*
Y810378D01*
X243120Y811122D01*
X243294Y812000D01*
X243120Y812878D01*
X242622Y813622D01*
X241878Y814119D01*
X241000Y814294D01*
D02*
G37*
G36*
X361000Y821078D02*
X358651Y820768D01*
X356461Y819862D01*
X354581Y818419D01*
X353139Y816539D01*
X352232Y814350D01*
X351922Y812000D01*
X352232Y809650D01*
X353139Y807461D01*
X354581Y805581D01*
X356461Y804138D01*
X358651Y803232D01*
X361000Y802922D01*
X363349Y803232D01*
X365539Y804138D01*
X367419Y805581D01*
X368861Y807461D01*
X369768Y809650D01*
X370078Y812000D01*
X369768Y814350D01*
X368861Y816539D01*
X367419Y818419D01*
X365539Y819862D01*
X363349Y820768D01*
X361000Y821078D01*
D02*
G37*
G36*
X191000Y799294D02*
X190122Y799119D01*
X189378Y798622D01*
X188881Y797878D01*
X188706Y797000D01*
X188881Y796122D01*
X189378Y795378D01*
X190122Y794881D01*
X191000Y794706D01*
X191878Y794881D01*
X192622Y795378D01*
X193119Y796122D01*
X193294Y797000D01*
X193119Y797878D01*
X192622Y798622D01*
X191878Y799119D01*
X191000Y799294D01*
D02*
G37*
G36*
X244000Y795293D02*
X243122Y795118D01*
X242377Y794621D01*
X241880Y793876D01*
X241705Y792998D01*
X241880Y792121D01*
X242377Y791376D01*
X243122Y790879D01*
X244000Y790704D01*
X244877Y790879D01*
X245622Y791376D01*
X246119Y792121D01*
X246294Y792998D01*
X246119Y793876D01*
X245622Y794621D01*
X244877Y795118D01*
X244000Y795293D01*
D02*
G37*
G36*
X291000Y802117D02*
X288659Y801652D01*
X286674Y800326D01*
X285348Y798341D01*
X284883Y796000D01*
X285348Y793659D01*
X286674Y791674D01*
X288659Y790348D01*
X291000Y789883D01*
X293341Y790348D01*
X295326Y791674D01*
X296652Y793659D01*
X297118Y796000D01*
X296652Y798341D01*
X295326Y800326D01*
X293341Y801652D01*
X291000Y802117D01*
D02*
G37*
G36*
X263000Y800118D02*
X260659Y799652D01*
X258674Y798326D01*
X257348Y796341D01*
X256882Y794000D01*
X257348Y791659D01*
X258674Y789674D01*
X260659Y788348D01*
X263000Y787883D01*
X265341Y788348D01*
X267326Y789674D01*
X268652Y791659D01*
X269118Y794000D01*
X268652Y796341D01*
X267326Y798326D01*
X265341Y799652D01*
X263000Y800118D01*
D02*
G37*
G36*
X224750Y792368D02*
X222409Y791902D01*
X220424Y790576D01*
X219098Y788591D01*
X218633Y786250D01*
X219098Y783909D01*
X220424Y781924D01*
X222409Y780598D01*
X224750Y780133D01*
X227091Y780598D01*
X229076Y781924D01*
X230402Y783909D01*
X230868Y786250D01*
X230402Y788591D01*
X229076Y790576D01*
X227091Y791902D01*
X224750Y792368D01*
D02*
G37*
G36*
X139000Y792117D02*
X136659Y791652D01*
X134674Y790326D01*
X133348Y788341D01*
X132882Y786000D01*
X133348Y783659D01*
X134674Y781674D01*
X136659Y780348D01*
X139000Y779883D01*
X141341Y780348D01*
X143326Y781674D01*
X144652Y783659D01*
X145118Y786000D01*
X144652Y788341D01*
X143326Y790326D01*
X141341Y791652D01*
X139000Y792117D01*
D02*
G37*
G36*
X262500Y778617D02*
X260159Y778152D01*
X258174Y776826D01*
X256848Y774841D01*
X256383Y772500D01*
X256848Y770159D01*
X258174Y768174D01*
X260159Y766848D01*
X262500Y766383D01*
X264841Y766848D01*
X266826Y768174D01*
X268152Y770159D01*
X268617Y772500D01*
X268152Y774841D01*
X266826Y776826D01*
X264841Y778152D01*
X262500Y778617D01*
D02*
G37*
G36*
X54525Y768049D02*
Y758775D01*
X63799D01*
X63716Y759408D01*
X62507Y762327D01*
X60584Y764834D01*
X58077Y766757D01*
X55158Y767966D01*
X54525Y768049D01*
D02*
G37*
G36*
X49525D02*
X48892Y767966D01*
X45973Y766757D01*
X43467Y764834D01*
X41543Y762327D01*
X40334Y759408D01*
X40251Y758775D01*
X49525D01*
Y768049D01*
D02*
G37*
G36*
X236000Y762294D02*
X235122Y762119D01*
X234378Y761622D01*
X233881Y760878D01*
X233706Y760000D01*
X233881Y759122D01*
X234378Y758378D01*
X235122Y757880D01*
X236000Y757706D01*
X236878Y757880D01*
X237622Y758378D01*
X238120Y759122D01*
X238294Y760000D01*
X238120Y760878D01*
X237622Y761622D01*
X236878Y762119D01*
X236000Y762294D01*
D02*
G37*
G36*
X125000Y767117D02*
X122659Y766652D01*
X120674Y765326D01*
X119348Y763341D01*
X118883Y761000D01*
X119348Y758659D01*
X120674Y756674D01*
X122659Y755348D01*
X125000Y754883D01*
X127341Y755348D01*
X129326Y756674D01*
X130652Y758659D01*
X131117Y761000D01*
X130652Y763341D01*
X129326Y765326D01*
X127341Y766652D01*
X125000Y767117D01*
D02*
G37*
G36*
X233000Y755294D02*
X232122Y755119D01*
X231378Y754622D01*
X230881Y753878D01*
X230706Y753000D01*
X230881Y752122D01*
X231378Y751378D01*
X232122Y750881D01*
X233000Y750706D01*
X233878Y750881D01*
X234622Y751378D01*
X235119Y752122D01*
X235294Y753000D01*
X235119Y753878D01*
X234622Y754622D01*
X233878Y755119D01*
X233000Y755294D01*
D02*
G37*
G36*
X152000Y761117D02*
X149659Y760652D01*
X147674Y759326D01*
X146348Y757341D01*
X145883Y755000D01*
X146348Y752659D01*
X147674Y750674D01*
X149659Y749348D01*
X152000Y748882D01*
X154341Y749348D01*
X156326Y750674D01*
X157652Y752659D01*
X158118Y755000D01*
X157652Y757341D01*
X156326Y759326D01*
X154341Y760652D01*
X152000Y761117D01*
D02*
G37*
G36*
X63799Y753775D02*
X54525D01*
Y744501D01*
X55158Y744584D01*
X58077Y745793D01*
X60584Y747717D01*
X62507Y750223D01*
X63716Y753142D01*
X63799Y753775D01*
D02*
G37*
G36*
X49525D02*
X40251D01*
X40334Y753142D01*
X41543Y750223D01*
X43467Y747717D01*
X45973Y745793D01*
X48892Y744584D01*
X49525Y744501D01*
Y753775D01*
D02*
G37*
G36*
X260000Y752117D02*
X257659Y751652D01*
X255674Y750326D01*
X254348Y748341D01*
X253882Y746000D01*
X254348Y743659D01*
X255674Y741674D01*
X257659Y740348D01*
X260000Y739883D01*
X262341Y740348D01*
X264326Y741674D01*
X265652Y743659D01*
X266117Y746000D01*
X265652Y748341D01*
X264326Y750326D01*
X262341Y751652D01*
X260000Y752117D01*
D02*
G37*
G36*
X129000Y749118D02*
X126659Y748652D01*
X124674Y747326D01*
X123348Y745341D01*
X122882Y743000D01*
X123348Y740659D01*
X124674Y738674D01*
X126659Y737348D01*
X129000Y736882D01*
X131341Y737348D01*
X133326Y738674D01*
X134652Y740659D01*
X135118Y743000D01*
X134652Y745341D01*
X133326Y747326D01*
X131341Y748652D01*
X129000Y749118D01*
D02*
G37*
G36*
X312500Y748617D02*
X310159Y748152D01*
X308174Y746826D01*
X306848Y744841D01*
X306383Y742500D01*
X306848Y740159D01*
X308174Y738174D01*
X310159Y736848D01*
X312500Y736382D01*
X314841Y736848D01*
X316826Y738174D01*
X318152Y740159D01*
X318617Y742500D01*
X318152Y744841D01*
X316826Y746826D01*
X314841Y748152D01*
X312500Y748617D01*
D02*
G37*
G36*
X162000Y746117D02*
X159659Y745652D01*
X157674Y744326D01*
X156348Y742341D01*
X155883Y740000D01*
X156348Y737659D01*
X157674Y735674D01*
X159659Y734348D01*
X162000Y733883D01*
X164341Y734348D01*
X166326Y735674D01*
X167652Y737659D01*
X168118Y740000D01*
X167652Y742341D01*
X166326Y744326D01*
X164341Y745652D01*
X162000Y746117D01*
D02*
G37*
G36*
X52025Y741970D02*
X49153Y741592D01*
X46477Y740483D01*
X44180Y738720D01*
X42417Y736423D01*
X41308Y733747D01*
X40930Y730875D01*
X41308Y728003D01*
X42417Y725328D01*
X44180Y723030D01*
X46477Y721266D01*
X49153Y720158D01*
X52025Y719780D01*
X54897Y720158D01*
X57572Y721266D01*
X59870Y723030D01*
X61634Y725328D01*
X62742Y728003D01*
X63120Y730875D01*
X62742Y733747D01*
X61634Y736423D01*
X59870Y738720D01*
X57572Y740483D01*
X54897Y741592D01*
X52025Y741970D01*
D02*
G37*
G36*
X124000Y722117D02*
X121659Y721652D01*
X119674Y720326D01*
X118348Y718341D01*
X117882Y716000D01*
X118348Y713659D01*
X119674Y711674D01*
X121659Y710348D01*
X124000Y709883D01*
X126341Y710348D01*
X128326Y711674D01*
X129652Y713659D01*
X130118Y716000D01*
X129652Y718341D01*
X128326Y720326D01*
X126341Y721652D01*
X124000Y722117D01*
D02*
G37*
G36*
X315000Y708617D02*
X312659Y708152D01*
X310674Y706826D01*
X309348Y704841D01*
X308883Y702500D01*
X309348Y700159D01*
X310674Y698174D01*
X312659Y696848D01*
X315000Y696383D01*
X317341Y696848D01*
X319326Y698174D01*
X320652Y700159D01*
X321118Y702500D01*
X320652Y704841D01*
X319326Y706826D01*
X317341Y708152D01*
X315000Y708617D01*
D02*
G37*
G36*
X295000D02*
X292659Y708152D01*
X290674Y706826D01*
X289348Y704841D01*
X288883Y702500D01*
X289348Y700159D01*
X290674Y698174D01*
X292659Y696848D01*
X295000Y696383D01*
X297341Y696848D01*
X299326Y698174D01*
X300652Y700159D01*
X301118Y702500D01*
X300652Y704841D01*
X299326Y706826D01*
X297341Y708152D01*
X295000Y708617D01*
D02*
G37*
G36*
X52025Y716570D02*
X49153Y716192D01*
X46477Y715083D01*
X44180Y713320D01*
X42417Y711022D01*
X41308Y708347D01*
X40930Y705475D01*
X41308Y702603D01*
X42417Y699928D01*
X44180Y697630D01*
X46477Y695866D01*
X49153Y694758D01*
X52025Y694380D01*
X54897Y694758D01*
X57572Y695866D01*
X59870Y697630D01*
X61634Y699928D01*
X62742Y702603D01*
X63120Y705475D01*
X62742Y708347D01*
X61634Y711022D01*
X59870Y713320D01*
X57572Y715083D01*
X54897Y716192D01*
X52025Y716570D01*
D02*
G37*
G36*
X248000Y696117D02*
X245659Y695652D01*
X243674Y694326D01*
X242348Y692341D01*
X241882Y690000D01*
X242348Y687659D01*
X243674Y685674D01*
X245659Y684348D01*
X248000Y683883D01*
X250341Y684348D01*
X252326Y685674D01*
X253652Y687659D01*
X254118Y690000D01*
X253652Y692341D01*
X252326Y694326D01*
X250341Y695652D01*
X248000Y696117D01*
D02*
G37*
G36*
X192000Y685117D02*
X189659Y684652D01*
X187674Y683326D01*
X186348Y681341D01*
X185882Y679000D01*
X186348Y676659D01*
X187674Y674674D01*
X189659Y673348D01*
X192000Y672882D01*
X194341Y673348D01*
X196326Y674674D01*
X197652Y676659D01*
X198118Y679000D01*
X197652Y681341D01*
X196326Y683326D01*
X194341Y684652D01*
X192000Y685117D01*
D02*
G37*
G36*
X345000Y689078D02*
X342650Y688768D01*
X340461Y687861D01*
X338581Y686419D01*
X337139Y684539D01*
X336232Y682349D01*
X335922Y680000D01*
X336232Y677651D01*
X337139Y675461D01*
X338581Y673581D01*
X340461Y672139D01*
X342650Y671232D01*
X345000Y670922D01*
X347350Y671232D01*
X349539Y672139D01*
X351419Y673581D01*
X352862Y675461D01*
X353768Y677651D01*
X354078Y680000D01*
X353768Y682349D01*
X352862Y684539D01*
X351419Y686419D01*
X349539Y687861D01*
X347350Y688768D01*
X345000Y689078D01*
D02*
G37*
G36*
X52025Y691170D02*
X49153Y690792D01*
X46477Y689684D01*
X44180Y687920D01*
X42417Y685622D01*
X41308Y682947D01*
X40930Y680075D01*
X41308Y677203D01*
X42417Y674528D01*
X44180Y672230D01*
X46477Y670467D01*
X49153Y669358D01*
X52025Y668980D01*
X54897Y669358D01*
X57572Y670467D01*
X59870Y672230D01*
X61634Y674528D01*
X62742Y677203D01*
X63120Y680075D01*
X62742Y682947D01*
X61634Y685622D01*
X59870Y687920D01*
X57572Y689684D01*
X54897Y690792D01*
X52025Y691170D01*
D02*
G37*
G36*
X63025Y665675D02*
X41025D01*
Y643675D01*
X63025D01*
Y665675D01*
D02*
G37*
G36*
X345000Y656578D02*
X342650Y656268D01*
X340461Y655361D01*
X338581Y653919D01*
X337139Y652039D01*
X336232Y649849D01*
X335922Y647500D01*
X336232Y645151D01*
X337139Y642961D01*
X338581Y641081D01*
X340461Y639638D01*
X342650Y638732D01*
X345000Y638422D01*
X347350Y638732D01*
X349539Y639638D01*
X351419Y641081D01*
X352862Y642961D01*
X353768Y645151D01*
X354078Y647500D01*
X353768Y649849D01*
X352862Y652039D01*
X351419Y653919D01*
X349539Y655361D01*
X347350Y656268D01*
X345000Y656578D01*
D02*
G37*
G36*
X247000Y629118D02*
X244659Y628652D01*
X242674Y627326D01*
X241348Y625341D01*
X240882Y623000D01*
X241348Y620659D01*
X242674Y618674D01*
X244659Y617348D01*
X247000Y616883D01*
X249341Y617348D01*
X251326Y618674D01*
X252652Y620659D01*
X253118Y623000D01*
X252652Y625341D01*
X251326Y627326D01*
X249341Y628652D01*
X247000Y629118D01*
D02*
G37*
G36*
X295000Y614944D02*
X293535Y613965D01*
X293135Y613367D01*
X291865D01*
X291465Y613965D01*
X290000Y614944D01*
Y610000D01*
X285000D01*
Y614944D01*
X283535Y613965D01*
X283135Y613367D01*
X281865D01*
X281465Y613965D01*
X280000Y614944D01*
Y610000D01*
X277500D01*
Y607500D01*
X272556D01*
X273535Y606035D01*
X274133Y605635D01*
Y604365D01*
X273535Y603965D01*
X272556Y602500D01*
X277500D01*
Y597500D01*
X272556D01*
X273535Y596035D01*
X274133Y595635D01*
Y594365D01*
X273535Y593965D01*
X272556Y592500D01*
X277500D01*
Y590000D01*
X280000D01*
Y585056D01*
X281465Y586035D01*
X281865Y586633D01*
X283135D01*
X283535Y586035D01*
X285000Y585056D01*
Y590000D01*
X290000D01*
Y585056D01*
X291465Y586035D01*
X291865Y586633D01*
X293135D01*
X293535Y586035D01*
X295000Y585056D01*
Y590000D01*
X300000D01*
Y585056D01*
X301465Y586035D01*
X301865Y586633D01*
X303135D01*
X303535Y586035D01*
X305000Y585056D01*
Y590000D01*
X307500D01*
Y592500D01*
X312444D01*
X311465Y593965D01*
X310867Y594365D01*
Y595635D01*
X311465Y596035D01*
X312444Y597500D01*
X307500D01*
Y602500D01*
X312444D01*
X311465Y603965D01*
X310867Y604365D01*
Y605635D01*
X311465Y606035D01*
X312444Y607500D01*
X307500D01*
Y610000D01*
X305000D01*
Y614944D01*
X303535Y613965D01*
X303135Y613367D01*
X301865D01*
X301465Y613965D01*
X300000Y614944D01*
Y610000D01*
X295000D01*
Y614944D01*
D02*
G37*
G36*
X310000D02*
Y612500D01*
X312444D01*
X311465Y613965D01*
X310000Y614944D01*
D02*
G37*
G36*
X275000D02*
X273535Y613965D01*
X272556Y612500D01*
X275000D01*
Y614944D01*
D02*
G37*
G36*
X345000Y624078D02*
X342650Y623768D01*
X340461Y622861D01*
X338581Y621419D01*
X337139Y619539D01*
X336232Y617350D01*
X335922Y615000D01*
X336232Y612650D01*
X337139Y610461D01*
X338581Y608581D01*
X340461Y607138D01*
X342650Y606232D01*
X345000Y605922D01*
X347350Y606232D01*
X349539Y607138D01*
X351419Y608581D01*
X352862Y610461D01*
X353768Y612650D01*
X354078Y615000D01*
X353768Y617350D01*
X352862Y619539D01*
X351419Y621419D01*
X349539Y622861D01*
X347350Y623768D01*
X345000Y624078D01*
D02*
G37*
G36*
X72500Y627104D02*
X69367Y626691D01*
X66448Y625482D01*
X63941Y623559D01*
X62018Y621052D01*
X60809Y618133D01*
X60396Y615000D01*
X60809Y611867D01*
X62018Y608948D01*
X63941Y606441D01*
X66448Y604518D01*
X69367Y603309D01*
X72500Y602896D01*
X75633Y603309D01*
X78552Y604518D01*
X81059Y606441D01*
X82982Y608948D01*
X84191Y611867D01*
X84604Y615000D01*
X84191Y618133D01*
X82982Y621052D01*
X81059Y623559D01*
X78552Y625482D01*
X75633Y626691D01*
X72500Y627104D01*
D02*
G37*
G36*
X312444Y587500D02*
X310000D01*
Y585056D01*
X311465Y586035D01*
X312444Y587500D01*
D02*
G37*
G36*
X275000D02*
X272556D01*
X273535Y586035D01*
X275000Y585056D01*
Y587500D01*
D02*
G37*
G36*
X75000Y592783D02*
Y582500D01*
X85283D01*
X85165Y583394D01*
X83855Y586556D01*
X81772Y589272D01*
X79056Y591356D01*
X75894Y592665D01*
X75000Y592783D01*
D02*
G37*
G36*
X70000D02*
X69106Y592665D01*
X65944Y591356D01*
X63228Y589272D01*
X61144Y586556D01*
X59835Y583394D01*
X59717Y582500D01*
X70000D01*
Y592783D01*
D02*
G37*
G36*
X345000Y591578D02*
X342650Y591268D01*
X340461Y590361D01*
X338581Y588919D01*
X337139Y587039D01*
X336232Y584850D01*
X335922Y582500D01*
X336232Y580150D01*
X337139Y577961D01*
X338581Y576081D01*
X340461Y574638D01*
X342650Y573732D01*
X345000Y573422D01*
X347350Y573732D01*
X349539Y574638D01*
X351419Y576081D01*
X352862Y577961D01*
X353768Y580150D01*
X354078Y582500D01*
X353768Y584850D01*
X352862Y587039D01*
X351419Y588919D01*
X349539Y590361D01*
X347350Y591268D01*
X345000Y591578D01*
D02*
G37*
G36*
X85283Y577500D02*
X75000D01*
Y567217D01*
X75894Y567335D01*
X79056Y568644D01*
X81772Y570728D01*
X83855Y573444D01*
X85165Y576606D01*
X85283Y577500D01*
D02*
G37*
G36*
X70000D02*
X59717D01*
X59835Y576606D01*
X61144Y573444D01*
X63228Y570728D01*
X65944Y568644D01*
X69106Y567335D01*
X70000Y567217D01*
Y577500D01*
D02*
G37*
G36*
X75000Y557783D02*
Y547500D01*
X85283D01*
X85165Y548394D01*
X83855Y551556D01*
X81772Y554272D01*
X79056Y556356D01*
X75894Y557665D01*
X75000Y557783D01*
D02*
G37*
G36*
X70000D02*
X69106Y557665D01*
X65944Y556356D01*
X63228Y554272D01*
X61144Y551556D01*
X59835Y548394D01*
X59717Y547500D01*
X70000D01*
Y557783D01*
D02*
G37*
G36*
X345000Y559078D02*
X342650Y558768D01*
X340461Y557861D01*
X338581Y556419D01*
X337139Y554539D01*
X336232Y552350D01*
X335922Y550000D01*
X336232Y547650D01*
X337139Y545461D01*
X338581Y543581D01*
X340461Y542138D01*
X342650Y541232D01*
X345000Y540922D01*
X347350Y541232D01*
X349539Y542138D01*
X351419Y543581D01*
X352862Y545461D01*
X353768Y547650D01*
X354078Y550000D01*
X353768Y552350D01*
X352862Y554539D01*
X351419Y556419D01*
X349539Y557861D01*
X347350Y558768D01*
X345000Y559078D01*
D02*
G37*
G36*
X85283Y542500D02*
X75000D01*
Y532217D01*
X75894Y532335D01*
X79056Y533644D01*
X81772Y535728D01*
X83855Y538444D01*
X85165Y541606D01*
X85283Y542500D01*
D02*
G37*
G36*
X70000D02*
X59717D01*
X59835Y541606D01*
X61144Y538444D01*
X63228Y535728D01*
X65944Y533644D01*
X69106Y532335D01*
X70000Y532217D01*
Y542500D01*
D02*
G37*
G36*
X345000Y526578D02*
X342650Y526268D01*
X340461Y525361D01*
X338581Y523919D01*
X337139Y522039D01*
X336232Y519850D01*
X335922Y517500D01*
X336232Y515150D01*
X337139Y512961D01*
X338581Y511081D01*
X340461Y509638D01*
X342650Y508732D01*
X345000Y508422D01*
X347350Y508732D01*
X349539Y509638D01*
X351419Y511081D01*
X352862Y512961D01*
X353768Y515150D01*
X354078Y517500D01*
X353768Y519850D01*
X352862Y522039D01*
X351419Y523919D01*
X349539Y525361D01*
X347350Y526268D01*
X345000Y526578D01*
D02*
G37*
G36*
X315000Y503618D02*
X312659Y503152D01*
X310674Y501826D01*
X309348Y499841D01*
X308883Y497500D01*
X309348Y495159D01*
X310674Y493174D01*
X312659Y491848D01*
X315000Y491382D01*
X317341Y491848D01*
X319326Y493174D01*
X320652Y495159D01*
X321118Y497500D01*
X320652Y499841D01*
X319326Y501826D01*
X317341Y503152D01*
X315000Y503618D01*
D02*
G37*
G36*
X275000D02*
X272659Y503152D01*
X270674Y501826D01*
X269348Y499841D01*
X268883Y497500D01*
X269348Y495159D01*
X270674Y493174D01*
X272659Y491848D01*
X275000Y491382D01*
X277341Y491848D01*
X279326Y493174D01*
X280652Y495159D01*
X281118Y497500D01*
X280652Y499841D01*
X279326Y501826D01*
X277341Y503152D01*
X275000Y503618D01*
D02*
G37*
G36*
X72500Y509604D02*
X69367Y509191D01*
X66448Y507982D01*
X63941Y506059D01*
X62018Y503552D01*
X60809Y500633D01*
X60396Y497500D01*
X60809Y494367D01*
X62018Y491448D01*
X63941Y488941D01*
X66448Y487018D01*
X69367Y485809D01*
X72500Y485396D01*
X75633Y485809D01*
X78552Y487018D01*
X81059Y488941D01*
X82982Y491448D01*
X84191Y494367D01*
X84604Y497500D01*
X84191Y500633D01*
X82982Y503552D01*
X81059Y506059D01*
X78552Y507982D01*
X75633Y509191D01*
X72500Y509604D01*
D02*
G37*
G36*
X197500Y496118D02*
X195159Y495652D01*
X193174Y494326D01*
X191848Y492341D01*
X191382Y490000D01*
X191848Y487659D01*
X193174Y485674D01*
X195159Y484348D01*
X197500Y483882D01*
X199841Y484348D01*
X201826Y485674D01*
X203152Y487659D01*
X203617Y490000D01*
X203152Y492341D01*
X201826Y494326D01*
X199841Y495652D01*
X197500Y496118D01*
D02*
G37*
G36*
X309000Y470118D02*
X306659Y469652D01*
X304674Y468326D01*
X303348Y466341D01*
X302882Y464000D01*
X303348Y461659D01*
X304674Y459674D01*
X306659Y458348D01*
X309000Y457882D01*
X311341Y458348D01*
X313326Y459674D01*
X314652Y461659D01*
X315117Y464000D01*
X314652Y466341D01*
X313326Y468326D01*
X311341Y469652D01*
X309000Y470118D01*
D02*
G37*
G36*
X72500Y474604D02*
X69367Y474191D01*
X66448Y472982D01*
X63941Y471059D01*
X62018Y468552D01*
X60809Y465633D01*
X60396Y462500D01*
X60809Y459367D01*
X62018Y456448D01*
X63941Y453941D01*
X66448Y452018D01*
X69367Y450809D01*
X72500Y450396D01*
X75633Y450809D01*
X78552Y452018D01*
X81059Y453941D01*
X82982Y456448D01*
X84191Y459367D01*
X84604Y462500D01*
X84191Y465633D01*
X82982Y468552D01*
X81059Y471059D01*
X78552Y472982D01*
X75633Y474191D01*
X72500Y474604D01*
D02*
G37*
G36*
X320000Y443618D02*
X317659Y443152D01*
X315674Y441826D01*
X314348Y439841D01*
X313883Y437500D01*
X314348Y435159D01*
X315674Y433174D01*
X317659Y431848D01*
X320000Y431382D01*
X322341Y431848D01*
X324326Y433174D01*
X325652Y435159D01*
X326118Y437500D01*
X325652Y439841D01*
X324326Y441826D01*
X322341Y443152D01*
X320000Y443618D01*
D02*
G37*
G36*
X75000Y440283D02*
Y430000D01*
X85283D01*
X85165Y430894D01*
X83855Y434056D01*
X81772Y436772D01*
X79056Y438855D01*
X75894Y440165D01*
X75000Y440283D01*
D02*
G37*
G36*
X70000D02*
X69106Y440165D01*
X65944Y438855D01*
X63228Y436772D01*
X61144Y434056D01*
X59835Y430894D01*
X59717Y430000D01*
X70000D01*
Y440283D01*
D02*
G37*
G36*
X287500Y446578D02*
X285151Y446268D01*
X282961Y445361D01*
X281081Y443919D01*
X279639Y442039D01*
X278732Y439850D01*
X278422Y437500D01*
X278732Y435150D01*
X279639Y432961D01*
X281081Y431081D01*
X282961Y429638D01*
X285151Y428732D01*
X287500Y428422D01*
X289849Y428732D01*
X292039Y429638D01*
X293919Y431081D01*
X295361Y432961D01*
X296268Y435150D01*
X296578Y437500D01*
X296268Y439850D01*
X295361Y442039D01*
X293919Y443919D01*
X292039Y445361D01*
X289849Y446268D01*
X287500Y446578D01*
D02*
G37*
G36*
X177500Y456118D02*
X175159Y455652D01*
X173174Y454326D01*
X171848Y452341D01*
X171383Y450000D01*
X171848Y447659D01*
X173174Y445674D01*
X175045Y444424D01*
X175105Y443750D01*
X175045Y443076D01*
X173174Y441826D01*
X171848Y439841D01*
X171383Y437500D01*
X171848Y435159D01*
X173174Y433174D01*
X175045Y431924D01*
X175105Y431250D01*
X175045Y430576D01*
X173174Y429326D01*
X171848Y427341D01*
X171383Y425000D01*
X171848Y422659D01*
X173174Y420674D01*
X175159Y419348D01*
X177500Y418882D01*
X179841Y419348D01*
X181826Y420674D01*
X183076Y422545D01*
X183750Y422605D01*
X184424Y422545D01*
X185674Y420674D01*
X187659Y419348D01*
X190000Y418882D01*
X192341Y419348D01*
X194326Y420674D01*
X195576Y422545D01*
X196250Y422605D01*
X196924Y422545D01*
X198174Y420674D01*
X200159Y419348D01*
X202500Y418882D01*
X204841Y419348D01*
X206826Y420674D01*
X208152Y422659D01*
X208617Y425000D01*
X208152Y427341D01*
X206826Y429326D01*
X204841Y430652D01*
X202500Y431118D01*
X200159Y430652D01*
X198174Y429326D01*
X196924Y427455D01*
X196250Y427395D01*
X195576Y427455D01*
X194326Y429326D01*
X192341Y430652D01*
X190000Y431118D01*
X187659Y430652D01*
X185674Y429326D01*
X184424Y427455D01*
X183750Y427395D01*
X183076Y427455D01*
X181826Y429326D01*
X179955Y430576D01*
X179895Y431250D01*
X179955Y431924D01*
X181826Y433174D01*
X183152Y435159D01*
X183618Y437500D01*
X183152Y439841D01*
X181826Y441826D01*
X179955Y443076D01*
X179895Y443750D01*
X179955Y444424D01*
X181826Y445674D01*
X183152Y447659D01*
X183617Y450000D01*
X183152Y452341D01*
X181826Y454326D01*
X179841Y455652D01*
X177500Y456118D01*
D02*
G37*
G36*
X70000Y425000D02*
X59717D01*
X59835Y424106D01*
X61144Y420944D01*
X63228Y418228D01*
X65944Y416144D01*
X69106Y414835D01*
X70000Y414717D01*
Y425000D01*
D02*
G37*
G36*
X85283D02*
X75000D01*
Y414717D01*
X75894Y414835D01*
X79056Y416144D01*
X81772Y418228D01*
X83855Y420944D01*
X85165Y424106D01*
X85283Y425000D01*
D02*
G37*
G36*
X287500Y418618D02*
X285159Y418152D01*
X283174Y416826D01*
X281848Y414841D01*
X281383Y412500D01*
X281848Y410159D01*
X283174Y408174D01*
X285159Y406848D01*
X287500Y406382D01*
X289841Y406848D01*
X291826Y408174D01*
X293152Y410159D01*
X293617Y412500D01*
X293152Y414841D01*
X291826Y416826D01*
X289841Y418152D01*
X287500Y418618D01*
D02*
G37*
G36*
X325000Y424078D02*
X322650Y423768D01*
X320461Y422861D01*
X318581Y421419D01*
X317139Y419539D01*
X316232Y417350D01*
X315922Y415000D01*
X316232Y412650D01*
X317139Y410461D01*
X318581Y408581D01*
X320461Y407138D01*
X322650Y406232D01*
X325000Y405922D01*
X327349Y406232D01*
X329539Y407138D01*
X331419Y408581D01*
X332861Y410461D01*
X333768Y412650D01*
X334078Y415000D01*
X333768Y417350D01*
X332861Y419539D01*
X331419Y421419D01*
X329539Y422861D01*
X327349Y423768D01*
X325000Y424078D01*
D02*
G37*
G36*
X117500Y456118D02*
X115159Y455652D01*
X113174Y454326D01*
X111848Y452341D01*
X111382Y450000D01*
X111848Y447659D01*
X113174Y445674D01*
X115045Y444424D01*
X115105Y443750D01*
X115045Y443076D01*
X113174Y441826D01*
X111848Y439841D01*
X111382Y437500D01*
X111848Y435159D01*
X113174Y433174D01*
X115045Y431924D01*
X115105Y431250D01*
X115045Y430576D01*
X113174Y429326D01*
X111848Y427341D01*
X111383Y425000D01*
X111848Y422659D01*
X113174Y420674D01*
X115045Y419424D01*
X115105Y418750D01*
X115045Y418076D01*
X113174Y416826D01*
X111848Y414841D01*
X111383Y412500D01*
X111848Y410159D01*
X113174Y408174D01*
X115045Y406924D01*
X115105Y406250D01*
X115045Y405576D01*
X113174Y404326D01*
X111848Y402341D01*
X111383Y400000D01*
X111848Y397659D01*
X113174Y395674D01*
X115159Y394348D01*
X117500Y393882D01*
X119841Y394348D01*
X121826Y395674D01*
X123076Y397545D01*
X123750Y397605D01*
X124424Y397545D01*
X125674Y395674D01*
X127659Y394348D01*
X130000Y393882D01*
X132341Y394348D01*
X134326Y395674D01*
X135576Y397545D01*
X136250Y397605D01*
X136924Y397545D01*
X138174Y395674D01*
X140159Y394348D01*
X142500Y393882D01*
X144841Y394348D01*
X146826Y395674D01*
X148076Y397545D01*
X148750Y397605D01*
X149424Y397545D01*
X150674Y395674D01*
X152659Y394348D01*
X155000Y393882D01*
X157341Y394348D01*
X159326Y395674D01*
X160652Y397659D01*
X161117Y400000D01*
X160652Y402341D01*
X159326Y404326D01*
X157455Y405576D01*
X157395Y406250D01*
X157455Y406924D01*
X159326Y408174D01*
X160652Y410159D01*
X161117Y412500D01*
X160652Y414841D01*
X159326Y416826D01*
X157455Y418076D01*
X157395Y418750D01*
X157455Y419424D01*
X159326Y420674D01*
X160652Y422659D01*
X161118Y425000D01*
X160652Y427341D01*
X159326Y429326D01*
X157341Y430652D01*
X155000Y431118D01*
X152659Y430652D01*
X150674Y429326D01*
X149424Y427455D01*
X148750Y427394D01*
X148076Y427455D01*
X146826Y429326D01*
X144841Y430652D01*
X142500Y431118D01*
X140159Y430652D01*
X138174Y429326D01*
X136924Y427455D01*
X136250Y427395D01*
X135576Y427455D01*
X134326Y429326D01*
X132341Y430652D01*
X130000Y431118D01*
X127659Y430652D01*
X125674Y429326D01*
X124424Y427455D01*
X123750Y427394D01*
X123076Y427455D01*
X121826Y429326D01*
X119955Y430576D01*
X119895Y431250D01*
X119955Y431924D01*
X121826Y433174D01*
X123152Y435159D01*
X123617Y437500D01*
X123152Y439841D01*
X121826Y441826D01*
X119955Y443076D01*
X119895Y443750D01*
X119955Y444424D01*
X121826Y445674D01*
X123152Y447659D01*
X123617Y450000D01*
X123152Y452341D01*
X121826Y454326D01*
X119841Y455652D01*
X117500Y456118D01*
D02*
G37*
G36*
X350000Y388618D02*
X347659Y388152D01*
X345674Y386826D01*
X344348Y384841D01*
X343882Y382500D01*
X344348Y380159D01*
X345674Y378174D01*
X347659Y376848D01*
X350000Y376382D01*
X352341Y376848D01*
X354326Y378174D01*
X355652Y380159D01*
X356118Y382500D01*
X355652Y384841D01*
X354326Y386826D01*
X352341Y388152D01*
X350000Y388618D01*
D02*
G37*
G36*
X209000Y388117D02*
X206659Y387652D01*
X204674Y386326D01*
X203348Y384341D01*
X202882Y382000D01*
X203348Y379659D01*
X204674Y377674D01*
X206659Y376348D01*
X209000Y375882D01*
X211341Y376348D01*
X213326Y377674D01*
X214652Y379659D01*
X215117Y382000D01*
X214652Y384341D01*
X213326Y386326D01*
X211341Y387652D01*
X209000Y388117D01*
D02*
G37*
G36*
X183000Y387118D02*
X180659Y386652D01*
X178674Y385326D01*
X177348Y383341D01*
X176882Y381000D01*
X177348Y378659D01*
X178674Y376674D01*
X180659Y375348D01*
X183000Y374883D01*
X185341Y375348D01*
X187326Y376674D01*
X188652Y378659D01*
X189118Y381000D01*
X188652Y383341D01*
X187326Y385326D01*
X185341Y386652D01*
X183000Y387118D01*
D02*
G37*
G36*
X325000Y391578D02*
X322650Y391268D01*
X320461Y390361D01*
X318581Y388919D01*
X317139Y387039D01*
X316232Y384850D01*
X315922Y382500D01*
X316232Y380150D01*
X317139Y377961D01*
X318581Y376081D01*
X320461Y374638D01*
X322650Y373732D01*
X325000Y373422D01*
X327349Y373732D01*
X329539Y374638D01*
X331419Y376081D01*
X332861Y377961D01*
X333768Y380150D01*
X334078Y382500D01*
X333768Y384850D01*
X332861Y387039D01*
X331419Y388919D01*
X329539Y390361D01*
X327349Y391268D01*
X325000Y391578D01*
D02*
G37*
G36*
X154000Y384118D02*
X151659Y383652D01*
X149674Y382326D01*
X148348Y380341D01*
X147882Y378000D01*
X148348Y375659D01*
X149674Y373674D01*
X151659Y372348D01*
X154000Y371883D01*
X156341Y372348D01*
X158326Y373674D01*
X159652Y375659D01*
X160117Y378000D01*
X159652Y380341D01*
X158326Y382326D01*
X156341Y383652D01*
X154000Y384118D01*
D02*
G37*
G36*
X72500Y389604D02*
X69367Y389191D01*
X66448Y387982D01*
X63941Y386059D01*
X62018Y383552D01*
X60809Y380633D01*
X60396Y377500D01*
X60809Y374367D01*
X62018Y371448D01*
X63941Y368941D01*
X66448Y367018D01*
X69367Y365809D01*
X72500Y365396D01*
X75633Y365809D01*
X78552Y367018D01*
X81059Y368941D01*
X82982Y371448D01*
X84191Y374367D01*
X84604Y377500D01*
X84191Y380633D01*
X82982Y383552D01*
X81059Y386059D01*
X78552Y387982D01*
X75633Y389191D01*
X72500Y389604D01*
D02*
G37*
G36*
X217500Y350304D02*
X216427Y350090D01*
X215517Y349483D01*
X214910Y348573D01*
X214696Y347500D01*
X214910Y346427D01*
X215517Y345517D01*
X216427Y344910D01*
X217500Y344696D01*
X218573Y344910D01*
X219483Y345517D01*
X220090Y346427D01*
X220304Y347500D01*
X220090Y348573D01*
X219483Y349483D01*
X218573Y350090D01*
X217500Y350304D01*
D02*
G37*
G36*
X325000Y359078D02*
X322650Y358768D01*
X320461Y357861D01*
X318581Y356419D01*
X317139Y354539D01*
X316232Y352350D01*
X315922Y350000D01*
X316232Y347650D01*
X317139Y345461D01*
X318581Y343581D01*
X320461Y342138D01*
X322650Y341232D01*
X325000Y340922D01*
X327349Y341232D01*
X329539Y342138D01*
X331419Y343581D01*
X332861Y345461D01*
X333768Y347650D01*
X334078Y350000D01*
X333768Y352350D01*
X332861Y354539D01*
X331419Y356419D01*
X329539Y357861D01*
X327349Y358768D01*
X325000Y359078D01*
D02*
G37*
G36*
X72500Y354604D02*
X69367Y354191D01*
X66448Y352982D01*
X63941Y351059D01*
X62018Y348552D01*
X60809Y345633D01*
X60396Y342500D01*
X60809Y339367D01*
X62018Y336448D01*
X63941Y333941D01*
X66448Y332018D01*
X69367Y330809D01*
X72500Y330396D01*
X75633Y330809D01*
X78552Y332018D01*
X81059Y333941D01*
X82982Y336448D01*
X84191Y339367D01*
X84604Y342500D01*
X84191Y345633D01*
X82982Y348552D01*
X81059Y351059D01*
X78552Y352982D01*
X75633Y354191D01*
X72500Y354604D01*
D02*
G37*
G36*
X217500Y340304D02*
X216427Y340090D01*
X215517Y339483D01*
X214910Y338573D01*
X214696Y337500D01*
X214910Y336427D01*
X215517Y335517D01*
Y334483D01*
X214910Y333573D01*
X214696Y332500D01*
X214910Y331427D01*
X215517Y330517D01*
X216427Y329910D01*
X217500Y329696D01*
X218573Y329910D01*
X219483Y330517D01*
X220090Y331427D01*
X220304Y332500D01*
X220090Y333573D01*
X219483Y334483D01*
Y335517D01*
X220090Y336427D01*
X220304Y337500D01*
X220090Y338573D01*
X219483Y339483D01*
X218573Y340090D01*
X217500Y340304D01*
D02*
G37*
G36*
X207500Y335304D02*
X206427Y335090D01*
X205517Y334483D01*
X204909Y333573D01*
X204696Y332500D01*
X204909Y331427D01*
X205517Y330517D01*
X206427Y329910D01*
X207500Y329696D01*
X208573Y329910D01*
X209483Y330517D01*
X210090Y331427D01*
X210304Y332500D01*
X210090Y333573D01*
X209483Y334483D01*
X208573Y335090D01*
X207500Y335304D01*
D02*
G37*
G36*
X240000Y338618D02*
X237659Y338152D01*
X235674Y336826D01*
X234348Y334841D01*
X233882Y332500D01*
X234348Y330159D01*
X235674Y328174D01*
X237659Y326848D01*
X240000Y326382D01*
X242341Y326848D01*
X244326Y328174D01*
X245652Y330159D01*
X246117Y332500D01*
X245652Y334841D01*
X244326Y336826D01*
X242341Y338152D01*
X240000Y338618D01*
D02*
G37*
G36*
X185251Y334867D02*
X182910Y334402D01*
X180925Y333075D01*
X179599Y331091D01*
X179133Y328750D01*
X179599Y326409D01*
X180691Y324774D01*
X180030Y323611D01*
X180000Y323617D01*
X177659Y323151D01*
X175674Y321825D01*
X174348Y319841D01*
X173882Y317499D01*
X174348Y315158D01*
X175674Y313174D01*
X177659Y311848D01*
X180000Y311382D01*
X182341Y311848D01*
X184325Y313174D01*
X185651Y315158D01*
X186117Y317499D01*
X185651Y319841D01*
X184559Y321475D01*
X185221Y322638D01*
X185251Y322632D01*
X187592Y323098D01*
X189576Y324424D01*
X190902Y326409D01*
X191368Y328750D01*
X190902Y331091D01*
X189576Y333075D01*
X187592Y334402D01*
X185251Y334867D01*
D02*
G37*
G36*
X350000Y323618D02*
X347659Y323152D01*
X345674Y321826D01*
X344348Y319841D01*
X343882Y317500D01*
X344348Y315159D01*
X345674Y313174D01*
X347659Y311848D01*
X350000Y311383D01*
X352341Y311848D01*
X354326Y313174D01*
X355652Y315159D01*
X356118Y317500D01*
X355652Y319841D01*
X354326Y321826D01*
X352341Y323152D01*
X350000Y323618D01*
D02*
G37*
G36*
X75000Y320283D02*
Y310000D01*
X85283D01*
X85165Y310894D01*
X83855Y314056D01*
X81772Y316772D01*
X79056Y318855D01*
X75894Y320165D01*
X75000Y320283D01*
D02*
G37*
G36*
X70000D02*
X69106Y320165D01*
X65944Y318855D01*
X63228Y316772D01*
X61144Y314056D01*
X59835Y310894D01*
X59717Y310000D01*
X70000D01*
Y320283D01*
D02*
G37*
G36*
X325000Y326578D02*
X322650Y326268D01*
X320461Y325362D01*
X318581Y323919D01*
X317139Y322039D01*
X316232Y319849D01*
X315922Y317500D01*
X316232Y315151D01*
X317139Y312961D01*
X318581Y311081D01*
X320461Y309639D01*
X322650Y308732D01*
X325000Y308422D01*
X327349Y308732D01*
X329539Y309639D01*
X331419Y311081D01*
X332861Y312961D01*
X333768Y315151D01*
X334078Y317500D01*
X333768Y319849D01*
X332861Y322039D01*
X331419Y323919D01*
X329539Y325362D01*
X327349Y326268D01*
X325000Y326578D01*
D02*
G37*
G36*
X160000Y313118D02*
X157659Y312652D01*
X155674Y311326D01*
X154348Y309341D01*
X153883Y307000D01*
X154348Y304659D01*
X155674Y302674D01*
X157659Y301348D01*
X160000Y300882D01*
X162341Y301348D01*
X164326Y302674D01*
X165652Y304659D01*
X166117Y307000D01*
X165652Y309341D01*
X164326Y311326D01*
X162341Y312652D01*
X160000Y313118D01*
D02*
G37*
G36*
X192500Y311117D02*
X190159Y310652D01*
X188174Y309326D01*
X186848Y307341D01*
X186382Y305000D01*
X186848Y302659D01*
X188174Y300674D01*
X190159Y299348D01*
X192500Y298883D01*
X194841Y299348D01*
X196826Y300674D01*
X198152Y302659D01*
X198617Y305000D01*
X198152Y307341D01*
X196826Y309326D01*
X194841Y310652D01*
X192500Y311117D01*
D02*
G37*
G36*
X298000Y308118D02*
X295659Y307652D01*
X293674Y306326D01*
X292348Y304341D01*
X291882Y302000D01*
X292348Y299659D01*
X293674Y297674D01*
X295659Y296348D01*
X298000Y295882D01*
X300341Y296348D01*
X302326Y297674D01*
X303652Y299659D01*
X304118Y302000D01*
X303652Y304341D01*
X302326Y306326D01*
X300341Y307652D01*
X298000Y308118D01*
D02*
G37*
G36*
X70000Y305000D02*
X59717D01*
X59835Y304106D01*
X61144Y300944D01*
X63228Y298228D01*
X65944Y296145D01*
X69106Y294835D01*
X70000Y294717D01*
Y305000D01*
D02*
G37*
G36*
X85283D02*
X75000D01*
Y294717D01*
X75894Y294835D01*
X79056Y296145D01*
X81772Y298228D01*
X83855Y300944D01*
X85165Y304106D01*
X85283Y305000D01*
D02*
G37*
G36*
X274118Y303118D02*
X271776Y302652D01*
X269792Y301326D01*
X268466Y299341D01*
X268000Y297000D01*
X268466Y294659D01*
X269792Y292674D01*
X271776Y291348D01*
X274118Y290882D01*
X276459Y291348D01*
X278443Y292674D01*
X279769Y294659D01*
X280235Y297000D01*
X279769Y299341D01*
X278443Y301326D01*
X276459Y302652D01*
X274118Y303118D01*
D02*
G37*
G36*
X152500Y288617D02*
X150159Y288152D01*
X148174Y286826D01*
X146848Y284841D01*
X146382Y282500D01*
X146848Y280159D01*
X148174Y278174D01*
X150159Y276848D01*
X152500Y276382D01*
X154841Y276848D01*
X156826Y278174D01*
X158152Y280159D01*
X158617Y282500D01*
X158152Y284841D01*
X156826Y286826D01*
X154841Y288152D01*
X152500Y288617D01*
D02*
G37*
G36*
X325000Y294078D02*
X322650Y293768D01*
X320461Y292861D01*
X318581Y291419D01*
X317139Y289539D01*
X316232Y287349D01*
X315922Y285000D01*
X316232Y282651D01*
X317139Y280461D01*
X318581Y278581D01*
X320461Y277139D01*
X322650Y276232D01*
X325000Y275922D01*
X327349Y276232D01*
X329539Y277139D01*
X331419Y278581D01*
X332861Y280461D01*
X333768Y282651D01*
X334078Y285000D01*
X333768Y287349D01*
X332861Y289539D01*
X331419Y291419D01*
X329539Y292861D01*
X327349Y293768D01*
X325000Y294078D01*
D02*
G37*
G36*
X287500D02*
X285151Y293768D01*
X282961Y292861D01*
X281081Y291419D01*
X279639Y289539D01*
X278732Y287349D01*
X278422Y285000D01*
X278732Y282651D01*
X279639Y280461D01*
X281081Y278581D01*
X282961Y277139D01*
X285151Y276232D01*
X287500Y275922D01*
X289849Y276232D01*
X292039Y277139D01*
X293919Y278581D01*
X295361Y280461D01*
X296268Y282651D01*
X296578Y285000D01*
X296268Y287349D01*
X295361Y289539D01*
X293919Y291419D01*
X292039Y292861D01*
X289849Y293768D01*
X287500Y294078D01*
D02*
G37*
G36*
X268000Y284118D02*
X265659Y283652D01*
X263674Y282326D01*
X262348Y280341D01*
X261882Y278000D01*
X262348Y275659D01*
X263674Y273674D01*
X265659Y272348D01*
X268000Y271882D01*
X270341Y272348D01*
X272326Y273674D01*
X273652Y275659D01*
X274118Y278000D01*
X273652Y280341D01*
X272326Y282326D01*
X270341Y283652D01*
X268000Y284118D01*
D02*
G37*
G36*
X313375Y273743D02*
X311034Y273277D01*
X309049Y271951D01*
X307723Y269966D01*
X307257Y267625D01*
X307723Y265284D01*
X309049Y263299D01*
X311034Y261973D01*
X313375Y261507D01*
X315716Y261973D01*
X317701Y263299D01*
X319027Y265284D01*
X319492Y267625D01*
X319027Y269966D01*
X317701Y271951D01*
X315716Y273277D01*
X313375Y273743D01*
D02*
G37*
G36*
X137500Y266117D02*
X135159Y265652D01*
X133174Y264326D01*
X131848Y262341D01*
X131383Y260000D01*
X131848Y257659D01*
X133174Y255674D01*
X135159Y254348D01*
X137500Y253882D01*
X139841Y254348D01*
X141826Y255674D01*
X143152Y257659D01*
X143617Y260000D01*
X143152Y262341D01*
X141826Y264326D01*
X139841Y265652D01*
X137500Y266117D01*
D02*
G37*
G36*
X135000Y236117D02*
X132659Y235652D01*
X130674Y234326D01*
X129348Y232341D01*
X128883Y230000D01*
X129348Y227659D01*
X130674Y225674D01*
X132659Y224348D01*
X135000Y223882D01*
X137341Y224348D01*
X139326Y225674D01*
X140652Y227659D01*
X141117Y230000D01*
X140652Y232341D01*
X139326Y234326D01*
X137341Y235652D01*
X135000Y236117D01*
D02*
G37*
G36*
X77791Y229227D02*
X76425Y228956D01*
X75268Y228182D01*
X74494Y227024D01*
X74222Y225659D01*
X74494Y224293D01*
X75268Y223135D01*
X76425Y222362D01*
X77791Y222090D01*
X79157Y222362D01*
X80314Y223135D01*
X81088Y224293D01*
X81360Y225659D01*
X81088Y227024D01*
X80314Y228182D01*
X79157Y228956D01*
X77791Y229227D01*
D02*
G37*
G36*
X67791D02*
X66425Y228956D01*
X65268Y228182D01*
X64494Y227024D01*
X64222Y225659D01*
X64494Y224293D01*
X65268Y223135D01*
X66425Y222362D01*
X67791Y222090D01*
X69157Y222362D01*
X70314Y223135D01*
X71088Y224293D01*
X71360Y225659D01*
X71088Y227024D01*
X70314Y228182D01*
X69157Y228956D01*
X67791Y229227D01*
D02*
G37*
G36*
X192500Y239078D02*
X190151Y238768D01*
X187961Y237861D01*
X186081Y236419D01*
X184639Y234539D01*
X183732Y232349D01*
X183422Y230000D01*
X183732Y227651D01*
X184639Y225461D01*
X186081Y223581D01*
X187961Y222139D01*
X190151Y221232D01*
X192500Y220922D01*
X194849Y221232D01*
X197039Y222139D01*
X198919Y223581D01*
X200361Y225461D01*
X201268Y227651D01*
X201578Y230000D01*
X201268Y232349D01*
X200361Y234539D01*
X198919Y236419D01*
X197039Y237861D01*
X194849Y238768D01*
X192500Y239078D01*
D02*
G37*
G36*
X27500Y226117D02*
X25159Y225652D01*
X23174Y224326D01*
X21848Y222341D01*
X21383Y220000D01*
X21848Y217659D01*
X23174Y215674D01*
X25159Y214348D01*
X27500Y213882D01*
X29841Y214348D01*
X31826Y215674D01*
X33152Y217659D01*
X33617Y220000D01*
X33152Y222341D01*
X31826Y224326D01*
X29841Y225652D01*
X27500Y226117D01*
D02*
G37*
G36*
X77791Y219227D02*
X76425Y218956D01*
X75268Y218182D01*
X74494Y217024D01*
X74222Y215659D01*
X74494Y214293D01*
X75268Y213135D01*
X76425Y212362D01*
X77791Y212090D01*
X79157Y212362D01*
X80314Y213135D01*
X81088Y214293D01*
X81360Y215659D01*
X81088Y217024D01*
X80314Y218182D01*
X79157Y218956D01*
X77791Y219227D01*
D02*
G37*
G36*
X67791D02*
X66425Y218956D01*
X65268Y218182D01*
X64494Y217024D01*
X64222Y215659D01*
X64494Y214293D01*
X65268Y213135D01*
X66425Y212362D01*
X67791Y212090D01*
X69157Y212362D01*
X70314Y213135D01*
X71088Y214293D01*
X71360Y215659D01*
X71088Y217024D01*
X70314Y218182D01*
X69157Y218956D01*
X67791Y219227D01*
D02*
G37*
G36*
X135000Y216117D02*
X132659Y215652D01*
X130674Y214326D01*
X129348Y212341D01*
X128883Y210000D01*
X129348Y207659D01*
X130674Y205674D01*
X132659Y204348D01*
X135000Y203882D01*
X137341Y204348D01*
X139326Y205674D01*
X140652Y207659D01*
X141117Y210000D01*
X140652Y212341D01*
X139326Y214326D01*
X137341Y215652D01*
X135000Y216117D01*
D02*
G37*
G36*
X352500Y216578D02*
X350150Y216268D01*
X347961Y215361D01*
X346081Y213919D01*
X344639Y212039D01*
X343732Y209849D01*
X343422Y207500D01*
X343732Y205151D01*
X344639Y202961D01*
X346081Y201081D01*
X347961Y199639D01*
X350150Y198732D01*
X352500Y198422D01*
X354850Y198732D01*
X357039Y199639D01*
X358919Y201081D01*
X360362Y202961D01*
X361268Y205151D01*
X361578Y207500D01*
X361268Y209849D01*
X360362Y212039D01*
X358919Y213919D01*
X357039Y215361D01*
X354850Y216268D01*
X352500Y216578D01*
D02*
G37*
G36*
X320000D02*
X317651Y216268D01*
X315461Y215361D01*
X313581Y213919D01*
X312139Y212039D01*
X311232Y209849D01*
X310922Y207500D01*
X311232Y205151D01*
X312139Y202961D01*
X313581Y201081D01*
X315461Y199639D01*
X317651Y198732D01*
X320000Y198422D01*
X322350Y198732D01*
X324539Y199639D01*
X326419Y201081D01*
X327861Y202961D01*
X328768Y205151D01*
X329078Y207500D01*
X328768Y209849D01*
X327861Y212039D01*
X326419Y213919D01*
X324539Y215361D01*
X322350Y216268D01*
X320000Y216578D01*
D02*
G37*
G36*
X287500D02*
X285151Y216268D01*
X282961Y215361D01*
X281081Y213919D01*
X279639Y212039D01*
X278732Y209849D01*
X278422Y207500D01*
X278732Y205151D01*
X279639Y202961D01*
X281081Y201081D01*
X282961Y199639D01*
X285151Y198732D01*
X287500Y198422D01*
X289849Y198732D01*
X292039Y199639D01*
X293919Y201081D01*
X295361Y202961D01*
X296268Y205151D01*
X296578Y207500D01*
X296268Y209849D01*
X295361Y212039D01*
X293919Y213919D01*
X292039Y215361D01*
X289849Y216268D01*
X287500Y216578D01*
D02*
G37*
G36*
X255000D02*
X252651Y216268D01*
X250461Y215361D01*
X248581Y213919D01*
X247139Y212039D01*
X246232Y209849D01*
X245922Y207500D01*
X246232Y205151D01*
X247139Y202961D01*
X248581Y201081D01*
X250461Y199639D01*
X252651Y198732D01*
X255000Y198422D01*
X257349Y198732D01*
X259539Y199639D01*
X261419Y201081D01*
X262861Y202961D01*
X263768Y205151D01*
X264078Y207500D01*
X263768Y209849D01*
X262861Y212039D01*
X261419Y213919D01*
X259539Y215361D01*
X257349Y216268D01*
X255000Y216578D01*
D02*
G37*
G36*
X27500Y206117D02*
X25159Y205652D01*
X23174Y204326D01*
X21848Y202341D01*
X21383Y200000D01*
X21848Y197659D01*
X23174Y195674D01*
X25159Y194348D01*
X27500Y193882D01*
X29841Y194348D01*
X31826Y195674D01*
X33152Y197659D01*
X33617Y200000D01*
X33152Y202341D01*
X31826Y204326D01*
X29841Y205652D01*
X27500Y206117D01*
D02*
G37*
G36*
X192500Y206578D02*
X190151Y206268D01*
X187961Y205361D01*
X186081Y203919D01*
X184639Y202039D01*
X183732Y199849D01*
X183422Y197500D01*
X183732Y195151D01*
X184639Y192961D01*
X186081Y191081D01*
X187961Y189639D01*
X190151Y188732D01*
X192500Y188422D01*
X194849Y188732D01*
X197039Y189639D01*
X198919Y191081D01*
X200361Y192961D01*
X201268Y195151D01*
X201578Y197500D01*
X201268Y199849D01*
X200361Y202039D01*
X198919Y203919D01*
X197039Y205361D01*
X194849Y206268D01*
X192500Y206578D01*
D02*
G37*
G36*
X150000Y186117D02*
X147659Y185652D01*
X145674Y184326D01*
X144348Y182341D01*
X143883Y180000D01*
X144348Y177659D01*
X145674Y175674D01*
X147659Y174348D01*
X150000Y173883D01*
X152341Y174348D01*
X154326Y175674D01*
X155652Y177659D01*
X156117Y180000D01*
X155652Y182341D01*
X154326Y184326D01*
X152341Y185652D01*
X150000Y186117D01*
D02*
G37*
G36*
X330000Y183617D02*
X327659Y183152D01*
X325674Y181826D01*
X324348Y179841D01*
X323882Y177500D01*
X324348Y175159D01*
X325674Y173174D01*
X327659Y171848D01*
X330000Y171383D01*
X332341Y171848D01*
X334326Y173174D01*
X335652Y175159D01*
X336118Y177500D01*
X335652Y179841D01*
X334326Y181826D01*
X332341Y183152D01*
X330000Y183617D01*
D02*
G37*
G36*
X310000D02*
X307659Y183152D01*
X305674Y181826D01*
X304348Y179841D01*
X303883Y177500D01*
X304348Y175159D01*
X305674Y173174D01*
X307659Y171848D01*
X310000Y171383D01*
X312341Y171848D01*
X314326Y173174D01*
X315652Y175159D01*
X316117Y177500D01*
X315652Y179841D01*
X314326Y181826D01*
X312341Y183152D01*
X310000Y183617D01*
D02*
G37*
G36*
X290000D02*
X287659Y183152D01*
X285674Y181826D01*
X284348Y179841D01*
X283883Y177500D01*
X284348Y175159D01*
X285674Y173174D01*
X287659Y171848D01*
X290000Y171383D01*
X292341Y171848D01*
X294326Y173174D01*
X295652Y175159D01*
X296117Y177500D01*
X295652Y179841D01*
X294326Y181826D01*
X292341Y183152D01*
X290000Y183617D01*
D02*
G37*
G36*
X270000D02*
X267659Y183152D01*
X265674Y181826D01*
X264348Y179841D01*
X263883Y177500D01*
X264348Y175159D01*
X265674Y173174D01*
X267659Y171848D01*
X270000Y171383D01*
X272341Y171848D01*
X274326Y173174D01*
X275652Y175159D01*
X276117Y177500D01*
X275652Y179841D01*
X274326Y181826D01*
X272341Y183152D01*
X270000Y183617D01*
D02*
G37*
G36*
X216000Y178118D02*
X213659Y177652D01*
X211674Y176326D01*
X210348Y174341D01*
X209883Y172000D01*
X210348Y169659D01*
X211674Y167674D01*
X213659Y166348D01*
X216000Y165882D01*
X218341Y166348D01*
X220326Y167674D01*
X221652Y169659D01*
X222118Y172000D01*
X221652Y174341D01*
X220326Y176326D01*
X218341Y177652D01*
X216000Y178118D01*
D02*
G37*
G36*
X192500Y174078D02*
X190151Y173768D01*
X187961Y172861D01*
X186081Y171419D01*
X184639Y169539D01*
X183732Y167349D01*
X183422Y165000D01*
X183732Y162651D01*
X184639Y160461D01*
X186081Y158581D01*
X187961Y157139D01*
X190151Y156232D01*
X192500Y155922D01*
X194849Y156232D01*
X197039Y157139D01*
X198919Y158581D01*
X200361Y160461D01*
X201268Y162651D01*
X201578Y165000D01*
X201268Y167349D01*
X200361Y169539D01*
X198919Y171419D01*
X197039Y172861D01*
X194849Y173768D01*
X192500Y174078D01*
D02*
G37*
G36*
X225000Y163617D02*
X222659Y163152D01*
X220674Y161826D01*
X219348Y159841D01*
X218883Y157500D01*
X219348Y155159D01*
X220674Y153174D01*
X222659Y151848D01*
X225000Y151383D01*
X227341Y151848D01*
X229326Y153174D01*
X230652Y155159D01*
X231117Y157500D01*
X230652Y159841D01*
X229326Y161826D01*
X227341Y163152D01*
X225000Y163617D01*
D02*
G37*
G36*
X357500Y166578D02*
X355150Y166268D01*
X352961Y165361D01*
X351081Y163919D01*
X349638Y162039D01*
X348732Y159850D01*
X348422Y157500D01*
X348732Y155150D01*
X349638Y152961D01*
X351081Y151081D01*
X352961Y149639D01*
X355150Y148732D01*
X357500Y148422D01*
X359850Y148732D01*
X362039Y149639D01*
X363919Y151081D01*
X365361Y152961D01*
X366268Y155150D01*
X366578Y157500D01*
X366268Y159850D01*
X365361Y162039D01*
X363919Y163919D01*
X362039Y165361D01*
X359850Y166268D01*
X357500Y166578D01*
D02*
G37*
G36*
X242500D02*
X240151Y166268D01*
X237961Y165361D01*
X236081Y163919D01*
X234639Y162039D01*
X233732Y159850D01*
X233422Y157500D01*
X233732Y155150D01*
X234639Y152961D01*
X236081Y151081D01*
X237961Y149639D01*
X240151Y148732D01*
X242500Y148422D01*
X244849Y148732D01*
X247039Y149639D01*
X248919Y151081D01*
X250361Y152961D01*
X251268Y155150D01*
X251578Y157500D01*
X251268Y159850D01*
X250361Y162039D01*
X248919Y163919D01*
X247039Y165361D01*
X244849Y166268D01*
X242500Y166578D01*
D02*
G37*
G36*
X37500Y156117D02*
X35159Y155652D01*
X33174Y154326D01*
X31848Y152341D01*
X31382Y150000D01*
X31848Y147659D01*
X33174Y145674D01*
X35159Y144348D01*
X37500Y143882D01*
X39841Y144348D01*
X41826Y145674D01*
X43152Y147659D01*
X43618Y150000D01*
X43152Y152341D01*
X41826Y154326D01*
X39841Y155652D01*
X37500Y156117D01*
D02*
G37*
G36*
X207500Y153617D02*
X205159Y153152D01*
X203174Y151826D01*
X201848Y149841D01*
X201382Y147500D01*
X201848Y145159D01*
X203174Y143174D01*
X205159Y141848D01*
X207500Y141382D01*
X209841Y141848D01*
X211826Y143174D01*
X213152Y145159D01*
X213617Y147500D01*
X213152Y149841D01*
X211826Y151826D01*
X209841Y153152D01*
X207500Y153617D01*
D02*
G37*
G36*
X226000Y136117D02*
X223659Y135652D01*
X221674Y134326D01*
X220348Y132341D01*
X219883Y130000D01*
X220348Y127659D01*
X221674Y125674D01*
X223659Y124348D01*
X226000Y123883D01*
X228341Y124348D01*
X230326Y125674D01*
X231652Y127659D01*
X232118Y130000D01*
X231652Y132341D01*
X230326Y134326D01*
X228341Y135652D01*
X226000Y136117D01*
D02*
G37*
G36*
X192500Y141578D02*
X190151Y141268D01*
X187961Y140361D01*
X186081Y138919D01*
X184639Y137039D01*
X183732Y134850D01*
X183422Y132500D01*
X183732Y130150D01*
X184639Y127961D01*
X186081Y126081D01*
X187961Y124639D01*
X190151Y123732D01*
X192500Y123422D01*
X194849Y123732D01*
X197039Y124639D01*
X198919Y126081D01*
X200361Y127961D01*
X201268Y130150D01*
X201578Y132500D01*
X201268Y134850D01*
X200361Y137039D01*
X198919Y138919D01*
X197039Y140361D01*
X194849Y141268D01*
X192500Y141578D01*
D02*
G37*
G36*
X170000Y133617D02*
X167659Y133152D01*
X165674Y131826D01*
X164348Y129841D01*
X163882Y127500D01*
X164348Y125159D01*
X165674Y123174D01*
X167659Y121848D01*
X170000Y121382D01*
X172341Y121848D01*
X174326Y123174D01*
X175652Y125159D01*
X176117Y127500D01*
X175652Y129841D01*
X174326Y131826D01*
X172341Y133152D01*
X170000Y133617D01*
D02*
G37*
G36*
X37500Y136117D02*
X35159Y135652D01*
X33174Y134326D01*
X31848Y132341D01*
X31382Y130000D01*
X31848Y127659D01*
X33174Y125674D01*
X35045Y124424D01*
X35105Y123750D01*
X35045Y123076D01*
X33174Y121826D01*
X31848Y119841D01*
X31382Y117500D01*
X31848Y115159D01*
X33174Y113174D01*
X35159Y111848D01*
X37500Y111382D01*
X39841Y111848D01*
X41826Y113174D01*
X43152Y115159D01*
X43618Y117500D01*
X43152Y119841D01*
X41826Y121826D01*
X39955Y123076D01*
X39895Y123750D01*
X39955Y124424D01*
X41826Y125674D01*
X43152Y127659D01*
X43618Y130000D01*
X43152Y132341D01*
X41826Y134326D01*
X39841Y135652D01*
X37500Y136117D01*
D02*
G37*
G36*
X207500Y121117D02*
X205159Y120652D01*
X203174Y119326D01*
X201848Y117341D01*
X201382Y115000D01*
X201848Y112659D01*
X203174Y110674D01*
X205159Y109348D01*
X207500Y108882D01*
X209841Y109348D01*
X211826Y110674D01*
X213152Y112659D01*
X213617Y115000D01*
X213152Y117341D01*
X211826Y119326D01*
X209841Y120652D01*
X207500Y121117D01*
D02*
G37*
G36*
X345000Y113617D02*
X342659Y113152D01*
X340674Y111826D01*
X339348Y109841D01*
X338882Y107500D01*
X339348Y105159D01*
X340674Y103174D01*
X342659Y101848D01*
X345000Y101382D01*
X347341Y101848D01*
X349326Y103174D01*
X350652Y105159D01*
X351118Y107500D01*
X350652Y109841D01*
X349326Y111826D01*
X347341Y113152D01*
X345000Y113617D01*
D02*
G37*
G36*
X255000D02*
X252659Y113152D01*
X250674Y111826D01*
X249348Y109841D01*
X248883Y107500D01*
X249348Y105159D01*
X250674Y103174D01*
X252659Y101848D01*
X255000Y101382D01*
X257341Y101848D01*
X259326Y103174D01*
X260652Y105159D01*
X261117Y107500D01*
X260652Y109841D01*
X259326Y111826D01*
X257341Y113152D01*
X255000Y113617D01*
D02*
G37*
G36*
X170000Y113617D02*
X167659Y113152D01*
X165674Y111826D01*
X164348Y109841D01*
X163882Y107500D01*
X164348Y105159D01*
X165674Y103174D01*
X167659Y101848D01*
X170000Y101382D01*
X172341Y101848D01*
X174326Y103174D01*
X175652Y105159D01*
X176117Y107500D01*
X175652Y109841D01*
X174326Y111826D01*
X172341Y113152D01*
X170000Y113617D01*
D02*
G37*
G36*
X37500Y103617D02*
X35159Y103152D01*
X33174Y101826D01*
X31848Y99841D01*
X31382Y97500D01*
X31848Y95159D01*
X33174Y93174D01*
X35159Y91848D01*
X37500Y91382D01*
X39841Y91848D01*
X41826Y93174D01*
X43152Y95159D01*
X43618Y97500D01*
X43152Y99841D01*
X41826Y101826D01*
X39841Y103152D01*
X37500Y103617D01*
D02*
G37*
G36*
X192500Y109078D02*
X190151Y108768D01*
X187961Y107861D01*
X186081Y106419D01*
X184639Y104539D01*
X183732Y102350D01*
X183422Y100000D01*
X183732Y97650D01*
X184639Y95461D01*
X186081Y93581D01*
X187961Y92139D01*
X190151Y91232D01*
X192500Y90922D01*
X194849Y91232D01*
X197039Y92139D01*
X198919Y93581D01*
X200361Y95461D01*
X201268Y97650D01*
X201578Y100000D01*
X201268Y102350D01*
X200361Y104539D01*
X198919Y106419D01*
X197039Y107861D01*
X194849Y108768D01*
X192500Y109078D01*
D02*
G37*
G36*
X170000Y93617D02*
X167659Y93152D01*
X165674Y91826D01*
X164348Y89841D01*
X163882Y87500D01*
X164348Y85159D01*
X165674Y83174D01*
X167659Y81848D01*
X170000Y81382D01*
X172341Y81848D01*
X174326Y83174D01*
X175652Y85159D01*
X176117Y87500D01*
X175652Y89841D01*
X174326Y91826D01*
X172341Y93152D01*
X170000Y93617D01*
D02*
G37*
G36*
X192500Y76578D02*
X190151Y76268D01*
X187961Y75361D01*
X186081Y73919D01*
X184639Y72039D01*
X183732Y69850D01*
X183422Y67500D01*
X183732Y65150D01*
X184639Y62961D01*
X186081Y61081D01*
X187961Y59639D01*
X190151Y58732D01*
X192500Y58422D01*
X194849Y58732D01*
X197039Y59639D01*
X198919Y61081D01*
X200361Y62961D01*
X201268Y65150D01*
X201578Y67500D01*
X201268Y69850D01*
X200361Y72039D01*
X198919Y73919D01*
X197039Y75361D01*
X194849Y76268D01*
X192500Y76578D01*
D02*
G37*
%LPD*%
D11*
X246000Y833000D02*
X247999Y831001D01*
Y807998D02*
Y831001D01*
X237500Y833000D02*
X246000D01*
D15*
X207000Y842000D02*
X219121D01*
X204000Y839000D02*
X207000Y842000D01*
X188000Y839000D02*
X204000D01*
X219121Y842000D02*
X220000Y841121D01*
Y833000D02*
Y841121D01*
D46*
X383000Y1230000D02*
D03*
X376000Y1216000D02*
D03*
X383000Y1202000D02*
D03*
X376000Y1188000D02*
D03*
X383000Y1174000D02*
D03*
X376000Y1160000D02*
D03*
X383000Y1146000D02*
D03*
X376000Y1132000D02*
D03*
X383000Y1118000D02*
D03*
X376000Y1104000D02*
D03*
X383000Y1090000D02*
D03*
X376000Y1076000D02*
D03*
X383000Y1062000D02*
D03*
X376000Y1048000D02*
D03*
X383000Y1034000D02*
D03*
X376000Y1020000D02*
D03*
X383000Y1006000D02*
D03*
Y978000D02*
D03*
X376000Y852000D02*
D03*
X383000Y838000D02*
D03*
X376000Y824000D02*
D03*
Y796000D02*
D03*
X383000Y754000D02*
D03*
X376000Y740000D02*
D03*
X383000Y726000D02*
D03*
Y698000D02*
D03*
Y670000D02*
D03*
Y642000D02*
D03*
Y614000D02*
D03*
X376000Y600000D02*
D03*
X383000Y586000D02*
D03*
Y558000D02*
D03*
Y530000D02*
D03*
Y502000D02*
D03*
X376000Y488000D02*
D03*
X383000Y474000D02*
D03*
X376000Y460000D02*
D03*
X383000Y446000D02*
D03*
X376000Y432000D02*
D03*
X383000Y418000D02*
D03*
X376000Y404000D02*
D03*
X383000Y390000D02*
D03*
X376000Y376000D02*
D03*
X383000Y362000D02*
D03*
X376000Y348000D02*
D03*
X383000Y334000D02*
D03*
X376000Y320000D02*
D03*
X383000Y306000D02*
D03*
X376000Y292000D02*
D03*
X383000Y278000D02*
D03*
X376000Y264000D02*
D03*
Y236000D02*
D03*
X383000Y222000D02*
D03*
X376000Y208000D02*
D03*
X383000Y194000D02*
D03*
X376000Y180000D02*
D03*
X383000Y166000D02*
D03*
X376000Y152000D02*
D03*
X383000Y138000D02*
D03*
X376000Y124000D02*
D03*
X383000Y110000D02*
D03*
X376000Y96000D02*
D03*
X383000Y82000D02*
D03*
X376000Y68000D02*
D03*
X383000Y54000D02*
D03*
X376000Y40000D02*
D03*
X383000Y26000D02*
D03*
X376000Y12000D02*
D03*
X369000Y1230000D02*
D03*
X362000Y1216000D02*
D03*
X369000Y1202000D02*
D03*
X362000Y1188000D02*
D03*
X369000Y1174000D02*
D03*
Y1146000D02*
D03*
Y1118000D02*
D03*
Y1090000D02*
D03*
Y1062000D02*
D03*
Y1034000D02*
D03*
X362000Y1020000D02*
D03*
X369000Y1006000D02*
D03*
X362000Y852000D02*
D03*
X369000Y838000D02*
D03*
X362000Y824000D02*
D03*
Y796000D02*
D03*
X369000Y754000D02*
D03*
Y726000D02*
D03*
X362000Y628000D02*
D03*
Y600000D02*
D03*
Y572000D02*
D03*
X369000Y474000D02*
D03*
X362000Y460000D02*
D03*
X369000Y446000D02*
D03*
Y418000D02*
D03*
Y390000D02*
D03*
Y362000D02*
D03*
Y334000D02*
D03*
X362000Y320000D02*
D03*
X369000Y306000D02*
D03*
X362000Y292000D02*
D03*
X369000Y278000D02*
D03*
X362000Y264000D02*
D03*
X369000Y250000D02*
D03*
Y222000D02*
D03*
Y194000D02*
D03*
X362000Y180000D02*
D03*
X369000Y166000D02*
D03*
Y138000D02*
D03*
Y110000D02*
D03*
Y82000D02*
D03*
X362000Y68000D02*
D03*
X369000Y54000D02*
D03*
X362000Y40000D02*
D03*
X369000Y26000D02*
D03*
X362000Y12000D02*
D03*
X355000Y1202000D02*
D03*
X348000Y1188000D02*
D03*
X355000Y1174000D02*
D03*
X348000Y1104000D02*
D03*
X355000Y1034000D02*
D03*
X348000Y1020000D02*
D03*
Y964000D02*
D03*
Y852000D02*
D03*
X355000Y838000D02*
D03*
X348000Y796000D02*
D03*
Y768000D02*
D03*
X355000Y754000D02*
D03*
X348000Y740000D02*
D03*
Y712000D02*
D03*
X355000Y698000D02*
D03*
Y670000D02*
D03*
Y642000D02*
D03*
X348000Y628000D02*
D03*
Y600000D02*
D03*
Y572000D02*
D03*
X355000Y558000D02*
D03*
Y530000D02*
D03*
Y446000D02*
D03*
X348000Y432000D02*
D03*
X355000Y418000D02*
D03*
X348000Y404000D02*
D03*
X355000Y390000D02*
D03*
Y362000D02*
D03*
Y334000D02*
D03*
Y306000D02*
D03*
X348000Y292000D02*
D03*
X355000Y278000D02*
D03*
X348000Y264000D02*
D03*
X355000Y250000D02*
D03*
Y222000D02*
D03*
X348000Y152000D02*
D03*
Y96000D02*
D03*
Y68000D02*
D03*
X355000Y54000D02*
D03*
X348000Y40000D02*
D03*
X355000Y26000D02*
D03*
X348000Y12000D02*
D03*
X341000Y1202000D02*
D03*
X334000Y1188000D02*
D03*
X341000Y1174000D02*
D03*
X334000Y1132000D02*
D03*
X341000Y1118000D02*
D03*
Y1090000D02*
D03*
Y1062000D02*
D03*
Y1034000D02*
D03*
X334000Y1020000D02*
D03*
X341000Y1006000D02*
D03*
X334000Y992000D02*
D03*
Y964000D02*
D03*
X341000Y838000D02*
D03*
Y810000D02*
D03*
X334000Y796000D02*
D03*
Y712000D02*
D03*
X341000Y698000D02*
D03*
X334000Y656000D02*
D03*
Y628000D02*
D03*
Y600000D02*
D03*
Y572000D02*
D03*
Y544000D02*
D03*
X341000Y530000D02*
D03*
Y502000D02*
D03*
Y446000D02*
D03*
X334000Y432000D02*
D03*
X341000Y418000D02*
D03*
X334000Y404000D02*
D03*
X341000Y390000D02*
D03*
X334000Y376000D02*
D03*
X341000Y362000D02*
D03*
Y334000D02*
D03*
Y306000D02*
D03*
X334000Y292000D02*
D03*
X341000Y278000D02*
D03*
X334000Y264000D02*
D03*
X341000Y250000D02*
D03*
Y222000D02*
D03*
X334000Y208000D02*
D03*
X341000Y194000D02*
D03*
Y166000D02*
D03*
Y54000D02*
D03*
X334000Y40000D02*
D03*
X341000Y26000D02*
D03*
X334000Y12000D02*
D03*
X320000Y1216000D02*
D03*
Y1132000D02*
D03*
X327000Y1062000D02*
D03*
Y1034000D02*
D03*
X320000Y1020000D02*
D03*
X327000Y1006000D02*
D03*
X320000Y992000D02*
D03*
X327000Y894000D02*
D03*
X320000Y880000D02*
D03*
X327000Y866000D02*
D03*
X320000Y796000D02*
D03*
Y768000D02*
D03*
Y712000D02*
D03*
X327000Y698000D02*
D03*
Y670000D02*
D03*
X320000Y656000D02*
D03*
X327000Y642000D02*
D03*
X320000Y628000D02*
D03*
X327000Y614000D02*
D03*
X320000Y600000D02*
D03*
X327000Y586000D02*
D03*
X320000Y572000D02*
D03*
X327000Y558000D02*
D03*
X320000Y544000D02*
D03*
X327000Y530000D02*
D03*
Y502000D02*
D03*
Y446000D02*
D03*
X320000Y404000D02*
D03*
X327000Y362000D02*
D03*
Y334000D02*
D03*
Y306000D02*
D03*
Y250000D02*
D03*
Y222000D02*
D03*
Y194000D02*
D03*
X320000Y180000D02*
D03*
Y152000D02*
D03*
Y96000D02*
D03*
Y68000D02*
D03*
X327000Y54000D02*
D03*
X320000Y40000D02*
D03*
X327000Y26000D02*
D03*
X320000Y12000D02*
D03*
X313000Y1230000D02*
D03*
X306000Y1188000D02*
D03*
Y1160000D02*
D03*
X313000Y1146000D02*
D03*
X306000Y1132000D02*
D03*
Y1104000D02*
D03*
X313000Y1062000D02*
D03*
Y1034000D02*
D03*
Y1006000D02*
D03*
X306000Y992000D02*
D03*
Y964000D02*
D03*
Y936000D02*
D03*
X313000Y894000D02*
D03*
X306000Y880000D02*
D03*
X313000Y866000D02*
D03*
X306000Y796000D02*
D03*
Y712000D02*
D03*
Y656000D02*
D03*
Y628000D02*
D03*
Y572000D02*
D03*
X313000Y446000D02*
D03*
X306000Y404000D02*
D03*
X313000Y390000D02*
D03*
X306000Y376000D02*
D03*
X313000Y278000D02*
D03*
Y250000D02*
D03*
Y222000D02*
D03*
X306000Y208000D02*
D03*
Y40000D02*
D03*
X313000Y26000D02*
D03*
X306000Y12000D02*
D03*
X299000Y1202000D02*
D03*
X292000Y1188000D02*
D03*
X299000Y1174000D02*
D03*
X292000Y1160000D02*
D03*
X299000Y1146000D02*
D03*
X292000Y1132000D02*
D03*
Y1104000D02*
D03*
X299000Y1062000D02*
D03*
Y1006000D02*
D03*
X292000Y992000D02*
D03*
X299000Y978000D02*
D03*
X292000Y964000D02*
D03*
X299000Y950000D02*
D03*
X292000Y936000D02*
D03*
X299000Y922000D02*
D03*
Y866000D02*
D03*
X292000Y852000D02*
D03*
Y740000D02*
D03*
Y628000D02*
D03*
Y572000D02*
D03*
Y488000D02*
D03*
Y460000D02*
D03*
X299000Y446000D02*
D03*
Y418000D02*
D03*
X292000Y404000D02*
D03*
X299000Y362000D02*
D03*
X292000Y320000D02*
D03*
X299000Y278000D02*
D03*
Y250000D02*
D03*
Y222000D02*
D03*
Y194000D02*
D03*
X292000Y40000D02*
D03*
X299000Y26000D02*
D03*
X292000Y12000D02*
D03*
X278000Y1216000D02*
D03*
X285000Y1202000D02*
D03*
X278000Y1188000D02*
D03*
X285000Y1174000D02*
D03*
Y1146000D02*
D03*
X278000Y1132000D02*
D03*
Y1104000D02*
D03*
X285000Y1006000D02*
D03*
X278000Y992000D02*
D03*
X285000Y978000D02*
D03*
X278000Y964000D02*
D03*
X285000Y950000D02*
D03*
X278000Y936000D02*
D03*
X285000Y922000D02*
D03*
X278000Y740000D02*
D03*
X285000Y698000D02*
D03*
Y670000D02*
D03*
X278000Y628000D02*
D03*
Y572000D02*
D03*
X285000Y530000D02*
D03*
Y502000D02*
D03*
X278000Y460000D02*
D03*
Y432000D02*
D03*
X285000Y362000D02*
D03*
X278000Y264000D02*
D03*
X285000Y250000D02*
D03*
Y222000D02*
D03*
X278000Y180000D02*
D03*
Y40000D02*
D03*
X285000Y26000D02*
D03*
X278000Y12000D02*
D03*
X271000Y1230000D02*
D03*
Y1202000D02*
D03*
X264000Y1188000D02*
D03*
X271000Y1146000D02*
D03*
X264000Y1132000D02*
D03*
X271000Y1090000D02*
D03*
X264000Y992000D02*
D03*
Y964000D02*
D03*
X271000Y922000D02*
D03*
X264000Y908000D02*
D03*
X271000Y894000D02*
D03*
Y754000D02*
D03*
X264000Y712000D02*
D03*
Y684000D02*
D03*
Y656000D02*
D03*
Y600000D02*
D03*
Y544000D02*
D03*
Y488000D02*
D03*
X271000Y474000D02*
D03*
X264000Y432000D02*
D03*
Y404000D02*
D03*
Y376000D02*
D03*
X271000Y362000D02*
D03*
X264000Y348000D02*
D03*
Y320000D02*
D03*
Y264000D02*
D03*
X271000Y250000D02*
D03*
Y222000D02*
D03*
Y194000D02*
D03*
X264000Y96000D02*
D03*
Y68000D02*
D03*
X271000Y54000D02*
D03*
X264000Y40000D02*
D03*
X271000Y26000D02*
D03*
X264000Y12000D02*
D03*
X250000Y1188000D02*
D03*
Y1132000D02*
D03*
X257000Y950000D02*
D03*
Y922000D02*
D03*
Y894000D02*
D03*
X250000Y852000D02*
D03*
Y796000D02*
D03*
X257000Y754000D02*
D03*
X250000Y740000D02*
D03*
Y712000D02*
D03*
X257000Y670000D02*
D03*
X250000Y656000D02*
D03*
X257000Y642000D02*
D03*
X250000Y600000D02*
D03*
Y572000D02*
D03*
X257000Y558000D02*
D03*
Y502000D02*
D03*
X250000Y432000D02*
D03*
X257000Y362000D02*
D03*
X250000Y236000D02*
D03*
X257000Y222000D02*
D03*
Y166000D02*
D03*
X250000Y96000D02*
D03*
Y68000D02*
D03*
X257000Y54000D02*
D03*
X250000Y40000D02*
D03*
X257000Y26000D02*
D03*
X250000Y12000D02*
D03*
X236000Y1188000D02*
D03*
X243000Y1146000D02*
D03*
X236000Y1132000D02*
D03*
Y964000D02*
D03*
X243000Y950000D02*
D03*
X236000Y936000D02*
D03*
X243000Y922000D02*
D03*
Y894000D02*
D03*
X236000Y880000D02*
D03*
Y684000D02*
D03*
X243000Y670000D02*
D03*
X236000Y656000D02*
D03*
X243000Y642000D02*
D03*
X236000Y628000D02*
D03*
Y600000D02*
D03*
X243000Y474000D02*
D03*
X236000Y432000D02*
D03*
X243000Y418000D02*
D03*
X236000Y236000D02*
D03*
X243000Y222000D02*
D03*
X236000Y208000D02*
D03*
X243000Y194000D02*
D03*
X236000Y180000D02*
D03*
X243000Y82000D02*
D03*
X236000Y68000D02*
D03*
X243000Y54000D02*
D03*
X236000Y40000D02*
D03*
X243000Y26000D02*
D03*
X236000Y12000D02*
D03*
X222000Y1188000D02*
D03*
Y992000D02*
D03*
Y936000D02*
D03*
Y768000D02*
D03*
X229000Y754000D02*
D03*
X222000Y684000D02*
D03*
X229000Y474000D02*
D03*
X222000Y432000D02*
D03*
X229000Y418000D02*
D03*
X222000Y292000D02*
D03*
Y264000D02*
D03*
Y236000D02*
D03*
X229000Y222000D02*
D03*
X222000Y208000D02*
D03*
X229000Y194000D02*
D03*
X222000Y180000D02*
D03*
X229000Y166000D02*
D03*
Y138000D02*
D03*
X222000Y40000D02*
D03*
X229000Y26000D02*
D03*
X222000Y12000D02*
D03*
X215000Y1230000D02*
D03*
X208000Y992000D02*
D03*
Y796000D02*
D03*
X215000Y726000D02*
D03*
Y698000D02*
D03*
Y670000D02*
D03*
X208000Y656000D02*
D03*
Y600000D02*
D03*
Y572000D02*
D03*
Y544000D02*
D03*
X215000Y418000D02*
D03*
X208000Y404000D02*
D03*
Y236000D02*
D03*
X215000Y222000D02*
D03*
X208000Y208000D02*
D03*
X215000Y194000D02*
D03*
X208000Y180000D02*
D03*
X215000Y138000D02*
D03*
X208000Y124000D02*
D03*
X215000Y110000D02*
D03*
X208000Y96000D02*
D03*
X215000Y82000D02*
D03*
X208000Y68000D02*
D03*
Y40000D02*
D03*
X215000Y26000D02*
D03*
X208000Y12000D02*
D03*
X194000Y880000D02*
D03*
Y852000D02*
D03*
Y768000D02*
D03*
Y740000D02*
D03*
Y712000D02*
D03*
Y572000D02*
D03*
Y348000D02*
D03*
X201000Y306000D02*
D03*
Y222000D02*
D03*
X194000Y180000D02*
D03*
X201000Y110000D02*
D03*
Y82000D02*
D03*
X194000Y40000D02*
D03*
X201000Y26000D02*
D03*
X194000Y12000D02*
D03*
X187000Y1230000D02*
D03*
Y1174000D02*
D03*
X180000Y1160000D02*
D03*
X187000Y1146000D02*
D03*
X180000Y1132000D02*
D03*
X187000Y978000D02*
D03*
Y782000D02*
D03*
Y754000D02*
D03*
Y726000D02*
D03*
Y698000D02*
D03*
X180000Y684000D02*
D03*
Y572000D02*
D03*
Y544000D02*
D03*
X187000Y362000D02*
D03*
X180000Y348000D02*
D03*
Y236000D02*
D03*
Y208000D02*
D03*
Y180000D02*
D03*
Y152000D02*
D03*
Y124000D02*
D03*
X187000Y110000D02*
D03*
X180000Y96000D02*
D03*
Y68000D02*
D03*
Y40000D02*
D03*
X187000Y26000D02*
D03*
X180000Y12000D02*
D03*
X173000Y1202000D02*
D03*
X166000Y1160000D02*
D03*
X173000Y1146000D02*
D03*
X166000Y1132000D02*
D03*
Y992000D02*
D03*
X173000Y978000D02*
D03*
Y894000D02*
D03*
X166000Y796000D02*
D03*
Y768000D02*
D03*
X173000Y726000D02*
D03*
X166000Y712000D02*
D03*
X173000Y698000D02*
D03*
X166000Y572000D02*
D03*
Y236000D02*
D03*
X173000Y222000D02*
D03*
X166000Y208000D02*
D03*
Y180000D02*
D03*
Y152000D02*
D03*
Y96000D02*
D03*
Y68000D02*
D03*
Y40000D02*
D03*
X173000Y26000D02*
D03*
X166000Y12000D02*
D03*
X152000Y1216000D02*
D03*
X159000Y1202000D02*
D03*
X152000Y1188000D02*
D03*
X159000Y1174000D02*
D03*
X152000Y1160000D02*
D03*
X159000Y1146000D02*
D03*
X152000Y1132000D02*
D03*
X159000Y1118000D02*
D03*
X152000Y992000D02*
D03*
Y964000D02*
D03*
X159000Y950000D02*
D03*
Y922000D02*
D03*
X152000Y908000D02*
D03*
X159000Y894000D02*
D03*
X152000Y768000D02*
D03*
Y740000D02*
D03*
Y712000D02*
D03*
Y628000D02*
D03*
Y488000D02*
D03*
X159000Y474000D02*
D03*
Y362000D02*
D03*
Y334000D02*
D03*
X152000Y292000D02*
D03*
Y264000D02*
D03*
X159000Y250000D02*
D03*
X152000Y236000D02*
D03*
X159000Y222000D02*
D03*
X152000Y208000D02*
D03*
Y152000D02*
D03*
X159000Y138000D02*
D03*
X152000Y68000D02*
D03*
Y40000D02*
D03*
X159000Y26000D02*
D03*
X152000Y12000D02*
D03*
X145000Y1230000D02*
D03*
Y1174000D02*
D03*
Y1146000D02*
D03*
X138000Y1132000D02*
D03*
Y936000D02*
D03*
Y908000D02*
D03*
Y712000D02*
D03*
X145000Y698000D02*
D03*
Y530000D02*
D03*
X138000Y292000D02*
D03*
X145000Y222000D02*
D03*
X138000Y152000D02*
D03*
X145000Y138000D02*
D03*
X138000Y40000D02*
D03*
X145000Y26000D02*
D03*
X138000Y12000D02*
D03*
X124000Y908000D02*
D03*
X131000Y810000D02*
D03*
X124000Y796000D02*
D03*
X131000Y754000D02*
D03*
Y698000D02*
D03*
Y530000D02*
D03*
X124000Y488000D02*
D03*
X131000Y390000D02*
D03*
Y362000D02*
D03*
Y334000D02*
D03*
Y306000D02*
D03*
X124000Y292000D02*
D03*
X131000Y278000D02*
D03*
X124000Y264000D02*
D03*
X131000Y222000D02*
D03*
Y138000D02*
D03*
X124000Y96000D02*
D03*
X131000Y54000D02*
D03*
Y26000D02*
D03*
X124000Y12000D02*
D03*
X117000Y1230000D02*
D03*
X110000Y1216000D02*
D03*
X117000Y1202000D02*
D03*
Y1146000D02*
D03*
X110000Y1132000D02*
D03*
X117000Y922000D02*
D03*
Y754000D02*
D03*
X110000Y740000D02*
D03*
Y712000D02*
D03*
X117000Y698000D02*
D03*
X110000Y516000D02*
D03*
Y488000D02*
D03*
Y292000D02*
D03*
Y264000D02*
D03*
X117000Y82000D02*
D03*
Y54000D02*
D03*
X110000Y40000D02*
D03*
X117000Y26000D02*
D03*
X110000Y12000D02*
D03*
X103000Y1230000D02*
D03*
Y1146000D02*
D03*
X96000Y1132000D02*
D03*
Y1020000D02*
D03*
X103000Y922000D02*
D03*
Y754000D02*
D03*
X96000Y740000D02*
D03*
X103000Y614000D02*
D03*
X96000Y600000D02*
D03*
X103000Y586000D02*
D03*
X96000Y572000D02*
D03*
X103000Y558000D02*
D03*
X96000Y544000D02*
D03*
X103000Y530000D02*
D03*
X96000Y516000D02*
D03*
Y488000D02*
D03*
Y460000D02*
D03*
X103000Y446000D02*
D03*
X96000Y432000D02*
D03*
X103000Y418000D02*
D03*
X96000Y404000D02*
D03*
X103000Y390000D02*
D03*
Y334000D02*
D03*
X96000Y264000D02*
D03*
Y152000D02*
D03*
X103000Y82000D02*
D03*
Y54000D02*
D03*
X96000Y40000D02*
D03*
X103000Y26000D02*
D03*
X96000Y12000D02*
D03*
X89000Y1230000D02*
D03*
X82000Y1216000D02*
D03*
X89000Y1146000D02*
D03*
X82000Y1132000D02*
D03*
X89000Y754000D02*
D03*
X82000Y740000D02*
D03*
X89000Y726000D02*
D03*
Y698000D02*
D03*
Y614000D02*
D03*
X82000Y600000D02*
D03*
X89000Y586000D02*
D03*
Y558000D02*
D03*
Y530000D02*
D03*
X82000Y516000D02*
D03*
X89000Y474000D02*
D03*
Y446000D02*
D03*
Y418000D02*
D03*
X82000Y404000D02*
D03*
X89000Y390000D02*
D03*
X82000Y320000D02*
D03*
Y292000D02*
D03*
X89000Y278000D02*
D03*
X82000Y264000D02*
D03*
X89000Y222000D02*
D03*
X82000Y180000D02*
D03*
Y96000D02*
D03*
X89000Y54000D02*
D03*
X82000Y40000D02*
D03*
X89000Y26000D02*
D03*
X82000Y12000D02*
D03*
X75000Y1230000D02*
D03*
Y1146000D02*
D03*
Y922000D02*
D03*
Y754000D02*
D03*
X68000Y740000D02*
D03*
X75000Y670000D02*
D03*
Y642000D02*
D03*
X68000Y600000D02*
D03*
X75000Y530000D02*
D03*
X68000Y516000D02*
D03*
X75000Y446000D02*
D03*
X68000Y404000D02*
D03*
X75000Y362000D02*
D03*
X68000Y292000D02*
D03*
X75000Y278000D02*
D03*
X68000Y264000D02*
D03*
X75000Y250000D02*
D03*
X68000Y180000D02*
D03*
X75000Y82000D02*
D03*
X68000Y68000D02*
D03*
X75000Y54000D02*
D03*
X68000Y40000D02*
D03*
X75000Y26000D02*
D03*
X68000Y12000D02*
D03*
X54000Y1216000D02*
D03*
X61000Y1174000D02*
D03*
Y1146000D02*
D03*
Y950000D02*
D03*
X54000Y936000D02*
D03*
X61000Y922000D02*
D03*
X54000Y908000D02*
D03*
Y824000D02*
D03*
X61000Y810000D02*
D03*
Y670000D02*
D03*
X54000Y628000D02*
D03*
Y600000D02*
D03*
Y572000D02*
D03*
X61000Y558000D02*
D03*
Y530000D02*
D03*
X54000Y516000D02*
D03*
Y488000D02*
D03*
X61000Y474000D02*
D03*
X54000Y460000D02*
D03*
X61000Y446000D02*
D03*
X54000Y432000D02*
D03*
X61000Y418000D02*
D03*
X54000Y404000D02*
D03*
X61000Y390000D02*
D03*
X54000Y376000D02*
D03*
X61000Y362000D02*
D03*
X54000Y348000D02*
D03*
X61000Y334000D02*
D03*
X54000Y320000D02*
D03*
Y292000D02*
D03*
X61000Y278000D02*
D03*
X54000Y264000D02*
D03*
Y96000D02*
D03*
X61000Y54000D02*
D03*
X54000Y40000D02*
D03*
X61000Y26000D02*
D03*
X54000Y12000D02*
D03*
X47000Y1230000D02*
D03*
Y1202000D02*
D03*
X40000Y1188000D02*
D03*
Y1160000D02*
D03*
Y1132000D02*
D03*
X47000Y1118000D02*
D03*
X40000Y1076000D02*
D03*
Y1048000D02*
D03*
X47000Y1034000D02*
D03*
X40000Y1020000D02*
D03*
X47000Y950000D02*
D03*
X40000Y880000D02*
D03*
X47000Y810000D02*
D03*
X40000Y768000D02*
D03*
Y740000D02*
D03*
Y712000D02*
D03*
Y628000D02*
D03*
X47000Y614000D02*
D03*
X40000Y600000D02*
D03*
Y572000D02*
D03*
Y516000D02*
D03*
X47000Y502000D02*
D03*
X40000Y488000D02*
D03*
X47000Y474000D02*
D03*
X40000Y460000D02*
D03*
Y432000D02*
D03*
Y404000D02*
D03*
X47000Y390000D02*
D03*
X40000Y376000D02*
D03*
X47000Y362000D02*
D03*
X40000Y348000D02*
D03*
X47000Y334000D02*
D03*
X40000Y320000D02*
D03*
X47000Y306000D02*
D03*
X40000Y292000D02*
D03*
X47000Y278000D02*
D03*
X40000Y264000D02*
D03*
Y180000D02*
D03*
Y68000D02*
D03*
X47000Y54000D02*
D03*
X40000Y40000D02*
D03*
X47000Y26000D02*
D03*
X40000Y12000D02*
D03*
X33000Y1202000D02*
D03*
X26000Y1132000D02*
D03*
X33000Y1118000D02*
D03*
X26000Y1104000D02*
D03*
X33000Y1090000D02*
D03*
X26000Y1076000D02*
D03*
X33000Y1062000D02*
D03*
X26000Y1048000D02*
D03*
X33000Y1034000D02*
D03*
X26000Y1020000D02*
D03*
X33000Y1006000D02*
D03*
X26000Y992000D02*
D03*
X33000Y978000D02*
D03*
X26000Y964000D02*
D03*
X33000Y950000D02*
D03*
Y922000D02*
D03*
X26000Y908000D02*
D03*
X33000Y894000D02*
D03*
X26000Y852000D02*
D03*
Y768000D02*
D03*
X33000Y754000D02*
D03*
X26000Y740000D02*
D03*
X33000Y726000D02*
D03*
X26000Y712000D02*
D03*
X33000Y698000D02*
D03*
X26000Y684000D02*
D03*
X33000Y670000D02*
D03*
X26000Y656000D02*
D03*
X33000Y642000D02*
D03*
X26000Y628000D02*
D03*
X33000Y614000D02*
D03*
X26000Y600000D02*
D03*
X33000Y586000D02*
D03*
X26000Y572000D02*
D03*
X33000Y558000D02*
D03*
X26000Y544000D02*
D03*
X33000Y530000D02*
D03*
X26000Y516000D02*
D03*
X33000Y502000D02*
D03*
X26000Y488000D02*
D03*
X33000Y474000D02*
D03*
X26000Y460000D02*
D03*
X33000Y446000D02*
D03*
X26000Y432000D02*
D03*
X33000Y418000D02*
D03*
X26000Y404000D02*
D03*
X33000Y390000D02*
D03*
X26000Y376000D02*
D03*
X33000Y362000D02*
D03*
X26000Y348000D02*
D03*
X33000Y334000D02*
D03*
X26000Y320000D02*
D03*
X33000Y306000D02*
D03*
X26000Y292000D02*
D03*
X33000Y278000D02*
D03*
X26000Y264000D02*
D03*
X33000Y250000D02*
D03*
X26000Y236000D02*
D03*
X33000Y194000D02*
D03*
X26000Y180000D02*
D03*
X33000Y166000D02*
D03*
X26000Y152000D02*
D03*
Y124000D02*
D03*
Y96000D02*
D03*
X33000Y82000D02*
D03*
X26000Y68000D02*
D03*
X33000Y54000D02*
D03*
X26000Y40000D02*
D03*
X33000Y26000D02*
D03*
X26000Y12000D02*
D03*
X19000Y1230000D02*
D03*
X12000Y1216000D02*
D03*
X19000Y1202000D02*
D03*
X12000Y1188000D02*
D03*
Y1160000D02*
D03*
X19000Y1146000D02*
D03*
X12000Y1132000D02*
D03*
X19000Y1118000D02*
D03*
X12000Y1104000D02*
D03*
X19000Y1090000D02*
D03*
X12000Y1076000D02*
D03*
X19000Y1062000D02*
D03*
X12000Y1048000D02*
D03*
X19000Y1034000D02*
D03*
X12000Y1020000D02*
D03*
X19000Y1006000D02*
D03*
X12000Y992000D02*
D03*
X19000Y978000D02*
D03*
X12000Y964000D02*
D03*
X19000Y950000D02*
D03*
X12000Y936000D02*
D03*
X19000Y922000D02*
D03*
X12000Y908000D02*
D03*
X19000Y894000D02*
D03*
X12000Y880000D02*
D03*
Y768000D02*
D03*
X19000Y754000D02*
D03*
X12000Y740000D02*
D03*
X19000Y726000D02*
D03*
X12000Y712000D02*
D03*
X19000Y698000D02*
D03*
X12000Y684000D02*
D03*
X19000Y670000D02*
D03*
X12000Y656000D02*
D03*
X19000Y642000D02*
D03*
X12000Y628000D02*
D03*
X19000Y614000D02*
D03*
X12000Y600000D02*
D03*
X19000Y586000D02*
D03*
X12000Y572000D02*
D03*
X19000Y558000D02*
D03*
X12000Y544000D02*
D03*
X19000Y530000D02*
D03*
X12000Y516000D02*
D03*
X19000Y502000D02*
D03*
X12000Y488000D02*
D03*
X19000Y474000D02*
D03*
X12000Y460000D02*
D03*
X19000Y446000D02*
D03*
X12000Y432000D02*
D03*
X19000Y418000D02*
D03*
X12000Y404000D02*
D03*
X19000Y390000D02*
D03*
X12000Y376000D02*
D03*
X19000Y362000D02*
D03*
X12000Y348000D02*
D03*
X19000Y334000D02*
D03*
X12000Y320000D02*
D03*
X19000Y306000D02*
D03*
X12000Y292000D02*
D03*
X19000Y278000D02*
D03*
X12000Y264000D02*
D03*
X19000Y250000D02*
D03*
X12000Y236000D02*
D03*
X19000Y222000D02*
D03*
X12000Y208000D02*
D03*
X19000Y194000D02*
D03*
X12000Y180000D02*
D03*
X19000Y166000D02*
D03*
X12000Y152000D02*
D03*
X19000Y138000D02*
D03*
X12000Y124000D02*
D03*
X19000Y110000D02*
D03*
X12000Y96000D02*
D03*
X19000Y82000D02*
D03*
X12000Y68000D02*
D03*
X19000Y54000D02*
D03*
X12000Y40000D02*
D03*
X19000Y26000D02*
D03*
X12000Y12000D02*
D03*
X355648Y989333D02*
D03*
X349627Y988860D02*
D03*
X344680Y985394D02*
D03*
X338640D02*
D03*
X332600Y985367D02*
D03*
X326655Y984303D02*
D03*
X321240Y981627D02*
D03*
X316911Y977415D02*
D03*
X313943Y972154D02*
D03*
X312711Y966241D02*
D03*
X312606Y960202D02*
D03*
Y954162D02*
D03*
Y948122D02*
D03*
Y942082D02*
D03*
Y936042D02*
D03*
Y930002D02*
D03*
Y923962D02*
D03*
Y917922D02*
D03*
X312167Y911898D02*
D03*
X323394Y915844D02*
D03*
Y921884D02*
D03*
Y927924D02*
D03*
Y933964D02*
D03*
Y940004D02*
D03*
Y946044D02*
D03*
Y952084D02*
D03*
Y958124D02*
D03*
Y964164D02*
D03*
X324813Y970035D02*
D03*
X329468Y973884D02*
D03*
X335465Y974606D02*
D03*
X341505D02*
D03*
X347453Y973559D02*
D03*
X352756Y970667D02*
D03*
X366333Y977548D02*
D03*
Y983588D02*
D03*
X312500Y900000D02*
D03*
X302500D02*
D03*
Y910000D02*
D03*
X292500D02*
D03*
X325000Y900000D02*
D03*
Y910000D02*
D03*
X212541Y1135792D02*
D03*
Y1129752D02*
D03*
X213073Y1123736D02*
D03*
X216058Y1118485D02*
D03*
X221163Y1115256D02*
D03*
X227168Y1114606D02*
D03*
X233208D02*
D03*
X239248D02*
D03*
X245287D02*
D03*
X251327D02*
D03*
X257367D02*
D03*
X263407D02*
D03*
X269447D02*
D03*
X275487D02*
D03*
X281528D02*
D03*
X287568D02*
D03*
X293608D02*
D03*
X299648D02*
D03*
X305688D02*
D03*
X311728D02*
D03*
X317738Y1114007D02*
D03*
X321798Y1109536D02*
D03*
X322106Y1103504D02*
D03*
Y1097464D02*
D03*
Y1091424D02*
D03*
Y1085384D02*
D03*
X318507Y1080533D02*
D03*
X312468Y1080394D02*
D03*
X306443Y1080822D02*
D03*
X303316Y1070616D02*
D03*
X309179Y1069167D02*
D03*
X315203Y1069606D02*
D03*
X321223Y1070105D02*
D03*
X326663Y1072729D02*
D03*
X330717Y1077206D02*
D03*
X332672Y1082921D02*
D03*
X332894Y1088957D02*
D03*
Y1094997D02*
D03*
Y1101037D02*
D03*
Y1107077D02*
D03*
X331983Y1113048D02*
D03*
X329116Y1118365D02*
D03*
X324714Y1122499D02*
D03*
X319171Y1124900D02*
D03*
X313151Y1125394D02*
D03*
X307111D02*
D03*
X301071D02*
D03*
X295031D02*
D03*
X288991D02*
D03*
X282951D02*
D03*
X276911D02*
D03*
X270871D02*
D03*
X264831D02*
D03*
X258791D02*
D03*
X252751D02*
D03*
X246711D02*
D03*
X240671D02*
D03*
X234631D02*
D03*
X228591D02*
D03*
X223329Y1128359D02*
D03*
Y1134398D02*
D03*
X223571Y1140434D02*
D03*
X224843Y1146338D02*
D03*
X278188Y910066D02*
D03*
X276167Y904374D02*
D03*
X276606Y898351D02*
D03*
Y892310D02*
D03*
Y886271D02*
D03*
Y880230D02*
D03*
X270852Y878394D02*
D03*
X264812D02*
D03*
X258772D02*
D03*
X252732D02*
D03*
X246692D02*
D03*
X240679Y877824D02*
D03*
X235790Y874277D02*
D03*
X233653Y868628D02*
D03*
X233606Y862588D02*
D03*
Y856548D02*
D03*
X243909Y850204D02*
D03*
X244394Y856225D02*
D03*
Y862265D02*
D03*
X247214Y867606D02*
D03*
X253254D02*
D03*
X259294D02*
D03*
X265334D02*
D03*
X271374D02*
D03*
X277411Y867775D02*
D03*
X282986Y870100D02*
D03*
X286572Y874960D02*
D03*
X287394Y880944D02*
D03*
Y886984D02*
D03*
Y893024D02*
D03*
Y899064D02*
D03*
X285158Y910503D02*
D03*
X307667Y1206227D02*
D03*
X307927Y1200192D02*
D03*
X312106Y1195831D02*
D03*
Y1189791D02*
D03*
Y1183751D02*
D03*
Y1177711D02*
D03*
Y1171671D02*
D03*
Y1165631D02*
D03*
X312482Y1159603D02*
D03*
X315208Y1154213D02*
D03*
X320094Y1150663D02*
D03*
X326041Y1149606D02*
D03*
X332081D02*
D03*
X338121D02*
D03*
X344161D02*
D03*
X350201Y1149560D02*
D03*
X352106Y1143828D02*
D03*
Y1137788D02*
D03*
Y1131748D02*
D03*
Y1125708D02*
D03*
Y1119668D02*
D03*
Y1113628D02*
D03*
Y1107588D02*
D03*
Y1101548D02*
D03*
Y1095508D02*
D03*
Y1089469D02*
D03*
Y1083428D02*
D03*
Y1077389D02*
D03*
Y1071348D02*
D03*
Y1065309D02*
D03*
Y1059268D02*
D03*
X351707Y1053242D02*
D03*
X346381Y1050394D02*
D03*
X340341D02*
D03*
X334301D02*
D03*
X328261D02*
D03*
X322221D02*
D03*
X316181D02*
D03*
X310141D02*
D03*
X304101D02*
D03*
X298077Y1050833D02*
D03*
X305262Y1033640D02*
D03*
X306205Y1039606D02*
D03*
X312245D02*
D03*
X318285D02*
D03*
X324325D02*
D03*
X330365D02*
D03*
X336405D02*
D03*
X342445D02*
D03*
X348484Y1039684D02*
D03*
X354318Y1041249D02*
D03*
X359091Y1044951D02*
D03*
X362085Y1050197D02*
D03*
X362894Y1056182D02*
D03*
Y1062222D02*
D03*
Y1068262D02*
D03*
Y1074302D02*
D03*
Y1080342D02*
D03*
Y1086382D02*
D03*
Y1092422D02*
D03*
Y1098462D02*
D03*
Y1104502D02*
D03*
Y1110542D02*
D03*
Y1116582D02*
D03*
Y1122622D02*
D03*
Y1128662D02*
D03*
Y1134702D02*
D03*
Y1140742D02*
D03*
Y1146782D02*
D03*
X361713Y1152705D02*
D03*
X358028Y1157491D02*
D03*
X352573Y1160085D02*
D03*
X346541Y1160394D02*
D03*
X340501D02*
D03*
X334461D02*
D03*
X328421D02*
D03*
X322894Y1162830D02*
D03*
Y1168870D02*
D03*
Y1174910D02*
D03*
Y1180950D02*
D03*
Y1186990D02*
D03*
Y1193030D02*
D03*
X325186Y1198618D02*
D03*
X326333Y1204548D02*
D03*
X212500Y347500D02*
D03*
Y332500D02*
D03*
Y337500D02*
D03*
Y342500D02*
D03*
X207500D02*
D03*
Y337500D02*
D03*
X202500Y352500D02*
D03*
X207500D02*
D03*
Y347500D02*
D03*
X217500Y342500D02*
D03*
X202500Y347500D02*
D03*
D105*
X215500Y1160500D02*
D03*
Y1154500D02*
D03*
X209500Y1160500D02*
D03*
Y1154500D02*
D03*
X203500Y1160500D02*
D03*
Y1154500D02*
D03*
X197500Y1160500D02*
D03*
Y1154500D02*
D03*
D107*
X307500Y610000D02*
D03*
Y600000D02*
D03*
Y590000D02*
D03*
X297500Y610000D02*
D03*
Y590000D02*
D03*
X287500Y610000D02*
D03*
Y590000D02*
D03*
X277500Y610000D02*
D03*
Y600000D02*
D03*
Y590000D02*
D03*
X117380Y1082000D02*
D03*
Y1066000D02*
D03*
Y1050000D02*
D03*
Y1034000D02*
D03*
Y1018000D02*
D03*
X252620Y1082000D02*
D03*
Y1066000D02*
D03*
Y1050000D02*
D03*
Y1034000D02*
D03*
Y1018000D02*
D03*
X155000D02*
D03*
X135000D02*
D03*
X175000D02*
D03*
X195000D02*
D03*
X215000D02*
D03*
X235000D02*
D03*
X155000Y1034000D02*
D03*
X135000D02*
D03*
X175000D02*
D03*
X195000D02*
D03*
X215000D02*
D03*
X235000D02*
D03*
X155000Y1050000D02*
D03*
X135000D02*
D03*
X175000D02*
D03*
X195000D02*
D03*
X215000D02*
D03*
X235000D02*
D03*
X155000Y1066000D02*
D03*
X135000D02*
D03*
X175000D02*
D03*
X195000D02*
D03*
X215000D02*
D03*
X235000D02*
D03*
Y1082000D02*
D03*
X215000D02*
D03*
X195000D02*
D03*
X175000D02*
D03*
X135000D02*
D03*
X155000D02*
D03*
D121*
X52025Y756275D02*
D03*
D124*
X72500Y580000D02*
D03*
Y545000D02*
D03*
X72500Y307500D02*
D03*
X72500Y427500D02*
D03*
D125*
X125000Y47500D02*
D03*
X310000Y54000D02*
D03*
X292000D02*
D03*
X355000Y1010000D02*
D03*
X205000Y1112500D02*
D03*
X195000D02*
D03*
X248000Y764000D02*
D03*
X268000Y815000D02*
D03*
X107500Y97500D02*
D03*
X307499Y812498D02*
D03*
X222000Y405000D02*
D03*
X288000Y1017000D02*
D03*
X175000Y822000D02*
D03*
X197000Y871000D02*
D03*
X290000Y1060000D02*
D03*
X301000Y1017000D02*
D03*
X263000Y579000D02*
D03*
X192500Y585000D02*
D03*
X180000D02*
D03*
X205000D02*
D03*
X167500D02*
D03*
X281000Y845000D02*
D03*
X170000Y1181000D02*
D03*
X227000Y881000D02*
D03*
X262000Y480000D02*
D03*
X250000D02*
D03*
X230000Y911000D02*
D03*
X163000Y726000D02*
D03*
X161000Y704000D02*
D03*
X163000Y679000D02*
D03*
X335000Y747000D02*
D03*
X217500Y585000D02*
D03*
X141000Y770000D02*
D03*
X75000D02*
D03*
X287500Y1217500D02*
D03*
Y1230000D02*
D03*
X347500D02*
D03*
Y1215000D02*
D03*
X230000Y924000D02*
D03*
X159000Y904000D02*
D03*
X275000Y1000000D02*
D03*
X170000Y1192000D02*
D03*
X217000Y1220000D02*
D03*
X227000Y982210D02*
D03*
X144000Y872000D02*
D03*
Y847000D02*
D03*
X367000Y965000D02*
D03*
X296000Y889000D02*
D03*
X124000Y955000D02*
D03*
X148000D02*
D03*
X101000D02*
D03*
X203000Y1204000D02*
D03*
X160000Y1210500D02*
D03*
Y1222500D02*
D03*
Y1234500D02*
D03*
X104000Y478000D02*
D03*
X128000D02*
D03*
Y465000D02*
D03*
X115000D02*
D03*
X116000Y478000D02*
D03*
X140000D02*
D03*
X315000Y1092500D02*
D03*
X267000Y1217000D02*
D03*
X253000Y1143000D02*
D03*
X252500Y1230000D02*
D03*
X283000Y748000D02*
D03*
X185000Y465000D02*
D03*
X276000Y795000D02*
D03*
X85000Y1197500D02*
D03*
X47500Y1045000D02*
D03*
Y1025000D02*
D03*
X106000Y362000D02*
D03*
X180000Y405000D02*
D03*
X196000D02*
D03*
X232500Y260000D02*
D03*
X212500D02*
D03*
X192500D02*
D03*
X172500D02*
D03*
X107500Y302500D02*
D03*
X85000Y67500D02*
D03*
X55000Y70000D02*
D03*
X130000Y160000D02*
D03*
X55000Y172500D02*
D03*
X75000D02*
D03*
X90000Y97500D02*
D03*
X72500D02*
D03*
X255000Y120000D02*
D03*
Y132500D02*
D03*
X345000Y120000D02*
D03*
Y132500D02*
D03*
X62500Y247500D02*
D03*
X45000D02*
D03*
X30000Y932500D02*
D03*
X22000Y803000D02*
D03*
X30000Y1144000D02*
D03*
X277500Y1060000D02*
D03*
X276000Y1033000D02*
D03*
Y1017000D02*
D03*
X343000Y823000D02*
D03*
X199000Y987000D02*
D03*
X182000D02*
D03*
X157500Y985000D02*
D03*
X95000Y1010000D02*
D03*
X95000Y1100000D02*
D03*
X95000Y1087500D02*
D03*
X185000Y1112500D02*
D03*
X172500Y1112500D02*
D03*
X129000Y1116000D02*
D03*
X47500Y440000D02*
D03*
Y420000D02*
D03*
X155000Y465000D02*
D03*
X215000Y612500D02*
D03*
Y645000D02*
D03*
X117500Y520000D02*
D03*
X130000D02*
D03*
X212000Y753000D02*
D03*
X210000Y705000D02*
D03*
X230000Y522500D02*
D03*
X47500Y525000D02*
D03*
Y562500D02*
D03*
X230000Y562500D02*
D03*
X230000Y542500D02*
D03*
X47500D02*
D03*
Y580000D02*
D03*
X230000Y490000D02*
D03*
Y505000D02*
D03*
X263189Y702629D02*
D03*
D126*
X237500Y836500D02*
D03*
X188000Y839000D02*
D03*
X220000Y833000D02*
D03*
X237500Y833000D02*
D03*
X223500Y826000D02*
D03*
X230500Y815500D02*
D03*
X237500Y826000D02*
D03*
X223500Y812000D02*
D03*
X213000Y805000D02*
D03*
X227000Y815500D02*
D03*
X223500Y819000D02*
D03*
Y822500D02*
D03*
X241000Y805000D02*
D03*
X227000Y822500D02*
D03*
X234000Y812000D02*
D03*
Y819000D02*
D03*
Y815500D02*
D03*
X230500Y812000D02*
D03*
X247999Y807998D02*
D03*
X227000Y812000D02*
D03*
X234000Y822500D02*
D03*
X227000Y819000D02*
D03*
X223500Y815500D02*
D03*
X227000Y826000D02*
D03*
X241000Y815500D02*
D03*
X230500Y826000D02*
D03*
Y822500D02*
D03*
X234000Y826000D02*
D03*
X230500Y819000D02*
D03*
X167500Y565000D02*
D03*
M02*
