G04*
G04 #@! TF.GenerationSoftware,Altium Limited,Altium Designer,19.1.9 (167)*
G04*
G04 Layer_Color=8421504*
%FSLAX44Y44*%
%MOMM*%
G71*
G01*
G75*
%ADD19R,0.7450X1.5500*%
%ADD20R,0.6700X1.5500*%
%ADD21R,0.7515X1.5500*%
%ADD22R,1.2300X0.9300*%
%ADD23R,0.4000X1.4000*%
%ADD24R,1.0000X1.4000*%
%ADD25R,0.6000X0.6000*%
%ADD26R,1.2500X1.0000*%
%ADD27R,1.0000X1.2500*%
%ADD28R,0.3000X0.3000*%
%ADD29R,0.5000X0.4000*%
%ADD30R,1.0000X0.5500*%
%ADD31R,0.8000X0.8000*%
%ADD32R,0.3000X0.3000*%
%ADD33R,0.5400X0.3000*%
%ADD34R,0.3000X0.5400*%
%ADD35R,0.5400X0.5400*%
%ADD36R,1.0500X1.0000*%
%ADD37R,2.2000X1.0500*%
%ADD38R,1.1000X1.0000*%
%ADD39R,3.0000X1.0000*%
%ADD40R,1.0000X1.0500*%
%ADD41R,1.0500X2.2000*%
%ADD42R,0.6000X0.6000*%
%ADD43R,0.5150X0.4250*%
%ADD44R,0.2750X0.4250*%
%ADD45R,0.9100X1.2200*%
%ADD46C,0.3500*%
%ADD47R,0.4000X0.6000*%
%ADD48R,2.4000X1.5000*%
%ADD49R,0.4500X0.8500*%
%ADD50R,1.6000X1.2000*%
%ADD51R,1.2000X1.6000*%
%ADD52R,0.7000X0.7000*%
%ADD53R,0.4500X0.9500*%
%ADD54R,1.3000X0.3000*%
%ADD55R,0.2300X0.4000*%
%ADD56C,0.2300*%
%ADD57R,1.3000X1.8000*%
%ADD58R,0.4000X0.5000*%
%ADD59R,1.7000X1.5000*%
%ADD60C,0.2000*%
G36*
X293750Y116250D02*
X290750D01*
Y118750D01*
X293750D01*
Y116250D01*
D02*
G37*
G36*
Y111250D02*
X290750D01*
Y113750D01*
X293750D01*
Y111250D01*
D02*
G37*
G36*
X298750Y110750D02*
X296250D01*
Y113750D01*
X298750D01*
Y110750D01*
D02*
G37*
G36*
X293750Y121250D02*
X290750D01*
Y123750D01*
X293750D01*
Y121250D01*
D02*
G37*
G36*
Y126250D02*
X290750D01*
Y128750D01*
X293750D01*
Y126250D01*
D02*
G37*
G36*
X298750D02*
X296250D01*
Y129250D01*
X298750D01*
Y126250D01*
D02*
G37*
G36*
X303750Y110750D02*
X301250D01*
Y113750D01*
X303750D01*
Y110750D01*
D02*
G37*
G36*
X309250Y111250D02*
X306250D01*
Y113750D01*
X309250D01*
Y111250D01*
D02*
G37*
G36*
Y116250D02*
X306250D01*
Y118750D01*
X309250D01*
Y116250D01*
D02*
G37*
G36*
Y126250D02*
X306250D01*
Y128750D01*
X309250D01*
Y126250D01*
D02*
G37*
G36*
X303750D02*
X301250D01*
Y129250D01*
X303750D01*
Y126250D01*
D02*
G37*
G36*
X309250Y121250D02*
X306250D01*
Y123750D01*
X309250D01*
Y121250D01*
D02*
G37*
D19*
X215210Y1157493D02*
D03*
D20*
X206502Y1157499D02*
D03*
D21*
X197758Y1157493D02*
D03*
D22*
X306800Y611301D02*
D03*
X292500D02*
D03*
X278200D02*
D03*
X306800Y600001D02*
D03*
X292500D02*
D03*
X278200D02*
D03*
X306800Y588701D02*
D03*
X292500D02*
D03*
X278200D02*
D03*
D23*
X368500Y905000D02*
D03*
D24*
X391000D02*
D03*
D25*
X22000Y791000D02*
D03*
X32000D02*
D03*
X197500Y1125000D02*
D03*
X187500D02*
D03*
X196000Y822500D02*
D03*
X186000D02*
D03*
X271000Y845500D02*
D03*
X261000D02*
D03*
X266000Y805000D02*
D03*
X276000D02*
D03*
D26*
X212000Y767000D02*
D03*
Y787000D02*
D03*
X214000Y967000D02*
D03*
Y947000D02*
D03*
X193000Y967000D02*
D03*
Y947000D02*
D03*
X171000Y967000D02*
D03*
Y947000D02*
D03*
X214000Y926000D02*
D03*
Y906000D02*
D03*
X193000Y925500D02*
D03*
Y905500D02*
D03*
X171000Y924500D02*
D03*
Y904500D02*
D03*
X248000Y724000D02*
D03*
Y704000D02*
D03*
X228000D02*
D03*
Y724000D02*
D03*
X112500Y975000D02*
D03*
Y955000D02*
D03*
X135000Y975000D02*
D03*
Y955000D02*
D03*
X253000Y1158000D02*
D03*
Y1178000D02*
D03*
X273000Y1158000D02*
D03*
Y1178000D02*
D03*
X233000Y1158000D02*
D03*
Y1178000D02*
D03*
X252500Y1197000D02*
D03*
Y1217000D02*
D03*
X232500Y1197000D02*
D03*
Y1217000D02*
D03*
X221000Y372000D02*
D03*
Y392000D02*
D03*
X252500Y292500D02*
D03*
Y272500D02*
D03*
X195000Y372000D02*
D03*
Y392000D02*
D03*
X169000Y372000D02*
D03*
Y392000D02*
D03*
X232500Y292500D02*
D03*
Y272500D02*
D03*
X212500Y292500D02*
D03*
Y272500D02*
D03*
X192500D02*
D03*
Y292500D02*
D03*
X172500D02*
D03*
Y272500D02*
D03*
X160000Y342500D02*
D03*
Y322500D02*
D03*
X270000Y127500D02*
D03*
Y107500D02*
D03*
X330000D02*
D03*
Y127500D02*
D03*
X270000Y165000D02*
D03*
Y145000D02*
D03*
X290000Y165000D02*
D03*
Y145000D02*
D03*
X310000Y165000D02*
D03*
Y145000D02*
D03*
X330000Y165000D02*
D03*
Y145000D02*
D03*
X55000Y107500D02*
D03*
Y87500D02*
D03*
Y140000D02*
D03*
Y160000D02*
D03*
X75000Y140000D02*
D03*
Y160000D02*
D03*
X95000D02*
D03*
Y140000D02*
D03*
X115000D02*
D03*
Y160000D02*
D03*
X45000Y210000D02*
D03*
Y230000D02*
D03*
X30000Y1180500D02*
D03*
Y1160500D02*
D03*
X50000Y1180500D02*
D03*
Y1160500D02*
D03*
X90000Y1180500D02*
D03*
Y1160500D02*
D03*
X70000Y1180500D02*
D03*
Y1160500D02*
D03*
X130000Y1180500D02*
D03*
Y1160500D02*
D03*
X110000Y1180500D02*
D03*
Y1160500D02*
D03*
X309000Y824500D02*
D03*
Y844500D02*
D03*
X329000Y824500D02*
D03*
Y844500D02*
D03*
X260000Y445000D02*
D03*
Y465000D02*
D03*
X240000Y445000D02*
D03*
Y465000D02*
D03*
X220000D02*
D03*
Y445000D02*
D03*
X140000D02*
D03*
Y465000D02*
D03*
X200000Y445000D02*
D03*
Y465000D02*
D03*
X133250Y585000D02*
D03*
Y565000D02*
D03*
X152500Y565000D02*
D03*
Y585000D02*
D03*
X360000Y764000D02*
D03*
Y784000D02*
D03*
X283000D02*
D03*
Y764000D02*
D03*
X247500Y610000D02*
D03*
Y590000D02*
D03*
X295000Y687500D02*
D03*
Y667500D02*
D03*
X275000Y512500D02*
D03*
Y532500D02*
D03*
X315000Y512500D02*
D03*
Y532500D02*
D03*
X295000Y512500D02*
D03*
Y532500D02*
D03*
X275000Y687500D02*
D03*
Y667500D02*
D03*
X315000Y687500D02*
D03*
Y667500D02*
D03*
D27*
X108000Y932000D02*
D03*
X128000D02*
D03*
X177500Y779500D02*
D03*
X157500D02*
D03*
Y799500D02*
D03*
X177500D02*
D03*
X292500Y67500D02*
D03*
X272500D02*
D03*
X310000D02*
D03*
X330000D02*
D03*
X252500Y412500D02*
D03*
X272500D02*
D03*
X252500Y312500D02*
D03*
X272500D02*
D03*
X252500Y332500D02*
D03*
X272500D02*
D03*
X252500Y352500D02*
D03*
X272500D02*
D03*
X252500Y372500D02*
D03*
X272500D02*
D03*
X252500Y392500D02*
D03*
X272500D02*
D03*
X120000Y382500D02*
D03*
X140000D02*
D03*
X140000Y362500D02*
D03*
X120000D02*
D03*
X120000Y282500D02*
D03*
X140000D02*
D03*
X120000Y302500D02*
D03*
X140000D02*
D03*
Y342500D02*
D03*
X120000D02*
D03*
X140000Y322500D02*
D03*
X120000D02*
D03*
X330000Y87500D02*
D03*
X310000D02*
D03*
X272500D02*
D03*
X292500D02*
D03*
X79525Y680475D02*
D03*
X99525D02*
D03*
X79525Y705475D02*
D03*
X99525D02*
D03*
X79525Y730475D02*
D03*
X99525D02*
D03*
X105000Y67500D02*
D03*
X125000D02*
D03*
X157500Y87500D02*
D03*
X137500D02*
D03*
X157500Y107500D02*
D03*
X137500D02*
D03*
X157500Y127500D02*
D03*
X137500D02*
D03*
X122500Y230000D02*
D03*
X102500D02*
D03*
X122500Y210000D02*
D03*
X102500D02*
D03*
X43000Y932000D02*
D03*
X63000D02*
D03*
X82500Y1045000D02*
D03*
X62500D02*
D03*
X82500Y1025000D02*
D03*
X62500D02*
D03*
X197500Y522500D02*
D03*
X217500D02*
D03*
X165000Y520000D02*
D03*
X145000D02*
D03*
X197500Y562500D02*
D03*
X217500D02*
D03*
X197500Y542500D02*
D03*
X217500D02*
D03*
X195000Y630000D02*
D03*
X215000D02*
D03*
D28*
X318000Y911000D02*
D03*
Y905000D02*
D03*
X296000Y899000D02*
D03*
Y905000D02*
D03*
X305000Y1097500D02*
D03*
Y1091500D02*
D03*
X289500Y1029500D02*
D03*
Y1035500D02*
D03*
X299500Y1029500D02*
D03*
Y1035500D02*
D03*
X195000Y1184500D02*
D03*
Y1190500D02*
D03*
D29*
X149000Y730000D02*
D03*
X136000D02*
D03*
X150000Y705000D02*
D03*
X137000D02*
D03*
X150500Y680000D02*
D03*
X137500D02*
D03*
X220500Y490000D02*
D03*
X207500D02*
D03*
X220500Y505000D02*
D03*
X207500D02*
D03*
D30*
X90750Y780500D02*
D03*
Y771000D02*
D03*
Y761500D02*
D03*
X111250D02*
D03*
Y771000D02*
D03*
Y780500D02*
D03*
D31*
X245000Y1082000D02*
D03*
Y1018000D02*
D03*
Y1050000D02*
D03*
Y1034000D02*
D03*
Y1066000D02*
D03*
X225000Y1018000D02*
D03*
Y1050000D02*
D03*
Y1034000D02*
D03*
Y1066000D02*
D03*
Y1082000D02*
D03*
X185000Y1018000D02*
D03*
Y1050000D02*
D03*
Y1034000D02*
D03*
Y1066000D02*
D03*
Y1082000D02*
D03*
X205000Y1018000D02*
D03*
Y1050000D02*
D03*
Y1034000D02*
D03*
Y1066000D02*
D03*
Y1082000D02*
D03*
X165000Y1018000D02*
D03*
Y1050000D02*
D03*
Y1034000D02*
D03*
Y1066000D02*
D03*
Y1082000D02*
D03*
X145000D02*
D03*
Y1066000D02*
D03*
Y1034000D02*
D03*
Y1050000D02*
D03*
Y1018000D02*
D03*
X125000D02*
D03*
Y1050000D02*
D03*
Y1034000D02*
D03*
Y1066000D02*
D03*
Y1082000D02*
D03*
D32*
X227500Y1006500D02*
D03*
X222500D02*
D03*
X232500D02*
D03*
X217500D02*
D03*
X167500D02*
D03*
X177500D02*
D03*
X172500D02*
D03*
X182500D02*
D03*
X142500D02*
D03*
X132500D02*
D03*
X137500D02*
D03*
X127500D02*
D03*
X227500Y1093500D02*
D03*
X222500D02*
D03*
X232500D02*
D03*
X217500D02*
D03*
X167500D02*
D03*
X177500D02*
D03*
X172500D02*
D03*
X182500D02*
D03*
X142500D02*
D03*
X132500D02*
D03*
X137500D02*
D03*
X127500D02*
D03*
X304000Y905000D02*
D03*
X310000D02*
D03*
X282000D02*
D03*
X288000D02*
D03*
X287500Y1075000D02*
D03*
X281500D02*
D03*
X308000D02*
D03*
X302000D02*
D03*
X291500Y1045000D02*
D03*
X297500D02*
D03*
X179500Y1182500D02*
D03*
X185500D02*
D03*
X179500Y1192500D02*
D03*
X185500D02*
D03*
D33*
X106300Y1005000D02*
D03*
X263700Y1040000D02*
D03*
X106300Y1095000D02*
D03*
Y1090000D02*
D03*
Y1085000D02*
D03*
Y1080000D02*
D03*
Y1075000D02*
D03*
Y1070000D02*
D03*
Y1065000D02*
D03*
Y1060000D02*
D03*
Y1055000D02*
D03*
Y1050000D02*
D03*
Y1045000D02*
D03*
Y1040000D02*
D03*
Y1035000D02*
D03*
Y1030000D02*
D03*
Y1025000D02*
D03*
Y1020000D02*
D03*
Y1015000D02*
D03*
Y1010000D02*
D03*
X263700Y1005000D02*
D03*
Y1010000D02*
D03*
Y1015000D02*
D03*
Y1020000D02*
D03*
Y1025000D02*
D03*
Y1030000D02*
D03*
Y1035000D02*
D03*
Y1045000D02*
D03*
Y1050000D02*
D03*
Y1055000D02*
D03*
Y1060000D02*
D03*
Y1065000D02*
D03*
Y1070000D02*
D03*
Y1075000D02*
D03*
Y1080000D02*
D03*
Y1085000D02*
D03*
Y1090000D02*
D03*
Y1095000D02*
D03*
D34*
X257500Y998800D02*
D03*
X117500D02*
D03*
X122500D02*
D03*
X127500D02*
D03*
X132500D02*
D03*
X137500D02*
D03*
X142500D02*
D03*
X147500D02*
D03*
X152500D02*
D03*
X157500D02*
D03*
X167500D02*
D03*
X172500D02*
D03*
X177500D02*
D03*
X182500D02*
D03*
X187500D02*
D03*
X192500D02*
D03*
X197500D02*
D03*
X202500D02*
D03*
X207500D02*
D03*
X212500D02*
D03*
X217500D02*
D03*
X222500D02*
D03*
X227500D02*
D03*
X232500D02*
D03*
X237500D02*
D03*
X242500D02*
D03*
X247500D02*
D03*
X252500D02*
D03*
X257500Y1101200D02*
D03*
X252500D02*
D03*
X247500D02*
D03*
X242500D02*
D03*
X237500D02*
D03*
X232500D02*
D03*
X227500D02*
D03*
X222500D02*
D03*
X217500D02*
D03*
X212500D02*
D03*
X207500D02*
D03*
X202500D02*
D03*
X197500D02*
D03*
X192500D02*
D03*
X187500D02*
D03*
X182500D02*
D03*
X177500D02*
D03*
X172500D02*
D03*
X167500D02*
D03*
X162500D02*
D03*
X157500D02*
D03*
X152500D02*
D03*
X147500D02*
D03*
X142500D02*
D03*
X137500D02*
D03*
X132500D02*
D03*
X127500D02*
D03*
X122500D02*
D03*
X112500Y998800D02*
D03*
X162500D02*
D03*
X112500Y1101200D02*
D03*
X117500D02*
D03*
D35*
X263700Y998800D02*
D03*
X106300D02*
D03*
X263700Y1101200D02*
D03*
X106300D02*
D03*
D36*
X356750Y980000D02*
D03*
D37*
X372000Y994750D02*
D03*
Y965250D02*
D03*
D38*
X26000Y834600D02*
D03*
Y860000D02*
D03*
Y885400D02*
D03*
X144000Y834600D02*
D03*
Y860000D02*
D03*
Y885400D02*
D03*
D39*
X85000Y807000D02*
D03*
Y913000D02*
D03*
D40*
X317000Y1206750D02*
D03*
X188000D02*
D03*
D41*
X302250Y1222000D02*
D03*
X331750D02*
D03*
X173250D02*
D03*
X202750D02*
D03*
D42*
X295000Y1097500D02*
D03*
Y1087500D02*
D03*
X217500Y1197000D02*
D03*
Y1207000D02*
D03*
X207750Y861000D02*
D03*
Y871000D02*
D03*
X227000Y871000D02*
D03*
Y861000D02*
D03*
X258000Y821000D02*
D03*
Y811000D02*
D03*
X248000Y786000D02*
D03*
Y776000D02*
D03*
D43*
X217935Y1145625D02*
D03*
X195065D02*
D03*
Y1169375D02*
D03*
X217935D02*
D03*
D44*
X211500Y1145625D02*
D03*
X206500D02*
D03*
X201500D02*
D03*
Y1169375D02*
D03*
X206500D02*
D03*
X211500D02*
D03*
D45*
X109775Y655475D02*
D03*
X77025D02*
D03*
D46*
X202500Y327500D02*
D03*
Y332500D02*
D03*
Y337500D02*
D03*
Y342500D02*
D03*
Y347500D02*
D03*
Y352500D02*
D03*
X207500Y327500D02*
D03*
Y332500D02*
D03*
Y337500D02*
D03*
Y342500D02*
D03*
Y347500D02*
D03*
Y352500D02*
D03*
X212500Y327500D02*
D03*
Y332500D02*
D03*
Y337500D02*
D03*
Y342500D02*
D03*
Y347500D02*
D03*
Y352500D02*
D03*
X217500Y327500D02*
D03*
Y332500D02*
D03*
Y337500D02*
D03*
Y342500D02*
D03*
Y347500D02*
D03*
Y352500D02*
D03*
X222500Y327500D02*
D03*
Y332500D02*
D03*
Y337500D02*
D03*
Y342500D02*
D03*
Y347500D02*
D03*
Y352500D02*
D03*
D47*
X72000Y88000D02*
D03*
X78000D02*
D03*
X84000D02*
D03*
X90000D02*
D03*
X96000D02*
D03*
X102000D02*
D03*
X108000D02*
D03*
X72000Y107000D02*
D03*
X78000D02*
D03*
X84000D02*
D03*
X90000D02*
D03*
X96000D02*
D03*
X102000D02*
D03*
X108000D02*
D03*
D48*
X72791Y220659D02*
D03*
D49*
X62791Y206159D02*
D03*
X72791D02*
D03*
X82791D02*
D03*
X62791Y235159D02*
D03*
X72791D02*
D03*
X82791D02*
D03*
D50*
X80000Y955500D02*
D03*
Y987500D02*
D03*
D51*
X82500Y1067500D02*
D03*
X50500D02*
D03*
D52*
X278000Y815000D02*
D03*
Y827000D02*
D03*
X294000D02*
D03*
Y815000D02*
D03*
D53*
X311550Y638700D02*
D03*
X298850D02*
D03*
X286150D02*
D03*
X273450D02*
D03*
X311550Y561300D02*
D03*
X298850D02*
D03*
X286150D02*
D03*
X273450D02*
D03*
D54*
X170000Y467500D02*
D03*
D55*
X176000Y472500D02*
D03*
X172000D02*
D03*
X168000D02*
D03*
X164000D02*
D03*
X176000Y462500D02*
D03*
X172000D02*
D03*
X168000D02*
D03*
X164000D02*
D03*
D56*
X167500Y565000D02*
D03*
X171500D02*
D03*
X167500Y561000D02*
D03*
X171500D02*
D03*
X167500Y557000D02*
D03*
X171500D02*
D03*
D57*
X140500Y497500D02*
D03*
X169500D02*
D03*
X140500Y630000D02*
D03*
X169500D02*
D03*
D58*
X117500Y530000D02*
D03*
Y543000D02*
D03*
D59*
X308500Y762000D02*
D03*
X333500D02*
D03*
Y784000D02*
D03*
X308500D02*
D03*
D60*
X244500Y833000D02*
D03*
Y829500D02*
D03*
Y826000D02*
D03*
Y822500D02*
D03*
Y819000D02*
D03*
Y815500D02*
D03*
Y812000D02*
D03*
Y808500D02*
D03*
Y805000D02*
D03*
X241000Y829500D02*
D03*
Y826000D02*
D03*
Y822500D02*
D03*
Y819000D02*
D03*
Y815500D02*
D03*
Y812000D02*
D03*
Y808500D02*
D03*
Y805000D02*
D03*
X237500Y826000D02*
D03*
Y822500D02*
D03*
Y819000D02*
D03*
Y815500D02*
D03*
Y812000D02*
D03*
Y808500D02*
D03*
Y805000D02*
D03*
X234000Y829500D02*
D03*
Y826000D02*
D03*
Y822500D02*
D03*
Y819000D02*
D03*
Y815500D02*
D03*
Y812000D02*
D03*
Y808500D02*
D03*
Y805000D02*
D03*
X230500Y836500D02*
D03*
Y833000D02*
D03*
Y829500D02*
D03*
Y826000D02*
D03*
Y822500D02*
D03*
Y819000D02*
D03*
Y815500D02*
D03*
Y812000D02*
D03*
Y808500D02*
D03*
Y805000D02*
D03*
X227000Y836500D02*
D03*
Y833000D02*
D03*
Y829500D02*
D03*
Y826000D02*
D03*
Y822500D02*
D03*
Y819000D02*
D03*
Y815500D02*
D03*
Y812000D02*
D03*
Y808500D02*
D03*
Y805000D02*
D03*
X223500Y836500D02*
D03*
Y833000D02*
D03*
Y829500D02*
D03*
Y826000D02*
D03*
Y822500D02*
D03*
Y819000D02*
D03*
Y815500D02*
D03*
Y812000D02*
D03*
Y808500D02*
D03*
Y805000D02*
D03*
X220000Y836500D02*
D03*
Y833000D02*
D03*
Y826000D02*
D03*
Y822500D02*
D03*
Y819000D02*
D03*
Y815500D02*
D03*
Y812000D02*
D03*
Y808500D02*
D03*
Y805000D02*
D03*
X216500Y836500D02*
D03*
Y833000D02*
D03*
Y829500D02*
D03*
Y826000D02*
D03*
Y822500D02*
D03*
Y819000D02*
D03*
Y815500D02*
D03*
Y812000D02*
D03*
Y808500D02*
D03*
Y805000D02*
D03*
X213000Y836500D02*
D03*
Y833000D02*
D03*
Y829500D02*
D03*
Y826000D02*
D03*
Y822500D02*
D03*
Y819000D02*
D03*
Y815500D02*
D03*
Y812000D02*
D03*
Y808500D02*
D03*
X244500Y836500D02*
D03*
X237500Y833000D02*
D03*
Y836500D02*
D03*
X213000Y805000D02*
D03*
M02*
