G04*
G04 #@! TF.GenerationSoftware,Altium Limited,Altium Designer,19.1.9 (167)*
G04*
G04 Layer_Color=7477623*
%FSLAX44Y44*%
%MOMM*%
G71*
G01*
G75*
%ADD102C,2.1500*%
%ADD103R,2.1500X2.1500*%
%ADD104C,1.7500*%
%ADD105C,0.6000*%
%ADD106C,2.3500*%
%ADD107C,0.6500*%
D102*
X52025Y756275D02*
D03*
Y730875D02*
D03*
Y680075D02*
D03*
Y705475D02*
D03*
D103*
Y654675D02*
D03*
D104*
X192500Y67500D02*
D03*
X97500Y1220000D02*
D03*
X32500D02*
D03*
X65000D02*
D03*
X130000D02*
D03*
X192500Y197500D02*
D03*
Y230000D02*
D03*
X287500Y285000D02*
D03*
X325000D02*
D03*
Y317500D02*
D03*
Y350000D02*
D03*
Y382500D02*
D03*
Y415000D02*
D03*
X357500Y157500D02*
D03*
X242500D02*
D03*
X352500Y207500D02*
D03*
X320000D02*
D03*
X255000D02*
D03*
X287500D02*
D03*
X192500Y165000D02*
D03*
Y132500D02*
D03*
Y100000D02*
D03*
X345000Y680000D02*
D03*
Y647500D02*
D03*
Y615000D02*
D03*
Y582500D02*
D03*
Y550000D02*
D03*
Y517500D02*
D03*
X287500Y437500D02*
D03*
X361000Y812000D02*
D03*
D105*
X215500Y1160500D02*
D03*
Y1154500D02*
D03*
X209500Y1160500D02*
D03*
Y1154500D02*
D03*
X203500Y1160500D02*
D03*
Y1154500D02*
D03*
X197500Y1160500D02*
D03*
Y1154500D02*
D03*
D106*
X72500Y615000D02*
D03*
Y580000D02*
D03*
Y545000D02*
D03*
X72500Y377500D02*
D03*
Y342500D02*
D03*
Y307500D02*
D03*
X72500Y497500D02*
D03*
Y462500D02*
D03*
Y427500D02*
D03*
D107*
X67791Y215659D02*
D03*
Y225659D02*
D03*
X77791Y215659D02*
D03*
Y225659D02*
D03*
M02*
