G04*
G04 #@! TF.GenerationSoftware,Altium Limited,Altium Designer,19.1.9 (167)*
G04*
G04 Layer_Physical_Order=2*
G04 Layer_Color=7196924*
%FSLAX44Y44*%
%MOMM*%
G71*
G01*
G75*
%ADD11C,0.2000*%
%ADD15C,0.1500*%
%ADD47C,0.3500*%
%ADD105C,0.6000*%
%ADD120C,2.0000*%
%ADD123C,2.2000*%
%ADD124C,0.7000*%
%ADD125C,1.0000*%
%ADD126C,0.2500*%
G36*
X384941Y1246290D02*
X388025Y1245013D01*
X390799Y1243159D01*
X393159Y1240799D01*
X395013Y1238025D01*
X396290Y1234942D01*
X396941Y1231669D01*
X396941Y1230000D01*
Y955000D01*
X330000D01*
Y854000D01*
X396941D01*
Y20000D01*
X396941Y18331D01*
X396290Y15058D01*
X395013Y11975D01*
X393159Y9201D01*
X390799Y6841D01*
X388025Y4987D01*
X384941Y3710D01*
X381669Y3059D01*
X20000D01*
X18331Y3059D01*
X15058Y3710D01*
X11975Y4987D01*
X9201Y6841D01*
X6841Y9201D01*
X4987Y11975D01*
X3710Y15058D01*
X3059Y18331D01*
X3059Y20000D01*
Y1230000D01*
X3059Y1231669D01*
X3710Y1234941D01*
X4987Y1238025D01*
X6841Y1240799D01*
X9201Y1243159D01*
X11975Y1245013D01*
X15058Y1246290D01*
X18331Y1246941D01*
X20000Y1246941D01*
X381669D01*
X384941Y1246290D01*
D02*
G37*
%LPC*%
G36*
X239000Y1236117D02*
X236659Y1235652D01*
X234674Y1234326D01*
X233348Y1232341D01*
X233147Y1231332D01*
X231853D01*
X231652Y1232341D01*
X230326Y1234326D01*
X228341Y1235652D01*
X226000Y1236117D01*
X223659Y1235652D01*
X221674Y1234326D01*
X220348Y1232341D01*
X219883Y1230000D01*
X220348Y1227659D01*
X221674Y1225674D01*
X223659Y1224348D01*
X226000Y1223883D01*
X228341Y1224348D01*
X230326Y1225674D01*
X231652Y1227659D01*
X231853Y1228668D01*
X233147D01*
X233348Y1227659D01*
X234674Y1225674D01*
X236659Y1224348D01*
X239000Y1223883D01*
X241341Y1224348D01*
X243326Y1225674D01*
X244652Y1227659D01*
X245117Y1230000D01*
X244652Y1232341D01*
X243326Y1234326D01*
X241341Y1235652D01*
X239000Y1236117D01*
D02*
G37*
G36*
X130000Y1229078D02*
X127650Y1228768D01*
X125461Y1227861D01*
X123581Y1226419D01*
X122139Y1224539D01*
X121232Y1222349D01*
X120922Y1220000D01*
X121232Y1217651D01*
X122139Y1215461D01*
X123581Y1213581D01*
X125461Y1212139D01*
X127650Y1211232D01*
X130000Y1210922D01*
X132349Y1211232D01*
X134539Y1212139D01*
X136419Y1213581D01*
X137861Y1215461D01*
X138768Y1217651D01*
X139078Y1220000D01*
X138768Y1222349D01*
X137861Y1224539D01*
X136419Y1226419D01*
X134539Y1227861D01*
X132349Y1228768D01*
X130000Y1229078D01*
D02*
G37*
G36*
X97500D02*
X95150Y1228768D01*
X92961Y1227861D01*
X91081Y1226419D01*
X89639Y1224539D01*
X88732Y1222349D01*
X88422Y1220000D01*
X88732Y1217651D01*
X89639Y1215461D01*
X91081Y1213581D01*
X92961Y1212139D01*
X95150Y1211232D01*
X97500Y1210922D01*
X99850Y1211232D01*
X102039Y1212139D01*
X103919Y1213581D01*
X105361Y1215461D01*
X106268Y1217651D01*
X106578Y1220000D01*
X106268Y1222349D01*
X105361Y1224539D01*
X103919Y1226419D01*
X102039Y1227861D01*
X99850Y1228768D01*
X97500Y1229078D01*
D02*
G37*
G36*
X65000D02*
X62650Y1228768D01*
X60461Y1227861D01*
X58581Y1226419D01*
X57139Y1224539D01*
X56232Y1222349D01*
X55922Y1220000D01*
X56232Y1217651D01*
X57139Y1215461D01*
X58581Y1213581D01*
X60461Y1212139D01*
X62650Y1211232D01*
X65000Y1210922D01*
X67349Y1211232D01*
X69539Y1212139D01*
X71419Y1213581D01*
X72861Y1215461D01*
X73768Y1217651D01*
X74078Y1220000D01*
X73768Y1222349D01*
X72861Y1224539D01*
X71419Y1226419D01*
X69539Y1227861D01*
X67349Y1228768D01*
X65000Y1229078D01*
D02*
G37*
G36*
X32500D02*
X30150Y1228768D01*
X27961Y1227861D01*
X26081Y1226419D01*
X24639Y1224539D01*
X23732Y1222349D01*
X23422Y1220000D01*
X23732Y1217651D01*
X24639Y1215461D01*
X26081Y1213581D01*
X27961Y1212139D01*
X30150Y1211232D01*
X32500Y1210922D01*
X34849Y1211232D01*
X37039Y1212139D01*
X38919Y1213581D01*
X40361Y1215461D01*
X41268Y1217651D01*
X41578Y1220000D01*
X41268Y1222349D01*
X40361Y1224539D01*
X38919Y1226419D01*
X37039Y1227861D01*
X34849Y1228768D01*
X32500Y1229078D01*
D02*
G37*
G36*
X144000Y1206117D02*
X141659Y1205652D01*
X139674Y1204326D01*
X138348Y1202341D01*
X137882Y1200000D01*
X138348Y1197659D01*
X139674Y1195674D01*
X141659Y1194348D01*
X144000Y1193882D01*
X146341Y1194348D01*
X148326Y1195674D01*
X149652Y1197659D01*
X150118Y1200000D01*
X149652Y1202341D01*
X148326Y1204326D01*
X146341Y1205652D01*
X144000Y1206117D01*
D02*
G37*
G36*
X100000D02*
X97659Y1205652D01*
X95674Y1204326D01*
X94348Y1202341D01*
X93883Y1200000D01*
X94348Y1197659D01*
X95674Y1195674D01*
X97659Y1194348D01*
X100000Y1193882D01*
X102341Y1194348D01*
X104326Y1195674D01*
X105652Y1197659D01*
X106117Y1200000D01*
X105652Y1202341D01*
X104326Y1204326D01*
X102341Y1205652D01*
X100000Y1206117D01*
D02*
G37*
G36*
X59000Y1204118D02*
X56659Y1203652D01*
X54674Y1202326D01*
X53348Y1200341D01*
X52882Y1198000D01*
X53348Y1195659D01*
X54674Y1193674D01*
X56659Y1192348D01*
X59000Y1191882D01*
X61341Y1192348D01*
X63326Y1193674D01*
X64652Y1195659D01*
X65118Y1198000D01*
X64652Y1200341D01*
X63326Y1202326D01*
X61341Y1203652D01*
X59000Y1204118D01*
D02*
G37*
G36*
X218000Y1164843D02*
Y1163000D01*
X219843D01*
X219105Y1164105D01*
X218000Y1164843D01*
D02*
G37*
G36*
X195000Y1164843D02*
X193895Y1164105D01*
X193157Y1163000D01*
X195000D01*
Y1164843D01*
D02*
G37*
G36*
X212000Y1164843D02*
Y1160500D01*
X207000D01*
Y1164843D01*
X206500Y1164509D01*
X206000Y1164843D01*
Y1160500D01*
X201000D01*
Y1164843D01*
X200500Y1164509D01*
X200000Y1164843D01*
Y1160500D01*
X197500D01*
Y1158000D01*
X193157D01*
X193491Y1157500D01*
X193157Y1157000D01*
X197500D01*
Y1154500D01*
X200000D01*
Y1150157D01*
X200500Y1150491D01*
X201000Y1150157D01*
Y1154500D01*
X206000D01*
Y1150157D01*
X206500Y1150491D01*
X207000Y1150157D01*
Y1154500D01*
X212000D01*
Y1150157D01*
X212500Y1150491D01*
X213000Y1150157D01*
Y1154500D01*
X215500D01*
Y1157000D01*
X219843D01*
X219509Y1157500D01*
X219843Y1158000D01*
X215500D01*
Y1160500D01*
X213000D01*
Y1164843D01*
X212500Y1164509D01*
X212000Y1164843D01*
D02*
G37*
G36*
X195000Y1152000D02*
X193157D01*
X193895Y1150895D01*
X195000Y1150157D01*
Y1152000D01*
D02*
G37*
G36*
X219843D02*
X218000D01*
Y1150157D01*
X219105Y1150895D01*
X219843Y1152000D01*
D02*
G37*
G36*
X233000Y1149118D02*
X230659Y1148652D01*
X228674Y1147326D01*
X227348Y1145341D01*
X226882Y1143000D01*
X227348Y1140659D01*
X228674Y1138674D01*
X230659Y1137348D01*
X233000Y1136882D01*
X235341Y1137348D01*
X237326Y1138674D01*
X238652Y1140659D01*
X239118Y1143000D01*
X238652Y1145341D01*
X237326Y1147326D01*
X235341Y1148652D01*
X233000Y1149118D01*
D02*
G37*
G36*
X37500Y1148617D02*
X35159Y1148152D01*
X33174Y1146826D01*
X31848Y1144841D01*
X31383Y1142500D01*
X31848Y1140159D01*
X33174Y1138174D01*
X35159Y1136848D01*
X37500Y1136383D01*
X39841Y1136848D01*
X41826Y1138174D01*
X43152Y1140159D01*
X43618Y1142500D01*
X43152Y1144841D01*
X41826Y1146826D01*
X39841Y1148152D01*
X37500Y1148617D01*
D02*
G37*
G36*
Y1128617D02*
X35159Y1128152D01*
X33174Y1126826D01*
X31848Y1124841D01*
X31383Y1122500D01*
X31848Y1120159D01*
X33174Y1118174D01*
X35159Y1116848D01*
X37500Y1116383D01*
X39841Y1116848D01*
X41826Y1118174D01*
X43152Y1120159D01*
X43618Y1122500D01*
X43152Y1124841D01*
X41826Y1126826D01*
X39841Y1128152D01*
X37500Y1128617D01*
D02*
G37*
G36*
X72500Y1106117D02*
X70159Y1105652D01*
X68174Y1104326D01*
X66924Y1102455D01*
X66250Y1102395D01*
X65576Y1102455D01*
X64326Y1104326D01*
X62341Y1105652D01*
X60000Y1106117D01*
X57659Y1105652D01*
X55674Y1104326D01*
X54424Y1102455D01*
X53750Y1102395D01*
X53076Y1102455D01*
X51826Y1104326D01*
X49841Y1105652D01*
X47500Y1106117D01*
X45159Y1105652D01*
X43174Y1104326D01*
X41848Y1102341D01*
X41382Y1100000D01*
X41848Y1097659D01*
X43174Y1095674D01*
X45045Y1094424D01*
X45105Y1093750D01*
X45045Y1093076D01*
X43174Y1091826D01*
X41848Y1089841D01*
X41382Y1087500D01*
X41848Y1085159D01*
X43174Y1083174D01*
X45159Y1081848D01*
X47500Y1081383D01*
X49841Y1081848D01*
X51826Y1083174D01*
X53076Y1085045D01*
X53750Y1085105D01*
X54424Y1085045D01*
X55674Y1083174D01*
X57659Y1081848D01*
X60000Y1081383D01*
X62341Y1081848D01*
X64326Y1083174D01*
X65576Y1085045D01*
X66250Y1085105D01*
X66924Y1085045D01*
X68174Y1083174D01*
X70159Y1081848D01*
X72500Y1081383D01*
X74841Y1081848D01*
X76826Y1083174D01*
X78152Y1085159D01*
X78618Y1087500D01*
X78152Y1089841D01*
X76826Y1091826D01*
X74955Y1093076D01*
X74895Y1093750D01*
X74955Y1094424D01*
X76826Y1095674D01*
X78152Y1097659D01*
X78618Y1100000D01*
X78152Y1102341D01*
X76826Y1104326D01*
X74841Y1105652D01*
X72500Y1106117D01*
D02*
G37*
G36*
X285000Y1103617D02*
X282659Y1103152D01*
X280674Y1101826D01*
X279348Y1099841D01*
X278882Y1097500D01*
X279348Y1095159D01*
X280674Y1093174D01*
X282659Y1091848D01*
X285000Y1091383D01*
X287341Y1091848D01*
X289326Y1093174D01*
X290652Y1095159D01*
X291117Y1097500D01*
X290652Y1099841D01*
X289326Y1101826D01*
X287341Y1103152D01*
X285000Y1103617D01*
D02*
G37*
G36*
X27500Y1090474D02*
Y1081200D01*
X36774D01*
X36691Y1081833D01*
X35482Y1084752D01*
X33558Y1087259D01*
X31052Y1089182D01*
X28133Y1090391D01*
X27500Y1090474D01*
D02*
G37*
G36*
X22500D02*
X21867Y1090391D01*
X18948Y1089182D01*
X16442Y1087259D01*
X14518Y1084752D01*
X13309Y1081833D01*
X13226Y1081200D01*
X22500D01*
Y1090474D01*
D02*
G37*
G36*
X36774Y1076200D02*
X27500D01*
Y1066926D01*
X28133Y1067009D01*
X31052Y1068218D01*
X33558Y1070142D01*
X35482Y1072648D01*
X36691Y1075567D01*
X36774Y1076200D01*
D02*
G37*
G36*
X22500D02*
X13226D01*
X13309Y1075567D01*
X14518Y1072648D01*
X16442Y1070142D01*
X18948Y1068218D01*
X21867Y1067009D01*
X22500Y1066926D01*
Y1076200D01*
D02*
G37*
G36*
X25000Y1064395D02*
X22128Y1064017D01*
X19453Y1062908D01*
X17155Y1061145D01*
X15391Y1058848D01*
X14283Y1056172D01*
X13905Y1053300D01*
X14283Y1050428D01*
X15391Y1047753D01*
X17155Y1045455D01*
X19453Y1043691D01*
X22128Y1042583D01*
X25000Y1042205D01*
X27872Y1042583D01*
X30547Y1043691D01*
X32845Y1045455D01*
X34609Y1047753D01*
X35717Y1050428D01*
X36095Y1053300D01*
X35717Y1056172D01*
X34609Y1058848D01*
X32845Y1061145D01*
X30547Y1062908D01*
X27872Y1064017D01*
X25000Y1064395D01*
D02*
G37*
G36*
Y1038995D02*
X22128Y1038617D01*
X19453Y1037508D01*
X17155Y1035745D01*
X15391Y1033447D01*
X14283Y1030772D01*
X13905Y1027900D01*
X14283Y1025028D01*
X15391Y1022353D01*
X17155Y1020055D01*
X19453Y1018291D01*
X22128Y1017183D01*
X25000Y1016805D01*
X27872Y1017183D01*
X30547Y1018291D01*
X32845Y1020055D01*
X34609Y1022353D01*
X35717Y1025028D01*
X36095Y1027900D01*
X35717Y1030772D01*
X34609Y1033447D01*
X32845Y1035745D01*
X30547Y1037508D01*
X27872Y1038617D01*
X25000Y1038995D01*
D02*
G37*
G36*
X62500Y1008617D02*
X60159Y1008152D01*
X58174Y1006826D01*
X56848Y1004841D01*
X56382Y1002500D01*
X56848Y1000159D01*
X58174Y998174D01*
X60159Y996848D01*
X62500Y996383D01*
X64841Y996848D01*
X66826Y998174D01*
X68152Y1000159D01*
X68618Y1002500D01*
X68152Y1004841D01*
X66826Y1006826D01*
X64841Y1008152D01*
X62500Y1008617D01*
D02*
G37*
G36*
X47500D02*
X45159Y1008152D01*
X43174Y1006826D01*
X41848Y1004841D01*
X41382Y1002500D01*
X41848Y1000159D01*
X43174Y998174D01*
X45159Y996848D01*
X47500Y996383D01*
X49841Y996848D01*
X51826Y998174D01*
X53152Y1000159D01*
X53618Y1002500D01*
X53152Y1004841D01*
X51826Y1006826D01*
X49841Y1008152D01*
X47500Y1008617D01*
D02*
G37*
G36*
X25000Y1013595D02*
X22128Y1013217D01*
X19453Y1012109D01*
X17155Y1010345D01*
X15391Y1008047D01*
X14283Y1005372D01*
X13905Y1002500D01*
X14283Y999628D01*
X15391Y996953D01*
X17155Y994655D01*
X19453Y992891D01*
X22128Y991783D01*
X25000Y991405D01*
X27872Y991783D01*
X30547Y992891D01*
X32845Y994655D01*
X34609Y996953D01*
X35717Y999628D01*
X36095Y1002500D01*
X35717Y1005372D01*
X34609Y1008047D01*
X32845Y1010345D01*
X30547Y1012109D01*
X27872Y1013217D01*
X25000Y1013595D01*
D02*
G37*
G36*
X171000Y989804D02*
X169927Y989590D01*
X169017Y988983D01*
X168410Y988073D01*
X168196Y987000D01*
X168341Y986270D01*
X167433Y985486D01*
X167312Y985431D01*
X167073Y985590D01*
X166000Y985804D01*
X164927Y985590D01*
X164017Y984983D01*
X163410Y984073D01*
X163196Y983000D01*
X163410Y981927D01*
X164017Y981017D01*
X164927Y980410D01*
X166000Y980196D01*
X167073Y980410D01*
X167983Y981017D01*
X168590Y981927D01*
X168804Y983000D01*
X168659Y983730D01*
X169567Y984514D01*
X169688Y984569D01*
X169927Y984410D01*
X171000Y984196D01*
X172073Y984410D01*
X172139Y984454D01*
X172755Y984073D01*
X173169Y983614D01*
X172991Y982722D01*
X173205Y981649D01*
X173812Y980740D01*
X174722Y980132D01*
X175795Y979919D01*
X176868Y980132D01*
X177778Y980740D01*
X178386Y981649D01*
X178599Y982722D01*
X178386Y983795D01*
X177778Y984705D01*
X176868Y985313D01*
X175795Y985526D01*
X174722Y985313D01*
X174656Y985268D01*
X174040Y985649D01*
X173626Y986108D01*
X173804Y987000D01*
X173590Y988073D01*
X172983Y988983D01*
X172073Y989590D01*
X171000Y989804D01*
D02*
G37*
G36*
X62500Y993617D02*
X60159Y993152D01*
X58174Y991826D01*
X56848Y989841D01*
X56382Y987500D01*
X56848Y985159D01*
X58174Y983174D01*
X60159Y981848D01*
X62500Y981383D01*
X64841Y981848D01*
X66826Y983174D01*
X68152Y985159D01*
X68618Y987500D01*
X68152Y989841D01*
X66826Y991826D01*
X64841Y993152D01*
X62500Y993617D01*
D02*
G37*
G36*
X47500D02*
X45159Y993152D01*
X43174Y991826D01*
X41848Y989841D01*
X41382Y987500D01*
X41848Y985159D01*
X43174Y983174D01*
X45159Y981848D01*
X47500Y981383D01*
X49841Y981848D01*
X51826Y983174D01*
X53152Y985159D01*
X53618Y987500D01*
X53152Y989841D01*
X51826Y991826D01*
X49841Y993152D01*
X47500Y993617D01*
D02*
G37*
G36*
X264000Y982117D02*
X261659Y981652D01*
X259674Y980326D01*
X258348Y978341D01*
X257882Y976000D01*
X258348Y973659D01*
X259674Y971674D01*
X261659Y970348D01*
X264000Y969883D01*
X266341Y970348D01*
X268326Y971674D01*
X269652Y973659D01*
X270117Y976000D01*
X269652Y978341D01*
X268326Y980326D01*
X266341Y981652D01*
X264000Y982117D01*
D02*
G37*
G36*
X62500Y978617D02*
X60159Y978152D01*
X58174Y976826D01*
X56848Y974841D01*
X56382Y972500D01*
X56848Y970159D01*
X58174Y968174D01*
X60159Y966848D01*
X62500Y966383D01*
X64841Y966848D01*
X66826Y968174D01*
X68152Y970159D01*
X68618Y972500D01*
X68152Y974841D01*
X66826Y976826D01*
X64841Y978152D01*
X62500Y978617D01*
D02*
G37*
G36*
X47500D02*
X45159Y978152D01*
X43174Y976826D01*
X41848Y974841D01*
X41382Y972500D01*
X41848Y970159D01*
X43174Y968174D01*
X45159Y966848D01*
X47500Y966383D01*
X49841Y966848D01*
X51826Y968174D01*
X53152Y970159D01*
X53618Y972500D01*
X53152Y974841D01*
X51826Y976826D01*
X49841Y978152D01*
X47500Y978617D01*
D02*
G37*
G36*
X36000Y988100D02*
X14000D01*
Y966100D01*
X36000D01*
Y988100D01*
D02*
G37*
G36*
X265000Y961117D02*
X262659Y960652D01*
X260674Y959326D01*
X259348Y957341D01*
X258883Y955000D01*
X259348Y952659D01*
X260674Y950674D01*
X262659Y949348D01*
X265000Y948883D01*
X267341Y949348D01*
X269326Y950674D01*
X270652Y952659D01*
X271117Y955000D01*
X270652Y957341D01*
X269326Y959326D01*
X267341Y960652D01*
X265000Y961117D01*
D02*
G37*
G36*
X57000D02*
X54659Y960652D01*
X52674Y959326D01*
X51348Y957341D01*
X50882Y955000D01*
X51348Y952659D01*
X52674Y950674D01*
X54659Y949348D01*
X57000Y948883D01*
X59341Y949348D01*
X61326Y950674D01*
X62652Y952659D01*
X63117Y955000D01*
X62652Y957341D01*
X61326Y959326D01*
X59341Y960652D01*
X57000Y961117D01*
D02*
G37*
G36*
X31000D02*
X28659Y960652D01*
X26674Y959326D01*
X25348Y957341D01*
X24882Y955000D01*
X25348Y952659D01*
X26674Y950674D01*
X28659Y949348D01*
X31000Y948883D01*
X33341Y949348D01*
X35326Y950674D01*
X36652Y952659D01*
X37118Y955000D01*
X36652Y957341D01*
X35326Y959326D01*
X33341Y960652D01*
X31000Y961117D01*
D02*
G37*
G36*
X229500Y953118D02*
X227159Y952652D01*
X225174Y951326D01*
X223848Y949341D01*
X223382Y947000D01*
X223848Y944659D01*
X225174Y942674D01*
X227159Y941348D01*
X229500Y940882D01*
X231841Y941348D01*
X233826Y942674D01*
X235152Y944659D01*
X235618Y947000D01*
X235152Y949341D01*
X233826Y951326D01*
X231841Y952652D01*
X229500Y953118D01*
D02*
G37*
G36*
X56000Y947117D02*
X53659Y946652D01*
X51674Y945326D01*
X50348Y943341D01*
X49882Y941000D01*
X50348Y938659D01*
X51674Y936674D01*
X53659Y935348D01*
X56000Y934883D01*
X58341Y935348D01*
X60326Y936674D01*
X61652Y938659D01*
X62118Y941000D01*
X61652Y943341D01*
X60326Y945326D01*
X58341Y946652D01*
X56000Y947117D01*
D02*
G37*
G36*
X31000D02*
X28659Y946652D01*
X26674Y945326D01*
X25348Y943341D01*
X24882Y941000D01*
X25348Y938659D01*
X26674Y936674D01*
X28659Y935348D01*
X31000Y934883D01*
X33341Y935348D01*
X35326Y936674D01*
X36652Y938659D01*
X37118Y941000D01*
X36652Y943341D01*
X35326Y945326D01*
X33341Y946652D01*
X31000Y947117D01*
D02*
G37*
G36*
X150000Y942500D02*
X147659Y942034D01*
X145674Y940708D01*
X144348Y938724D01*
X143883Y936383D01*
X144348Y934041D01*
X145674Y932057D01*
X147659Y930731D01*
X150000Y930265D01*
X152341Y930731D01*
X154326Y932057D01*
X155652Y934041D01*
X156117Y936383D01*
X155652Y938724D01*
X154326Y940708D01*
X152341Y942034D01*
X150000Y942500D01*
D02*
G37*
G36*
X130000D02*
X127659Y942034D01*
X125674Y940708D01*
X124348Y938724D01*
X123883Y936383D01*
X124348Y934041D01*
X125674Y932057D01*
X127659Y930731D01*
X130000Y930265D01*
X132341Y930731D01*
X134326Y932057D01*
X135652Y934041D01*
X136117Y936383D01*
X135652Y938724D01*
X134326Y940708D01*
X132341Y942034D01*
X130000Y942500D01*
D02*
G37*
G36*
X37500Y926116D02*
X35159Y925650D01*
X33174Y924324D01*
X31848Y922339D01*
X31382Y919998D01*
X31848Y917657D01*
X33174Y915672D01*
X35159Y914346D01*
X37500Y913881D01*
X39841Y914346D01*
X41826Y915672D01*
X43152Y917657D01*
X43618Y919998D01*
X43152Y922339D01*
X41826Y924324D01*
X39841Y925650D01*
X37500Y926116D01*
D02*
G37*
G36*
X207500Y884804D02*
X206427Y884590D01*
X205517Y883983D01*
X204910Y883073D01*
X204696Y882000D01*
X204910Y880927D01*
X205517Y880017D01*
X206427Y879410D01*
X207500Y879196D01*
X208573Y879410D01*
X209483Y880017D01*
X210090Y880927D01*
X210304Y882000D01*
X210090Y883073D01*
X209483Y883983D01*
X208573Y884590D01*
X207500Y884804D01*
D02*
G37*
G36*
X215000Y884575D02*
X213927Y884361D01*
X213017Y883754D01*
X212410Y882844D01*
X212196Y881771D01*
X212410Y880698D01*
X213017Y879788D01*
X213927Y879181D01*
X215000Y878967D01*
X216073Y879181D01*
X216983Y879788D01*
X217590Y880698D01*
X217804Y881771D01*
X217590Y882844D01*
X216983Y883754D01*
X216073Y884361D01*
X215000Y884575D01*
D02*
G37*
G36*
X112500Y888616D02*
X110159Y888150D01*
X108174Y886824D01*
X106848Y884839D01*
X106382Y882498D01*
X106848Y880157D01*
X108174Y878173D01*
X110159Y876846D01*
X112500Y876381D01*
X114841Y876846D01*
X116826Y878173D01*
X118152Y880157D01*
X118617Y882498D01*
X118152Y884839D01*
X116826Y886824D01*
X114841Y888150D01*
X112500Y888616D01*
D02*
G37*
G36*
X184259Y872160D02*
X181918Y871694D01*
X179933Y870368D01*
X178607Y868383D01*
X178141Y866042D01*
X178607Y863701D01*
X179933Y861717D01*
X181918Y860390D01*
X184259Y859925D01*
X186600Y860390D01*
X188585Y861717D01*
X189911Y863701D01*
X190376Y866042D01*
X189911Y868383D01*
X188585Y870368D01*
X186600Y871694D01*
X184259Y872160D01*
D02*
G37*
G36*
X277999Y864802D02*
X276926Y864589D01*
X276017Y863981D01*
X275409Y863071D01*
X275196Y861998D01*
X275409Y860925D01*
X276017Y860016D01*
X276926Y859408D01*
X277999Y859194D01*
X279072Y859408D01*
X279982Y860016D01*
X280590Y860925D01*
X280803Y861998D01*
X280590Y863071D01*
X279982Y863981D01*
X279072Y864589D01*
X277999Y864802D01*
D02*
G37*
G36*
X163000Y861802D02*
X161927Y861589D01*
X161017Y860981D01*
X160409Y860071D01*
X160196Y858998D01*
X160409Y857925D01*
X161017Y857016D01*
X161927Y856408D01*
X163000Y856194D01*
X164073Y856408D01*
X164982Y857016D01*
X165590Y857925D01*
X165804Y858998D01*
X165590Y860071D01*
X164982Y860981D01*
X164073Y861589D01*
X163000Y861802D01*
D02*
G37*
G36*
X256196Y864608D02*
X255123Y864394D01*
X254214Y863786D01*
X253606Y862877D01*
X253392Y861804D01*
X253489Y861315D01*
X253370Y861023D01*
X252719Y860141D01*
X252549Y860028D01*
X250659Y859652D01*
X248674Y858326D01*
X247348Y856341D01*
X246882Y854000D01*
X247348Y851659D01*
X248674Y849674D01*
X250659Y848348D01*
X253000Y847883D01*
X255341Y848348D01*
X257326Y849674D01*
X258652Y851659D01*
X259118Y854000D01*
X258652Y856341D01*
X257550Y857990D01*
X257513Y858152D01*
X257652Y859216D01*
X257776Y859552D01*
X258179Y859821D01*
X258787Y860731D01*
X259000Y861804D01*
X258787Y862877D01*
X258179Y863786D01*
X257269Y864394D01*
X256196Y864608D01*
D02*
G37*
G36*
X178000Y857054D02*
X176927Y856840D01*
X176017Y856233D01*
X175410Y855323D01*
X175196Y854250D01*
X175410Y853177D01*
X176017Y852267D01*
X176017Y850981D01*
X175409Y850071D01*
X175196Y848998D01*
X175409Y847925D01*
X176017Y847016D01*
X176927Y846408D01*
X178000Y846194D01*
X179073Y846408D01*
X179982Y847016D01*
X180590Y847925D01*
X180804Y848998D01*
X180590Y850071D01*
X179982Y850981D01*
X179983Y852267D01*
X180590Y853177D01*
X180804Y854250D01*
X180590Y855323D01*
X179983Y856233D01*
X179073Y856840D01*
X178000Y857054D01*
D02*
G37*
G36*
X202000Y850804D02*
X200927Y850590D01*
X200017Y849983D01*
X199410Y849073D01*
X199196Y848000D01*
X199410Y846927D01*
X200017Y846017D01*
X200927Y845410D01*
X202000Y845196D01*
X203073Y845410D01*
X203983Y846017D01*
X204590Y846927D01*
X204804Y848000D01*
X204590Y849073D01*
X203983Y849983D01*
X203073Y850590D01*
X202000Y850804D01*
D02*
G37*
G36*
X227000Y857117D02*
X224659Y856652D01*
X222674Y855326D01*
X221348Y853341D01*
X220882Y851000D01*
X221348Y848659D01*
X222674Y846674D01*
X224659Y845348D01*
X227000Y844882D01*
X229341Y845348D01*
X231326Y846674D01*
X232652Y848659D01*
X233118Y851000D01*
X232652Y853341D01*
X231326Y855326D01*
X229341Y856652D01*
X227000Y857117D01*
D02*
G37*
G36*
X192000Y848802D02*
X190927Y848589D01*
X190017Y847981D01*
X189409Y847071D01*
X189196Y845998D01*
X189409Y844925D01*
X190017Y844016D01*
X190927Y843408D01*
X192000Y843195D01*
X193073Y843408D01*
X193982Y844016D01*
X194590Y844925D01*
X194804Y845998D01*
X194590Y847071D01*
X193982Y847981D01*
X193073Y848589D01*
X192000Y848802D01*
D02*
G37*
G36*
X219121Y843784D02*
X207000D01*
X206317Y843649D01*
X205738Y843262D01*
X203261Y840784D01*
X190115D01*
X189983Y840983D01*
X189073Y841590D01*
X188000Y841804D01*
X186927Y841590D01*
X186017Y840983D01*
X185410Y840073D01*
X185196Y839000D01*
X185410Y837927D01*
X186017Y837017D01*
X186927Y836410D01*
X188000Y836196D01*
X189073Y836410D01*
X189983Y837017D01*
X190115Y837216D01*
X204000D01*
X204683Y837352D01*
X205262Y837738D01*
X207739Y840216D01*
X216992D01*
X217058Y839978D01*
X216913Y839671D01*
X216091Y838713D01*
X215622Y838619D01*
X214878Y838122D01*
X214381Y837378D01*
X214206Y836500D01*
X214381Y835622D01*
X214878Y834878D01*
Y834622D01*
X214381Y833878D01*
X214206Y833000D01*
X214381Y832122D01*
X214814Y831250D01*
X214381Y830378D01*
X214206Y829500D01*
X214381Y828622D01*
X214878Y827878D01*
Y827622D01*
X214381Y826878D01*
X214206Y826000D01*
X214381Y825122D01*
X214878Y824378D01*
Y824122D01*
X214381Y823378D01*
X214206Y822500D01*
X214381Y821622D01*
X214878Y820878D01*
Y820622D01*
X214381Y819878D01*
X214206Y819000D01*
X214381Y818122D01*
X214878Y817378D01*
X215622Y816881D01*
X216500Y816706D01*
X216717Y816749D01*
X217749Y815717D01*
X217706Y815500D01*
X217881Y814622D01*
X218378Y813878D01*
Y813622D01*
X217881Y812878D01*
X217706Y812000D01*
X217881Y811122D01*
X218378Y810378D01*
X219122Y809881D01*
X220000Y809706D01*
X220217Y809749D01*
X221249Y808717D01*
X221206Y808500D01*
X221381Y807622D01*
X221878Y806878D01*
X222622Y806381D01*
X223500Y806206D01*
X224378Y806381D01*
X225122Y806878D01*
X225378D01*
X226122Y806381D01*
X227000Y806206D01*
X227878Y806381D01*
X228622Y806878D01*
X228878D01*
X229622Y806381D01*
X230500Y806206D01*
X231378Y806381D01*
X232122Y806878D01*
X232378D01*
X233122Y806381D01*
X234000Y806206D01*
X234878Y806381D01*
X235622Y806878D01*
X236119Y807622D01*
X236294Y808500D01*
X236119Y809378D01*
X235622Y810122D01*
X234878Y810619D01*
X234000Y810794D01*
X233122Y810619D01*
X232378Y810122D01*
X232122D01*
X231378Y810619D01*
X230500Y810794D01*
X229622Y810619D01*
X228878Y810122D01*
X228622D01*
X227878Y810619D01*
X227000Y810794D01*
X226122Y810619D01*
X225378Y810122D01*
X225122D01*
X224378Y810619D01*
X223500Y810794D01*
X223283Y810751D01*
X222251Y811783D01*
X222294Y812000D01*
X222119Y812878D01*
X221622Y813622D01*
Y813878D01*
X222119Y814622D01*
X222294Y815500D01*
X222119Y816378D01*
X221622Y817122D01*
Y817378D01*
X222119Y818122D01*
X222294Y819000D01*
X222119Y819878D01*
X221622Y820622D01*
X220878Y821119D01*
X220000Y821294D01*
X219783Y821251D01*
X218751Y822282D01*
X218794Y822500D01*
X218619Y823378D01*
X218122Y824122D01*
Y824378D01*
X218619Y825122D01*
X218794Y826000D01*
X218619Y826878D01*
X218122Y827622D01*
Y827878D01*
X218619Y828622D01*
X218794Y829500D01*
X219867Y830159D01*
X220133D01*
X221206Y829500D01*
X221381Y828622D01*
X221878Y827878D01*
X222622Y827381D01*
X223500Y827206D01*
X224378Y827381D01*
X225122Y827878D01*
X225378D01*
X226122Y827381D01*
X227000Y827206D01*
X227878Y827381D01*
X228622Y827878D01*
X228878D01*
X229622Y827381D01*
X230500Y827206D01*
X231378Y827381D01*
X232122Y827878D01*
X232619Y828622D01*
X232794Y829500D01*
X232619Y830378D01*
X232122Y831122D01*
X231378Y831619D01*
X230500Y831794D01*
X230282Y831751D01*
X229251Y832783D01*
X229294Y833000D01*
X229119Y833878D01*
X228622Y834622D01*
X227878Y835119D01*
X227000Y835294D01*
X226122Y835119D01*
X225378Y834622D01*
X225122D01*
X224378Y835119D01*
X223500Y835294D01*
X223054Y835205D01*
X221995Y835844D01*
X221784Y836087D01*
Y841121D01*
X221649Y841804D01*
X221262Y842383D01*
X220383Y843262D01*
X219804Y843649D01*
X219121Y843784D01*
D02*
G37*
G36*
X260000Y836117D02*
X257659Y835652D01*
X255674Y834326D01*
X254348Y832341D01*
X254342Y832309D01*
X252953Y831837D01*
X252573Y832090D01*
X251500Y832304D01*
X250427Y832090D01*
X249517Y831483D01*
X249027Y830749D01*
X248245Y830486D01*
X247580Y830400D01*
X243538Y834442D01*
X242877Y834884D01*
X242096Y835039D01*
X238498D01*
X238378Y835119D01*
X237500Y835294D01*
X236622Y835119D01*
X235878Y834622D01*
X235381Y833878D01*
X235206Y833000D01*
X235381Y832122D01*
X235878Y831378D01*
X236622Y830881D01*
X237500Y830706D01*
X237717Y830749D01*
X238736Y829731D01*
X238744Y829691D01*
X238706Y829500D01*
X238881Y828622D01*
X239378Y827878D01*
Y827622D01*
X238881Y826878D01*
X238706Y826000D01*
X238749Y825782D01*
X237717Y824751D01*
X237500Y824794D01*
X236622Y824619D01*
X235878Y824122D01*
X235381Y823378D01*
X235206Y822500D01*
X235381Y821622D01*
X235878Y820878D01*
X236622Y820381D01*
X237500Y820206D01*
X237717Y820249D01*
X238749Y819218D01*
X238706Y819000D01*
X238881Y818122D01*
X239378Y817378D01*
X240122Y816881D01*
X241000Y816706D01*
X241878Y816881D01*
X242622Y817378D01*
X243120Y818122D01*
X243294Y819000D01*
X243120Y819878D01*
X242622Y820622D01*
Y820878D01*
X243120Y821622D01*
X243294Y822500D01*
X243120Y823378D01*
X242622Y824122D01*
Y824378D01*
X243120Y825122D01*
X243294Y826000D01*
X243165Y826651D01*
X243326Y827090D01*
X243694Y827263D01*
X244944Y827269D01*
X250035Y822178D01*
Y811896D01*
X249484Y811071D01*
X249270Y809998D01*
X249484Y808925D01*
X250091Y808016D01*
X251001Y807408D01*
X252074Y807195D01*
X253147Y807408D01*
X254057Y808016D01*
X254664Y808925D01*
X254878Y809998D01*
X254664Y811071D01*
X254113Y811896D01*
Y823022D01*
X253958Y823802D01*
X253516Y824464D01*
X253516Y824464D01*
X252400Y825580D01*
X252486Y826245D01*
X252664Y826773D01*
X253901Y827374D01*
X254726Y827093D01*
X255674Y825674D01*
X257659Y824348D01*
X260000Y823883D01*
X262341Y824348D01*
X264326Y825674D01*
X265652Y827659D01*
X266117Y830000D01*
X265652Y832341D01*
X264326Y834326D01*
X262341Y835652D01*
X260000Y836117D01*
D02*
G37*
G36*
X359000Y836804D02*
X357927Y836590D01*
X357017Y835983D01*
X356410Y835073D01*
X356196Y834000D01*
X356410Y832927D01*
X357017Y832017D01*
X357927Y831410D01*
X359000Y831196D01*
X360073Y831410D01*
X360983Y832017D01*
X361590Y832927D01*
X361804Y834000D01*
X361590Y835073D01*
X360983Y835983D01*
X360073Y836590D01*
X359000Y836804D01*
D02*
G37*
G36*
X344787Y836265D02*
X343714Y836052D01*
X342804Y835444D01*
X342196Y834535D01*
X341983Y833462D01*
X342196Y832389D01*
X342804Y831479D01*
X343714Y830871D01*
X344787Y830658D01*
X345860Y830871D01*
X346769Y831479D01*
X347377Y832389D01*
X347590Y833462D01*
X347377Y834535D01*
X346769Y835444D01*
X345860Y836052D01*
X344787Y836265D01*
D02*
G37*
G36*
X179000Y840117D02*
X176659Y839652D01*
X174674Y838326D01*
X173348Y836341D01*
X172882Y834000D01*
X173348Y831659D01*
X174674Y829674D01*
X176659Y828348D01*
X179000Y827883D01*
X181341Y828348D01*
X183326Y829674D01*
X184652Y831659D01*
X185117Y834000D01*
X184652Y836341D01*
X183326Y838326D01*
X181341Y839652D01*
X179000Y840117D01*
D02*
G37*
G36*
X241000Y814294D02*
X240122Y814119D01*
X239378Y813622D01*
X238881Y812878D01*
X238706Y812000D01*
X238881Y811122D01*
X239378Y810378D01*
Y810122D01*
X238881Y809378D01*
X238706Y808500D01*
X238881Y807622D01*
X239378Y806878D01*
X240122Y806381D01*
X241000Y806206D01*
X241878Y806381D01*
X242622Y806878D01*
X243120Y807622D01*
X243294Y808500D01*
X243120Y809378D01*
X242622Y810122D01*
Y810378D01*
X243120Y811122D01*
X243294Y812000D01*
X243120Y812878D01*
X242622Y813622D01*
X241878Y814119D01*
X241000Y814294D01*
D02*
G37*
G36*
X366000Y821078D02*
X363651Y820768D01*
X361461Y819862D01*
X359581Y818419D01*
X358139Y816539D01*
X357232Y814350D01*
X356922Y812000D01*
X357232Y809650D01*
X358139Y807461D01*
X359581Y805581D01*
X361461Y804138D01*
X363651Y803232D01*
X366000Y802922D01*
X368349Y803232D01*
X370539Y804138D01*
X372419Y805581D01*
X373862Y807461D01*
X374768Y809650D01*
X375078Y812000D01*
X374768Y814350D01*
X373862Y816539D01*
X372419Y818419D01*
X370539Y819862D01*
X368349Y820768D01*
X366000Y821078D01*
D02*
G37*
G36*
X191000Y799804D02*
X189927Y799590D01*
X189017Y798983D01*
X188410Y798073D01*
X188196Y797000D01*
X188410Y795927D01*
X189017Y795017D01*
X189927Y794410D01*
X191000Y794196D01*
X192073Y794410D01*
X192983Y795017D01*
X193590Y795927D01*
X193804Y797000D01*
X193590Y798073D01*
X192983Y798983D01*
X192073Y799590D01*
X191000Y799804D01*
D02*
G37*
G36*
X99000Y796117D02*
X96659Y795652D01*
X94674Y794326D01*
X93348Y792341D01*
X92882Y790000D01*
X93348Y787659D01*
X94674Y785674D01*
X96659Y784348D01*
X99000Y783883D01*
X101341Y784348D01*
X103326Y785674D01*
X104652Y787659D01*
X105118Y790000D01*
X104652Y792341D01*
X103326Y794326D01*
X101341Y795652D01*
X99000Y796117D01*
D02*
G37*
G36*
X224750Y792368D02*
X222409Y791902D01*
X220424Y790576D01*
X219098Y788591D01*
X218633Y786250D01*
X219098Y783909D01*
X220424Y781924D01*
X222409Y780598D01*
X224750Y780133D01*
X227091Y780598D01*
X229076Y781924D01*
X230402Y783909D01*
X230868Y786250D01*
X230402Y788591D01*
X229076Y790576D01*
X227091Y791902D01*
X224750Y792368D01*
D02*
G37*
G36*
X139000Y792117D02*
X136659Y791652D01*
X134674Y790326D01*
X133348Y788341D01*
X132882Y786000D01*
X133348Y783659D01*
X134674Y781674D01*
X136659Y780348D01*
X139000Y779883D01*
X141341Y780348D01*
X143326Y781674D01*
X144652Y783659D01*
X145118Y786000D01*
X144652Y788341D01*
X143326Y790326D01*
X141341Y791652D01*
X139000Y792117D01*
D02*
G37*
G36*
X247500Y785304D02*
X246427Y785090D01*
X245517Y784483D01*
X244910Y783573D01*
X244696Y782500D01*
X244910Y781427D01*
X245517Y780517D01*
X246427Y779910D01*
X247500Y779696D01*
X248573Y779910D01*
X249483Y780517D01*
X250090Y781427D01*
X250304Y782500D01*
X250090Y783573D01*
X249483Y784483D01*
X248573Y785090D01*
X247500Y785304D01*
D02*
G37*
G36*
X264000Y788118D02*
X261659Y787652D01*
X259674Y786326D01*
X258348Y784341D01*
X257882Y782000D01*
X258348Y779659D01*
X259674Y777674D01*
X261082Y776733D01*
Y775266D01*
X259674Y774326D01*
X258348Y772341D01*
X257882Y770000D01*
X258348Y767659D01*
X259674Y765674D01*
X261659Y764348D01*
X264000Y763883D01*
X266341Y764348D01*
X268326Y765674D01*
X269652Y767659D01*
X270117Y770000D01*
X269652Y772341D01*
X268326Y774326D01*
X266918Y775266D01*
Y776733D01*
X268326Y777674D01*
X269652Y779659D01*
X270117Y782000D01*
X269652Y784341D01*
X268326Y786326D01*
X266341Y787652D01*
X264000Y788118D01*
D02*
G37*
G36*
X54525Y768049D02*
Y758775D01*
X63799D01*
X63716Y759408D01*
X62507Y762327D01*
X60584Y764834D01*
X58077Y766757D01*
X55158Y767966D01*
X54525Y768049D01*
D02*
G37*
G36*
X49525D02*
X48892Y767966D01*
X45973Y766757D01*
X43467Y764834D01*
X41543Y762327D01*
X40334Y759408D01*
X40251Y758775D01*
X49525D01*
Y768049D01*
D02*
G37*
G36*
X233410Y761731D02*
X232337Y761517D01*
X231427Y760910D01*
X230819Y760000D01*
X230606Y758927D01*
X230819Y757854D01*
X231427Y756944D01*
X232337Y756337D01*
X233410Y756123D01*
X234483Y756337D01*
X235392Y756944D01*
X236000Y757854D01*
X236213Y758927D01*
X236000Y760000D01*
X235392Y760910D01*
X234483Y761517D01*
X233410Y761731D01*
D02*
G37*
G36*
X233446Y753054D02*
X232373Y752840D01*
X231464Y752233D01*
X230856Y751323D01*
X230642Y750250D01*
X230856Y749177D01*
X231464Y748267D01*
X232373Y747660D01*
X233446Y747446D01*
X234519Y747660D01*
X235429Y748267D01*
X236037Y749177D01*
X236250Y750250D01*
X236037Y751323D01*
X235429Y752233D01*
X234519Y752840D01*
X233446Y753054D01*
D02*
G37*
G36*
X147500Y758617D02*
X145159Y758152D01*
X143174Y756826D01*
X141848Y754841D01*
X141383Y752500D01*
X141848Y750159D01*
X143174Y748174D01*
X145159Y746848D01*
X147500Y746383D01*
X149841Y746848D01*
X151826Y748174D01*
X153152Y750159D01*
X153617Y752500D01*
X153152Y754841D01*
X151826Y756826D01*
X149841Y758152D01*
X147500Y758617D01*
D02*
G37*
G36*
X63799Y753775D02*
X54525D01*
Y744501D01*
X55158Y744584D01*
X58077Y745793D01*
X60584Y747717D01*
X62507Y750223D01*
X63716Y753142D01*
X63799Y753775D01*
D02*
G37*
G36*
X49525D02*
X40251D01*
X40334Y753142D01*
X41543Y750223D01*
X43467Y747717D01*
X45973Y745793D01*
X48892Y744584D01*
X49525Y744501D01*
Y753775D01*
D02*
G37*
G36*
X129000Y749118D02*
X126659Y748652D01*
X124674Y747326D01*
X123348Y745341D01*
X122882Y743000D01*
X123348Y740659D01*
X124674Y738674D01*
X126659Y737348D01*
X129000Y736882D01*
X131341Y737348D01*
X133326Y738674D01*
X134652Y740659D01*
X135118Y743000D01*
X134652Y745341D01*
X133326Y747326D01*
X131341Y748652D01*
X129000Y749118D01*
D02*
G37*
G36*
X312500Y748617D02*
X310159Y748152D01*
X308174Y746826D01*
X306848Y744841D01*
X306383Y742500D01*
X306848Y740159D01*
X308174Y738174D01*
X310159Y736848D01*
X312500Y736382D01*
X314841Y736848D01*
X316826Y738174D01*
X318152Y740159D01*
X318617Y742500D01*
X318152Y744841D01*
X316826Y746826D01*
X314841Y748152D01*
X312500Y748617D01*
D02*
G37*
G36*
X162000Y746117D02*
X159659Y745652D01*
X157674Y744326D01*
X156348Y742341D01*
X155883Y740000D01*
X156348Y737659D01*
X157674Y735674D01*
X159659Y734348D01*
X162000Y733883D01*
X164341Y734348D01*
X166326Y735674D01*
X167652Y737659D01*
X168118Y740000D01*
X167652Y742341D01*
X166326Y744326D01*
X164341Y745652D01*
X162000Y746117D01*
D02*
G37*
G36*
X260000Y742117D02*
X257659Y741652D01*
X255674Y740326D01*
X254348Y738341D01*
X253882Y736000D01*
X254348Y733659D01*
X255674Y731674D01*
X257659Y730348D01*
X260000Y729883D01*
X262341Y730348D01*
X264326Y731674D01*
X265652Y733659D01*
X266117Y736000D01*
X265652Y738341D01*
X264326Y740326D01*
X262341Y741652D01*
X260000Y742117D01*
D02*
G37*
G36*
X52025Y741970D02*
X49153Y741592D01*
X46477Y740483D01*
X44180Y738720D01*
X42417Y736423D01*
X41308Y733747D01*
X40930Y730875D01*
X41308Y728003D01*
X42417Y725328D01*
X44180Y723030D01*
X46477Y721266D01*
X49153Y720158D01*
X52025Y719780D01*
X54897Y720158D01*
X57572Y721266D01*
X59870Y723030D01*
X61634Y725328D01*
X62742Y728003D01*
X63120Y730875D01*
X62742Y733747D01*
X61634Y736423D01*
X59870Y738720D01*
X57572Y740483D01*
X54897Y741592D01*
X52025Y741970D01*
D02*
G37*
G36*
X124000Y722117D02*
X121659Y721652D01*
X119674Y720326D01*
X118348Y718341D01*
X117882Y716000D01*
X118348Y713659D01*
X119674Y711674D01*
X121659Y710348D01*
X124000Y709883D01*
X126341Y710348D01*
X128326Y711674D01*
X129652Y713659D01*
X130118Y716000D01*
X129652Y718341D01*
X128326Y720326D01*
X126341Y721652D01*
X124000Y722117D01*
D02*
G37*
G36*
X315000Y708617D02*
X312659Y708152D01*
X310674Y706826D01*
X309348Y704841D01*
X308883Y702500D01*
X309348Y700159D01*
X310674Y698174D01*
X312659Y696848D01*
X315000Y696383D01*
X317341Y696848D01*
X319326Y698174D01*
X320652Y700159D01*
X321118Y702500D01*
X320652Y704841D01*
X319326Y706826D01*
X317341Y708152D01*
X315000Y708617D01*
D02*
G37*
G36*
X295000D02*
X292659Y708152D01*
X290674Y706826D01*
X289348Y704841D01*
X288883Y702500D01*
X289348Y700159D01*
X290674Y698174D01*
X292659Y696848D01*
X295000Y696383D01*
X297341Y696848D01*
X299326Y698174D01*
X300652Y700159D01*
X301118Y702500D01*
X300652Y704841D01*
X299326Y706826D01*
X297341Y708152D01*
X295000Y708617D01*
D02*
G37*
G36*
X52025Y716570D02*
X49153Y716192D01*
X46477Y715083D01*
X44180Y713320D01*
X42417Y711022D01*
X41308Y708347D01*
X40930Y705475D01*
X41308Y702603D01*
X42417Y699928D01*
X44180Y697630D01*
X46477Y695866D01*
X49153Y694758D01*
X52025Y694380D01*
X54897Y694758D01*
X57572Y695866D01*
X59870Y697630D01*
X61634Y699928D01*
X62742Y702603D01*
X63120Y705475D01*
X62742Y708347D01*
X61634Y711022D01*
X59870Y713320D01*
X57572Y715083D01*
X54897Y716192D01*
X52025Y716570D01*
D02*
G37*
G36*
X248000Y696117D02*
X245659Y695652D01*
X243674Y694326D01*
X242348Y692341D01*
X241882Y690000D01*
X242348Y687659D01*
X243674Y685674D01*
X245659Y684348D01*
X248000Y683883D01*
X250341Y684348D01*
X252326Y685674D01*
X253652Y687659D01*
X254118Y690000D01*
X253652Y692341D01*
X252326Y694326D01*
X250341Y695652D01*
X248000Y696117D01*
D02*
G37*
G36*
X192000Y685117D02*
X189659Y684652D01*
X187674Y683326D01*
X186348Y681341D01*
X185882Y679000D01*
X186348Y676659D01*
X187674Y674674D01*
X189659Y673348D01*
X192000Y672882D01*
X194341Y673348D01*
X196326Y674674D01*
X197652Y676659D01*
X198118Y679000D01*
X197652Y681341D01*
X196326Y683326D01*
X194341Y684652D01*
X192000Y685117D01*
D02*
G37*
G36*
X345000Y689078D02*
X342650Y688768D01*
X340461Y687861D01*
X338581Y686419D01*
X337139Y684539D01*
X336232Y682349D01*
X335922Y680000D01*
X336232Y677651D01*
X337139Y675461D01*
X338581Y673581D01*
X340461Y672139D01*
X342650Y671232D01*
X345000Y670922D01*
X347350Y671232D01*
X349539Y672139D01*
X351419Y673581D01*
X352862Y675461D01*
X353768Y677651D01*
X354078Y680000D01*
X353768Y682349D01*
X352862Y684539D01*
X351419Y686419D01*
X349539Y687861D01*
X347350Y688768D01*
X345000Y689078D01*
D02*
G37*
G36*
X52025Y691170D02*
X49153Y690792D01*
X46477Y689684D01*
X44180Y687920D01*
X42417Y685622D01*
X41308Y682947D01*
X40930Y680075D01*
X41308Y677203D01*
X42417Y674528D01*
X44180Y672230D01*
X46477Y670467D01*
X49153Y669358D01*
X52025Y668980D01*
X54897Y669358D01*
X57572Y670467D01*
X59870Y672230D01*
X61634Y674528D01*
X62742Y677203D01*
X63120Y680075D01*
X62742Y682947D01*
X61634Y685622D01*
X59870Y687920D01*
X57572Y689684D01*
X54897Y690792D01*
X52025Y691170D01*
D02*
G37*
G36*
X155000Y668617D02*
X152659Y668152D01*
X150674Y666826D01*
X149424Y664955D01*
X148750Y664895D01*
X148076Y664955D01*
X146826Y666826D01*
X144841Y668152D01*
X142500Y668617D01*
X140159Y668152D01*
X138174Y666826D01*
X136924Y664955D01*
X136250Y664895D01*
X135576Y664955D01*
X134326Y666826D01*
X132341Y668152D01*
X130000Y668617D01*
X127659Y668152D01*
X125674Y666826D01*
X124348Y664841D01*
X123883Y662500D01*
X124348Y660159D01*
X125674Y658174D01*
X127545Y656924D01*
X127605Y656250D01*
X127545Y655576D01*
X125674Y654326D01*
X124348Y652341D01*
X123883Y650000D01*
X124348Y647659D01*
X125674Y645674D01*
X127659Y644348D01*
X130000Y643883D01*
X132341Y644348D01*
X134326Y645674D01*
X135576Y647545D01*
X136250Y647605D01*
X136924Y647545D01*
X138174Y645674D01*
X140159Y644348D01*
X142500Y643883D01*
X144841Y644348D01*
X146826Y645674D01*
X148076Y647545D01*
X148750Y647605D01*
X149424Y647545D01*
X150674Y645674D01*
X152659Y644348D01*
X155000Y643883D01*
X157341Y644348D01*
X159326Y645674D01*
X160652Y647659D01*
X161117Y650000D01*
X160652Y652341D01*
X159326Y654326D01*
X157455Y655576D01*
X157395Y656250D01*
X157455Y656924D01*
X159326Y658174D01*
X160652Y660159D01*
X161117Y662500D01*
X160652Y664841D01*
X159326Y666826D01*
X157341Y668152D01*
X155000Y668617D01*
D02*
G37*
G36*
X63025Y665675D02*
X41025D01*
Y643675D01*
X63025D01*
Y665675D01*
D02*
G37*
G36*
X345000Y656578D02*
X342650Y656268D01*
X340461Y655361D01*
X338581Y653919D01*
X337139Y652039D01*
X336232Y649849D01*
X335922Y647500D01*
X336232Y645151D01*
X337139Y642961D01*
X338581Y641081D01*
X340461Y639638D01*
X342650Y638732D01*
X345000Y638422D01*
X347350Y638732D01*
X349539Y639638D01*
X351419Y641081D01*
X352862Y642961D01*
X353768Y645151D01*
X354078Y647500D01*
X353768Y649849D01*
X352862Y652039D01*
X351419Y653919D01*
X349539Y655361D01*
X347350Y656268D01*
X345000Y656578D01*
D02*
G37*
G36*
X247000Y629118D02*
X244659Y628652D01*
X242674Y627326D01*
X241348Y625341D01*
X240882Y623000D01*
X241348Y620659D01*
X242674Y618674D01*
X244659Y617348D01*
X247000Y616883D01*
X249341Y617348D01*
X251326Y618674D01*
X252652Y620659D01*
X253118Y623000D01*
X252652Y625341D01*
X251326Y627326D01*
X249341Y628652D01*
X247000Y629118D01*
D02*
G37*
G36*
X345000Y624078D02*
X342650Y623768D01*
X340461Y622861D01*
X338581Y621419D01*
X337139Y619539D01*
X336232Y617350D01*
X335922Y615000D01*
X336232Y612650D01*
X337139Y610461D01*
X338581Y608581D01*
X340461Y607138D01*
X342650Y606232D01*
X345000Y605922D01*
X347350Y606232D01*
X349539Y607138D01*
X351419Y608581D01*
X352862Y610461D01*
X353768Y612650D01*
X354078Y615000D01*
X353768Y617350D01*
X352862Y619539D01*
X351419Y621419D01*
X349539Y622861D01*
X347350Y623768D01*
X345000Y624078D01*
D02*
G37*
G36*
X72500Y627104D02*
X69367Y626691D01*
X66448Y625482D01*
X63941Y623559D01*
X62018Y621052D01*
X60809Y618133D01*
X60396Y615000D01*
X60809Y611867D01*
X62018Y608948D01*
X63941Y606441D01*
X66448Y604518D01*
X69367Y603309D01*
X72500Y602896D01*
X75633Y603309D01*
X78552Y604518D01*
X81059Y606441D01*
X82982Y608948D01*
X84191Y611867D01*
X84604Y615000D01*
X84191Y618133D01*
X82982Y621052D01*
X81059Y623559D01*
X78552Y625482D01*
X75633Y626691D01*
X72500Y627104D01*
D02*
G37*
G36*
X75000Y592783D02*
Y582500D01*
X85283D01*
X85165Y583394D01*
X83855Y586556D01*
X81772Y589272D01*
X79056Y591356D01*
X75894Y592665D01*
X75000Y592783D01*
D02*
G37*
G36*
X70000D02*
X69106Y592665D01*
X65944Y591356D01*
X63228Y589272D01*
X61144Y586556D01*
X59835Y583394D01*
X59717Y582500D01*
X70000D01*
Y592783D01*
D02*
G37*
G36*
X345000Y591578D02*
X342650Y591268D01*
X340461Y590361D01*
X338581Y588919D01*
X337139Y587039D01*
X336232Y584850D01*
X335922Y582500D01*
X336232Y580150D01*
X337139Y577961D01*
X338581Y576081D01*
X340461Y574638D01*
X342650Y573732D01*
X345000Y573422D01*
X347350Y573732D01*
X349539Y574638D01*
X351419Y576081D01*
X352862Y577961D01*
X353768Y580150D01*
X354078Y582500D01*
X353768Y584850D01*
X352862Y587039D01*
X351419Y588919D01*
X349539Y590361D01*
X347350Y591268D01*
X345000Y591578D01*
D02*
G37*
G36*
X85283Y577500D02*
X75000D01*
Y567217D01*
X75894Y567335D01*
X79056Y568644D01*
X81772Y570728D01*
X83855Y573444D01*
X85165Y576606D01*
X85283Y577500D01*
D02*
G37*
G36*
X70000D02*
X59717D01*
X59835Y576606D01*
X61144Y573444D01*
X63228Y570728D01*
X65944Y568644D01*
X69106Y567335D01*
X70000Y567217D01*
Y577500D01*
D02*
G37*
G36*
X75000Y557783D02*
Y547500D01*
X85283D01*
X85165Y548394D01*
X83855Y551556D01*
X81772Y554272D01*
X79056Y556356D01*
X75894Y557665D01*
X75000Y557783D01*
D02*
G37*
G36*
X70000D02*
X69106Y557665D01*
X65944Y556356D01*
X63228Y554272D01*
X61144Y551556D01*
X59835Y548394D01*
X59717Y547500D01*
X70000D01*
Y557783D01*
D02*
G37*
G36*
X345000Y559078D02*
X342650Y558768D01*
X340461Y557861D01*
X338581Y556419D01*
X337139Y554539D01*
X336232Y552350D01*
X335922Y550000D01*
X336232Y547650D01*
X337139Y545461D01*
X338581Y543581D01*
X340461Y542138D01*
X342650Y541232D01*
X345000Y540922D01*
X347350Y541232D01*
X349539Y542138D01*
X351419Y543581D01*
X352862Y545461D01*
X353768Y547650D01*
X354078Y550000D01*
X353768Y552350D01*
X352862Y554539D01*
X351419Y556419D01*
X349539Y557861D01*
X347350Y558768D01*
X345000Y559078D01*
D02*
G37*
G36*
X85283Y542500D02*
X75000D01*
Y532217D01*
X75894Y532335D01*
X79056Y533644D01*
X81772Y535728D01*
X83855Y538444D01*
X85165Y541606D01*
X85283Y542500D01*
D02*
G37*
G36*
X70000D02*
X59717D01*
X59835Y541606D01*
X61144Y538444D01*
X63228Y535728D01*
X65944Y533644D01*
X69106Y532335D01*
X70000Y532217D01*
Y542500D01*
D02*
G37*
G36*
X345000Y526578D02*
X342650Y526268D01*
X340461Y525361D01*
X338581Y523919D01*
X337139Y522039D01*
X336232Y519850D01*
X335922Y517500D01*
X336232Y515150D01*
X337139Y512961D01*
X338581Y511081D01*
X340461Y509638D01*
X342650Y508732D01*
X345000Y508422D01*
X347350Y508732D01*
X349539Y509638D01*
X351419Y511081D01*
X352862Y512961D01*
X353768Y515150D01*
X354078Y517500D01*
X353768Y519850D01*
X352862Y522039D01*
X351419Y523919D01*
X349539Y525361D01*
X347350Y526268D01*
X345000Y526578D01*
D02*
G37*
G36*
X315000Y503618D02*
X312659Y503152D01*
X310674Y501826D01*
X309348Y499841D01*
X308883Y497500D01*
X309348Y495159D01*
X310674Y493174D01*
X312659Y491848D01*
X315000Y491382D01*
X317341Y491848D01*
X319326Y493174D01*
X320652Y495159D01*
X321118Y497500D01*
X320652Y499841D01*
X319326Y501826D01*
X317341Y503152D01*
X315000Y503618D01*
D02*
G37*
G36*
X275000D02*
X272659Y503152D01*
X270674Y501826D01*
X269348Y499841D01*
X268883Y497500D01*
X269348Y495159D01*
X270674Y493174D01*
X272659Y491848D01*
X275000Y491382D01*
X277341Y491848D01*
X279326Y493174D01*
X280652Y495159D01*
X281118Y497500D01*
X280652Y499841D01*
X279326Y501826D01*
X277341Y503152D01*
X275000Y503618D01*
D02*
G37*
G36*
X72500Y509604D02*
X69367Y509191D01*
X66448Y507982D01*
X63941Y506059D01*
X62018Y503552D01*
X60809Y500633D01*
X60396Y497500D01*
X60809Y494367D01*
X62018Y491448D01*
X63941Y488941D01*
X66448Y487018D01*
X69367Y485809D01*
X72500Y485396D01*
X75633Y485809D01*
X78552Y487018D01*
X81059Y488941D01*
X82982Y491448D01*
X84191Y494367D01*
X84604Y497500D01*
X84191Y500633D01*
X82982Y503552D01*
X81059Y506059D01*
X78552Y507982D01*
X75633Y509191D01*
X72500Y509604D01*
D02*
G37*
G36*
X197500Y496118D02*
X195159Y495652D01*
X193174Y494326D01*
X191848Y492341D01*
X191382Y490000D01*
X191848Y487659D01*
X193174Y485674D01*
X195159Y484348D01*
X197500Y483882D01*
X199841Y484348D01*
X201826Y485674D01*
X203152Y487659D01*
X203617Y490000D01*
X203152Y492341D01*
X201826Y494326D01*
X199841Y495652D01*
X197500Y496118D01*
D02*
G37*
G36*
X309000Y470118D02*
X306659Y469652D01*
X304674Y468326D01*
X303348Y466341D01*
X302882Y464000D01*
X303348Y461659D01*
X304674Y459674D01*
X306659Y458348D01*
X309000Y457882D01*
X311341Y458348D01*
X313326Y459674D01*
X314652Y461659D01*
X315117Y464000D01*
X314652Y466341D01*
X313326Y468326D01*
X311341Y469652D01*
X309000Y470118D01*
D02*
G37*
G36*
X72500Y474604D02*
X69367Y474191D01*
X66448Y472982D01*
X63941Y471059D01*
X62018Y468552D01*
X60809Y465633D01*
X60396Y462500D01*
X60809Y459367D01*
X62018Y456448D01*
X63941Y453941D01*
X66448Y452018D01*
X69367Y450809D01*
X72500Y450396D01*
X75633Y450809D01*
X78552Y452018D01*
X81059Y453941D01*
X82982Y456448D01*
X84191Y459367D01*
X84604Y462500D01*
X84191Y465633D01*
X82982Y468552D01*
X81059Y471059D01*
X78552Y472982D01*
X75633Y474191D01*
X72500Y474604D01*
D02*
G37*
G36*
X320000Y443618D02*
X317659Y443152D01*
X315674Y441826D01*
X314348Y439841D01*
X313883Y437500D01*
X314348Y435159D01*
X315674Y433174D01*
X317659Y431848D01*
X320000Y431382D01*
X322341Y431848D01*
X324326Y433174D01*
X325652Y435159D01*
X326118Y437500D01*
X325652Y439841D01*
X324326Y441826D01*
X322341Y443152D01*
X320000Y443618D01*
D02*
G37*
G36*
X75000Y440283D02*
Y430000D01*
X85283D01*
X85165Y430894D01*
X83855Y434056D01*
X81772Y436772D01*
X79056Y438855D01*
X75894Y440165D01*
X75000Y440283D01*
D02*
G37*
G36*
X70000D02*
X69106Y440165D01*
X65944Y438855D01*
X63228Y436772D01*
X61144Y434056D01*
X59835Y430894D01*
X59717Y430000D01*
X70000D01*
Y440283D01*
D02*
G37*
G36*
X287500Y446578D02*
X285151Y446268D01*
X282961Y445361D01*
X281081Y443919D01*
X279639Y442039D01*
X278732Y439850D01*
X278422Y437500D01*
X278732Y435150D01*
X279639Y432961D01*
X281081Y431081D01*
X282961Y429638D01*
X285151Y428732D01*
X287500Y428422D01*
X289849Y428732D01*
X292039Y429638D01*
X293919Y431081D01*
X295361Y432961D01*
X296268Y435150D01*
X296578Y437500D01*
X296268Y439850D01*
X295361Y442039D01*
X293919Y443919D01*
X292039Y445361D01*
X289849Y446268D01*
X287500Y446578D01*
D02*
G37*
G36*
X177500Y456118D02*
X175159Y455652D01*
X173174Y454326D01*
X171848Y452341D01*
X171383Y450000D01*
X171848Y447659D01*
X173174Y445674D01*
X175045Y444424D01*
X175105Y443750D01*
X175045Y443076D01*
X173174Y441826D01*
X171848Y439841D01*
X171383Y437500D01*
X171848Y435159D01*
X173174Y433174D01*
X175045Y431924D01*
X175105Y431250D01*
X175045Y430576D01*
X173174Y429326D01*
X171848Y427341D01*
X171383Y425000D01*
X171848Y422659D01*
X173174Y420674D01*
X175159Y419348D01*
X177500Y418882D01*
X179841Y419348D01*
X181826Y420674D01*
X183076Y422545D01*
X183750Y422605D01*
X184424Y422545D01*
X185674Y420674D01*
X187659Y419348D01*
X190000Y418882D01*
X192341Y419348D01*
X194326Y420674D01*
X195576Y422545D01*
X196250Y422605D01*
X196924Y422545D01*
X198174Y420674D01*
X200159Y419348D01*
X202500Y418882D01*
X204841Y419348D01*
X206826Y420674D01*
X208152Y422659D01*
X208617Y425000D01*
X208152Y427341D01*
X206826Y429326D01*
X204841Y430652D01*
X202500Y431118D01*
X200159Y430652D01*
X198174Y429326D01*
X196924Y427455D01*
X196250Y427395D01*
X195576Y427455D01*
X194326Y429326D01*
X192341Y430652D01*
X190000Y431118D01*
X187659Y430652D01*
X185674Y429326D01*
X184424Y427455D01*
X183750Y427395D01*
X183076Y427455D01*
X181826Y429326D01*
X179955Y430576D01*
X179895Y431250D01*
X179955Y431924D01*
X181826Y433174D01*
X183152Y435159D01*
X183618Y437500D01*
X183152Y439841D01*
X181826Y441826D01*
X179955Y443076D01*
X179895Y443750D01*
X179955Y444424D01*
X181826Y445674D01*
X183152Y447659D01*
X183617Y450000D01*
X183152Y452341D01*
X181826Y454326D01*
X179841Y455652D01*
X177500Y456118D01*
D02*
G37*
G36*
X70000Y425000D02*
X59717D01*
X59835Y424106D01*
X61144Y420944D01*
X63228Y418228D01*
X65944Y416144D01*
X69106Y414835D01*
X70000Y414717D01*
Y425000D01*
D02*
G37*
G36*
X85283D02*
X75000D01*
Y414717D01*
X75894Y414835D01*
X79056Y416144D01*
X81772Y418228D01*
X83855Y420944D01*
X85165Y424106D01*
X85283Y425000D01*
D02*
G37*
G36*
X287500Y418618D02*
X285159Y418152D01*
X283174Y416826D01*
X281848Y414841D01*
X281383Y412500D01*
X281848Y410159D01*
X283174Y408174D01*
X285159Y406848D01*
X287500Y406382D01*
X289841Y406848D01*
X291826Y408174D01*
X293152Y410159D01*
X293617Y412500D01*
X293152Y414841D01*
X291826Y416826D01*
X289841Y418152D01*
X287500Y418618D01*
D02*
G37*
G36*
X325000Y424078D02*
X322650Y423768D01*
X320461Y422861D01*
X318581Y421419D01*
X317139Y419539D01*
X316232Y417350D01*
X315922Y415000D01*
X316232Y412650D01*
X317139Y410461D01*
X318581Y408581D01*
X320461Y407138D01*
X322650Y406232D01*
X325000Y405922D01*
X327349Y406232D01*
X329539Y407138D01*
X331419Y408581D01*
X332861Y410461D01*
X333768Y412650D01*
X334078Y415000D01*
X333768Y417350D01*
X332861Y419539D01*
X331419Y421419D01*
X329539Y422861D01*
X327349Y423768D01*
X325000Y424078D01*
D02*
G37*
G36*
X117500Y456118D02*
X115159Y455652D01*
X113174Y454326D01*
X111848Y452341D01*
X111382Y450000D01*
X111848Y447659D01*
X113174Y445674D01*
X115045Y444424D01*
X115105Y443750D01*
X115045Y443076D01*
X113174Y441826D01*
X111848Y439841D01*
X111382Y437500D01*
X111848Y435159D01*
X113174Y433174D01*
X115045Y431924D01*
X115105Y431250D01*
X115045Y430576D01*
X113174Y429326D01*
X111848Y427341D01*
X111383Y425000D01*
X111848Y422659D01*
X113174Y420674D01*
X115045Y419424D01*
X115105Y418750D01*
X115045Y418076D01*
X113174Y416826D01*
X111848Y414841D01*
X111383Y412500D01*
X111848Y410159D01*
X113174Y408174D01*
X115045Y406924D01*
X115105Y406250D01*
X115045Y405576D01*
X113174Y404326D01*
X111848Y402341D01*
X111383Y400000D01*
X111848Y397659D01*
X113174Y395674D01*
X115159Y394348D01*
X117500Y393882D01*
X119841Y394348D01*
X121826Y395674D01*
X123076Y397545D01*
X123750Y397605D01*
X124424Y397545D01*
X125674Y395674D01*
X127659Y394348D01*
X130000Y393882D01*
X132341Y394348D01*
X134326Y395674D01*
X135576Y397545D01*
X136250Y397605D01*
X136924Y397545D01*
X138174Y395674D01*
X140159Y394348D01*
X142500Y393882D01*
X144841Y394348D01*
X146826Y395674D01*
X148076Y397545D01*
X148750Y397605D01*
X149424Y397545D01*
X150674Y395674D01*
X152659Y394348D01*
X155000Y393882D01*
X157341Y394348D01*
X159326Y395674D01*
X160652Y397659D01*
X161117Y400000D01*
X160652Y402341D01*
X159326Y404326D01*
X157455Y405576D01*
X157395Y406250D01*
X157455Y406924D01*
X159326Y408174D01*
X160652Y410159D01*
X161117Y412500D01*
X160652Y414841D01*
X159326Y416826D01*
X157455Y418076D01*
X157395Y418750D01*
X157455Y419424D01*
X159326Y420674D01*
X160652Y422659D01*
X161118Y425000D01*
X160652Y427341D01*
X159326Y429326D01*
X157341Y430652D01*
X155000Y431118D01*
X152659Y430652D01*
X150674Y429326D01*
X149424Y427455D01*
X148750Y427394D01*
X148076Y427455D01*
X146826Y429326D01*
X144841Y430652D01*
X142500Y431118D01*
X140159Y430652D01*
X138174Y429326D01*
X136924Y427455D01*
X136250Y427395D01*
X135576Y427455D01*
X134326Y429326D01*
X132341Y430652D01*
X130000Y431118D01*
X127659Y430652D01*
X125674Y429326D01*
X124424Y427455D01*
X123750Y427394D01*
X123076Y427455D01*
X121826Y429326D01*
X119955Y430576D01*
X119895Y431250D01*
X119955Y431924D01*
X121826Y433174D01*
X123152Y435159D01*
X123617Y437500D01*
X123152Y439841D01*
X121826Y441826D01*
X119955Y443076D01*
X119895Y443750D01*
X119955Y444424D01*
X121826Y445674D01*
X123152Y447659D01*
X123617Y450000D01*
X123152Y452341D01*
X121826Y454326D01*
X119841Y455652D01*
X117500Y456118D01*
D02*
G37*
G36*
X350000Y388618D02*
X347659Y388152D01*
X345674Y386826D01*
X344348Y384841D01*
X343882Y382500D01*
X344348Y380159D01*
X345674Y378174D01*
X347659Y376848D01*
X350000Y376382D01*
X352341Y376848D01*
X354326Y378174D01*
X355652Y380159D01*
X356118Y382500D01*
X355652Y384841D01*
X354326Y386826D01*
X352341Y388152D01*
X350000Y388618D01*
D02*
G37*
G36*
X209000Y388117D02*
X206659Y387652D01*
X204674Y386326D01*
X203348Y384341D01*
X202882Y382000D01*
X203348Y379659D01*
X204674Y377674D01*
X206659Y376348D01*
X209000Y375882D01*
X211341Y376348D01*
X213326Y377674D01*
X214652Y379659D01*
X215117Y382000D01*
X214652Y384341D01*
X213326Y386326D01*
X211341Y387652D01*
X209000Y388117D01*
D02*
G37*
G36*
X325000Y391578D02*
X322650Y391268D01*
X320461Y390361D01*
X318581Y388919D01*
X317139Y387039D01*
X316232Y384850D01*
X315922Y382500D01*
X316232Y380150D01*
X317139Y377961D01*
X318581Y376081D01*
X320461Y374638D01*
X322650Y373732D01*
X325000Y373422D01*
X327349Y373732D01*
X329539Y374638D01*
X331419Y376081D01*
X332861Y377961D01*
X333768Y380150D01*
X334078Y382500D01*
X333768Y384850D01*
X332861Y387039D01*
X331419Y388919D01*
X329539Y390361D01*
X327349Y391268D01*
X325000Y391578D01*
D02*
G37*
G36*
X154000Y384118D02*
X151659Y383652D01*
X149674Y382326D01*
X148348Y380341D01*
X147882Y378000D01*
X148348Y375659D01*
X149674Y373674D01*
X151659Y372348D01*
X154000Y371883D01*
X156341Y372348D01*
X158326Y373674D01*
X159652Y375659D01*
X160117Y378000D01*
X159652Y380341D01*
X158326Y382326D01*
X156341Y383652D01*
X154000Y384118D01*
D02*
G37*
G36*
X182500Y378617D02*
X180159Y378151D01*
X178174Y376825D01*
X176848Y374840D01*
X176382Y372499D01*
X176848Y370158D01*
X178174Y368173D01*
X180159Y366847D01*
X182500Y366382D01*
X184841Y366847D01*
X186825Y368173D01*
X188151Y370158D01*
X188617Y372499D01*
X188151Y374840D01*
X186825Y376825D01*
X184841Y378151D01*
X182500Y378617D01*
D02*
G37*
G36*
X72500Y389604D02*
X69367Y389191D01*
X66448Y387982D01*
X63941Y386059D01*
X62018Y383552D01*
X60809Y380633D01*
X60396Y377500D01*
X60809Y374367D01*
X62018Y371448D01*
X63941Y368941D01*
X66448Y367018D01*
X69367Y365809D01*
X72500Y365396D01*
X75633Y365809D01*
X78552Y367018D01*
X81059Y368941D01*
X82982Y371448D01*
X84191Y374367D01*
X84604Y377500D01*
X84191Y380633D01*
X82982Y383552D01*
X81059Y386059D01*
X78552Y387982D01*
X75633Y389191D01*
X72500Y389604D01*
D02*
G37*
G36*
X217500Y350304D02*
X216427Y350090D01*
X215517Y349483D01*
X214910Y348573D01*
X214696Y347500D01*
X214910Y346427D01*
X215517Y345517D01*
X216427Y344910D01*
X217500Y344696D01*
X218573Y344910D01*
X219483Y345517D01*
X220090Y346427D01*
X220304Y347500D01*
X220090Y348573D01*
X219483Y349483D01*
X218573Y350090D01*
X217500Y350304D01*
D02*
G37*
G36*
X325000Y359078D02*
X322650Y358768D01*
X320461Y357861D01*
X318581Y356419D01*
X317139Y354539D01*
X316232Y352350D01*
X315922Y350000D01*
X316232Y347650D01*
X317139Y345461D01*
X318581Y343581D01*
X320461Y342138D01*
X322650Y341232D01*
X325000Y340922D01*
X327349Y341232D01*
X329539Y342138D01*
X331419Y343581D01*
X332861Y345461D01*
X333768Y347650D01*
X334078Y350000D01*
X333768Y352350D01*
X332861Y354539D01*
X331419Y356419D01*
X329539Y357861D01*
X327349Y358768D01*
X325000Y359078D01*
D02*
G37*
G36*
X72500Y354604D02*
X69367Y354191D01*
X66448Y352982D01*
X63941Y351059D01*
X62018Y348552D01*
X60809Y345633D01*
X60396Y342500D01*
X60809Y339367D01*
X62018Y336448D01*
X63941Y333941D01*
X66448Y332018D01*
X69367Y330809D01*
X72500Y330396D01*
X75633Y330809D01*
X78552Y332018D01*
X81059Y333941D01*
X82982Y336448D01*
X84191Y339367D01*
X84604Y342500D01*
X84191Y345633D01*
X82982Y348552D01*
X81059Y351059D01*
X78552Y352982D01*
X75633Y354191D01*
X72500Y354604D01*
D02*
G37*
G36*
X217500Y340304D02*
X216427Y340090D01*
X215517Y339483D01*
X214910Y338573D01*
X214696Y337500D01*
X214910Y336427D01*
X215517Y335517D01*
Y334483D01*
X214910Y333573D01*
X214696Y332500D01*
X214910Y331427D01*
X215517Y330517D01*
X216427Y329910D01*
X217500Y329696D01*
X218573Y329910D01*
X219483Y330517D01*
X220090Y331427D01*
X220304Y332500D01*
X220090Y333573D01*
X219483Y334483D01*
Y335517D01*
X220090Y336427D01*
X220304Y337500D01*
X220090Y338573D01*
X219483Y339483D01*
X218573Y340090D01*
X217500Y340304D01*
D02*
G37*
G36*
X207500Y335304D02*
X206427Y335090D01*
X205517Y334483D01*
X204909Y333573D01*
X204696Y332500D01*
X204909Y331427D01*
X205517Y330517D01*
X206427Y329910D01*
X207500Y329696D01*
X208573Y329910D01*
X209483Y330517D01*
X210090Y331427D01*
X210304Y332500D01*
X210090Y333573D01*
X209483Y334483D01*
X208573Y335090D01*
X207500Y335304D01*
D02*
G37*
G36*
X240000Y338618D02*
X237659Y338152D01*
X235674Y336826D01*
X234348Y334841D01*
X233882Y332500D01*
X234348Y330159D01*
X235674Y328174D01*
X237659Y326848D01*
X240000Y326382D01*
X242341Y326848D01*
X244326Y328174D01*
X245652Y330159D01*
X246117Y332500D01*
X245652Y334841D01*
X244326Y336826D01*
X242341Y338152D01*
X240000Y338618D01*
D02*
G37*
G36*
X185251Y334867D02*
X182910Y334402D01*
X180925Y333075D01*
X179599Y331091D01*
X179133Y328750D01*
X179599Y326409D01*
X180691Y324774D01*
X180030Y323611D01*
X180000Y323617D01*
X177659Y323151D01*
X175674Y321825D01*
X174348Y319841D01*
X173882Y317499D01*
X174348Y315158D01*
X175674Y313174D01*
X177659Y311848D01*
X180000Y311382D01*
X182341Y311848D01*
X184325Y313174D01*
X185651Y315158D01*
X186117Y317499D01*
X185651Y319841D01*
X184559Y321475D01*
X185221Y322638D01*
X185251Y322632D01*
X187592Y323098D01*
X189576Y324424D01*
X190902Y326409D01*
X191368Y328750D01*
X190902Y331091D01*
X189576Y333075D01*
X187592Y334402D01*
X185251Y334867D01*
D02*
G37*
G36*
X350000Y323618D02*
X347659Y323152D01*
X345674Y321826D01*
X344348Y319841D01*
X343882Y317500D01*
X344348Y315159D01*
X345674Y313174D01*
X347659Y311848D01*
X350000Y311383D01*
X352341Y311848D01*
X354326Y313174D01*
X355652Y315159D01*
X356118Y317500D01*
X355652Y319841D01*
X354326Y321826D01*
X352341Y323152D01*
X350000Y323618D01*
D02*
G37*
G36*
X75000Y320283D02*
Y310000D01*
X85283D01*
X85165Y310894D01*
X83855Y314056D01*
X81772Y316772D01*
X79056Y318855D01*
X75894Y320165D01*
X75000Y320283D01*
D02*
G37*
G36*
X70000D02*
X69106Y320165D01*
X65944Y318855D01*
X63228Y316772D01*
X61144Y314056D01*
X59835Y310894D01*
X59717Y310000D01*
X70000D01*
Y320283D01*
D02*
G37*
G36*
X325000Y326578D02*
X322650Y326268D01*
X320461Y325362D01*
X318581Y323919D01*
X317139Y322039D01*
X316232Y319849D01*
X315922Y317500D01*
X316232Y315151D01*
X317139Y312961D01*
X318581Y311081D01*
X320461Y309639D01*
X322650Y308732D01*
X325000Y308422D01*
X327349Y308732D01*
X329539Y309639D01*
X331419Y311081D01*
X332861Y312961D01*
X333768Y315151D01*
X334078Y317500D01*
X333768Y319849D01*
X332861Y322039D01*
X331419Y323919D01*
X329539Y325362D01*
X327349Y326268D01*
X325000Y326578D01*
D02*
G37*
G36*
X160750Y312367D02*
X158409Y311902D01*
X156424Y310576D01*
X155098Y308591D01*
X154633Y306250D01*
X155098Y303909D01*
X156424Y301924D01*
X158409Y300598D01*
X160750Y300133D01*
X163091Y300598D01*
X165076Y301924D01*
X166402Y303909D01*
X166868Y306250D01*
X166402Y308591D01*
X165076Y310576D01*
X163091Y311902D01*
X160750Y312367D01*
D02*
G37*
G36*
X192500Y311117D02*
X190159Y310652D01*
X188174Y309326D01*
X186848Y307341D01*
X186382Y305000D01*
X186848Y302659D01*
X188174Y300674D01*
X190159Y299348D01*
X192500Y298883D01*
X194841Y299348D01*
X196826Y300674D01*
X198152Y302659D01*
X198617Y305000D01*
X198152Y307341D01*
X196826Y309326D01*
X194841Y310652D01*
X192500Y311117D01*
D02*
G37*
G36*
X298000Y308118D02*
X295659Y307652D01*
X293674Y306326D01*
X292348Y304341D01*
X291882Y302000D01*
X292348Y299659D01*
X293674Y297674D01*
X295659Y296348D01*
X298000Y295882D01*
X300341Y296348D01*
X302326Y297674D01*
X303652Y299659D01*
X304118Y302000D01*
X303652Y304341D01*
X302326Y306326D01*
X300341Y307652D01*
X298000Y308118D01*
D02*
G37*
G36*
X70000Y305000D02*
X59717D01*
X59835Y304106D01*
X61144Y300944D01*
X63228Y298228D01*
X65944Y296145D01*
X69106Y294835D01*
X70000Y294717D01*
Y305000D01*
D02*
G37*
G36*
X85283D02*
X75000D01*
Y294717D01*
X75894Y294835D01*
X79056Y296145D01*
X81772Y298228D01*
X83855Y300944D01*
X85165Y304106D01*
X85283Y305000D01*
D02*
G37*
G36*
X267750Y303368D02*
X265409Y302902D01*
X263424Y301576D01*
X262098Y299591D01*
X261632Y297250D01*
X262098Y294909D01*
X263424Y292924D01*
X265409Y291598D01*
X266876Y291306D01*
Y290012D01*
X265659Y289769D01*
X263674Y288443D01*
X262348Y286459D01*
X261882Y284118D01*
X262348Y281776D01*
X263674Y279792D01*
X265659Y278466D01*
X268000Y278000D01*
X270341Y278466D01*
X272326Y279792D01*
X273652Y281776D01*
X274118Y284118D01*
X273652Y286459D01*
X272326Y288443D01*
X270341Y289769D01*
X268874Y290061D01*
Y291356D01*
X270091Y291598D01*
X272076Y292924D01*
X273402Y294909D01*
X273867Y297250D01*
X273402Y299591D01*
X272076Y301576D01*
X270091Y302902D01*
X267750Y303368D01*
D02*
G37*
G36*
X152500Y288617D02*
X150159Y288152D01*
X148174Y286826D01*
X146848Y284841D01*
X146382Y282500D01*
X146848Y280159D01*
X148174Y278174D01*
X150159Y276848D01*
X152500Y276382D01*
X154841Y276848D01*
X156826Y278174D01*
X158152Y280159D01*
X158617Y282500D01*
X158152Y284841D01*
X156826Y286826D01*
X154841Y288152D01*
X152500Y288617D01*
D02*
G37*
G36*
X325000Y294078D02*
X322650Y293768D01*
X320461Y292861D01*
X318581Y291419D01*
X317139Y289539D01*
X316232Y287349D01*
X315922Y285000D01*
X316232Y282651D01*
X317139Y280461D01*
X318581Y278581D01*
X320461Y277139D01*
X322650Y276232D01*
X325000Y275922D01*
X327349Y276232D01*
X329539Y277139D01*
X331419Y278581D01*
X332861Y280461D01*
X333768Y282651D01*
X334078Y285000D01*
X333768Y287349D01*
X332861Y289539D01*
X331419Y291419D01*
X329539Y292861D01*
X327349Y293768D01*
X325000Y294078D01*
D02*
G37*
G36*
X287500D02*
X285151Y293768D01*
X282961Y292861D01*
X281081Y291419D01*
X279639Y289539D01*
X278732Y287349D01*
X278422Y285000D01*
X278732Y282651D01*
X279639Y280461D01*
X281081Y278581D01*
X282961Y277139D01*
X285151Y276232D01*
X287500Y275922D01*
X289849Y276232D01*
X292039Y277139D01*
X293919Y278581D01*
X295361Y280461D01*
X296268Y282651D01*
X296578Y285000D01*
X296268Y287349D01*
X295361Y289539D01*
X293919Y291419D01*
X292039Y292861D01*
X289849Y293768D01*
X287500Y294078D01*
D02*
G37*
G36*
X313375Y273743D02*
X311034Y273277D01*
X309049Y271951D01*
X307723Y269966D01*
X307257Y267625D01*
X307723Y265284D01*
X309049Y263299D01*
X311034Y261973D01*
X313375Y261507D01*
X315716Y261973D01*
X317701Y263299D01*
X319027Y265284D01*
X319492Y267625D01*
X319027Y269966D01*
X317701Y271951D01*
X315716Y273277D01*
X313375Y273743D01*
D02*
G37*
G36*
X137500Y266117D02*
X135159Y265652D01*
X133174Y264326D01*
X131848Y262341D01*
X131383Y260000D01*
X131848Y257659D01*
X133174Y255674D01*
X135159Y254348D01*
X137500Y253882D01*
X139841Y254348D01*
X141826Y255674D01*
X143152Y257659D01*
X143617Y260000D01*
X143152Y262341D01*
X141826Y264326D01*
X139841Y265652D01*
X137500Y266117D01*
D02*
G37*
G36*
X135000Y236117D02*
X132659Y235652D01*
X130674Y234326D01*
X129348Y232341D01*
X128883Y230000D01*
X129348Y227659D01*
X130674Y225674D01*
X132659Y224348D01*
X135000Y223882D01*
X137341Y224348D01*
X139326Y225674D01*
X140652Y227659D01*
X141117Y230000D01*
X140652Y232341D01*
X139326Y234326D01*
X137341Y235652D01*
X135000Y236117D01*
D02*
G37*
G36*
X77791Y229227D02*
X76425Y228956D01*
X75268Y228182D01*
X74494Y227024D01*
X74222Y225659D01*
X74494Y224293D01*
X75268Y223135D01*
X76425Y222362D01*
X77791Y222090D01*
X79157Y222362D01*
X80314Y223135D01*
X81088Y224293D01*
X81360Y225659D01*
X81088Y227024D01*
X80314Y228182D01*
X79157Y228956D01*
X77791Y229227D01*
D02*
G37*
G36*
X67791D02*
X66425Y228956D01*
X65268Y228182D01*
X64494Y227024D01*
X64222Y225659D01*
X64494Y224293D01*
X65268Y223135D01*
X66425Y222362D01*
X67791Y222090D01*
X69157Y222362D01*
X70314Y223135D01*
X71088Y224293D01*
X71360Y225659D01*
X71088Y227024D01*
X70314Y228182D01*
X69157Y228956D01*
X67791Y229227D01*
D02*
G37*
G36*
X192500Y239078D02*
X190151Y238768D01*
X187961Y237861D01*
X186081Y236419D01*
X184639Y234539D01*
X183732Y232349D01*
X183422Y230000D01*
X183732Y227651D01*
X184639Y225461D01*
X186081Y223581D01*
X187961Y222139D01*
X190151Y221232D01*
X192500Y220922D01*
X194849Y221232D01*
X197039Y222139D01*
X198919Y223581D01*
X200361Y225461D01*
X201268Y227651D01*
X201578Y230000D01*
X201268Y232349D01*
X200361Y234539D01*
X198919Y236419D01*
X197039Y237861D01*
X194849Y238768D01*
X192500Y239078D01*
D02*
G37*
G36*
X27500Y226117D02*
X25159Y225652D01*
X23174Y224326D01*
X21848Y222341D01*
X21383Y220000D01*
X21848Y217659D01*
X23174Y215674D01*
X25159Y214348D01*
X27500Y213882D01*
X29841Y214348D01*
X31826Y215674D01*
X33152Y217659D01*
X33617Y220000D01*
X33152Y222341D01*
X31826Y224326D01*
X29841Y225652D01*
X27500Y226117D01*
D02*
G37*
G36*
X77791Y219227D02*
X76425Y218956D01*
X75268Y218182D01*
X74494Y217024D01*
X74222Y215659D01*
X74494Y214293D01*
X75268Y213135D01*
X76425Y212362D01*
X77791Y212090D01*
X79157Y212362D01*
X80314Y213135D01*
X81088Y214293D01*
X81360Y215659D01*
X81088Y217024D01*
X80314Y218182D01*
X79157Y218956D01*
X77791Y219227D01*
D02*
G37*
G36*
X67791D02*
X66425Y218956D01*
X65268Y218182D01*
X64494Y217024D01*
X64222Y215659D01*
X64494Y214293D01*
X65268Y213135D01*
X66425Y212362D01*
X67791Y212090D01*
X69157Y212362D01*
X70314Y213135D01*
X71088Y214293D01*
X71360Y215659D01*
X71088Y217024D01*
X70314Y218182D01*
X69157Y218956D01*
X67791Y219227D01*
D02*
G37*
G36*
X135000Y216117D02*
X132659Y215652D01*
X130674Y214326D01*
X129348Y212341D01*
X128883Y210000D01*
X129348Y207659D01*
X130674Y205674D01*
X132659Y204348D01*
X135000Y203882D01*
X137341Y204348D01*
X139326Y205674D01*
X140652Y207659D01*
X141117Y210000D01*
X140652Y212341D01*
X139326Y214326D01*
X137341Y215652D01*
X135000Y216117D01*
D02*
G37*
G36*
X352500Y216578D02*
X350150Y216268D01*
X347961Y215361D01*
X346081Y213919D01*
X344639Y212039D01*
X343732Y209849D01*
X343422Y207500D01*
X343732Y205151D01*
X344639Y202961D01*
X346081Y201081D01*
X347961Y199639D01*
X350150Y198732D01*
X352500Y198422D01*
X354850Y198732D01*
X357039Y199639D01*
X358919Y201081D01*
X360362Y202961D01*
X361268Y205151D01*
X361578Y207500D01*
X361268Y209849D01*
X360362Y212039D01*
X358919Y213919D01*
X357039Y215361D01*
X354850Y216268D01*
X352500Y216578D01*
D02*
G37*
G36*
X320000D02*
X317651Y216268D01*
X315461Y215361D01*
X313581Y213919D01*
X312139Y212039D01*
X311232Y209849D01*
X310922Y207500D01*
X311232Y205151D01*
X312139Y202961D01*
X313581Y201081D01*
X315461Y199639D01*
X317651Y198732D01*
X320000Y198422D01*
X322350Y198732D01*
X324539Y199639D01*
X326419Y201081D01*
X327861Y202961D01*
X328768Y205151D01*
X329078Y207500D01*
X328768Y209849D01*
X327861Y212039D01*
X326419Y213919D01*
X324539Y215361D01*
X322350Y216268D01*
X320000Y216578D01*
D02*
G37*
G36*
X287500D02*
X285151Y216268D01*
X282961Y215361D01*
X281081Y213919D01*
X279639Y212039D01*
X278732Y209849D01*
X278422Y207500D01*
X278732Y205151D01*
X279639Y202961D01*
X281081Y201081D01*
X282961Y199639D01*
X285151Y198732D01*
X287500Y198422D01*
X289849Y198732D01*
X292039Y199639D01*
X293919Y201081D01*
X295361Y202961D01*
X296268Y205151D01*
X296578Y207500D01*
X296268Y209849D01*
X295361Y212039D01*
X293919Y213919D01*
X292039Y215361D01*
X289849Y216268D01*
X287500Y216578D01*
D02*
G37*
G36*
X255000D02*
X252651Y216268D01*
X250461Y215361D01*
X248581Y213919D01*
X247139Y212039D01*
X246232Y209849D01*
X245922Y207500D01*
X246232Y205151D01*
X247139Y202961D01*
X248581Y201081D01*
X250461Y199639D01*
X252651Y198732D01*
X255000Y198422D01*
X257349Y198732D01*
X259539Y199639D01*
X261419Y201081D01*
X262861Y202961D01*
X263768Y205151D01*
X264078Y207500D01*
X263768Y209849D01*
X262861Y212039D01*
X261419Y213919D01*
X259539Y215361D01*
X257349Y216268D01*
X255000Y216578D01*
D02*
G37*
G36*
X27500Y206117D02*
X25159Y205652D01*
X23174Y204326D01*
X21848Y202341D01*
X21383Y200000D01*
X21848Y197659D01*
X23174Y195674D01*
X25159Y194348D01*
X27500Y193882D01*
X29841Y194348D01*
X31826Y195674D01*
X33152Y197659D01*
X33617Y200000D01*
X33152Y202341D01*
X31826Y204326D01*
X29841Y205652D01*
X27500Y206117D01*
D02*
G37*
G36*
X192500Y206578D02*
X190151Y206268D01*
X187961Y205361D01*
X186081Y203919D01*
X184639Y202039D01*
X183732Y199849D01*
X183422Y197500D01*
X183732Y195151D01*
X184639Y192961D01*
X186081Y191081D01*
X187961Y189639D01*
X190151Y188732D01*
X192500Y188422D01*
X194849Y188732D01*
X197039Y189639D01*
X198919Y191081D01*
X200361Y192961D01*
X201268Y195151D01*
X201578Y197500D01*
X201268Y199849D01*
X200361Y202039D01*
X198919Y203919D01*
X197039Y205361D01*
X194849Y206268D01*
X192500Y206578D01*
D02*
G37*
G36*
X150000Y186117D02*
X147659Y185652D01*
X145674Y184326D01*
X144348Y182341D01*
X143883Y180000D01*
X144348Y177659D01*
X145674Y175674D01*
X147659Y174348D01*
X150000Y173883D01*
X152341Y174348D01*
X154326Y175674D01*
X155652Y177659D01*
X156117Y180000D01*
X155652Y182341D01*
X154326Y184326D01*
X152341Y185652D01*
X150000Y186117D01*
D02*
G37*
G36*
X330000Y183617D02*
X327659Y183152D01*
X325674Y181826D01*
X324348Y179841D01*
X323882Y177500D01*
X324348Y175159D01*
X325674Y173174D01*
X327659Y171848D01*
X330000Y171383D01*
X332341Y171848D01*
X334326Y173174D01*
X335652Y175159D01*
X336118Y177500D01*
X335652Y179841D01*
X334326Y181826D01*
X332341Y183152D01*
X330000Y183617D01*
D02*
G37*
G36*
X310000D02*
X307659Y183152D01*
X305674Y181826D01*
X304348Y179841D01*
X303883Y177500D01*
X304348Y175159D01*
X305674Y173174D01*
X307659Y171848D01*
X310000Y171383D01*
X312341Y171848D01*
X314326Y173174D01*
X315652Y175159D01*
X316117Y177500D01*
X315652Y179841D01*
X314326Y181826D01*
X312341Y183152D01*
X310000Y183617D01*
D02*
G37*
G36*
X290000D02*
X287659Y183152D01*
X285674Y181826D01*
X284348Y179841D01*
X283883Y177500D01*
X284348Y175159D01*
X285674Y173174D01*
X287659Y171848D01*
X290000Y171383D01*
X292341Y171848D01*
X294326Y173174D01*
X295652Y175159D01*
X296117Y177500D01*
X295652Y179841D01*
X294326Y181826D01*
X292341Y183152D01*
X290000Y183617D01*
D02*
G37*
G36*
X270000D02*
X267659Y183152D01*
X265674Y181826D01*
X264348Y179841D01*
X263883Y177500D01*
X264348Y175159D01*
X265674Y173174D01*
X267659Y171848D01*
X270000Y171383D01*
X272341Y171848D01*
X274326Y173174D01*
X275652Y175159D01*
X276117Y177500D01*
X275652Y179841D01*
X274326Y181826D01*
X272341Y183152D01*
X270000Y183617D01*
D02*
G37*
G36*
X216000Y178118D02*
X213659Y177652D01*
X211674Y176326D01*
X210348Y174341D01*
X209883Y172000D01*
X210348Y169659D01*
X211674Y167674D01*
X213659Y166348D01*
X216000Y165882D01*
X218341Y166348D01*
X220326Y167674D01*
X221652Y169659D01*
X222118Y172000D01*
X221652Y174341D01*
X220326Y176326D01*
X218341Y177652D01*
X216000Y178118D01*
D02*
G37*
G36*
X192500Y174078D02*
X190151Y173768D01*
X187961Y172861D01*
X186081Y171419D01*
X184639Y169539D01*
X183732Y167349D01*
X183422Y165000D01*
X183732Y162651D01*
X184639Y160461D01*
X186081Y158581D01*
X187961Y157139D01*
X190151Y156232D01*
X192500Y155922D01*
X194849Y156232D01*
X197039Y157139D01*
X198919Y158581D01*
X200361Y160461D01*
X201268Y162651D01*
X201578Y165000D01*
X201268Y167349D01*
X200361Y169539D01*
X198919Y171419D01*
X197039Y172861D01*
X194849Y173768D01*
X192500Y174078D01*
D02*
G37*
G36*
X225000Y163617D02*
X222659Y163152D01*
X220674Y161826D01*
X219348Y159841D01*
X218883Y157500D01*
X219348Y155159D01*
X220674Y153174D01*
X222659Y151848D01*
X225000Y151383D01*
X227341Y151848D01*
X229326Y153174D01*
X230652Y155159D01*
X231117Y157500D01*
X230652Y159841D01*
X229326Y161826D01*
X227341Y163152D01*
X225000Y163617D01*
D02*
G37*
G36*
X357500Y166578D02*
X355150Y166268D01*
X352961Y165361D01*
X351081Y163919D01*
X349638Y162039D01*
X348732Y159850D01*
X348422Y157500D01*
X348732Y155150D01*
X349638Y152961D01*
X351081Y151081D01*
X352961Y149639D01*
X355150Y148732D01*
X357500Y148422D01*
X359850Y148732D01*
X362039Y149639D01*
X363919Y151081D01*
X365361Y152961D01*
X366268Y155150D01*
X366578Y157500D01*
X366268Y159850D01*
X365361Y162039D01*
X363919Y163919D01*
X362039Y165361D01*
X359850Y166268D01*
X357500Y166578D01*
D02*
G37*
G36*
X242500D02*
X240151Y166268D01*
X237961Y165361D01*
X236081Y163919D01*
X234639Y162039D01*
X233732Y159850D01*
X233422Y157500D01*
X233732Y155150D01*
X234639Y152961D01*
X236081Y151081D01*
X237961Y149639D01*
X240151Y148732D01*
X242500Y148422D01*
X244849Y148732D01*
X247039Y149639D01*
X248919Y151081D01*
X250361Y152961D01*
X251268Y155150D01*
X251578Y157500D01*
X251268Y159850D01*
X250361Y162039D01*
X248919Y163919D01*
X247039Y165361D01*
X244849Y166268D01*
X242500Y166578D01*
D02*
G37*
G36*
X37500Y156117D02*
X35159Y155652D01*
X33174Y154326D01*
X31848Y152341D01*
X31382Y150000D01*
X31848Y147659D01*
X33174Y145674D01*
X35159Y144348D01*
X37500Y143882D01*
X39841Y144348D01*
X41826Y145674D01*
X43152Y147659D01*
X43618Y150000D01*
X43152Y152341D01*
X41826Y154326D01*
X39841Y155652D01*
X37500Y156117D01*
D02*
G37*
G36*
X207500Y153617D02*
X205159Y153152D01*
X203174Y151826D01*
X201848Y149841D01*
X201382Y147500D01*
X201848Y145159D01*
X203174Y143174D01*
X205159Y141848D01*
X207500Y141382D01*
X209841Y141848D01*
X211826Y143174D01*
X213152Y145159D01*
X213617Y147500D01*
X213152Y149841D01*
X211826Y151826D01*
X209841Y153152D01*
X207500Y153617D01*
D02*
G37*
G36*
X226000Y136117D02*
X223659Y135652D01*
X221674Y134326D01*
X220348Y132341D01*
X219883Y130000D01*
X220348Y127659D01*
X221674Y125674D01*
X223659Y124348D01*
X226000Y123883D01*
X228341Y124348D01*
X230326Y125674D01*
X231652Y127659D01*
X232118Y130000D01*
X231652Y132341D01*
X230326Y134326D01*
X228341Y135652D01*
X226000Y136117D01*
D02*
G37*
G36*
X192500Y141578D02*
X190151Y141268D01*
X187961Y140361D01*
X186081Y138919D01*
X184639Y137039D01*
X183732Y134850D01*
X183422Y132500D01*
X183732Y130150D01*
X184639Y127961D01*
X186081Y126081D01*
X187961Y124639D01*
X190151Y123732D01*
X192500Y123422D01*
X194849Y123732D01*
X197039Y124639D01*
X198919Y126081D01*
X200361Y127961D01*
X201268Y130150D01*
X201578Y132500D01*
X201268Y134850D01*
X200361Y137039D01*
X198919Y138919D01*
X197039Y140361D01*
X194849Y141268D01*
X192500Y141578D01*
D02*
G37*
G36*
X170000Y133617D02*
X167659Y133152D01*
X165674Y131826D01*
X164348Y129841D01*
X163882Y127500D01*
X164348Y125159D01*
X165674Y123174D01*
X167659Y121848D01*
X170000Y121382D01*
X172341Y121848D01*
X174326Y123174D01*
X175652Y125159D01*
X176117Y127500D01*
X175652Y129841D01*
X174326Y131826D01*
X172341Y133152D01*
X170000Y133617D01*
D02*
G37*
G36*
X37500Y136117D02*
X35159Y135652D01*
X33174Y134326D01*
X31848Y132341D01*
X31382Y130000D01*
X31848Y127659D01*
X33174Y125674D01*
X35045Y124424D01*
X35105Y123750D01*
X35045Y123076D01*
X33174Y121826D01*
X31848Y119841D01*
X31382Y117500D01*
X31848Y115159D01*
X33174Y113174D01*
X35159Y111848D01*
X37500Y111382D01*
X39841Y111848D01*
X41826Y113174D01*
X43152Y115159D01*
X43618Y117500D01*
X43152Y119841D01*
X41826Y121826D01*
X39955Y123076D01*
X39895Y123750D01*
X39955Y124424D01*
X41826Y125674D01*
X43152Y127659D01*
X43618Y130000D01*
X43152Y132341D01*
X41826Y134326D01*
X39841Y135652D01*
X37500Y136117D01*
D02*
G37*
G36*
X207500Y121117D02*
X205159Y120652D01*
X203174Y119326D01*
X201848Y117341D01*
X201382Y115000D01*
X201848Y112659D01*
X203174Y110674D01*
X205159Y109348D01*
X207500Y108882D01*
X209841Y109348D01*
X211826Y110674D01*
X213152Y112659D01*
X213617Y115000D01*
X213152Y117341D01*
X211826Y119326D01*
X209841Y120652D01*
X207500Y121117D01*
D02*
G37*
G36*
X345000Y113617D02*
X342659Y113152D01*
X340674Y111826D01*
X339348Y109841D01*
X338882Y107500D01*
X339348Y105159D01*
X340674Y103174D01*
X342659Y101848D01*
X345000Y101382D01*
X347341Y101848D01*
X349326Y103174D01*
X350652Y105159D01*
X351118Y107500D01*
X350652Y109841D01*
X349326Y111826D01*
X347341Y113152D01*
X345000Y113617D01*
D02*
G37*
G36*
X255000D02*
X252659Y113152D01*
X250674Y111826D01*
X249348Y109841D01*
X248883Y107500D01*
X249348Y105159D01*
X250674Y103174D01*
X252659Y101848D01*
X255000Y101382D01*
X257341Y101848D01*
X259326Y103174D01*
X260652Y105159D01*
X261117Y107500D01*
X260652Y109841D01*
X259326Y111826D01*
X257341Y113152D01*
X255000Y113617D01*
D02*
G37*
G36*
X170000Y113617D02*
X167659Y113152D01*
X165674Y111826D01*
X164348Y109841D01*
X163882Y107500D01*
X164348Y105159D01*
X165674Y103174D01*
X167659Y101848D01*
X170000Y101382D01*
X172341Y101848D01*
X174326Y103174D01*
X175652Y105159D01*
X176117Y107500D01*
X175652Y109841D01*
X174326Y111826D01*
X172341Y113152D01*
X170000Y113617D01*
D02*
G37*
G36*
X37500Y103617D02*
X35159Y103152D01*
X33174Y101826D01*
X31848Y99841D01*
X31382Y97500D01*
X31848Y95159D01*
X33174Y93174D01*
X35159Y91848D01*
X37500Y91382D01*
X39841Y91848D01*
X41826Y93174D01*
X43152Y95159D01*
X43618Y97500D01*
X43152Y99841D01*
X41826Y101826D01*
X39841Y103152D01*
X37500Y103617D01*
D02*
G37*
G36*
X192500Y109078D02*
X190151Y108768D01*
X187961Y107861D01*
X186081Y106419D01*
X184639Y104539D01*
X183732Y102350D01*
X183422Y100000D01*
X183732Y97650D01*
X184639Y95461D01*
X186081Y93581D01*
X187961Y92139D01*
X190151Y91232D01*
X192500Y90922D01*
X194849Y91232D01*
X197039Y92139D01*
X198919Y93581D01*
X200361Y95461D01*
X201268Y97650D01*
X201578Y100000D01*
X201268Y102350D01*
X200361Y104539D01*
X198919Y106419D01*
X197039Y107861D01*
X194849Y108768D01*
X192500Y109078D01*
D02*
G37*
G36*
X170000Y93617D02*
X167659Y93152D01*
X165674Y91826D01*
X164348Y89841D01*
X163882Y87500D01*
X164348Y85159D01*
X165674Y83174D01*
X167659Y81848D01*
X170000Y81382D01*
X172341Y81848D01*
X174326Y83174D01*
X175652Y85159D01*
X176117Y87500D01*
X175652Y89841D01*
X174326Y91826D01*
X172341Y93152D01*
X170000Y93617D01*
D02*
G37*
G36*
X192500Y76578D02*
X190151Y76268D01*
X187961Y75361D01*
X186081Y73919D01*
X184639Y72039D01*
X183732Y69850D01*
X183422Y67500D01*
X183732Y65150D01*
X184639Y62961D01*
X186081Y61081D01*
X187961Y59639D01*
X190151Y58732D01*
X192500Y58422D01*
X194849Y58732D01*
X197039Y59639D01*
X198919Y61081D01*
X200361Y62961D01*
X201268Y65150D01*
X201578Y67500D01*
X201268Y69850D01*
X200361Y72039D01*
X198919Y73919D01*
X197039Y75361D01*
X194849Y76268D01*
X192500Y76578D01*
D02*
G37*
%LPD*%
D11*
X252074Y809998D02*
Y823022D01*
X242096Y833000D02*
X252074Y823022D01*
X237500Y833000D02*
X242096D01*
D15*
X207000Y842000D02*
X219121D01*
X220000Y841121D01*
Y833000D02*
Y841121D01*
X188000Y839000D02*
X204000D01*
X207000Y842000D01*
D47*
X122500Y1110000D02*
D03*
X137500D02*
D03*
X97500Y1055000D02*
D03*
Y1080000D02*
D03*
Y1065000D02*
D03*
Y1060000D02*
D03*
Y1050000D02*
D03*
X99500Y1031250D02*
D03*
Y1035000D02*
D03*
X99000Y1020000D02*
D03*
X106300Y993000D02*
D03*
X97600Y998800D02*
D03*
X252000Y992000D02*
D03*
X264000Y991000D02*
D03*
X271000Y1050000D02*
D03*
Y1055000D02*
D03*
Y1065000D02*
D03*
Y1070000D02*
D03*
Y1080000D02*
D03*
Y1101000D02*
D03*
X264000Y1110000D02*
D03*
X252500D02*
D03*
X247500D02*
D03*
X242500D02*
D03*
X237500D02*
D03*
X232500D02*
D03*
X227500D02*
D03*
X222500D02*
D03*
X217500D02*
D03*
X212500D02*
D03*
X152500Y1112500D02*
D03*
X202500Y990000D02*
D03*
Y985000D02*
D03*
X155000Y977500D02*
D03*
X185000D02*
D03*
X180000D02*
D03*
X175000D02*
D03*
X170000D02*
D03*
X165000D02*
D03*
X160000D02*
D03*
X125000Y980000D02*
D03*
Y985000D02*
D03*
Y990000D02*
D03*
X192500Y985000D02*
D03*
X197500D02*
D03*
Y990000D02*
D03*
X192500D02*
D03*
X222000Y977000D02*
D03*
X228000Y990000D02*
D03*
X222000D02*
D03*
X52500Y1050000D02*
D03*
X42500D02*
D03*
X47500D02*
D03*
X75000Y1015000D02*
D03*
Y1025000D02*
D03*
X62500Y1030000D02*
D03*
X202500Y747500D02*
D03*
X222500Y767500D02*
D03*
X150000Y740000D02*
D03*
X127500Y170000D02*
D03*
X115000D02*
D03*
X105000D02*
D03*
X277500Y117500D02*
D03*
X270000D02*
D03*
X262500D02*
D03*
X80000Y939500D02*
D03*
X66500Y944500D02*
D03*
X66750Y959750D02*
D03*
X94500Y956250D02*
D03*
X188250Y1218500D02*
D03*
X317500Y1237000D02*
D03*
X389750Y964500D02*
D03*
X180500Y814500D02*
D03*
X185750D02*
D03*
X305000Y816000D02*
D03*
X266250Y824500D02*
D03*
X269250Y811000D02*
D03*
X265250D02*
D03*
X270000Y827500D02*
D03*
Y832500D02*
D03*
X383000Y1228000D02*
D03*
X389500Y1215000D02*
D03*
X383000Y1202000D02*
D03*
X389500Y1189000D02*
D03*
X383000Y1176000D02*
D03*
X389500Y1163000D02*
D03*
X383000Y1150000D02*
D03*
X389500Y1137000D02*
D03*
X383000Y1124000D02*
D03*
X389500Y1111000D02*
D03*
X383000Y1098000D02*
D03*
X389500Y1085000D02*
D03*
X383000Y1072000D02*
D03*
X389500Y1059000D02*
D03*
X383000Y1046000D02*
D03*
X389500Y1033000D02*
D03*
X383000Y1020000D02*
D03*
X389500Y1007000D02*
D03*
Y981000D02*
D03*
Y851000D02*
D03*
X383000Y838000D02*
D03*
X389500Y825000D02*
D03*
Y747000D02*
D03*
X383000Y708000D02*
D03*
Y682000D02*
D03*
Y656000D02*
D03*
Y630000D02*
D03*
Y604000D02*
D03*
Y578000D02*
D03*
Y552000D02*
D03*
Y526000D02*
D03*
Y500000D02*
D03*
Y474000D02*
D03*
Y448000D02*
D03*
Y422000D02*
D03*
Y396000D02*
D03*
Y370000D02*
D03*
Y344000D02*
D03*
Y318000D02*
D03*
Y292000D02*
D03*
Y266000D02*
D03*
Y240000D02*
D03*
X389500Y227000D02*
D03*
X383000Y214000D02*
D03*
X389500Y201000D02*
D03*
X383000Y188000D02*
D03*
X389500Y175000D02*
D03*
X383000Y162000D02*
D03*
X389500Y149000D02*
D03*
X383000Y136000D02*
D03*
X389500Y123000D02*
D03*
X383000Y110000D02*
D03*
X389500Y97000D02*
D03*
X383000Y84000D02*
D03*
X389500Y71000D02*
D03*
X383000Y58000D02*
D03*
X389500Y45000D02*
D03*
X383000Y32000D02*
D03*
X389500Y19000D02*
D03*
X383000Y6000D02*
D03*
X370000Y1228000D02*
D03*
X376500Y1215000D02*
D03*
X370000Y1202000D02*
D03*
X376500Y1189000D02*
D03*
X370000Y1176000D02*
D03*
X376500Y1163000D02*
D03*
X370000Y1150000D02*
D03*
X376500Y1137000D02*
D03*
X370000Y1124000D02*
D03*
X376500Y1111000D02*
D03*
X370000Y1098000D02*
D03*
X376500Y1085000D02*
D03*
X370000Y1072000D02*
D03*
X376500Y1059000D02*
D03*
X370000Y1046000D02*
D03*
X376500Y1033000D02*
D03*
X370000Y1020000D02*
D03*
X376500Y1007000D02*
D03*
Y981000D02*
D03*
Y851000D02*
D03*
X370000Y838000D02*
D03*
X376500Y825000D02*
D03*
X370000Y786000D02*
D03*
X376500Y747000D02*
D03*
Y721000D02*
D03*
Y617000D02*
D03*
X370000Y604000D02*
D03*
X376500Y591000D02*
D03*
Y487000D02*
D03*
X370000Y474000D02*
D03*
X376500Y461000D02*
D03*
X370000Y448000D02*
D03*
X376500Y435000D02*
D03*
X370000Y422000D02*
D03*
X376500Y409000D02*
D03*
X370000Y396000D02*
D03*
X376500Y383000D02*
D03*
X370000Y370000D02*
D03*
X376500Y357000D02*
D03*
X370000Y344000D02*
D03*
X376500Y331000D02*
D03*
X370000Y318000D02*
D03*
X376500Y305000D02*
D03*
X370000Y292000D02*
D03*
X376500Y279000D02*
D03*
X370000Y266000D02*
D03*
Y240000D02*
D03*
X376500Y227000D02*
D03*
X370000Y214000D02*
D03*
X376500Y201000D02*
D03*
X370000Y188000D02*
D03*
X376500Y175000D02*
D03*
X370000Y162000D02*
D03*
X376500Y149000D02*
D03*
X370000Y136000D02*
D03*
X376500Y123000D02*
D03*
X370000Y110000D02*
D03*
X376500Y97000D02*
D03*
X370000Y84000D02*
D03*
X376500Y71000D02*
D03*
X370000Y58000D02*
D03*
X376500Y45000D02*
D03*
X370000Y32000D02*
D03*
X376500Y19000D02*
D03*
X370000Y6000D02*
D03*
X357000Y1228000D02*
D03*
X363500Y1215000D02*
D03*
X357000Y1202000D02*
D03*
X363500Y1189000D02*
D03*
X357000Y1176000D02*
D03*
X363500Y1163000D02*
D03*
Y1033000D02*
D03*
X357000Y1020000D02*
D03*
X363500Y1007000D02*
D03*
X357000Y994000D02*
D03*
Y968000D02*
D03*
X363500Y851000D02*
D03*
Y825000D02*
D03*
Y799000D02*
D03*
Y773000D02*
D03*
X357000Y708000D02*
D03*
Y682000D02*
D03*
Y656000D02*
D03*
X363500Y643000D02*
D03*
X357000Y630000D02*
D03*
Y604000D02*
D03*
X363500Y591000D02*
D03*
Y565000D02*
D03*
X357000Y526000D02*
D03*
X363500Y461000D02*
D03*
X357000Y422000D02*
D03*
Y396000D02*
D03*
Y370000D02*
D03*
Y344000D02*
D03*
X363500Y331000D02*
D03*
Y305000D02*
D03*
X357000Y292000D02*
D03*
X363500Y279000D02*
D03*
X357000Y266000D02*
D03*
X363500Y253000D02*
D03*
X357000Y240000D02*
D03*
X363500Y227000D02*
D03*
Y201000D02*
D03*
Y175000D02*
D03*
Y71000D02*
D03*
X357000Y58000D02*
D03*
X363500Y45000D02*
D03*
X357000Y32000D02*
D03*
X363500Y19000D02*
D03*
X357000Y6000D02*
D03*
X344000Y1202000D02*
D03*
X350500Y1189000D02*
D03*
X344000Y1176000D02*
D03*
Y1124000D02*
D03*
Y1098000D02*
D03*
Y1072000D02*
D03*
X350500Y1033000D02*
D03*
X344000Y1020000D02*
D03*
X350500Y1007000D02*
D03*
Y851000D02*
D03*
X344000Y838000D02*
D03*
Y812000D02*
D03*
X350500Y773000D02*
D03*
Y747000D02*
D03*
X344000Y708000D02*
D03*
X350500Y695000D02*
D03*
Y669000D02*
D03*
X344000Y630000D02*
D03*
Y604000D02*
D03*
X350500Y565000D02*
D03*
Y539000D02*
D03*
X344000Y500000D02*
D03*
Y448000D02*
D03*
X350500Y435000D02*
D03*
X344000Y422000D02*
D03*
X350500Y409000D02*
D03*
X344000Y396000D02*
D03*
Y370000D02*
D03*
X350500Y357000D02*
D03*
X344000Y344000D02*
D03*
X350500Y331000D02*
D03*
Y305000D02*
D03*
X344000Y292000D02*
D03*
X350500Y279000D02*
D03*
X344000Y266000D02*
D03*
X350500Y253000D02*
D03*
X344000Y240000D02*
D03*
X350500Y227000D02*
D03*
X344000Y188000D02*
D03*
Y162000D02*
D03*
X350500Y149000D02*
D03*
Y97000D02*
D03*
Y71000D02*
D03*
X344000Y58000D02*
D03*
X350500Y45000D02*
D03*
X344000Y32000D02*
D03*
X350500Y19000D02*
D03*
X344000Y6000D02*
D03*
X331000Y1202000D02*
D03*
X337500Y1189000D02*
D03*
X331000Y1176000D02*
D03*
X337500Y1137000D02*
D03*
X331000Y1124000D02*
D03*
X337500Y1111000D02*
D03*
Y1085000D02*
D03*
Y1059000D02*
D03*
Y1033000D02*
D03*
X331000Y1020000D02*
D03*
X337500Y1007000D02*
D03*
X331000Y994000D02*
D03*
Y968000D02*
D03*
Y708000D02*
D03*
X337500Y695000D02*
D03*
Y669000D02*
D03*
X331000Y656000D02*
D03*
Y630000D02*
D03*
Y604000D02*
D03*
X337500Y591000D02*
D03*
X331000Y578000D02*
D03*
X337500Y565000D02*
D03*
X331000Y552000D02*
D03*
X337500Y539000D02*
D03*
X331000Y526000D02*
D03*
Y500000D02*
D03*
Y448000D02*
D03*
X337500Y435000D02*
D03*
Y409000D02*
D03*
X331000Y396000D02*
D03*
Y370000D02*
D03*
X337500Y357000D02*
D03*
Y331000D02*
D03*
Y305000D02*
D03*
Y279000D02*
D03*
X331000Y266000D02*
D03*
X337500Y253000D02*
D03*
X331000Y240000D02*
D03*
X337500Y227000D02*
D03*
X331000Y214000D02*
D03*
X337500Y201000D02*
D03*
X331000Y188000D02*
D03*
X337500Y97000D02*
D03*
X331000Y58000D02*
D03*
X337500Y45000D02*
D03*
X331000Y32000D02*
D03*
X337500Y19000D02*
D03*
X331000Y6000D02*
D03*
X318000Y1228000D02*
D03*
X324500Y1137000D02*
D03*
Y1059000D02*
D03*
Y1033000D02*
D03*
X318000Y1020000D02*
D03*
X324500Y1007000D02*
D03*
X318000Y994000D02*
D03*
Y890000D02*
D03*
X324500Y877000D02*
D03*
X318000Y864000D02*
D03*
X324500Y747000D02*
D03*
Y695000D02*
D03*
Y669000D02*
D03*
Y643000D02*
D03*
X318000Y630000D02*
D03*
X324500Y617000D02*
D03*
X318000Y604000D02*
D03*
X324500Y591000D02*
D03*
X318000Y578000D02*
D03*
X324500Y565000D02*
D03*
X318000Y552000D02*
D03*
X324500Y539000D02*
D03*
X318000Y448000D02*
D03*
Y396000D02*
D03*
Y370000D02*
D03*
X324500Y331000D02*
D03*
Y305000D02*
D03*
Y253000D02*
D03*
X318000Y240000D02*
D03*
X324500Y227000D02*
D03*
Y97000D02*
D03*
X318000Y84000D02*
D03*
X324500Y45000D02*
D03*
X318000Y32000D02*
D03*
X324500Y19000D02*
D03*
X318000Y6000D02*
D03*
X311500Y1215000D02*
D03*
X305000Y1176000D02*
D03*
Y1150000D02*
D03*
X311500Y1137000D02*
D03*
Y1059000D02*
D03*
Y1033000D02*
D03*
Y1007000D02*
D03*
X305000Y994000D02*
D03*
X311500Y981000D02*
D03*
X305000Y968000D02*
D03*
Y942000D02*
D03*
Y916000D02*
D03*
Y890000D02*
D03*
X311500Y877000D02*
D03*
X305000Y864000D02*
D03*
Y812000D02*
D03*
Y734000D02*
D03*
Y708000D02*
D03*
Y682000D02*
D03*
Y656000D02*
D03*
Y630000D02*
D03*
Y578000D02*
D03*
Y526000D02*
D03*
Y500000D02*
D03*
Y448000D02*
D03*
X311500Y409000D02*
D03*
X305000Y396000D02*
D03*
Y344000D02*
D03*
X311500Y279000D02*
D03*
Y253000D02*
D03*
X305000Y240000D02*
D03*
X311500Y227000D02*
D03*
X305000Y214000D02*
D03*
X311500Y45000D02*
D03*
X305000Y32000D02*
D03*
X311500Y19000D02*
D03*
X305000Y6000D02*
D03*
X292000Y1202000D02*
D03*
X298500Y1189000D02*
D03*
X292000Y1176000D02*
D03*
X298500Y1163000D02*
D03*
X292000Y1150000D02*
D03*
X298500Y1137000D02*
D03*
Y1059000D02*
D03*
Y1007000D02*
D03*
X292000Y994000D02*
D03*
X298500Y981000D02*
D03*
X292000Y968000D02*
D03*
X298500Y955000D02*
D03*
X292000Y942000D02*
D03*
X298500Y929000D02*
D03*
X292000Y916000D02*
D03*
X298500Y877000D02*
D03*
X292000Y864000D02*
D03*
X298500Y851000D02*
D03*
Y773000D02*
D03*
Y747000D02*
D03*
X292000Y734000D02*
D03*
Y630000D02*
D03*
Y578000D02*
D03*
X298500Y461000D02*
D03*
X292000Y448000D02*
D03*
X298500Y409000D02*
D03*
Y383000D02*
D03*
X292000Y344000D02*
D03*
Y318000D02*
D03*
X298500Y279000D02*
D03*
Y253000D02*
D03*
X292000Y240000D02*
D03*
X298500Y227000D02*
D03*
Y201000D02*
D03*
Y175000D02*
D03*
Y97000D02*
D03*
Y45000D02*
D03*
X292000Y32000D02*
D03*
X298500Y19000D02*
D03*
X292000Y6000D02*
D03*
X279000Y1228000D02*
D03*
Y1202000D02*
D03*
X285500Y1189000D02*
D03*
Y1163000D02*
D03*
Y1137000D02*
D03*
Y1007000D02*
D03*
Y981000D02*
D03*
X279000Y968000D02*
D03*
X285500Y955000D02*
D03*
X279000Y942000D02*
D03*
X285500Y929000D02*
D03*
X279000Y916000D02*
D03*
X285500Y773000D02*
D03*
X279000Y734000D02*
D03*
X285500Y721000D02*
D03*
Y695000D02*
D03*
Y669000D02*
D03*
X279000Y630000D02*
D03*
Y578000D02*
D03*
Y552000D02*
D03*
X285500Y539000D02*
D03*
Y513000D02*
D03*
Y487000D02*
D03*
Y461000D02*
D03*
Y383000D02*
D03*
X279000Y292000D02*
D03*
Y266000D02*
D03*
X285500Y253000D02*
D03*
X279000Y240000D02*
D03*
X285500Y227000D02*
D03*
X279000Y188000D02*
D03*
X285500Y97000D02*
D03*
X279000Y58000D02*
D03*
X285500Y45000D02*
D03*
X279000Y32000D02*
D03*
X285500Y19000D02*
D03*
X279000Y6000D02*
D03*
X266000Y1228000D02*
D03*
Y1202000D02*
D03*
X272500Y1189000D02*
D03*
Y981000D02*
D03*
X266000Y968000D02*
D03*
Y942000D02*
D03*
X272500Y929000D02*
D03*
X266000Y916000D02*
D03*
Y890000D02*
D03*
X272500Y773000D02*
D03*
X266000Y760000D02*
D03*
Y656000D02*
D03*
Y604000D02*
D03*
Y552000D02*
D03*
Y500000D02*
D03*
X272500Y461000D02*
D03*
Y435000D02*
D03*
X266000Y422000D02*
D03*
X272500Y383000D02*
D03*
X266000Y266000D02*
D03*
X272500Y253000D02*
D03*
X266000Y240000D02*
D03*
X272500Y227000D02*
D03*
X266000Y214000D02*
D03*
X272500Y201000D02*
D03*
X266000Y188000D02*
D03*
X272500Y97000D02*
D03*
X266000Y58000D02*
D03*
X272500Y45000D02*
D03*
X266000Y32000D02*
D03*
X272500Y19000D02*
D03*
X266000Y6000D02*
D03*
X259500Y1189000D02*
D03*
Y1137000D02*
D03*
Y929000D02*
D03*
Y903000D02*
D03*
X253000Y890000D02*
D03*
Y786000D02*
D03*
Y760000D02*
D03*
X259500Y747000D02*
D03*
Y721000D02*
D03*
Y695000D02*
D03*
X253000Y682000D02*
D03*
X259500Y669000D02*
D03*
X253000Y656000D02*
D03*
X259500Y643000D02*
D03*
X253000Y630000D02*
D03*
X259500Y591000D02*
D03*
X253000Y578000D02*
D03*
X259500Y565000D02*
D03*
Y539000D02*
D03*
X253000Y500000D02*
D03*
X259500Y435000D02*
D03*
X253000Y422000D02*
D03*
X259500Y383000D02*
D03*
Y253000D02*
D03*
X253000Y240000D02*
D03*
X259500Y227000D02*
D03*
X253000Y162000D02*
D03*
X259500Y149000D02*
D03*
Y97000D02*
D03*
Y71000D02*
D03*
X253000Y58000D02*
D03*
X259500Y45000D02*
D03*
X253000Y32000D02*
D03*
X259500Y19000D02*
D03*
X253000Y6000D02*
D03*
X246500Y1189000D02*
D03*
X240000Y1150000D02*
D03*
X246500Y1137000D02*
D03*
X240000Y942000D02*
D03*
Y916000D02*
D03*
Y890000D02*
D03*
X246500Y773000D02*
D03*
Y747000D02*
D03*
X240000Y734000D02*
D03*
Y682000D02*
D03*
X246500Y669000D02*
D03*
X240000Y656000D02*
D03*
X246500Y643000D02*
D03*
X240000Y630000D02*
D03*
Y578000D02*
D03*
X246500Y539000D02*
D03*
Y513000D02*
D03*
X240000Y474000D02*
D03*
X246500Y435000D02*
D03*
X240000Y422000D02*
D03*
Y318000D02*
D03*
X246500Y253000D02*
D03*
X240000Y240000D02*
D03*
X246500Y227000D02*
D03*
X240000Y214000D02*
D03*
Y188000D02*
D03*
X246500Y175000D02*
D03*
X240000Y84000D02*
D03*
X246500Y71000D02*
D03*
X240000Y58000D02*
D03*
X246500Y45000D02*
D03*
X240000Y32000D02*
D03*
X246500Y19000D02*
D03*
X240000Y6000D02*
D03*
X233500Y1189000D02*
D03*
X227000Y734000D02*
D03*
Y682000D02*
D03*
X233500Y669000D02*
D03*
X227000Y474000D02*
D03*
X233500Y435000D02*
D03*
X227000Y422000D02*
D03*
Y240000D02*
D03*
X233500Y227000D02*
D03*
X227000Y214000D02*
D03*
X233500Y201000D02*
D03*
X227000Y188000D02*
D03*
X233500Y175000D02*
D03*
Y149000D02*
D03*
Y123000D02*
D03*
Y97000D02*
D03*
Y71000D02*
D03*
Y45000D02*
D03*
X227000Y32000D02*
D03*
X233500Y19000D02*
D03*
X227000Y6000D02*
D03*
X214000Y1228000D02*
D03*
X220500Y1189000D02*
D03*
X214000Y916000D02*
D03*
X220500Y747000D02*
D03*
X214000Y734000D02*
D03*
Y708000D02*
D03*
X220500Y695000D02*
D03*
X214000Y656000D02*
D03*
Y604000D02*
D03*
X220500Y435000D02*
D03*
X214000Y422000D02*
D03*
X220500Y383000D02*
D03*
Y253000D02*
D03*
X214000Y240000D02*
D03*
X220500Y227000D02*
D03*
X214000Y214000D02*
D03*
X220500Y201000D02*
D03*
X214000Y188000D02*
D03*
Y162000D02*
D03*
X220500Y149000D02*
D03*
X214000Y136000D02*
D03*
X220500Y123000D02*
D03*
X214000Y110000D02*
D03*
X220500Y97000D02*
D03*
X214000Y84000D02*
D03*
X220500Y71000D02*
D03*
X214000Y58000D02*
D03*
X220500Y45000D02*
D03*
X214000Y32000D02*
D03*
X220500Y19000D02*
D03*
X214000Y6000D02*
D03*
X201000Y1176000D02*
D03*
Y916000D02*
D03*
X207500Y799000D02*
D03*
X201000Y734000D02*
D03*
X207500Y721000D02*
D03*
X201000Y708000D02*
D03*
X207500Y695000D02*
D03*
X201000Y682000D02*
D03*
Y578000D02*
D03*
X207500Y565000D02*
D03*
Y539000D02*
D03*
Y409000D02*
D03*
Y305000D02*
D03*
Y253000D02*
D03*
X201000Y240000D02*
D03*
X207500Y227000D02*
D03*
X201000Y214000D02*
D03*
X207500Y201000D02*
D03*
X201000Y188000D02*
D03*
X207500Y175000D02*
D03*
Y123000D02*
D03*
X201000Y110000D02*
D03*
X207500Y97000D02*
D03*
X201000Y84000D02*
D03*
X207500Y71000D02*
D03*
X201000Y58000D02*
D03*
X207500Y45000D02*
D03*
X201000Y32000D02*
D03*
X207500Y19000D02*
D03*
X201000Y6000D02*
D03*
X188000Y1228000D02*
D03*
Y1176000D02*
D03*
Y1150000D02*
D03*
Y916000D02*
D03*
X194500Y851000D02*
D03*
Y773000D02*
D03*
X188000Y760000D02*
D03*
X194500Y721000D02*
D03*
X188000Y578000D02*
D03*
X194500Y383000D02*
D03*
X188000Y240000D02*
D03*
Y214000D02*
D03*
X194500Y45000D02*
D03*
X188000Y32000D02*
D03*
X194500Y19000D02*
D03*
X188000Y6000D02*
D03*
X175000Y1202000D02*
D03*
X181500Y1163000D02*
D03*
X175000Y1150000D02*
D03*
X181500Y1137000D02*
D03*
X175000Y1124000D02*
D03*
Y916000D02*
D03*
X181500Y747000D02*
D03*
X175000Y734000D02*
D03*
Y708000D02*
D03*
X181500Y695000D02*
D03*
X175000Y682000D02*
D03*
Y578000D02*
D03*
X181500Y253000D02*
D03*
X175000Y240000D02*
D03*
Y214000D02*
D03*
Y188000D02*
D03*
X181500Y175000D02*
D03*
Y149000D02*
D03*
Y123000D02*
D03*
Y97000D02*
D03*
Y71000D02*
D03*
X175000Y58000D02*
D03*
X181500Y45000D02*
D03*
X175000Y32000D02*
D03*
X181500Y19000D02*
D03*
X175000Y6000D02*
D03*
X162000Y1202000D02*
D03*
Y1176000D02*
D03*
X168500Y1163000D02*
D03*
X162000Y1150000D02*
D03*
X168500Y1137000D02*
D03*
X162000Y1124000D02*
D03*
X168500Y955000D02*
D03*
X162000Y916000D02*
D03*
Y890000D02*
D03*
X168500Y799000D02*
D03*
Y773000D02*
D03*
X162000Y760000D02*
D03*
X168500Y695000D02*
D03*
Y383000D02*
D03*
Y357000D02*
D03*
Y331000D02*
D03*
X162000Y240000D02*
D03*
Y214000D02*
D03*
Y188000D02*
D03*
X168500Y175000D02*
D03*
Y97000D02*
D03*
X162000Y58000D02*
D03*
X168500Y45000D02*
D03*
X162000Y32000D02*
D03*
X168500Y19000D02*
D03*
X162000Y6000D02*
D03*
X149000Y1228000D02*
D03*
X155500Y1189000D02*
D03*
X149000Y1176000D02*
D03*
X155500Y1163000D02*
D03*
X149000Y1150000D02*
D03*
X155500Y1137000D02*
D03*
Y929000D02*
D03*
X149000Y890000D02*
D03*
X155500Y877000D02*
D03*
X149000Y864000D02*
D03*
Y838000D02*
D03*
X155500Y721000D02*
D03*
Y695000D02*
D03*
X149000Y474000D02*
D03*
Y370000D02*
D03*
X155500Y357000D02*
D03*
Y331000D02*
D03*
X149000Y292000D02*
D03*
Y266000D02*
D03*
X155500Y253000D02*
D03*
Y227000D02*
D03*
X149000Y214000D02*
D03*
X155500Y201000D02*
D03*
X149000Y136000D02*
D03*
Y58000D02*
D03*
X155500Y45000D02*
D03*
X149000Y32000D02*
D03*
X155500Y19000D02*
D03*
X149000Y6000D02*
D03*
X142500Y1215000D02*
D03*
Y1189000D02*
D03*
Y1163000D02*
D03*
X136000Y1150000D02*
D03*
X142500Y929000D02*
D03*
X136000Y890000D02*
D03*
Y864000D02*
D03*
Y838000D02*
D03*
Y760000D02*
D03*
X142500Y695000D02*
D03*
X136000Y526000D02*
D03*
Y292000D02*
D03*
Y240000D02*
D03*
X142500Y227000D02*
D03*
Y201000D02*
D03*
Y97000D02*
D03*
Y71000D02*
D03*
Y45000D02*
D03*
X136000Y32000D02*
D03*
X142500Y19000D02*
D03*
X136000Y6000D02*
D03*
X123000Y1202000D02*
D03*
Y1150000D02*
D03*
X129500Y1137000D02*
D03*
X123000Y1124000D02*
D03*
X129500Y981000D02*
D03*
X123000Y890000D02*
D03*
Y864000D02*
D03*
Y838000D02*
D03*
Y760000D02*
D03*
X129500Y695000D02*
D03*
X123000Y526000D02*
D03*
X129500Y487000D02*
D03*
Y383000D02*
D03*
Y357000D02*
D03*
Y331000D02*
D03*
Y305000D02*
D03*
X123000Y292000D02*
D03*
X129500Y279000D02*
D03*
X123000Y266000D02*
D03*
Y240000D02*
D03*
X129500Y201000D02*
D03*
Y149000D02*
D03*
Y97000D02*
D03*
X123000Y32000D02*
D03*
X129500Y19000D02*
D03*
X123000Y6000D02*
D03*
X110000Y1228000D02*
D03*
Y942000D02*
D03*
X116500Y929000D02*
D03*
Y851000D02*
D03*
Y799000D02*
D03*
X110000Y786000D02*
D03*
X116500Y773000D02*
D03*
X110000Y760000D02*
D03*
X116500Y747000D02*
D03*
Y721000D02*
D03*
Y695000D02*
D03*
X110000Y526000D02*
D03*
X116500Y487000D02*
D03*
X110000Y370000D02*
D03*
Y292000D02*
D03*
Y266000D02*
D03*
Y240000D02*
D03*
X116500Y149000D02*
D03*
Y97000D02*
D03*
X110000Y58000D02*
D03*
X116500Y45000D02*
D03*
X110000Y32000D02*
D03*
X116500Y19000D02*
D03*
X110000Y6000D02*
D03*
X97000Y1150000D02*
D03*
X103500Y1111000D02*
D03*
X97000Y1072000D02*
D03*
Y942000D02*
D03*
X103500Y825000D02*
D03*
Y799000D02*
D03*
Y773000D02*
D03*
X97000Y760000D02*
D03*
X103500Y747000D02*
D03*
Y721000D02*
D03*
Y695000D02*
D03*
Y617000D02*
D03*
X97000Y604000D02*
D03*
X103500Y591000D02*
D03*
X97000Y578000D02*
D03*
X103500Y565000D02*
D03*
X97000Y552000D02*
D03*
X103500Y539000D02*
D03*
X97000Y526000D02*
D03*
X103500Y513000D02*
D03*
Y487000D02*
D03*
X97000Y474000D02*
D03*
X103500Y461000D02*
D03*
X97000Y448000D02*
D03*
X103500Y435000D02*
D03*
X97000Y422000D02*
D03*
X103500Y409000D02*
D03*
X97000Y396000D02*
D03*
X103500Y331000D02*
D03*
X97000Y266000D02*
D03*
Y240000D02*
D03*
X103500Y149000D02*
D03*
X97000Y58000D02*
D03*
X103500Y45000D02*
D03*
X97000Y32000D02*
D03*
X103500Y19000D02*
D03*
X97000Y6000D02*
D03*
X84000Y1228000D02*
D03*
X90500Y1189000D02*
D03*
X84000Y1150000D02*
D03*
X90500Y1111000D02*
D03*
Y773000D02*
D03*
X84000Y760000D02*
D03*
X90500Y747000D02*
D03*
Y721000D02*
D03*
Y695000D02*
D03*
Y617000D02*
D03*
X84000Y604000D02*
D03*
X90500Y591000D02*
D03*
Y565000D02*
D03*
Y539000D02*
D03*
X84000Y526000D02*
D03*
X90500Y513000D02*
D03*
Y487000D02*
D03*
X84000Y474000D02*
D03*
X90500Y461000D02*
D03*
X84000Y448000D02*
D03*
X90500Y435000D02*
D03*
Y409000D02*
D03*
X84000Y396000D02*
D03*
X90500Y383000D02*
D03*
X84000Y318000D02*
D03*
Y292000D02*
D03*
X90500Y279000D02*
D03*
X84000Y266000D02*
D03*
X90500Y227000D02*
D03*
Y201000D02*
D03*
Y149000D02*
D03*
X84000Y58000D02*
D03*
X90500Y45000D02*
D03*
X84000Y32000D02*
D03*
X90500Y19000D02*
D03*
X84000Y6000D02*
D03*
X77500Y1215000D02*
D03*
Y1189000D02*
D03*
X71000Y760000D02*
D03*
X77500Y747000D02*
D03*
Y721000D02*
D03*
Y695000D02*
D03*
Y669000D02*
D03*
Y643000D02*
D03*
X71000Y630000D02*
D03*
X77500Y565000D02*
D03*
X71000Y526000D02*
D03*
X77500Y513000D02*
D03*
X71000Y448000D02*
D03*
X77500Y409000D02*
D03*
X71000Y396000D02*
D03*
X77500Y357000D02*
D03*
X71000Y292000D02*
D03*
X77500Y279000D02*
D03*
X71000Y266000D02*
D03*
X77500Y253000D02*
D03*
Y149000D02*
D03*
Y71000D02*
D03*
X71000Y58000D02*
D03*
X77500Y45000D02*
D03*
X71000Y32000D02*
D03*
X77500Y19000D02*
D03*
X71000Y6000D02*
D03*
X58000Y1176000D02*
D03*
Y1150000D02*
D03*
Y1124000D02*
D03*
X64500Y825000D02*
D03*
Y773000D02*
D03*
Y747000D02*
D03*
Y721000D02*
D03*
Y695000D02*
D03*
Y669000D02*
D03*
X58000Y630000D02*
D03*
Y604000D02*
D03*
Y578000D02*
D03*
X64500Y565000D02*
D03*
X58000Y552000D02*
D03*
Y526000D02*
D03*
X64500Y513000D02*
D03*
X58000Y500000D02*
D03*
Y474000D02*
D03*
Y448000D02*
D03*
Y422000D02*
D03*
X64500Y409000D02*
D03*
X58000Y396000D02*
D03*
Y370000D02*
D03*
X64500Y357000D02*
D03*
X58000Y344000D02*
D03*
X64500Y331000D02*
D03*
X58000Y318000D02*
D03*
Y292000D02*
D03*
X64500Y279000D02*
D03*
X58000Y266000D02*
D03*
Y214000D02*
D03*
X64500Y175000D02*
D03*
Y149000D02*
D03*
Y71000D02*
D03*
X58000Y58000D02*
D03*
X64500Y45000D02*
D03*
X58000Y32000D02*
D03*
X64500Y19000D02*
D03*
X58000Y6000D02*
D03*
X45000Y1228000D02*
D03*
X51500Y1215000D02*
D03*
X45000Y1202000D02*
D03*
X51500Y1189000D02*
D03*
X45000Y1176000D02*
D03*
Y1020000D02*
D03*
X51500Y929000D02*
D03*
X45000Y916000D02*
D03*
Y890000D02*
D03*
X51500Y799000D02*
D03*
X45000Y786000D02*
D03*
X51500Y773000D02*
D03*
X45000Y630000D02*
D03*
X51500Y617000D02*
D03*
X45000Y604000D02*
D03*
X51500Y591000D02*
D03*
X45000Y552000D02*
D03*
X51500Y513000D02*
D03*
X45000Y500000D02*
D03*
X51500Y487000D02*
D03*
X45000Y474000D02*
D03*
X51500Y461000D02*
D03*
X45000Y448000D02*
D03*
X51500Y409000D02*
D03*
X45000Y396000D02*
D03*
X51500Y383000D02*
D03*
X45000Y370000D02*
D03*
X51500Y357000D02*
D03*
X45000Y344000D02*
D03*
X51500Y331000D02*
D03*
X45000Y318000D02*
D03*
X51500Y305000D02*
D03*
X45000Y292000D02*
D03*
X51500Y279000D02*
D03*
X45000Y266000D02*
D03*
X51500Y253000D02*
D03*
Y201000D02*
D03*
X45000Y162000D02*
D03*
X51500Y149000D02*
D03*
Y97000D02*
D03*
X45000Y58000D02*
D03*
X51500Y45000D02*
D03*
X45000Y32000D02*
D03*
X51500Y19000D02*
D03*
X45000Y6000D02*
D03*
X32000Y1202000D02*
D03*
X38500Y1189000D02*
D03*
X32000Y1176000D02*
D03*
X38500Y1163000D02*
D03*
X32000Y1150000D02*
D03*
Y1098000D02*
D03*
X38500Y1033000D02*
D03*
Y929000D02*
D03*
Y903000D02*
D03*
X32000Y890000D02*
D03*
X38500Y799000D02*
D03*
Y773000D02*
D03*
X32000Y760000D02*
D03*
X38500Y747000D02*
D03*
X32000Y734000D02*
D03*
X38500Y721000D02*
D03*
X32000Y708000D02*
D03*
X38500Y695000D02*
D03*
X32000Y682000D02*
D03*
X38500Y669000D02*
D03*
X32000Y656000D02*
D03*
X38500Y643000D02*
D03*
X32000Y630000D02*
D03*
X38500Y617000D02*
D03*
X32000Y604000D02*
D03*
X38500Y591000D02*
D03*
X32000Y578000D02*
D03*
X38500Y565000D02*
D03*
X32000Y552000D02*
D03*
X38500Y539000D02*
D03*
X32000Y526000D02*
D03*
X38500Y513000D02*
D03*
X32000Y500000D02*
D03*
X38500Y487000D02*
D03*
X32000Y474000D02*
D03*
X38500Y461000D02*
D03*
X32000Y448000D02*
D03*
X38500Y435000D02*
D03*
X32000Y422000D02*
D03*
X38500Y409000D02*
D03*
X32000Y396000D02*
D03*
X38500Y383000D02*
D03*
X32000Y370000D02*
D03*
X38500Y357000D02*
D03*
X32000Y344000D02*
D03*
X38500Y331000D02*
D03*
X32000Y318000D02*
D03*
X38500Y305000D02*
D03*
X32000Y292000D02*
D03*
X38500Y279000D02*
D03*
X32000Y266000D02*
D03*
X38500Y253000D02*
D03*
X32000Y240000D02*
D03*
X38500Y201000D02*
D03*
X32000Y188000D02*
D03*
X38500Y175000D02*
D03*
X32000Y162000D02*
D03*
Y84000D02*
D03*
X38500Y71000D02*
D03*
X32000Y58000D02*
D03*
X38500Y45000D02*
D03*
X32000Y32000D02*
D03*
X38500Y19000D02*
D03*
X32000Y6000D02*
D03*
X19000Y1228000D02*
D03*
Y1202000D02*
D03*
X25500Y1189000D02*
D03*
X19000Y1176000D02*
D03*
X25500Y1163000D02*
D03*
X19000Y1150000D02*
D03*
X25500Y1137000D02*
D03*
X19000Y1124000D02*
D03*
X25500Y1111000D02*
D03*
X19000Y1098000D02*
D03*
X25500Y929000D02*
D03*
X19000Y916000D02*
D03*
Y890000D02*
D03*
Y838000D02*
D03*
Y812000D02*
D03*
X25500Y799000D02*
D03*
X19000Y760000D02*
D03*
X25500Y747000D02*
D03*
X19000Y734000D02*
D03*
X25500Y721000D02*
D03*
X19000Y708000D02*
D03*
X25500Y695000D02*
D03*
X19000Y682000D02*
D03*
X25500Y669000D02*
D03*
X19000Y656000D02*
D03*
X25500Y643000D02*
D03*
X19000Y630000D02*
D03*
X25500Y617000D02*
D03*
X19000Y604000D02*
D03*
X25500Y591000D02*
D03*
X19000Y578000D02*
D03*
X25500Y565000D02*
D03*
X19000Y552000D02*
D03*
X25500Y539000D02*
D03*
X19000Y526000D02*
D03*
X25500Y513000D02*
D03*
X19000Y500000D02*
D03*
X25500Y487000D02*
D03*
X19000Y474000D02*
D03*
X25500Y461000D02*
D03*
X19000Y448000D02*
D03*
X25500Y435000D02*
D03*
X19000Y422000D02*
D03*
X25500Y409000D02*
D03*
X19000Y396000D02*
D03*
X25500Y383000D02*
D03*
X19000Y370000D02*
D03*
X25500Y357000D02*
D03*
X19000Y344000D02*
D03*
X25500Y331000D02*
D03*
X19000Y318000D02*
D03*
X25500Y305000D02*
D03*
X19000Y292000D02*
D03*
X25500Y279000D02*
D03*
X19000Y266000D02*
D03*
X25500Y253000D02*
D03*
X19000Y240000D02*
D03*
Y214000D02*
D03*
Y188000D02*
D03*
X25500Y175000D02*
D03*
X19000Y162000D02*
D03*
X25500Y149000D02*
D03*
X19000Y136000D02*
D03*
X25500Y123000D02*
D03*
X19000Y110000D02*
D03*
X25500Y97000D02*
D03*
X19000Y84000D02*
D03*
X25500Y71000D02*
D03*
X19000Y58000D02*
D03*
X25500Y45000D02*
D03*
X19000Y32000D02*
D03*
X25500Y19000D02*
D03*
X19000Y6000D02*
D03*
X6000Y1228000D02*
D03*
X12500Y1215000D02*
D03*
X6000Y1202000D02*
D03*
X12500Y1189000D02*
D03*
X6000Y1176000D02*
D03*
X12500Y1163000D02*
D03*
X6000Y1150000D02*
D03*
X12500Y1137000D02*
D03*
X6000Y1124000D02*
D03*
X12500Y1111000D02*
D03*
X6000Y1098000D02*
D03*
X12500Y1085000D02*
D03*
X6000Y1072000D02*
D03*
X12500Y1059000D02*
D03*
X6000Y1046000D02*
D03*
X12500Y1033000D02*
D03*
X6000Y1020000D02*
D03*
X12500Y1007000D02*
D03*
X6000Y994000D02*
D03*
Y968000D02*
D03*
X12500Y929000D02*
D03*
X6000Y916000D02*
D03*
Y864000D02*
D03*
X12500Y851000D02*
D03*
X6000Y838000D02*
D03*
X12500Y825000D02*
D03*
X6000Y812000D02*
D03*
X12500Y799000D02*
D03*
X6000Y786000D02*
D03*
X12500Y773000D02*
D03*
X6000Y760000D02*
D03*
X12500Y747000D02*
D03*
X6000Y734000D02*
D03*
X12500Y721000D02*
D03*
X6000Y708000D02*
D03*
X12500Y695000D02*
D03*
X6000Y682000D02*
D03*
X12500Y669000D02*
D03*
X6000Y656000D02*
D03*
X12500Y643000D02*
D03*
X6000Y630000D02*
D03*
X12500Y617000D02*
D03*
X6000Y604000D02*
D03*
X12500Y591000D02*
D03*
X6000Y578000D02*
D03*
X12500Y565000D02*
D03*
X6000Y552000D02*
D03*
X12500Y539000D02*
D03*
X6000Y526000D02*
D03*
X12500Y513000D02*
D03*
X6000Y500000D02*
D03*
X12500Y487000D02*
D03*
X6000Y474000D02*
D03*
X12500Y461000D02*
D03*
X6000Y448000D02*
D03*
X12500Y435000D02*
D03*
X6000Y422000D02*
D03*
X12500Y409000D02*
D03*
X6000Y396000D02*
D03*
X12500Y383000D02*
D03*
X6000Y370000D02*
D03*
X12500Y357000D02*
D03*
X6000Y344000D02*
D03*
X12500Y331000D02*
D03*
X6000Y318000D02*
D03*
X12500Y305000D02*
D03*
X6000Y292000D02*
D03*
X12500Y279000D02*
D03*
X6000Y266000D02*
D03*
X12500Y253000D02*
D03*
X6000Y240000D02*
D03*
X12500Y227000D02*
D03*
X6000Y214000D02*
D03*
X12500Y201000D02*
D03*
X6000Y188000D02*
D03*
X12500Y175000D02*
D03*
X6000Y162000D02*
D03*
X12500Y149000D02*
D03*
X6000Y136000D02*
D03*
X12500Y123000D02*
D03*
X6000Y110000D02*
D03*
X12500Y97000D02*
D03*
X6000Y84000D02*
D03*
X12500Y71000D02*
D03*
X6000Y58000D02*
D03*
X12500Y45000D02*
D03*
X6000Y32000D02*
D03*
X12500Y19000D02*
D03*
X252074Y809998D02*
D03*
X212500Y337500D02*
D03*
X217500Y342500D02*
D03*
X212500Y332500D02*
D03*
X188000Y839000D02*
D03*
X233606Y856548D02*
D03*
X355648Y989333D02*
D03*
X349627Y988860D02*
D03*
X344680Y985394D02*
D03*
X338640D02*
D03*
X332600Y985367D02*
D03*
X326655Y984303D02*
D03*
X321240Y981627D02*
D03*
X316911Y977415D02*
D03*
X313943Y972154D02*
D03*
X312711Y966241D02*
D03*
X312606Y960202D02*
D03*
Y954162D02*
D03*
Y948122D02*
D03*
Y942082D02*
D03*
Y936042D02*
D03*
Y930002D02*
D03*
Y923962D02*
D03*
Y917922D02*
D03*
X312167Y911898D02*
D03*
X323394Y915844D02*
D03*
Y921884D02*
D03*
Y927924D02*
D03*
Y933964D02*
D03*
Y940004D02*
D03*
Y946044D02*
D03*
Y952084D02*
D03*
Y958124D02*
D03*
Y964164D02*
D03*
X324813Y970035D02*
D03*
X329468Y973884D02*
D03*
X335465Y974606D02*
D03*
X341505D02*
D03*
X347453Y973559D02*
D03*
X352756Y970667D02*
D03*
X366333Y977548D02*
D03*
Y983588D02*
D03*
X312500Y900000D02*
D03*
X302500D02*
D03*
Y910000D02*
D03*
X292500D02*
D03*
X325000Y900000D02*
D03*
Y910000D02*
D03*
X212541Y1135792D02*
D03*
Y1129752D02*
D03*
X213073Y1123736D02*
D03*
X216058Y1118485D02*
D03*
X221163Y1115256D02*
D03*
X227168Y1114606D02*
D03*
X233208D02*
D03*
X239248D02*
D03*
X245287D02*
D03*
X251327D02*
D03*
X257367D02*
D03*
X263407D02*
D03*
X269447D02*
D03*
X275487D02*
D03*
X281528D02*
D03*
X287568D02*
D03*
X293608D02*
D03*
X299648D02*
D03*
X305688D02*
D03*
X311728D02*
D03*
X317738Y1114007D02*
D03*
X321798Y1109536D02*
D03*
X322106Y1103504D02*
D03*
Y1097464D02*
D03*
Y1091424D02*
D03*
Y1085384D02*
D03*
X318507Y1080533D02*
D03*
X312468Y1080394D02*
D03*
X306443Y1080822D02*
D03*
X303316Y1070616D02*
D03*
X309179Y1069167D02*
D03*
X315203Y1069606D02*
D03*
X321223Y1070105D02*
D03*
X326663Y1072729D02*
D03*
X330717Y1077206D02*
D03*
X332672Y1082921D02*
D03*
X332894Y1088957D02*
D03*
Y1094997D02*
D03*
Y1101037D02*
D03*
Y1107077D02*
D03*
X331983Y1113048D02*
D03*
X329116Y1118365D02*
D03*
X324714Y1122499D02*
D03*
X319171Y1124900D02*
D03*
X313151Y1125394D02*
D03*
X307111D02*
D03*
X301071D02*
D03*
X295031D02*
D03*
X288991D02*
D03*
X282951D02*
D03*
X276911D02*
D03*
X270871D02*
D03*
X264831D02*
D03*
X258791D02*
D03*
X252751D02*
D03*
X246711D02*
D03*
X240671D02*
D03*
X234631D02*
D03*
X228591D02*
D03*
X223329Y1128359D02*
D03*
Y1134398D02*
D03*
X223571Y1140434D02*
D03*
X224843Y1146338D02*
D03*
X278188Y910066D02*
D03*
X276167Y904374D02*
D03*
X276606Y898351D02*
D03*
Y892310D02*
D03*
Y886271D02*
D03*
Y880230D02*
D03*
X270852Y878394D02*
D03*
X264812D02*
D03*
X258772D02*
D03*
X252732D02*
D03*
X246692D02*
D03*
X240679Y877824D02*
D03*
X235790Y874277D02*
D03*
X233653Y868628D02*
D03*
X233606Y862588D02*
D03*
X243909Y850204D02*
D03*
X244394Y856225D02*
D03*
Y862265D02*
D03*
X247214Y867606D02*
D03*
X253254D02*
D03*
X259294D02*
D03*
X265334D02*
D03*
X271374D02*
D03*
X277411Y867775D02*
D03*
X282986Y870100D02*
D03*
X286572Y874960D02*
D03*
X287394Y880944D02*
D03*
Y886984D02*
D03*
Y893024D02*
D03*
Y899064D02*
D03*
X285158Y910503D02*
D03*
X307667Y1206227D02*
D03*
X307927Y1200192D02*
D03*
X312106Y1195831D02*
D03*
Y1189791D02*
D03*
Y1183751D02*
D03*
Y1177711D02*
D03*
Y1171671D02*
D03*
Y1165631D02*
D03*
X312482Y1159603D02*
D03*
X315208Y1154213D02*
D03*
X320094Y1150663D02*
D03*
X326041Y1149606D02*
D03*
X332081D02*
D03*
X338121D02*
D03*
X344161D02*
D03*
X350201Y1149560D02*
D03*
X352106Y1143828D02*
D03*
Y1137788D02*
D03*
Y1131748D02*
D03*
Y1125708D02*
D03*
Y1119668D02*
D03*
Y1113628D02*
D03*
Y1107588D02*
D03*
Y1101548D02*
D03*
Y1095508D02*
D03*
Y1089469D02*
D03*
Y1083428D02*
D03*
Y1077389D02*
D03*
Y1071348D02*
D03*
Y1065309D02*
D03*
Y1059268D02*
D03*
X351707Y1053242D02*
D03*
X346381Y1050394D02*
D03*
X340341D02*
D03*
X334301D02*
D03*
X328261D02*
D03*
X322221D02*
D03*
X316181D02*
D03*
X310141D02*
D03*
X304101D02*
D03*
X298077Y1050833D02*
D03*
X305262Y1033640D02*
D03*
X306205Y1039606D02*
D03*
X312245D02*
D03*
X318285D02*
D03*
X324325D02*
D03*
X330365D02*
D03*
X336405D02*
D03*
X342445D02*
D03*
X348484Y1039684D02*
D03*
X354318Y1041249D02*
D03*
X359091Y1044951D02*
D03*
X362085Y1050197D02*
D03*
X362894Y1056182D02*
D03*
Y1062222D02*
D03*
Y1068262D02*
D03*
Y1074302D02*
D03*
Y1080342D02*
D03*
Y1086382D02*
D03*
Y1092422D02*
D03*
Y1098462D02*
D03*
Y1104502D02*
D03*
Y1110542D02*
D03*
Y1116582D02*
D03*
Y1122622D02*
D03*
Y1128662D02*
D03*
Y1134702D02*
D03*
Y1140742D02*
D03*
Y1146782D02*
D03*
X361713Y1152705D02*
D03*
X358028Y1157491D02*
D03*
X352573Y1160085D02*
D03*
X346541Y1160394D02*
D03*
X340501D02*
D03*
X334461D02*
D03*
X328421D02*
D03*
X322894Y1162830D02*
D03*
Y1168870D02*
D03*
Y1174910D02*
D03*
Y1180950D02*
D03*
Y1186990D02*
D03*
Y1193030D02*
D03*
X325186Y1198618D02*
D03*
X326333Y1204548D02*
D03*
X212500Y347500D02*
D03*
Y342500D02*
D03*
X207500D02*
D03*
Y337500D02*
D03*
X202500Y352500D02*
D03*
X207500D02*
D03*
Y347500D02*
D03*
X202500D02*
D03*
D105*
X215500Y1160500D02*
D03*
Y1154500D02*
D03*
X209500Y1160500D02*
D03*
Y1154500D02*
D03*
X203500Y1160500D02*
D03*
Y1154500D02*
D03*
X197500Y1160500D02*
D03*
Y1154500D02*
D03*
D120*
X25000Y1078700D02*
D03*
X52025Y756275D02*
D03*
D123*
X72500Y580000D02*
D03*
Y545000D02*
D03*
X72500Y307500D02*
D03*
X72500Y427500D02*
D03*
D124*
X307500Y610000D02*
D03*
Y600000D02*
D03*
Y590000D02*
D03*
X297500Y610000D02*
D03*
Y600000D02*
D03*
Y590000D02*
D03*
X287500Y610000D02*
D03*
Y600000D02*
D03*
Y590000D02*
D03*
X277500Y610000D02*
D03*
Y600000D02*
D03*
Y590000D02*
D03*
X117380Y1082000D02*
D03*
Y1066000D02*
D03*
Y1050000D02*
D03*
Y1034000D02*
D03*
Y1018000D02*
D03*
X252620Y1082000D02*
D03*
Y1066000D02*
D03*
Y1050000D02*
D03*
Y1034000D02*
D03*
Y1018000D02*
D03*
X155000D02*
D03*
X135000D02*
D03*
X175000D02*
D03*
X195000D02*
D03*
X215000D02*
D03*
X235000D02*
D03*
X155000Y1034000D02*
D03*
X135000D02*
D03*
X175000D02*
D03*
X195000D02*
D03*
X215000D02*
D03*
X235000D02*
D03*
X155000Y1050000D02*
D03*
X135000D02*
D03*
X175000D02*
D03*
X195000D02*
D03*
X215000D02*
D03*
X235000D02*
D03*
X155000Y1066000D02*
D03*
X135000D02*
D03*
X175000D02*
D03*
X195000D02*
D03*
X215000D02*
D03*
X235000D02*
D03*
Y1082000D02*
D03*
X215000D02*
D03*
X195000D02*
D03*
X175000D02*
D03*
X135000D02*
D03*
X155000D02*
D03*
D125*
X270000Y272500D02*
D03*
X352500D02*
D03*
Y445000D02*
D03*
X350000Y340000D02*
D03*
Y400000D02*
D03*
X209375Y988125D02*
D03*
X170000Y1192000D02*
D03*
X115000Y840000D02*
D03*
X230000Y917500D02*
D03*
X267500Y817498D02*
D03*
X285000Y847500D02*
D03*
X270000Y747500D02*
D03*
X286000Y803000D02*
D03*
X75000Y770000D02*
D03*
X167500Y585000D02*
D03*
X159000Y904000D02*
D03*
X155000Y985000D02*
D03*
X185000Y987000D02*
D03*
X105000Y925000D02*
D03*
X192500Y1112500D02*
D03*
X162500D02*
D03*
X182500D02*
D03*
X135000Y988000D02*
D03*
X225250Y983500D02*
D03*
X233750Y966750D02*
D03*
X96250Y1088000D02*
D03*
X285000Y857500D02*
D03*
X83000Y1142000D02*
D03*
Y1132000D02*
D03*
X272500Y1142500D02*
D03*
X93000Y1132000D02*
D03*
X86000Y1101250D02*
D03*
X86250Y1088000D02*
D03*
X96300Y1101200D02*
D03*
X275000Y1107500D02*
D03*
X277500Y1085000D02*
D03*
X345000Y962500D02*
D03*
X22500Y777500D02*
D03*
X115000Y865000D02*
D03*
X230000Y512500D02*
D03*
X125000Y47500D02*
D03*
X310000Y54000D02*
D03*
X292000D02*
D03*
X345000Y997500D02*
D03*
X202500Y1112500D02*
D03*
X107500Y97500D02*
D03*
X316000Y813000D02*
D03*
X222000Y405000D02*
D03*
X288000Y1017000D02*
D03*
X175000Y822000D02*
D03*
X197000Y871000D02*
D03*
X290000Y1060000D02*
D03*
X301000Y1017000D02*
D03*
X263000Y579000D02*
D03*
X192500Y585000D02*
D03*
X180000D02*
D03*
X205000D02*
D03*
X170000Y1181000D02*
D03*
X227000Y881000D02*
D03*
X262000Y480000D02*
D03*
X250000D02*
D03*
X163000Y726000D02*
D03*
X161000Y704000D02*
D03*
X163000Y679000D02*
D03*
X335000Y747000D02*
D03*
X217500Y585000D02*
D03*
X147500Y767500D02*
D03*
X287500Y1217500D02*
D03*
Y1230000D02*
D03*
X347500D02*
D03*
Y1215000D02*
D03*
X230000Y930000D02*
D03*
X275000Y1000000D02*
D03*
X217000Y1220000D02*
D03*
X296000Y889000D02*
D03*
X60000Y925000D02*
D03*
X203000Y1204000D02*
D03*
X160000Y1210500D02*
D03*
Y1222500D02*
D03*
Y1234500D02*
D03*
X104000Y478000D02*
D03*
X128000D02*
D03*
Y465000D02*
D03*
X115000D02*
D03*
X116000Y478000D02*
D03*
X140000D02*
D03*
X315000Y1092500D02*
D03*
X267000Y1217000D02*
D03*
X253000Y1143000D02*
D03*
X252500Y1230000D02*
D03*
X283000Y748000D02*
D03*
X185000Y465000D02*
D03*
X85000Y1197500D02*
D03*
X48000Y1041000D02*
D03*
Y1028000D02*
D03*
X106000Y362000D02*
D03*
X180000Y405000D02*
D03*
X196000D02*
D03*
X232500Y260000D02*
D03*
X212500D02*
D03*
X192500D02*
D03*
X172500D02*
D03*
X107500Y302500D02*
D03*
X85000Y67500D02*
D03*
X55000Y70000D02*
D03*
X130000Y160000D02*
D03*
X55000Y172500D02*
D03*
X75000D02*
D03*
X90000Y97500D02*
D03*
X72500D02*
D03*
X255000Y120000D02*
D03*
Y132500D02*
D03*
X345000Y120000D02*
D03*
Y132500D02*
D03*
X62500Y247500D02*
D03*
X45000D02*
D03*
X50000Y1162500D02*
D03*
X277500Y1060000D02*
D03*
X276000Y1033000D02*
D03*
Y1017000D02*
D03*
X341500Y824000D02*
D03*
X95000Y1010000D02*
D03*
X172500Y1112500D02*
D03*
X129000Y1116000D02*
D03*
X47500Y440000D02*
D03*
Y420000D02*
D03*
X155000Y465000D02*
D03*
X215000Y612500D02*
D03*
Y645000D02*
D03*
X117500Y520000D02*
D03*
X130000D02*
D03*
X212000Y753000D02*
D03*
X235000Y690000D02*
D03*
X230000Y522500D02*
D03*
X47500Y525000D02*
D03*
Y562500D02*
D03*
X230000Y562500D02*
D03*
Y532500D02*
D03*
X47500Y542500D02*
D03*
Y580000D02*
D03*
X230000Y502500D02*
D03*
X263189Y702629D02*
D03*
D126*
X237500Y833000D02*
D03*
X227000Y812000D02*
D03*
Y819000D02*
D03*
X223500Y826000D02*
D03*
X241000Y805000D02*
D03*
X227000Y822500D02*
D03*
X230500Y815500D02*
D03*
X227000Y826000D02*
D03*
X237500D02*
D03*
X223500Y812000D02*
D03*
X230500Y826000D02*
D03*
X234000Y815500D02*
D03*
X220000Y833000D02*
D03*
X223500Y819000D02*
D03*
X230500Y812000D02*
D03*
Y819000D02*
D03*
X241000Y815500D02*
D03*
X237500Y836500D02*
D03*
X223500Y822500D02*
D03*
X234000Y826000D02*
D03*
Y822500D02*
D03*
X223500Y815500D02*
D03*
X234000Y812000D02*
D03*
X213000Y805000D02*
D03*
X234000Y819000D02*
D03*
X230500Y822500D02*
D03*
X227000Y815500D02*
D03*
X167500Y565000D02*
D03*
M02*
