G04*
G04 #@! TF.GenerationSoftware,Altium Limited,Altium Designer,19.1.9 (167)*
G04*
G04 Layer_Color=7477623*
%FSLAX44Y44*%
%MOMM*%
G71*
G01*
G75*
%ADD61R,2.4870X1.5500*%
%ADD62R,1.0600X1.3700*%
%ADD63R,1.4000X1.1500*%
%ADD64R,1.7500X1.3500*%
%ADD65R,0.5500X1.5500*%
%ADD66R,1.1500X1.5500*%
%ADD67R,0.7500X0.7500*%
%ADD68R,0.4500X0.4500*%
%ADD69R,1.1500X1.4000*%
%ADD70R,0.6500X0.5500*%
%ADD71R,1.1500X0.7000*%
%ADD72R,0.9000X0.9000*%
%ADD73R,0.4000X0.4000*%
%ADD74R,0.6400X0.4000*%
%ADD75R,0.4000X0.6400*%
%ADD76R,0.6400X0.6400*%
%ADD77R,1.2000X1.1500*%
%ADD78R,2.3500X1.2000*%
%ADD79R,0.4500X0.4500*%
%ADD80R,1.2500X1.1500*%
%ADD81R,3.1500X1.1500*%
%ADD82R,1.1500X1.2000*%
%ADD83R,1.2000X2.3500*%
%ADD84R,0.7500X0.7500*%
%ADD85R,0.6150X0.5250*%
%ADD86R,0.3750X0.5250*%
%ADD87C,0.4500*%
%ADD88R,0.5000X0.7000*%
%ADD89R,2.5500X1.6500*%
%ADD90R,0.6000X1.0000*%
%ADD91R,1.3500X1.7500*%
%ADD92R,0.8500X0.8500*%
%ADD93R,4.4500X3.5500*%
%ADD94R,0.6000X1.1000*%
%ADD95R,1.4000X0.4000*%
%ADD96R,0.3300X0.5000*%
%ADD97C,0.3300*%
%ADD98R,1.4500X1.9500*%
%ADD99R,0.5500X0.6500*%
%ADD100R,1.8500X1.6500*%
%ADD101C,0.2800*%
%ADD102C,2.1500*%
%ADD103R,2.1500X2.1500*%
%ADD104C,1.7500*%
%ADD105C,0.6000*%
%ADD106C,2.3500*%
%ADD107C,0.6500*%
G36*
X294500Y115500D02*
X290000D01*
Y119500D01*
X294500D01*
Y115500D01*
D02*
G37*
G36*
Y110500D02*
X290000D01*
Y114500D01*
X294500D01*
Y110500D01*
D02*
G37*
G36*
X299500Y110000D02*
X295500D01*
Y114500D01*
X299500D01*
Y110000D01*
D02*
G37*
G36*
X294500Y120500D02*
X290000D01*
Y124500D01*
X294500D01*
Y120500D01*
D02*
G37*
G36*
Y125500D02*
X290000D01*
Y129500D01*
X294500D01*
Y125500D01*
D02*
G37*
G36*
X299500D02*
X295500D01*
Y130000D01*
X299500D01*
Y125500D01*
D02*
G37*
G36*
X304500Y110000D02*
X300500D01*
Y114500D01*
X304500D01*
Y110000D01*
D02*
G37*
G36*
X310000Y110500D02*
X305500D01*
Y114500D01*
X310000D01*
Y110500D01*
D02*
G37*
G36*
Y115500D02*
X305500D01*
Y119500D01*
X310000D01*
Y115500D01*
D02*
G37*
G36*
Y125500D02*
X305500D01*
Y129500D01*
X310000D01*
Y125500D01*
D02*
G37*
G36*
X304500D02*
X300500D01*
Y130000D01*
X304500D01*
Y125500D01*
D02*
G37*
G36*
X310000Y120500D02*
X305500D01*
Y124500D01*
X310000D01*
Y120500D01*
D02*
G37*
D61*
X206500Y1157500D02*
D03*
D62*
X44750Y948000D02*
D03*
X12000D02*
D03*
X109775Y655475D02*
D03*
X77025D02*
D03*
D63*
X130000Y967500D02*
D03*
Y947500D02*
D03*
X150000Y967500D02*
D03*
Y947500D02*
D03*
X212000Y767000D02*
D03*
Y787000D02*
D03*
X214000Y967000D02*
D03*
Y947000D02*
D03*
X193000Y967000D02*
D03*
Y947000D02*
D03*
X171000Y967000D02*
D03*
Y947000D02*
D03*
X214000Y926000D02*
D03*
Y906000D02*
D03*
X193000Y925500D02*
D03*
Y905500D02*
D03*
X171000Y925000D02*
D03*
Y905000D02*
D03*
X248000Y724000D02*
D03*
Y704000D02*
D03*
X228000D02*
D03*
Y724000D02*
D03*
X107500Y975000D02*
D03*
Y955000D02*
D03*
X253000Y1158000D02*
D03*
Y1178000D02*
D03*
X273000Y1158000D02*
D03*
Y1178000D02*
D03*
X233000Y1158000D02*
D03*
Y1178000D02*
D03*
X252500Y1197000D02*
D03*
Y1217000D02*
D03*
X232500Y1197000D02*
D03*
Y1217000D02*
D03*
X221000Y372000D02*
D03*
Y392000D02*
D03*
X252500Y292500D02*
D03*
Y272500D02*
D03*
X195000Y372000D02*
D03*
Y392000D02*
D03*
X169000Y372000D02*
D03*
Y392000D02*
D03*
X232500Y292500D02*
D03*
Y272500D02*
D03*
X212500Y292500D02*
D03*
Y272500D02*
D03*
X192500D02*
D03*
Y292500D02*
D03*
X172500D02*
D03*
Y272500D02*
D03*
X160000Y342500D02*
D03*
Y322500D02*
D03*
X270000Y127500D02*
D03*
Y107500D02*
D03*
X330000D02*
D03*
Y127500D02*
D03*
X270000Y165000D02*
D03*
Y145000D02*
D03*
X290000Y165000D02*
D03*
Y145000D02*
D03*
X310000Y165000D02*
D03*
Y145000D02*
D03*
X330000Y165000D02*
D03*
Y145000D02*
D03*
X55000Y107500D02*
D03*
Y87500D02*
D03*
Y140000D02*
D03*
Y160000D02*
D03*
X75000Y140000D02*
D03*
Y160000D02*
D03*
X95000D02*
D03*
Y140000D02*
D03*
X115000D02*
D03*
Y160000D02*
D03*
X45000Y210000D02*
D03*
Y230000D02*
D03*
X90000Y1180500D02*
D03*
Y1160500D02*
D03*
X70000Y1180500D02*
D03*
Y1160500D02*
D03*
X130000Y1180500D02*
D03*
Y1160500D02*
D03*
X110000Y1180500D02*
D03*
Y1160500D02*
D03*
X309000Y824500D02*
D03*
Y844500D02*
D03*
X329000Y824500D02*
D03*
Y844500D02*
D03*
X260000Y445000D02*
D03*
Y465000D02*
D03*
X240000Y445000D02*
D03*
Y465000D02*
D03*
X220000D02*
D03*
Y445000D02*
D03*
X140000D02*
D03*
Y465000D02*
D03*
X200000Y445000D02*
D03*
Y465000D02*
D03*
X133250Y585000D02*
D03*
Y565000D02*
D03*
X152500Y565000D02*
D03*
Y585000D02*
D03*
X360000Y764000D02*
D03*
Y784000D02*
D03*
X283000D02*
D03*
Y764000D02*
D03*
X247500Y610000D02*
D03*
Y590000D02*
D03*
X295000Y687500D02*
D03*
Y667500D02*
D03*
X275000Y512500D02*
D03*
Y532500D02*
D03*
X315000Y512500D02*
D03*
Y532500D02*
D03*
X295000Y512500D02*
D03*
Y532500D02*
D03*
X275000Y687500D02*
D03*
Y667500D02*
D03*
X315000Y687500D02*
D03*
Y667500D02*
D03*
D64*
X80000Y983500D02*
D03*
Y951500D02*
D03*
D65*
X368500Y905000D02*
D03*
D66*
X391000D02*
D03*
D67*
X22000Y791000D02*
D03*
X32000D02*
D03*
X197500Y1125000D02*
D03*
X187500D02*
D03*
X196000Y822500D02*
D03*
X186000D02*
D03*
X274000Y845500D02*
D03*
X264000D02*
D03*
X266000Y805000D02*
D03*
X276000D02*
D03*
X264000Y856000D02*
D03*
X274000D02*
D03*
D68*
X318000Y911000D02*
D03*
Y905000D02*
D03*
X296000Y899000D02*
D03*
Y905000D02*
D03*
X305000Y1097500D02*
D03*
Y1091500D02*
D03*
X289500Y1029500D02*
D03*
Y1035500D02*
D03*
X299500Y1029500D02*
D03*
Y1035500D02*
D03*
X195000Y1184500D02*
D03*
Y1190500D02*
D03*
D69*
X177500Y779500D02*
D03*
X157500D02*
D03*
Y799500D02*
D03*
X177500D02*
D03*
X292500Y67500D02*
D03*
X272500D02*
D03*
X310000D02*
D03*
X330000D02*
D03*
X50000Y1142500D02*
D03*
X70000D02*
D03*
X252500Y412500D02*
D03*
X272500D02*
D03*
X252500Y312500D02*
D03*
X272500D02*
D03*
X252500Y332500D02*
D03*
X272500D02*
D03*
X252500Y352500D02*
D03*
X272500D02*
D03*
X252500Y372500D02*
D03*
X272500D02*
D03*
X252500Y392500D02*
D03*
X272500D02*
D03*
X120000Y382500D02*
D03*
X140000D02*
D03*
X140000Y362500D02*
D03*
X120000D02*
D03*
X120000Y282500D02*
D03*
X140000D02*
D03*
X120000Y302500D02*
D03*
X140000D02*
D03*
Y342500D02*
D03*
X120000D02*
D03*
X140000Y322500D02*
D03*
X120000D02*
D03*
X330000Y87500D02*
D03*
X310000D02*
D03*
X272500D02*
D03*
X292500D02*
D03*
X79525Y680475D02*
D03*
X99525D02*
D03*
X79525Y705475D02*
D03*
X99525D02*
D03*
X79525Y730475D02*
D03*
X99525D02*
D03*
X105000Y67500D02*
D03*
X125000D02*
D03*
X157500Y87500D02*
D03*
X137500D02*
D03*
X157500Y107500D02*
D03*
X137500D02*
D03*
X157500Y127500D02*
D03*
X137500D02*
D03*
X122500Y230000D02*
D03*
X102500D02*
D03*
X122500Y210000D02*
D03*
X102500D02*
D03*
X50000Y1122500D02*
D03*
X70000D02*
D03*
X83000Y1041500D02*
D03*
X63000D02*
D03*
X83000Y1020000D02*
D03*
X63000D02*
D03*
X197500Y522500D02*
D03*
X217500D02*
D03*
X165000Y520000D02*
D03*
X145000D02*
D03*
X197500Y562500D02*
D03*
X217500D02*
D03*
X197500Y542500D02*
D03*
X217500D02*
D03*
X195000Y630000D02*
D03*
X215000D02*
D03*
D70*
X149000Y730000D02*
D03*
X136000D02*
D03*
X150000Y705000D02*
D03*
X137000D02*
D03*
X150500Y680000D02*
D03*
X137500D02*
D03*
X220500Y490000D02*
D03*
X207500D02*
D03*
X220500Y505000D02*
D03*
X207500D02*
D03*
D71*
X64750Y809500D02*
D03*
Y800000D02*
D03*
Y790500D02*
D03*
X85250D02*
D03*
Y800000D02*
D03*
Y809500D02*
D03*
D72*
X245000Y1082000D02*
D03*
Y1018000D02*
D03*
Y1050000D02*
D03*
Y1034000D02*
D03*
Y1066000D02*
D03*
X225000Y1018000D02*
D03*
Y1050000D02*
D03*
Y1034000D02*
D03*
Y1066000D02*
D03*
Y1082000D02*
D03*
X185000Y1018000D02*
D03*
Y1050000D02*
D03*
Y1034000D02*
D03*
Y1066000D02*
D03*
Y1082000D02*
D03*
X205000Y1018000D02*
D03*
Y1050000D02*
D03*
Y1034000D02*
D03*
Y1066000D02*
D03*
Y1082000D02*
D03*
X165000Y1018000D02*
D03*
Y1050000D02*
D03*
Y1034000D02*
D03*
Y1066000D02*
D03*
Y1082000D02*
D03*
X145000D02*
D03*
Y1066000D02*
D03*
Y1034000D02*
D03*
Y1050000D02*
D03*
Y1018000D02*
D03*
X125000D02*
D03*
Y1050000D02*
D03*
Y1034000D02*
D03*
Y1066000D02*
D03*
Y1082000D02*
D03*
D73*
X227500Y1006500D02*
D03*
X222500D02*
D03*
X232500D02*
D03*
X217500D02*
D03*
X167500D02*
D03*
X177500D02*
D03*
X172500D02*
D03*
X182500D02*
D03*
X142500D02*
D03*
X132500D02*
D03*
X137500D02*
D03*
X127500D02*
D03*
X227500Y1093500D02*
D03*
X222500D02*
D03*
X232500D02*
D03*
X217500D02*
D03*
X167500D02*
D03*
X177500D02*
D03*
X172500D02*
D03*
X182500D02*
D03*
X142500D02*
D03*
X132500D02*
D03*
X137500D02*
D03*
X127500D02*
D03*
D74*
X106300Y1005000D02*
D03*
X263700Y1040000D02*
D03*
X106300Y1095000D02*
D03*
Y1090000D02*
D03*
Y1085000D02*
D03*
Y1080000D02*
D03*
Y1075000D02*
D03*
Y1070000D02*
D03*
Y1065000D02*
D03*
Y1060000D02*
D03*
Y1055000D02*
D03*
Y1050000D02*
D03*
Y1045000D02*
D03*
Y1040000D02*
D03*
Y1035000D02*
D03*
Y1030000D02*
D03*
Y1025000D02*
D03*
Y1020000D02*
D03*
Y1015000D02*
D03*
Y1010000D02*
D03*
X263700Y1005000D02*
D03*
Y1010000D02*
D03*
Y1015000D02*
D03*
Y1020000D02*
D03*
Y1025000D02*
D03*
Y1030000D02*
D03*
Y1035000D02*
D03*
Y1045000D02*
D03*
Y1050000D02*
D03*
Y1055000D02*
D03*
Y1060000D02*
D03*
Y1065000D02*
D03*
Y1070000D02*
D03*
Y1075000D02*
D03*
Y1080000D02*
D03*
Y1085000D02*
D03*
Y1090000D02*
D03*
Y1095000D02*
D03*
D75*
X257500Y998800D02*
D03*
X117500D02*
D03*
X122500D02*
D03*
X127500D02*
D03*
X132500D02*
D03*
X137500D02*
D03*
X142500D02*
D03*
X147500D02*
D03*
X152500D02*
D03*
X157500D02*
D03*
X167500D02*
D03*
X172500D02*
D03*
X177500D02*
D03*
X182500D02*
D03*
X187500D02*
D03*
X192500D02*
D03*
X197500D02*
D03*
X202500D02*
D03*
X207500D02*
D03*
X212500D02*
D03*
X217500D02*
D03*
X222500D02*
D03*
X227500D02*
D03*
X232500D02*
D03*
X237500D02*
D03*
X242500D02*
D03*
X247500D02*
D03*
X252500D02*
D03*
X257500Y1101200D02*
D03*
X252500D02*
D03*
X247500D02*
D03*
X242500D02*
D03*
X237500D02*
D03*
X232500D02*
D03*
X227500D02*
D03*
X222500D02*
D03*
X217500D02*
D03*
X212500D02*
D03*
X207500D02*
D03*
X202500D02*
D03*
X197500D02*
D03*
X192500D02*
D03*
X187500D02*
D03*
X182500D02*
D03*
X177500D02*
D03*
X172500D02*
D03*
X167500D02*
D03*
X162500D02*
D03*
X157500D02*
D03*
X152500D02*
D03*
X147500D02*
D03*
X142500D02*
D03*
X137500D02*
D03*
X132500D02*
D03*
X127500D02*
D03*
X122500D02*
D03*
X112500Y998800D02*
D03*
X162500D02*
D03*
X112500Y1101200D02*
D03*
X117500D02*
D03*
D76*
X263700Y998800D02*
D03*
X106300D02*
D03*
X263700Y1101200D02*
D03*
X106300D02*
D03*
D77*
X356750Y980000D02*
D03*
D78*
X372000Y994750D02*
D03*
Y965250D02*
D03*
D79*
X304000Y905000D02*
D03*
X310000D02*
D03*
X282000D02*
D03*
X288000D02*
D03*
X287500Y1075000D02*
D03*
X281500D02*
D03*
X308000D02*
D03*
X302000D02*
D03*
X291500Y1045000D02*
D03*
X297500D02*
D03*
X179500Y1182500D02*
D03*
X185500D02*
D03*
X179500Y1192500D02*
D03*
X185500D02*
D03*
D80*
X23500Y852100D02*
D03*
Y877500D02*
D03*
Y902900D02*
D03*
X141500Y852100D02*
D03*
Y877500D02*
D03*
Y902900D02*
D03*
D81*
X82500Y824500D02*
D03*
Y930500D02*
D03*
D82*
X317000Y1206750D02*
D03*
X188000D02*
D03*
D83*
X302250Y1222000D02*
D03*
X331750D02*
D03*
X173250D02*
D03*
X202750D02*
D03*
D84*
X295000Y1097500D02*
D03*
Y1087500D02*
D03*
X217500Y1197000D02*
D03*
Y1207000D02*
D03*
X207750Y861000D02*
D03*
Y871000D02*
D03*
X227000Y871000D02*
D03*
Y861000D02*
D03*
X258000Y821000D02*
D03*
Y811000D02*
D03*
D85*
X217935Y1145625D02*
D03*
X195065D02*
D03*
Y1169375D02*
D03*
X217935D02*
D03*
D86*
X211500Y1145625D02*
D03*
X206500D02*
D03*
X201500D02*
D03*
Y1169375D02*
D03*
X206500D02*
D03*
X211500D02*
D03*
D87*
X202500Y327500D02*
D03*
Y332500D02*
D03*
Y337500D02*
D03*
Y342500D02*
D03*
Y347500D02*
D03*
Y352500D02*
D03*
X207500Y327500D02*
D03*
Y332500D02*
D03*
Y337500D02*
D03*
Y342500D02*
D03*
Y347500D02*
D03*
Y352500D02*
D03*
X212500Y327500D02*
D03*
Y332500D02*
D03*
Y337500D02*
D03*
Y342500D02*
D03*
Y347500D02*
D03*
Y352500D02*
D03*
X217500Y327500D02*
D03*
Y332500D02*
D03*
Y337500D02*
D03*
Y342500D02*
D03*
Y347500D02*
D03*
Y352500D02*
D03*
X222500Y327500D02*
D03*
Y332500D02*
D03*
Y337500D02*
D03*
Y342500D02*
D03*
Y347500D02*
D03*
Y352500D02*
D03*
D88*
X72000Y88000D02*
D03*
X78000D02*
D03*
X84000D02*
D03*
X90000D02*
D03*
X96000D02*
D03*
X102000D02*
D03*
X108000D02*
D03*
X72000Y107000D02*
D03*
X78000D02*
D03*
X84000D02*
D03*
X90000D02*
D03*
X96000D02*
D03*
X102000D02*
D03*
X108000D02*
D03*
D89*
X72791Y220659D02*
D03*
D90*
X62791Y206159D02*
D03*
X72791D02*
D03*
X82791D02*
D03*
X62791Y235159D02*
D03*
X72791D02*
D03*
X82791D02*
D03*
D91*
X81000Y1065000D02*
D03*
X49000D02*
D03*
D92*
X278000Y815000D02*
D03*
Y827000D02*
D03*
X294000D02*
D03*
Y815000D02*
D03*
D93*
X292500Y600000D02*
D03*
D94*
X311550Y638700D02*
D03*
X298850D02*
D03*
X286150D02*
D03*
X273450D02*
D03*
X311550Y561300D02*
D03*
X298850D02*
D03*
X286150D02*
D03*
X273450D02*
D03*
D95*
X170000Y467500D02*
D03*
D96*
X176000Y472500D02*
D03*
X172000D02*
D03*
X168000D02*
D03*
X164000D02*
D03*
X176000Y462500D02*
D03*
X172000D02*
D03*
X168000D02*
D03*
X164000D02*
D03*
D97*
X167500Y565000D02*
D03*
X171500D02*
D03*
X167500Y561000D02*
D03*
X171500D02*
D03*
X167500Y557000D02*
D03*
X171500D02*
D03*
D98*
X140500Y497500D02*
D03*
X169500D02*
D03*
X140500Y630000D02*
D03*
X169500D02*
D03*
D99*
X117000Y529000D02*
D03*
Y542000D02*
D03*
D100*
X308500Y762000D02*
D03*
X333500D02*
D03*
Y784000D02*
D03*
X308500D02*
D03*
D101*
X244500Y833000D02*
D03*
Y829500D02*
D03*
Y826000D02*
D03*
Y822500D02*
D03*
Y819000D02*
D03*
Y815500D02*
D03*
Y812000D02*
D03*
Y808500D02*
D03*
Y805000D02*
D03*
X241000Y829500D02*
D03*
Y826000D02*
D03*
Y822500D02*
D03*
Y819000D02*
D03*
Y815500D02*
D03*
Y812000D02*
D03*
Y808500D02*
D03*
Y805000D02*
D03*
X237500Y826000D02*
D03*
Y822500D02*
D03*
Y819000D02*
D03*
Y815500D02*
D03*
Y812000D02*
D03*
Y808500D02*
D03*
Y805000D02*
D03*
X234000Y829500D02*
D03*
Y826000D02*
D03*
Y822500D02*
D03*
Y819000D02*
D03*
Y815500D02*
D03*
Y812000D02*
D03*
Y808500D02*
D03*
Y805000D02*
D03*
X230500Y836500D02*
D03*
Y833000D02*
D03*
Y829500D02*
D03*
Y826000D02*
D03*
Y822500D02*
D03*
Y819000D02*
D03*
Y815500D02*
D03*
Y812000D02*
D03*
Y808500D02*
D03*
Y805000D02*
D03*
X227000Y836500D02*
D03*
Y833000D02*
D03*
Y829500D02*
D03*
Y826000D02*
D03*
Y822500D02*
D03*
Y819000D02*
D03*
Y815500D02*
D03*
Y812000D02*
D03*
Y808500D02*
D03*
Y805000D02*
D03*
X223500Y836500D02*
D03*
Y833000D02*
D03*
Y829500D02*
D03*
Y826000D02*
D03*
Y822500D02*
D03*
Y819000D02*
D03*
Y815500D02*
D03*
Y812000D02*
D03*
Y808500D02*
D03*
Y805000D02*
D03*
X220000Y836500D02*
D03*
Y833000D02*
D03*
Y826000D02*
D03*
Y822500D02*
D03*
Y819000D02*
D03*
Y815500D02*
D03*
Y812000D02*
D03*
Y808500D02*
D03*
Y805000D02*
D03*
X216500Y836500D02*
D03*
Y833000D02*
D03*
Y829500D02*
D03*
Y826000D02*
D03*
Y822500D02*
D03*
Y819000D02*
D03*
Y815500D02*
D03*
Y812000D02*
D03*
Y808500D02*
D03*
Y805000D02*
D03*
X213000Y836500D02*
D03*
Y833000D02*
D03*
Y829500D02*
D03*
Y826000D02*
D03*
Y822500D02*
D03*
Y819000D02*
D03*
Y815500D02*
D03*
Y812000D02*
D03*
Y808500D02*
D03*
X244500Y836500D02*
D03*
X237500Y833000D02*
D03*
Y836500D02*
D03*
X213000Y805000D02*
D03*
D102*
X25000Y1078700D02*
D03*
Y1053300D02*
D03*
Y1002500D02*
D03*
Y1027900D02*
D03*
X52025Y756275D02*
D03*
Y730875D02*
D03*
Y680075D02*
D03*
Y705475D02*
D03*
D103*
X25000Y977100D02*
D03*
X52025Y654675D02*
D03*
D104*
X192500Y67500D02*
D03*
X97500Y1220000D02*
D03*
X32500D02*
D03*
X65000D02*
D03*
X130000D02*
D03*
X192500Y197500D02*
D03*
Y230000D02*
D03*
X287500Y285000D02*
D03*
X325000D02*
D03*
Y317500D02*
D03*
Y350000D02*
D03*
Y382500D02*
D03*
Y415000D02*
D03*
X357500Y157500D02*
D03*
X242500D02*
D03*
X352500Y207500D02*
D03*
X320000D02*
D03*
X255000D02*
D03*
X287500D02*
D03*
X192500Y165000D02*
D03*
Y132500D02*
D03*
Y100000D02*
D03*
X345000Y680000D02*
D03*
Y647500D02*
D03*
Y615000D02*
D03*
Y582500D02*
D03*
Y550000D02*
D03*
Y517500D02*
D03*
X287500Y437500D02*
D03*
X366000Y812000D02*
D03*
D105*
X215500Y1160500D02*
D03*
Y1154500D02*
D03*
X209500Y1160500D02*
D03*
Y1154500D02*
D03*
X203500Y1160500D02*
D03*
Y1154500D02*
D03*
X197500Y1160500D02*
D03*
Y1154500D02*
D03*
D106*
X72500Y615000D02*
D03*
Y580000D02*
D03*
Y545000D02*
D03*
X72500Y377500D02*
D03*
Y342500D02*
D03*
Y307500D02*
D03*
X72500Y497500D02*
D03*
Y462500D02*
D03*
Y427500D02*
D03*
D107*
X67791Y215659D02*
D03*
Y225659D02*
D03*
X77791Y215659D02*
D03*
Y225659D02*
D03*
M02*
